<?xml version="1.0" encoding="UTF-8"?>
<svg id="Layer_2" data-name="Layer 2" xmlns="http://www.w3.org/2000/svg" viewBox="0 0 697.62 478.84">
  <defs>
    <style>
      .cls-1 {
        fill: #fff;
      }

      .cls-2 {
        fill: #fff6f6;
      }

      .cls-3 {
        opacity: .5;
      }

      .cls-3, .cls-4 {
        fill: #f9cb00;
      }

      .cls-5 {
        opacity: .09;
      }
    </style>
  </defs>
  <g id="Layer_1-2" data-name="Layer 1">
    <g>
      <path class="cls-4" d="m0,0v1.18c3.95.13,7.31.23,7.29.23-.2-.08-3.37-.68-7.29-1.41Z"/>
      <path class="cls-4" d="m63.08,18.64c2.46-1.9.75-6.98-3.4-9.9-.26-.18-.53-.33-.8-.48-.38-.16-.74-.35-1.07-.58-.06,0-.12,0-.18,0-3.39-1.24-7.74-.79-11.91-.37C31.76,6.32,14.58,3.7,0,1.61v13.57c7.67,1.54,17.21,2.45,21.95,3.54,13.29,3.05,26.48-.33,38.82,4.1,1-.02,2.01,0,3.02.06-1.07-1.25-2.28-3.03-.7-4.24Zm-25.01-11.04c-1.3-.14.31-.07,3.16.07-1.11.04-2.18.04-3.16-.07Z"/>
      <path class="cls-4" d="m288.47,157.03c-4.01,5.5-11.07,10.93-16.23,16.66-.89,9.06-2.93,18.2-.76,27.07,1.18-2,2.03-3.42,2.13-3.53,1.36-2.38,2.03-4.58,4.08-6.15.41-.31,3.44-3.29,3.37-3.75-.05-.33,7.99-7.06,8.16-7.21,7.62-6.55,5.66-8.12,14.01-14.26.09-.11.61-.5,1.41-1.07,1.95-4.59,3.93-9.18,5.86-13.78,1.71-4.05,3.5-8.05,5.56-11.92-10.47,5.74-22.72,11.26-27.6,17.94Z"/>
      <path class="cls-4" d="m265.57,196.25c.36,3.06,1.04,5.84,2.27,8.15,4,7.46,5.14,18.27,9.81,25.82.22.36.47.74.72,1.14,1.88.11-.37-2.08.02.03.07.37,4.11,3.9,4.2,4.26,6.92,4.57,13.84,8.93,19.41,14.69,1.63.53,3.25,1.08,4.86,1.67-1.24-1.65-2.45-3.27-3.63-4.82,1.96,1.98,4.02,4.06,5.42,5.48.28.11.56.22.84.33-2.66-4.04-10.35-15.34-10.49-15.72-1.58-2.29-3.36-3.98-3.76-6.29-.08-.46-1.31-4.25-1.8-4.46-.35-.15-2.46-9.54-2.51-9.74-2.17-8.99-4.81-8.5-6.16-17.78-.23-.52-1.03-8.29-1.68-15.26-5.78,4.22-11.64,8.38-17.53,12.49Z"/>
      <path class="cls-4" d="m288.31,213.12c-.75-1.12-1.82-2.31-3.28-3.46.01.09.03.16.04.25.59.61,1.72,1.73,3.24,3.21Z"/>
      <path class="cls-4" d="m442.3,283.09c-.78-.01-1.59-.05-2.43-.09-3.25-1.48-7.63-1.35-11.83-1.23-15.04-2.17-33.72-6.55-48.77-9.79,5.3.55,11.1,1.16,11.08,1.15-.5-.25-21.7-5.71-22.19-5.95-3-.76-5.68-.97-7.84-2.43-.43-.29-4.4-2.35-4.92-2.22-.38.09-9.52-5.55-9.72-5.67-8.87-5.32-10.4-3.44-18.9-9.43-.7-.3-10.33-7.63-16.97-12.8-7.45-7.87-16.54-16.65-21.51-21.51,4.08,6.1-1.22,10.33-3.24-3.21-.3-.31-.45-.48-.44-.52-1.57-1.12-6.85-5.26-9.3-7.1-1.39,12.35,6.67,23.8,13.55,34.59,9.89,8.28,19.75,20.68,29.91,24.24,8.96,3.14,18.54,10.38,28.08,13.2,6.8,2.01,19.85,4.72,26.32,8.73,6.2,3.84,23.28,6.29,30.04,8.38,13.71,4.23,28.05,1.23,40.38,7.88,5.4,2.91-2.93-2.72.61-5.01,2.64-1.71,1.45-6.9-2.38-10.11-.27-.23-.56-.42-.86-.61,1.57.04,2.25-.08,1.34-.5Zm-21.9-1.58c-1.28-.24.32-.05,3.14.3-1.11-.04-2.17-.12-3.14-.3Z"/>
      <path class="cls-4" d="m315.27,66.78c-11.33-3.38-23.89-19.31-35.39-22.28-7.55-1.95-16-7.18-23.99-8.83-5.7-1.18-16.53-2.51-22.15-5.33-5.38-2.7-19.46-3.55-25.13-4.79-8.08-1.77-16.08-.64-23.8-1.39-.78.48-1.67.71-2.67.88-.02,0-.04,0-.06,0-1.29.25-2.57.55-3.86.81-1.09.22-2.07.28-3.08.07,0,0,0,0-.01.01-1.98,1.56-.53,5.69,2.87,8.04.24.17.5.31.76.44-1.28.07-1.81.22-1.04.49.63-.04,1.3-.07,1.98-.09,2.78.99,6.31.59,9.7.21,12.4.76,27.94,3.07,40.44,4.7-4.35-.1-9.11-.2-9.09-.2.43.17,18.12,3.18,18.55,3.35,2.51.42,4.69.41,6.58,1.45.37.21,3.78,1.61,4.2,1.47.3-.1,8.24,3.86,8.41,3.95,7.69,3.72,8.75,2.1,16.2,6.39.59.19,9.09,5.5,14.95,9.25,6.77,5.88,14.96,12.4,19.45,16-3.87-4.67.03-8.46,2.93,2.39.27.23.41.37.41.39,1.61.93,7.85,4.98,9.1,5.67.09.06.15.09.18.09.19.08.98-.01,1.19-.01.74,0,.26-.53-.74-1.26.41-.01.81-.16,1.07-.46.13-.15.25-.3.38-.45.37-.19.64-.52,1.12-.55,4.33-.28,6.36-2.08,4.72-5.25-.95-1.83-2.19-3.78-4.16-5.29-.19-.15-.4-.23-.61-.28-2.79-3.69-7.17-8.51-9.15-9.51-.07-.04-.14-.06-.22-.09Zm-122.25-32.08c.9-.04,1.77-.05,2.57.03,1.06.11-.25.06-2.57-.03Z"/>
      <path class="cls-4" d="m298.79,163.68c-1,.26-2.1.7-3.22,1.37.07,0,.13,0,.2.01.57-.24,1.62-.73,3.02-1.38Z"/>
      <path class="cls-4" d="m310.42,80.24c.18.51.36,1.01.53,1.51-.29-.56-.59-1.12-.88-1.67-.4-.19-.81-.38-1.22-.56,1.09,3.81,2.67,9.24,2.68,9.46.53,1.76,1.33,3.17,1.08,4.76-.05.32-.09,3.02.19,3.23.2.16-.51,6.7-.52,6.84-.58,6.29,1.27,6.38.09,12.73.04.45-1.68,7.84-2.95,12.96-2.86,6.48-5.79,14.11-7.42,18.3,2.82-4.18,7.65-3.05-1.1,2.75-.11.26-.18.4-.21.4-.26,1.37-1.66,6.86-1.83,7.9-.02.08-.03.13-.02.15,0,.15.37.63.44.76.27.48.58-.02.87-.93.16.26.44.46.81.52.18.03.36.06.54.08.3.17.7.23.9.52,1.82,2.68,4.18,3.34,6.45,1.14,1.31-1.27,2.62-2.78,3.27-4.59.06-.18.07-.34.03-.49,2.32-3.13,5.09-7.69,5.28-9.33,0-.06,0-.12,0-.17-1.05-8.51,8.8-22.36,7.32-30.83-.97-5.57.7-12.89-.7-18.63-.69-2.82-2.19-7.22-2.89-11.21-3.51-1.96-7.08-3.86-10.74-5.6Z"/>
      <path class="cls-4" d="m207.43,27.66c-2.21-1.59-4.83-3.17-7.97-3.94-.31-.08-.59-.08-.84-.03-5.44-2.79-13.36-6.12-16.18-6.32-.1,0-.19,0-.3,0-9.99.45-21.66-3.13-32.31-5.84-3.89-.75-7.76-.58-11.79-.37-4.6.24-9.1.06-13.7-.12-10.35-.42-20.65-.4-30.81,1.51-1.78.33-3.27-.06-4.36-.83-1.91.41-3.92.83-5.95,1.22-.07,3.41-.15,6.78-.14,10.11.38.09.75.21,1.1.36.04.02.07.04.1.05,1.83.09,3.64.21,5.34.78.53-.03,1.06-.04,1.61.01.54.06,5.2.05,5.57-.29.26-.25,11.56.51,11.8.52,10.86.6,10.99-1.68,21.95-.34,1.18-.09,29.98,4.51,30.82,4.89.55.24,10.3,3.3,10.83,3.01.38-.21.92-.5,1.56-.86,4.57,1.12,8.71,2.1,11.9,2.86.92-.28,1.91-.33,2.85-.02,3.67,1.24,7.7.88,11.57,1.28,1.7.17,3.39.42,5.07.69.11-.16.24-.31.45-.41,4.59-2.28,5.68-5.2,1.85-7.94Z"/>
      <path class="cls-3" d="m228.13,40.1c-5.79-2.45-6.06-5.48,0,0h0Z"/>
      <path class="cls-4" d="m89.06,9.35c-13.7-2.5-26.88,1.63-39.68-2.59-.87.24-1.75.23-2.58.05,1.18,1.2,2.79,3.07,1.19,4.44-2.34,2-.32,7,4.01,9.74.31.19.63.35.95.51-.02,0-.03,0-.04,0,.32.13.63.29.91.47.1,0,.2-.01.3-.02,3.47,1.09,7.78.45,11.92-.15,11.67.31,25.66,1.65,38.5,2.93.24-.29.51-.55.84-.79.02-.07.05-.13.06-.2,1.12-3.94,2.68-8.23,2.09-12.32-6.91-.85-14.41-1.32-18.47-2.06Zm-18.57,11.9c1.1-.09,2.17-.14,3.16-.07,1.31.08-.3.08-3.16.07Z"/>
      <path class="cls-4" d="m12.3,3.73c-.62-.2-1.25-.4-1.91-.48-.58-.07-1.17-.03-1.76-.06-.66-.03-1.32-.13-1.97-.23-2.22-.35-4.44-.7-6.66-1.05v.12l20.36,4.71c-.92-.37-1.82-.78-2.75-1.15-1.73-.7-3.53-1.28-5.32-1.86Z"/>
      <path class="cls-4" d="m30.05,8.98l-9.69-2.24c.91.37,1.83.71,2.8.96,2.25.58,4.67.64,6.9,1.28Z"/>
      <path class="cls-4" d="m303.26,74.65c1.36.7,2.59,1.56,3.82,2.41.23.16.47.32.63.53.13.17.22.35.33.53.49.81,1.44,1.38,1.84,2.22-.34-.03-.58-.29-.78-.53-.91-1.06-1.97-2.03-3.15-2.89.88.51,1.36,1.4,2.2,1.97.3.2.64.36.95.56.43.28.78.63,1.16.95,1.16.99,2.6,1.74,4.16,2.19"/>
      <path class="cls-4" d="m290.42,59.32c-.68-.5-1.47-.9-2.32-1.17-.55-.17-1.13-.29-1.67-.48-.61-.22-1.17-.54-1.76-.8-.8-.34-1.66-.56-2.48-.86-2.61-.96-4.65-2.74-7.07-4.01-1-.53-2.07-.97-3.05-1.54s-1.87-1.28-2.35-2.2"/>
      <path class="cls-4" d="m278.25,172.47c-1.22,1.49-3.17,2.47-4.34,3.99-.5.65-.84,1.37-1.13,2.1-.76,1.89-1.24,3.85-1.96,5.76-.57,1.52-1.3,2.99-1.72,4.54-.35,1.28-.48,2.6-.62,3.92-.08.8-.16,1.6-.12,2.4.08,1.64.67,3.22,1.34,4.76"/>
      <path class="cls-4" d="m278.24,172.62c.65-.52,1.43-.9,2.21-1.28.98-.47,1.96-.94,2.94-1.41.67-.32,1.35-.65,2.03-.96,3.03-1.39,6.22-2.54,9.5-3.44.67-.18,1.35-.36,2.04-.46.78-.12-19.51,7.58-18.72,7.55Z"/>
      <path class="cls-4" d="m267.94,195.37c.01-.52.12-1.03.22-1.54.05-.22.09-.44.16-.66.09-.3.23-.59.37-.88.14-.3.28-.59.42-.89.26-.56.52-1.12.93-1.61.19-.23.41-.44.63-.65.36-.35.72-.69,1.07-1.04"/>
      <path class="cls-4" d="m298.26,173.95c-3.15,1.41-6.04,3.72-8.38,6.19s-4.2,5.13-6.01,7.76c-.84,1.22-1.67,2.45-2.34,3.69-.65,1.2-1.15,2.39-1.6,3.58-.88,2.35-1.55,4.7-1.56,6.84"/>
      <path class="cls-4" d="m319.58,81.83l1.83,2.72c1.1,1.63,2.21,3.3,2.66,5.13.49,2,.17,4.08.38,6.11.08.82.25,1.63.28,2.45.03,1.06-.17,2.1-.38,3.15-.5,2.51-.99,5.03-1.49,7.54"/>
      <path class="cls-4" d="m324.43,132.87l-1.59,2c-.34.43-.69.87-.94,1.34-.36.68-.53,1.42-.83,2.12-.32.76-.8,1.46-1.18,2.2-1.04,2.04-1.3,4.35-2.6,6.28"/>
      <path class="cls-4" d="m316.34,90.32c1.96,1.26,3.81,2.63,5.53,4.1,2.57,2.2,4.98,4.88,5.03,7.96.02.91-.18,1.8-.37,2.69-.44,2.06-.89,4.13-1.7,6.11-.44,1.08-.99,2.12-1.54,3.16-.96,1.83-1.93,3.66-2.89,5.49"/>
      <path class="cls-4" d="m315.32,78.7c-2.4-1.33-5.25-2.06-8.12-2.08"/>
      <path class="cls-4" d="m327.02,84.9c-.07,2.12-.14,4.24.03,6.32.14,1.67.45,3.3.57,4.98.14,1.95.04,3.93-.09,5.9-.31,4.85-.74,9.69-1.16,14.54-.1,1.17-.21,2.35-.34,3.52-.21,1.76-.49,3.52-.77,5.28-.29,1.78-.57,3.56-.86,5.34-.14.89-.41,1.96-1.13,2.24"/>
      <path class="cls-4" d="m323.17,123.23c.77,1.48.83,3.17.51,4.76s-1.01,3.11-1.69,4.62c-.79,1.74-1.58,3.49-2.65,5.12-1.02,1.56-2.28,3-3.56,4.42-1.55,1.72-3.14,3.42-4.76,5.09-.99,1.03-2,2.05-3.11,2.98-1.11.94-2.31,1.79-3.42,2.73-1.07.92-2.04,1.91-2.98,2.93-1.13,1.24-2.21,2.5-3.23,3.81"/>
      <path class="cls-4" d="m298.5,172.7c1.15-1.05,2.09-2.24,3.04-3.43,3.13-3.94,6.26-7.88,9.39-11.83,1.1-1.39,2.22-2.79,2.94-4.35.48-1.03.79-2.12,1.21-3.17,1.06-2.67,2.85-5.27,2.58-8.07"/>
      <path class="cls-4" d="m299.42,173.47c4.82-4.9,8.96-10.24,13.1-15.57,1.45-1.87,2.9-3.74,3.99-5.78.58-1.08,1.04-2.2,1.51-3.32,1.62-3.87,3.24-7.74,4.85-11.62.16-.38.32-.77.36-1.18.04-.42-.05-.84-.13-1.26-.42-2.16-.56-4.37-.39-6.56"/>
    </g>
    <g id="D9vOuq.tif" class="cls-5">
      <g>
        <path class="cls-1" d="m364.66,312.33c.87-1.12,1.44-1.68,1.8-2.36,5.3-9.67,11.06-19.12,15.68-29.11,3-6.47,7.89-9.93,14.08-11.21,15.04-3.11,30.08-3.39,43.87,4.82,7.59,4.52,14.33,10.18,18.96,17.99,1.28,2.16,3.23,3.95,4.36,6.17.85,1.68,1.32,3.81,1.19,5.68-.38,5.41-1.55,10.78-1.7,16.18-.54,19-.7,38.01-1.25,57.01-.08,2.82-1.09,5.78-2.35,8.35-1.63,3.34-4.35,3.82-7.26,1.54-2.38-1.86-4.69-3.9-6.65-6.19-6.01-7.01-13.87-11.24-22.23-14.32-18.85-6.94-38.4-9.33-58.48-7.92-8.02.56-15.87,1.47-23.45,4.38-3.96,1.52-7.11-.27-8.69-4.28-8.55-21.78-24.34-35.2-47-40.71-9.82-2.39-19.6-4.95-29.43-7.28-3.33-.79-6.83-.9-10.16-1.69-5.96-1.41-7.33-4.26-4.56-9.76,1.63-3.23,3.73-6.25,5.84-9.22,5.04-7.08,10.17-14.11,15.37-21.07,1.55-2.07,2.14-4.05.99-6.45-3.46-7.18-6.08-14.85-11.53-20.88-2.26-2.5-4.98-4.59-7.5-6.86-.6-.54-1.39-.93-1.82-1.57-6.62-9.88-16.48-15.61-27.13-19.56-12.01-4.46-24.47-7.75-36.8-11.31-4.16-1.2-8.52-1.68-12.79-2.46-2.11-.39-2.9,1.05-3.41,2.68-1.74,5.6-3.44,11.21-5.14,16.82-2.82,9.28-5.79,18.53-8.37,27.88-1.42,5.14-.65,5.99,4.72,7.2,8.06,1.81,15.66,4.69,22.66,9.18,9.14,5.86,15.75,13.41,17.98,24.43,1.16,5.73,2.91,11.35,4.77,16.9.48,1.44,2.18,2.92,3.67,3.5,5.27,2.07,10.73,3.64,16.03,5.64,2.21.83,4.13,2.39,6.31,3.33.73.32,2.21.11,2.7-.44,3.15-3.51,6.79-3.58,11.09-2.58,7.66,1.79,15.46,2.95,23.13,4.65,9.96,2.21,19.86,4.67,29.78,7.06,6.8,1.64,11.97,5.75,16.22,11.1,3.02,3.8,5.9,7.71,8.77,11.62,5.13,7,7.2,15.33,9.89,23.35,1.62,4.83.8,9.85-.7,14.65-1.45,4.63-2.77,9.36-4.75,13.76-3.44,7.63-9.1,13.6-16.77,16.79-11.56,4.81-23.44,9.27-36.24,8.69-9.76-.44-19.49-1.79-29.22-2.86-3.01-.33-5.61-1.64-7.36-4.31-.37-.57-1.02-.97-1.54-1.44-2.9-2.6-5.91-5.1-8.67-7.84-2.18-2.16-2.8-2.36-4.3.19-5.34,9.06-13.66,14.78-22.42,19.91-4.52,2.64-9.33,4.81-14.12,6.96-7.44,3.34-15.2,4.73-23.38,3.4-11.08-1.79-22.22-3.22-33.27-5.17-10.89-1.92-20.73-6.72-30.37-11.95-8.18-4.43-16.39-8.81-24.6-13.18-4.16-2.21-7.07-5.41-9.17-9.72-1.97-4.02-4.65-7.73-7.24-11.41-4.41-6.27-9.59-12.07-13.37-18.68-5.57-9.72-10.04-19.97-13.57-30.74-6.44-19.64-4.93-39.18-2.02-59.09,2.78-18.98,12.94-33.9,24.17-48.45,2.1-2.72,4.44-5.27,6.46-8.05,5.89-8.11,13.76-13.58,22.31-18.7,15.98-9.58,33.58-12.06,51.52-14.4,10.74-1.4,21.24-.57,31.71.89,9.07,1.27,18.06,3.44,26.91,5.86,10.04,2.75,19.94,6.04,29.78,9.43,12.17,4.19,22.82,10.78,30.98,20.97.19.24.36.51.61.67,9.76,6.41,15.02,16.11,19.39,26.46.2.47.46.9.67,1.36,1.04,2.26,2.23,2.05,3.44.17,3.22-5.02,6.83-9.86,9.51-15.15,3.57-7.05,9.72-9.99,16.66-11.96,13.8-3.92,27.34-1.68,40.03,3.76,10.16,4.35,18.28,11.93,23.13,22.28,2.91,6.22,2.63,12.64-.06,18.82-4.07,9.35-8.44,18.58-12.67,27.86-1.35,2.96-.88,3.51,2.29,3.32,5.62-.34,10.75.61,14.11,6.59Zm-173.51,24.92c2.6-6.04,3.34-12.49,2.75-19.17-.24-2.69-1.23-4.26-4.07-4.72-4.09-.66-8.14-1.57-12.19-2.46-1.57-.34-3.32-.6-4.56-1.49-1.03-.74-2.04-2.43-1.9-3.56.11-.88,1.92-1.7,3.11-2.24.64-.29,1.59.03,2.38.18,3.78.71,7.54,1.48,11.32,2.18,3.91.73,4.36.26,3.28-3.68-1.38-5.06-2.99-10.07-4.32-15.14-1.39-5.3-4.32-9.53-8.45-13-7.9-6.66-16.96-10.86-27.07-12.98-4.19-.88-4.58-.75-5.35,3.55-.53,2.97-1.1,5.98-2.07,8.83-.66,1.93-2.18,3.81-4.58,2.99-2.36-.8-2.31-3.05-1.95-5.15.12-.69.41-1.36.56-2.05.48-2.27.9-4.56,1.41-6.82.67-3.01-.65-4.79-3.53-5.2-3.99-.57-8.11-1.61-12.01-1.11-12.04,1.53-23.43,5.27-33.13,12.86-2.81,2.2-5.14,5.13-7.31,8.01-1.83,2.44-1.26,3.35,1.75,4.15,4,1.07,8.02,2.08,11.98,3.31,2.09.65,4.22,1.84,3.41,4.52-.81,2.7-3.12,2.35-5.31,1.8-4.61-1.16-9.24-2.24-13.83-3.44-2.32-.61-3.96-.05-4.87,2.27-4.47,11.52-7.54,23.38-6.73,35.8.39,5.95.68,12.4,5.07,17.14,6.11,6.6,11.51,14.3,21.33,16.07.58.1,1.1.51,1.64.77,4.02,1.89,7.99,3.93,12.09,5.61,3.18,1.31,4.21.61,5-2.63,2.17-8.94,4.34-17.88,6.49-26.83.78-3.24,2.34-4.82,4.42-4.35,2.05.46,2.94,2.67,2.33,5.81-.1.5-.23.98-.35,1.48-2.16,8.84-4.29,17.68-6.52,26.51-.6,2.37-.22,3.94,2.37,4.61,6.82,1.75,13.47,2,20.18-.9,9.18-3.97,18.66-7.25,27.79-11.33,9.02-4.04,17.08-9.35,19.44-20.19Zm126.31,54.79c.65-1.91,1.61-3.78,1.89-5.75.54-3.76,1.65-7.81.84-11.34-3.19-13.77-10.12-25.63-20.02-35.78-3.61-3.69-7.88-5.92-12.83-7.03-8.18-1.83-16.35-3.7-24.54-5.45-8.58-1.84-17.16-3.66-25.79-5.22-1.42-.26-3.38.52-4.58,1.46-2.28,1.8-4.09,4.2-6.29,6.13-8.19,7.23-11.85,16.8-12.37,27.18-.77,15.48.71,30.76,9.41,44.38,3.7,5.8,7.62,11.21,14.96,12.81,2.04.44,4.38,1.08,5.79,2.45,2.62,2.53,5.65,2.88,8.91,3.05,3.94.21,7.88.44,11.81.69,6.83.43,13.54-.19,20.08-2.29,2.31-.74,4.58-1.65,6.94-2.16,13.03-2.81,21.97-10.12,25.79-23.14Zm-95.24-69.32c-6.61-2.26-12.68-4.4-18.81-6.38-1.92-.62-2.32.77-2.5,2.41-.63,5.9-1.19,11.82-2.11,17.68-2.1,13.39-11.31,21.2-22.54,26.63-9.71,4.69-20.07,8.01-30.04,12.2-7.53,3.17-15.11,3.33-22.88,1.43-3.78-.93-4.07-.78-4.93,2.97-3.09,13.39-6.15,26.79-9.29,40.17-.48,2.04.01,3.36,2,4.06,8,2.85,15.96,5.8,24.53,6.66,4.72.47,9.39,1.46,14.11,1.99,6.6.75,13.19,2.67,19.87.91,13.33-3.52,25.07-10.04,35.45-19.08,3.84-3.34,6.45-7.44,8.24-12.16.92-2.43.62-4.59-.36-7-1.7-4.18-3.54-8.46-4.23-12.87-1.14-7.26-1.66-14.65-1.98-22.01-.46-10.53,2.96-20.12,8.38-28.97,1.81-2.96,4.42-5.43,7.08-8.64Zm-174.79-50.76c-.04.19-.09.39-.13.58,7.66,1.79,15.36,3.47,22.98,5.43,3.13.81,4.9-.08,6.35-2.88,2.99-5.78,7.33-10.38,12.98-13.68,6.08-3.56,12.3-6.6,19.11-8.84,9.52-3.13,18.79-4.61,28.54-2.01,2.7.72,4.22-.31,4.84-3.04.89-3.94,1.75-7.91,2.95-11.76,3.32-10.71,6.82-21.38,10.24-32.06.18-.58.35-1.16.5-1.75.5-2.04-.11-3.53-2.33-3.69-5.94-.43-11.94-1.41-17.81-.91-9.84.84-19.65,2.41-29.39,4.14-14.08,2.51-26.73,8.5-37.62,17.74-4.19,3.55-7.56,8.08-11.24,12.22-8.37,9.43-15.25,19.87-21.16,30.99-2.18,4.1-1.86,5.02,2.59,6.58,2.86,1,5.74,1.96,8.61,2.94Zm-.73,7.33c.04-.15.07-.3.11-.45-3.73-1.27-7.46-2.56-11.2-3.82-2.15-.72-3.57-.06-4.01,2.26-3.69,19.39-6.02,38.65.16,58.16,3.32,10.49,7.26,20.64,12.71,30.09,3.81,6.6,8.9,12.45,13.26,18.74,3.02,4.37,5.6,9.05,8.69,13.36,1.76,2.46,3.8,5.08,6.34,6.57,7.75,4.55,15.81,8.56,23.71,12.85,5.07,2.75,6.3,2.26,7.54-3.48,1.53-7.01,2.95-14.05,4.46-21.07,1.12-5.24,2.32-10.46,3.45-15.7.41-1.92.21-3.62-1.92-4.54-4.54-1.96-8.89-4.6-13.61-5.85-9.53-2.52-17.02-7.66-22.96-15.37-1.1-1.43-2.72-2.49-3.72-3.98-1.56-2.31-3.27-4.7-4.1-7.31-2.87-8.99-3.88-18.27-1.94-27.55,1.62-7.79,3.95-15.43,6.06-23.12.96-3.51.65-4.05-2.72-4.85-6.78-1.59-13.53-3.3-20.29-4.96Z"/>
        <path class="cls-1" d="m443.31,450.45c-3.16,8.34-10.12,16.49-19.25,21.74-6.25,3.59-14.13,4.77-21.45,5.94-10.74,1.71-21.47.28-31.65-3.51-7.72-2.87-14.57-7.42-20.22-13.57-1.09-1.19-2.16-2.43-3.36-3.5-7.25-6.47-10.52-14.93-12.06-24.22-1.9-11.49-1.23-23.04.18-34.47,1.26-10.25,7.81-17.25,16.22-22.66.25-.16.58-.23.81-.42,11.12-9.03,24.55-8.93,37.76-9.2,4.46-.09,9.07.81,13.38,2.05,7.38,2.12,14.57,4.88,21.86,7.34,6.04,2.04,10.16,5.98,13.33,11.6,4.94,8.76,7.58,18.23,10.25,27.75,1.71,6.12.35,12.09-.92,17.99-1.11,5.12-2.84,10.11-4.87,17.14Zm-30.95-71.93c-9.95-4.29-20.15-5.55-31.09-4.7-8.51.66-16.1,2.19-23.4,6.78-4.99,3.14-9.63,6.41-12.69,11.4-1.47,2.4-2.39,5.37-2.74,8.18-.43,3.48-.12,7.07.08,10.6.28,4.99,1.83,10.02-.83,14.86-.22.39-.12,1-.07,1.5.86,10.13,3.29,19.56,11.64,26.41,1.08.89,1.89,2.1,2.88,3.11,5.68,5.79,12.26,10.36,20.07,12.56,12.43,3.49,24.86,3.28,37.39-.35,12.82-3.72,19.73-12.9,24.43-24.43,1.06-2.6,1.45-5.46,2.26-8.17,2.57-8.69,3.94-17.36,0-26.06-.54-1.18-.7-2.53-1.04-3.8-3.71-13.57-9.86-24.87-25.47-27.4-.49-.08-.96-.32-1.44-.48Z"/>
        <path class="cls-1" d="m355.08,206.97c8.45,3.5,12.83,12.65,10.03,22.43-.81,2.82-2.47,5.49-4.18,7.93-1.43,2.04-3.96,2.39-5.45.29-5.72-8.07-14.83-9.21-23.23-11.8-3.28-1.01-6.74-1.47-9.94-2.64-1.49-.55-3.57-2.21-3.58-3.37,0-1.45,1.54-3.7,2.95-4.25,8.06-3.15,16.21-6.14,24.49-8.65,2.71-.82,5.92,0,8.9.06Z"/>
        <path class="cls-1" d="m431.66,237.33c2.36,1.69,5.14,3.01,6.99,5.14,6.13,7.05,11.02,14.93,14.22,23.78.78,2.14,1.11,4.31-1.19,5.63-2.22,1.27-3.75-.28-5.2-1.81-6.84-7.21-15.87-8.79-25.13-9.53-3.4-.27-6.87.44-10.28.25-1.84-.1-4.42-.67-5.21-1.94-.78-1.24-.38-4.2.66-5.43,4.19-4.99,8.61-9.85,13.39-14.27,3.2-2.96,7.43-2.79,11.76-1.81Z"/>
        <path class="cls-1" d="m147.8,310.29c-.2.57-.4,1.15-.59,1.72-1.97,6.23-3.64,7.28-9.98,5.81-5.6-1.3-10.84-3.3-14.38-8.28-2.68-3.77-3.47-7.88-2.53-12.38.61-2.91,2.34-5.05,5.28-5.01,5.92.07,11.95.07,17.72,1.19,5.6,1.09,7.58,5.25,6.33,10.85-.46,2.06-1.33,4.02-2.02,6.03.06.02.11.04.17.06Z"/>
        <path class="cls-1" d="m225.15,356.3c1.17-2.62,2.5-5.56,3.82-8.52,1.74-3.92,5.41-5.19,9-6.62,5.12-2.04,10.25-3.77,15.89-2.34,2.95.74,6.88,4.78,7.24,7.73.25,2.05-1.31,3.46-3.97,3.47-2.01,0-4.03-.24-6.03-.14-5,.25-8.47,3.17-11.1,7.05-3.4,5.01-5.59,10.52-5.5,16.73.02,1.41.26,2.95-.19,4.21-.49,1.37-1.49,3.23-2.61,3.51-1.1.28-3.12-.8-3.9-1.89-5.05-7.05-5.26-14.81-2.65-23.19Z"/>
        <path class="cls-1" d="m353.76,399.11c3.54-10.8,14.41-18.61,25.83-18.54,3.73.02,7.47.09,11.2.21,1,.03,2.02.22,2.98.52,2.15.65,4.16,1.72,3.69,4.37-.45,2.53-2.67,2.77-4.78,2.66-8.33-.45-15.4,2.88-21.79,7.69-4.96,3.73-7.49,14.07-5.53,20.35,1.11,3.55-.9,7.53-4.45,8.5-2.45.67-4.01-.67-5.16-2.7-3.14-5.55-4.12-16.59-2-23.05Z"/>
      </g>
    </g>
    <path class="cls-2" d="m589.79,169.9c-1.03-2.15-2.54-3.73-4.73-4.86-7.32-3.79-7.52-12.89-3.73-19.1.63-1.02,2.1-2.01,3.27-2.14,14.07-1.58,26.11-9.12,39.32-13.21,9.88-3.06,19.74-6.22,29.71-8.96,4.22-1.16,8.29,1.06,12.36,2.09-.48,1.37-.1,2.38,1.23,3.01.39.82.79,1.65,1.18,2.47-.22,1.56-.43,3.13-.64,4.69,0,0-.01.09-.01.09-1.13,1.78-2.26,3.57-3.38,5.35-2.08.69-3.9,2.31-6.42,1.31-2.27-.9-4.46-.37-6.32,1.26-4.76-.41-8.86,1.72-13.08,3.4-3.69-2.82-7.04-.63-10.44.73-3.08-.55-6.09-.37-8.99.88-3.5,1.44-7.14,2.61-10.45,4.39-2.94,1.58-5.36,3.84-.8,6.61l-.19.47c-.24,4.19,1.49,7.49,4.59,10.17,2.78,5.98,6.95,11.34,8.09,18.06-.35,1.22.05,2.09,1.23,2.58.1.22.26.39.48.48,1.44,9.78,5.49,11.7,12.93,5.29,10.89-9.38,21.65-18.97,31.35-29.6,7.21-7.9,14.34-15.54,25.78-16.78,1.35-.11,2.69-.22,4.04-.34.05.81.1,1.62.14,2.44-.06.38-.11.76-.16,1.13-.42,1.39.03,2.31,1.46,2.71,0,0-.4.12-.39.12-.76.78-1.53,1.57-2.29,2.35-.54.52-1.07,1.04-1.6,1.56-.17.38-.34.76-.51,1.14,0,0-.12.33-.11.33-2.98,2.66-5.97,5.32-8.95,7.99-.44.67-.89,1.35-1.33,2.02-2.58,1.46-3.63,4.27-5.56,6.31-4.25,3.54-7.33,8.08-10.64,12.43-7.27,4.49-13.19,10.54-19.1,16.6-2.58,3.06-7.79,3.89-7.75,9.16,0,.13-.08.32-.02.39.17.18.39.31.59.46-8.78,2.86-9.29,4.8-3.32,12.44,2.51,8.59,3.7,9.02,11.78,6.3,5.18-1.74,8.95-5.18,12.77-8.7,4.95-4.56,10.39-7.97,17.43-7.87,0,0,.05.02.05.02,1.39,2.18,3.39,2.27,5.6,1.63,1.74,6.71-1.53,10.46-6.37,15.08-5.31,5.07-11.55,8.3-17.17,12.58-4.96,4.66-12.29,6.03-16.42,11.85-2.83.75-5.89.55-8.53,2.05l-.08-.06c-.41-3.53-3.57-3.48-5.89-4.54-2.79-3.84-6.27-7.2-8.11-11.7.15-.17.23-.37.23-.6,1.43-6.73-.59-12.61-6.14-16.2-3.81-2.46-5.79-5.41-6.96-9.39,0-1.72.01-3.43.02-5.14,3.79-3.57,1.71-7.46.45-11.18-3.96-11.66-11.05-21.51-18.32-31.24-.38-.27-.76-.54-1.14-.81Z"/>
    <path class="cls-2" d="m387.47,131.29c.08-.46.16-.91.24-1.36-.31-8.19-5.33-13.66-10.95-18.7-1.5-1.34-3.17-2.52-3.96-4.38-3.55-8.29-9.13-15.1-15.36-21.46-5.19-5.3-4.31-11.56,2.75-12.97,10.12-2.02,17.74-8.45,26.4-12.96,4.14-2.16,8.34-5.12,10.11-10.07.46-.32.93-.64,1.39-.96,3.23.05,4.3-2.35,5.44-4.73,1.49-3.11,4.05-5.32,7.39-5.33,3.07-.01,4.47,2.68,5.2,5.52.18.71.7,1.34,1.07,2.01,1.1,4.2-3.65,6.15-3.81,9.86-1.36,1.09-2.61,2.28-3.25,3.96-1.21.17-2.47.21-3.35,1.24,0,0-.22.02-.22.02l.03.22c-1.23,1.47-2.46,2.94-3.69,4.4-4.01,1.34-5.42,6.08-9.69,7.22-5.71,1.52-10.34,5.16-15.22,8.28-1.31.83-2.66,1.61-2.5,3.48-2.16,3.63,1.09,5.46,2.74,7.65,3.69,4.9,3.79,4.82,8.08.06,4.13-2.32,7.73-5.21,10.19-9.36.85-.96,1.69-1.92,2.54-2.88.93-.03,1.4-.52,1.41-1.45.49-.67.97-1.34,1.46-2,3.96-.73,4.43-5.19,7.44-6.95,1.78-.75,2.51-2.53,3.75-3.81,2.26-1.32,4.12-3.08,5.8-5.08,3.77-4.5,7.98-4.77,12.55-.87.36.89.71,1.79,1.07,2.68-.09.26-.02.48.2.64.16,1.22.05,2.36-.9,3.27-2.45,3.14-6.2,4.64-9.13,7.19-.47.45-.94.89-1.4,1.33-.25.43-.51.86-.76,1.29-3.81,1.57-4.66,5.81-7.58,8.46-5.82,5.28-11.15,11.28-16.57,17.08-3.42,1.25-5.69,3.15-4.1,7.24,1.38,2.53,2.56,5.31,6.27,4.77.35.57.7,1.14,1.05,1.71-.77,1.79-.41,2.81,1.77,2.57.24.26.49.52.73.78-.75,1.73-.91,3.26,1.38,3.92.27.28.53.55.8.83-.27.98-.54,1.97-.81,2.95-.2.7-.01,1.05.77.82.56-.25,1.13-.51,1.69-.76-.69,1.18-1.72,2.44-.29,3.67,1.05.9,2.38.49,3.5-.04,1.52-.71,3.24-1.31,4.38-2.45,6.06-6.02,14.03-9.33,20.55-14.69,2.02-1.66,3.93-1.29,5.6.73.97,1.18,2.05,2.27,3.09,3.41-.03.48-.05.97-.08,1.45-.21,1.84-.8,3.52-2.16,4.86-2.22,1.98-6.22,2.07-6.54,6.09-6.03,2.02-10.93,5.88-15.83,9.73-.26.33-.52.67-.78,1,0,0-.06.03-.06.03-1.04.52-1.96,1.18-2.49,2.25-1.45-1.13-2.42-.54-3.45.73-1.82,2.26-3.76,4.43-5.72,6.58-2.25,2.47-4.51,5.9-8.22,4.78-3.82-1.15-4.93-5.13-5.73-8.8-.22-1.04-.1-2.14-.22-3.21-.49-4.13-1.41-8.12-4-11.53Z"/>
    <path class="cls-2" d="m373.49,244.63c-2.46-15.99-6.25-31.68-11.29-47.04-1.14-3.49-3.19-6.75-5.71-9.61-3.57-4.06-5.24-8.79-4.57-14.23.51-4.12,5.14-8.19,8.96-7.97,5.12.3,7.81,3.68,8.8,8.41,2.27,10.8,3.84,21.75,9.72,31.64,2.9,4.87,4.18,11.08,4.79,16.84.64,6.01,1.83,11.94,4.85,16.79,4.22,6.79,4.09,14.83,7.53,21.55,5.26,10.26,6.04,21.87,10.72,32.24,1.24,2.75,1.26,5.82,3.43,8.44,4.07,4.91,1.04,9.56-2.24,13.23-3.12,3.49-7.32,3.41-11.26.61-.43-.31-1.12-.26-1.69-.37-.9.06-1.8.13-2.7.19-.39-1.95-.19-4.11-1.92-5.6-.16-.89-.32-1.77-.47-2.66.14-2.09.03-4.1-1.85-5.51-.19-.78-.37-1.55-.56-2.33-.51-1.92-1.03-3.83-1.54-5.75-.02-.44-.04-.88-.07-1.32,1.4-4.01-.16-6.77-3.69-8.68.88-.9,1.04-1.95.6-3.1-.06-8.38-5.48-15.28-6.54-23.4-.04-.31-1.01-.5-1.54-.74-.54-2.3,1.49-4.66-.14-6.93-.12-.43-.24-.86-.35-1.3-.43-1.12-.86-2.25-1.28-3.37Z"/>
    <path class="cls-2" d="m535.58,199.41c-.27-15.61-1.85-31.09-4.66-46.43-.64-3.49-2.17-6.87-4.2-9.93-2.89-4.34-3.87-9.09-2.51-14.2,1.02-3.87,5.98-7.16,9.61-6.45,4.86.95,6.98,4.53,7.32,9.18.76,10.61.83,21.29,5.17,31.51,2.14,5.03,2.55,11.14,2.39,16.72-.17,5.83.2,11.65,2.45,16.68,3.15,7.04,1.98,14.71,4.39,21.58,3.69,10.49,2.92,21.69,6.05,32.21.83,2.79.45,5.73,2.18,8.51,3.25,5.23-.25,9.27-3.86,12.35-3.43,2.93-7.44,2.31-10.85-.89-.37-.35-1.04-.39-1.56-.57-.87-.06-1.74-.11-2.61-.17-.12-1.92.36-3.95-1.11-5.61-.04-.87-.07-1.74-.11-2.6.4-1.98.56-3.91-1.05-5.51-.08-.77-.15-1.53-.23-2.3-.24-1.9-.48-3.8-.72-5.69.04-.42.07-.85.11-1.27,1.86-3.65.73-6.49-2.4-8.78.96-.75,1.25-1.72.98-2.89,1.04-8.02-3.25-15.32-3.2-23.22,0-.3-.9-.61-1.38-.91-.22-2.27,2.03-4.26.77-6.65-.06-.43-.12-.86-.17-1.29-.26-1.13-.53-2.26-.79-3.39Z"/>
    <path class="cls-2" d="m180.81,136.14c-4.28-6.64-9.08-12.87-14.38-18.72-1.2-1.33-2.76-2.38-4.45-3.15-2.4-1.1-4.09-2.88-4.87-5.43-.59-1.94.66-4.67,2.41-5.33,2.34-.89,4.21.09,5.59,2,3.16,4.36,6.03,8.93,10.62,12.17,2.26,1.59,4.07,4.11,5.48,6.55,1.48,2.55,3.19,4.96,5.5,6.52,3.23,2.19,4.77,5.8,7.64,8.1,4.39,3.53,7.04,8.54,11.19,12.24,1.1.98,1.72,2.34,3.21,3.08,2.79,1.38,2.36,4.05,1.63,6.34-.69,2.18-2.58,2.98-4.9,2.51-.25-.05-.55.11-.83.17-.39.21-.78.41-1.17.62-.56-.79-.9-1.79-1.97-2.11-.25-.36-.49-.73-.74-1.09-.35-.96-.8-1.83-1.92-2.09-.24-.31-.47-.62-.71-.93-.61-.75-1.22-1.5-1.83-2.26-.1-.19-.19-.38-.29-.57-.17-2.07-1.41-2.98-3.37-3.13.21-.58.08-1.07-.35-1.5-1.69-3.72-5.48-5.72-7.57-9.13-.08-.13-.55-.02-.83-.02-.7-.92-.26-2.37-1.44-3.06-.14-.17-.28-.34-.42-.51-.41-.42-.83-.83-1.24-1.25Z"/>
    <path class="cls-2" d="m270.35,74.05c-2.3-6.38-5.13-12.52-8.44-18.44-.75-1.34-1.86-2.52-3.12-3.49-1.8-1.38-2.87-3.19-3.03-5.48-.12-1.74,1.45-3.78,3.04-4,2.13-.29,3.51.88,4.3,2.75,1.8,4.26,3.33,8.63,6.55,12.23,1.59,1.77,2.61,4.22,3.33,6.54.75,2.42,1.72,4.76,3.35,6.51,2.28,2.45,2.88,5.77,4.84,8.25,2.99,3.79,4.25,8.5,7.01,12.39.73,1.03.99,2.29,2.09,3.19,2.07,1.69,1.2,3.85.15,5.62-1,1.69-2.73,1.99-4.58,1.16-.2-.09-.48-.01-.72-.02-.36.1-.73.2-1.1.3-.32-.77-.41-1.68-1.24-2.15-.14-.35-.27-.7-.41-1.05-.11-.87-.32-1.69-1.21-2.12-.14-.3-.28-.61-.42-.91-.37-.75-.73-1.49-1.1-2.24-.04-.18-.09-.36-.13-.54.25-1.76-.61-2.77-2.22-3.27.29-.44.27-.88,0-1.32-.7-3.44-3.49-5.84-4.58-9.1-.04-.12-.45-.12-.69-.18-.41-.9.24-2.04-.62-2.84-.08-.17-.17-.34-.25-.51-.27-.43-.53-.86-.8-1.28Z"/>
    <path class="cls-2" d="m292.89,31.27c-.17.41-.11.8.1,1.18-.45.6-.2,1.22-.05,1.83-.75.87-1.49,1.74-2.24,2.61-.66.59-1.32,1.17-1.99,1.76-.16.18-.32.37-.47.55-.28.28-.55.56-.83.84-1.37,1.04-2.78,2.04-4.11,3.13-1.68,1.38-3.54,2.68-3.41,5.25.01.13.03.25.04.38,0,.31.17.38.43.33.13,0,.24-.05.33-.13.16.17.32.33.48.5-.03.18-.06.35-.09.53-.23.44-.18.73.4.73.14,0,.28-.02.42-.03,2.49,2.18,4.29,4.96,6.5,7.39.78.85,1.38.91,2.21.15,4.5-4.08,9.7-7.53,13.34-12.38,1.98-2.64,4.63-4.92,5.71-8.34.71-2.24,3.1-3.27,5.26-4.05,1.08-.39,2.68,1.12,3.08,2.79.23.98.27,2,.39,3-.07.05-.11.11-.13.19-.33.89-.66,1.78-.98,2.68-.17.08-.33.16-.5.24-2.33.31-4.13,1.28-4.65,3.81-.36.34-.71.67-1.07,1.01-.85.3-1.61.72-2.05,1.56-.36.44-.71.88-1.07,1.32-2.21,1.95-4.24,4.07-6.27,6.21-2.03,2.15-4.64,3.88-6.91,5.9-.64.57-1.18,1.15-1.25,2.04-.19.4-.07.73.22,1.02.91,1.46,1.25,3.44,3.42,3.74.13.3.26.61.39.91.14.24.35.32.62.24-.17.73-.22,1.38.86,1.25.01.13.08.21.21.23.02.64.27,1.11.91,1.32.08.15.15.3.23.45-.12.53.05.93.56,1.16.15.17.3.35.45.52v.08c-.1.36.06.54.41.6.13.05.25.1.38.14,1.71,2.55,3.35,2.52,5.66.22,2.38-2.37,4.43-5.09,7.24-7.03.36-.25.78-.53.97-.9,1.37-2.64,3.59-4.35,6.12-5.75h.04c.42.45.68,1.1,1.43,1.16h.12c.24.35.47.69.71,1.03.01.12.04.23.09.34-.26.45-.23.89.05,1.33-.9,2.59-2.55,4.56-4.82,6.08-.39.26-.61.79-.9,1.2-.19.14-.37.28-.56.42-.29.28-.59.56-.88.84-2.93,3.82-6.75,6.66-10.48,9.61-2.07,1.63-3.82.21-5.68-.37-.16-.28-.36-.5-.71-.47-1.54-2.52-3.26-4.88-5.65-6.68,0,0,.01-.06.01-.06.1-.26.02-.45-.24-.56-.32-.48-.65-.96-.97-1.43-1.41-1.21-2.26-3-3.95-3.92-.03-.62-.3-.85-.89-.53-.16-.23-.32-.45-.49-.68.37-.36.47-.8.16-1.19-.39-.48-.79-.12-1.15.14-.44-.32-.86-.43-1.21.13-1.23-.56-1.97.47-2.9.9-.13-.18-.27-.35-.4-.53,0,0,0-.02,0-.02.09-.4-.05-.76-.28-1.07-1.09-1.44-1.22-2.66.17-4.17,1.37-1.49,1.01-3.26-1.16-5.09-2.84-2.42-5.43-5.14-8.63-7.13-1.01-.62-1.79-1.4-2.31-2.46-.69-1.4-.21-3,1.16-3.73,4.78-2.56,8.95-5.9,12.65-9.85.54-.57.96-1.16,1.21-1.9.74-2.22,2.2-3.82,4.27-4.89.1.07.22.1.34.09.92.48,1.93.87,2.47,1.86.04.15.08.3.12.46Z"/>
    <path class="cls-2" d="m221.63,144.15c-.33.05-.66.1-.99.15-.35-.41-.78-.55-1.3-.37-.34-.03-.68-.06-1.02-.1-.94-.58-1.96-.35-2.97-.32-.5.09-1.01.18-1.51.27-.61-.24-1.21-.49-1.87-.22-.69-.37-1.36-.42-1.99.14-.4-.57-.24-1.67-1.42-1.52,0,0-.08-.01-.08-.01-.35-.29-.71-.57-1.06-.86-.22-.41-.44-.82-.66-1.22-.53-.82-1.11-1.61-1.57-2.46-.5-.91-1.17-1.9-.36-2.94.73-.92,1.7-1.52,2.96-1.41,1.25.11,2.34.66,3.4,1.29l.28.43c.98.6,1.61,1.88,3.06,1.58l.16-.02c2.68.62,5.23.42,7.83-.69,2.64-1.13,4.63-3.08,6.72-4.83,2.45-2.05,2.47-5.02.61-7.64.14-.4.11-.77-.23-1.07-.25-.4-.5-.79-.75-1.19.1-.52-.13-.84-.62-.99-.34-.28-.68-.56-1.02-.84.08-.49.11-.97-.38-1.3-.57-.87-.96-1.96-2.31-1.84h-.17c-2.55-1.78-5.09-3.59-8.49-2.9-1.47-.17-2.94-.33-4.41-.5-.72-.2-1.43-.4-2.15-.61-.64-1.03-1.74-.51-2.6-.78-.14-.03-.28-.05-.42-.08-.14.04-.28.09-.42.15-2.57-1.8-5.69-2.42-8.39-3.94-1.5-.85-3.05-1.67-4.78-1.76-2.91-.16-5.2-1.18-6.59-3.86-.02-.15-.05-.3-.08-.44.79-1.76.41-3.31-.87-4.69.1-.1.17-.22.21-.36,1.3-2.57,2.24-5.42,3.98-7.64,3.54-4.52,6.07-10.36,12-12.27,4.97-1.6,9.95-4.65,15.56-1.75,2.69,1.39,4.03,5.3,2.29,7.76-.92,1.3-2.26.97-3.56.61-1.87-.52-3.38-2.07-5.5-1.83-.08-.04-.15-.07-.24-.07-.11-.12-.24-.14-.38-.05-.76.5-1.52.99-2.28,1.49-2.28.36-4.09,1.42-5.17,3.54-.52.42-1.04.84-1.55,1.27-.64-.02-1.09.26-1.35.84-.76.91-1.52,1.82-2.27,2.73-.55.98-1.11,1.97-1.66,2.95-.19.31-.38.62-.57.93,0,0,.01.04.01.04,0,.22,0,.44,0,.66-.46,1.07-1.64,2.63-.37,3.21,1.96.89,3.6,2.56,5.9,2.68.76.28,2-.87,2.21.05.56,2.47,1.59,1.22,2.64.59.15.15.3.31.45.46.78,1.99,1.75.36,2.65.14.14.28.28.56.42.83-.29.45-.42.91-.02,1.38,2.23,1.92,5.09,1.53,7.69,1.99,2.49.44,5.06.41,7.54.88,3.02.58,5.3,2.72,7.91,4.19,0,0-.05.15-.05.15-.04.05-.11.14-.1.15.07.07.15.12.23.18.19.11.38.21.57.32.32,1.26.6,2.56,2.28,2.65.21.77.86.77,1.47.83.1.21.19.43.29.64-.36.74-.77,1.49.32,2,.13.23.26.46.39.69-.2.57-.07.97.59,1.08-.12.59.29.78.73.94-.09.76-.76,1.79.84,1.73.05.11.09.23.15.33,0,.01.12-.04.2-.06-1.82.83-1.41,1.92-.37,3.09l.02.09c-1.06,1.29-.28,3.21-1.52,4.43-.54,1.25-1.07,2.5-1.61,3.74-.21.14-.41.29-.62.43-.23.1-.45.21-.68.31-.22.15-.45.3-.67.45-.14.15-.28.29-.41.44-3.53,2.31-7.06,4.62-10.59,6.94-.61-.09-1.11.14-1.52.57Z"/>
    <path class="cls-2" d="m253.66,116.73c-.3,0-.6,0-.89.01-.26-.41-.63-.58-1.11-.48-.3-.07-.59-.14-.89-.2-.76-.62-1.7-.54-2.6-.64-.46.02-.91.04-1.37.07-.51-.28-1.02-.57-1.64-.42-.57-.41-1.16-.53-1.78-.1-.29-.56-.01-1.51-1.08-1.52,0,0-.07-.02-.07-.02-.28-.3-.56-.59-.84-.89-.15-.39-.3-.77-.44-1.16-.37-.79-.79-1.56-1.11-2.37-.34-.87-.82-1.82.03-2.65.75-.73,1.69-1.15,2.79-.9,1.1.25,2,.86,2.86,1.54l.2.42c.8.65,1.21,1.86,2.53,1.76h.14c2.31.87,4.59.99,7.03.31,2.47-.69,4.47-2.19,6.53-3.5,2.41-1.53,2.78-4.16,1.44-6.71.17-.34.18-.67-.08-.98-.18-.38-.35-.76-.53-1.15.15-.45-.01-.76-.43-.95-.27-.29-.54-.58-.8-.87.13-.43.21-.85-.19-1.19-.4-.84-.62-1.85-1.84-1.9l-.15-.02c-2.06-1.87-4.1-3.78-7.19-3.56-1.29-.32-2.57-.64-3.86-.96-.61-.26-1.22-.53-1.84-.79-.44-.99-1.49-.65-2.22-1-.12-.04-.24-.08-.36-.12-.13.02-.26.04-.39.09-2.07-1.9-4.77-2.81-6.98-4.48-1.23-.93-2.52-1.84-4.04-2.12-2.56-.48-4.48-1.66-5.39-4.19,0-.13,0-.27-.02-.4.9-1.47.75-2.89-.22-4.26.1-.08.18-.17.23-.29,1.46-2.13,2.62-4.55,4.43-6.31,3.67-3.59,6.59-8.48,12.08-9.48,4.59-.84,9.37-2.96,14.01.27,2.23,1.55,2.96,5.17,1.12,7.15-.97,1.04-2.11.59-3.23.12-1.59-.68-2.76-2.23-4.66-2.27-.06-.05-.13-.08-.2-.09-.09-.12-.2-.15-.33-.09-.73.35-1.46.7-2.2,1.05-2.07.06-3.79.78-5,2.54-.51.31-1.02.63-1.53.94-.56-.09-1,.11-1.3.59-.78.72-1.56,1.44-2.34,2.16-.61.81-1.21,1.62-1.82,2.42-.2.25-.41.51-.61.76,0,0,0,.04,0,.04-.03.2-.05.39-.08.59-.54.89-1.76,2.14-.71,2.8,1.63,1.02,2.89,2.69,4.92,3.07.64.33,1.88-.54,1.96.31.2,2.25,1.27,1.27,2.28.83.11.15.23.31.34.46.46,1.85,1.51.52,2.33.44.09.26.18.53.27.79-.31.37-.48.76-.18,1.22,1.76,1.96,4.34,1.95,6.59,2.67,2.15.68,4.44.96,6.58,1.67,2.61.87,4.39,3.04,6.53,4.64,0,0-.06.13-.06.13-.04.04-.11.11-.11.12.05.07.12.13.18.19.16.12.31.23.47.35.14,1.16.24,2.34,1.71,2.62.1.71.68.78,1.21.91.06.2.12.4.18.61-.41.61-.86,1.23.05,1.81.09.22.18.44.27.66-.24.49-.17.85.39,1.03-.17.51.16.72.53.92-.17.66-.88,1.5.54,1.64.03.1.05.21.09.31,0,.01.12-.02.18-.03-1.71.52-1.48,1.54-.69,2.7v.08c-1.09,1.02-.62,2.81-1.87,3.75-.62,1.04-1.24,2.09-1.86,3.13-.2.1-.4.21-.6.31-.21.07-.43.13-.64.2-.22.11-.43.22-.65.32-.14.11-.28.23-.42.34-3.4,1.64-6.8,3.28-10.2,4.92-.53-.15-1,0-1.42.33Z"/>
    <path class="cls-2" d="m467.35,305.08c-.68-.12-1.37-.25-2.05-.37-.42-1.05-1.18-1.62-2.34-1.6-.65-.29-1.3-.58-1.95-.87-1.47-1.77-3.66-2.01-5.67-2.63-1.06-.15-2.12-.31-3.18-.46-1.04-.88-2.07-1.78-3.57-1.69-1.13-1.19-2.42-1.74-4.03-1.04-.41-1.4.65-3.47-1.79-3.96,0,0-.14-.08-.14-.08-.51-.8-1.02-1.61-1.52-2.41-.16-.95-.33-1.91-.49-2.86-.5-1.97-1.12-3.93-1.47-5.93-.38-2.14-1.06-4.55,1.25-6.06,2.06-1.34,4.38-1.88,6.81-.81,2.4,1.06,4.19,2.87,5.87,4.82l.26,1.04c1.54,1.85,1.94,4.81,5.01,5.18l.33.08c4.91,3.02,10.08,4.33,15.98,3.85,5.98-.48,11.23-3.01,16.55-5.09,6.22-2.43,8.24-8.3,6.31-14.74.54-.71.72-1.46.25-2.28-.23-.95-.46-1.91-.7-2.86.54-.96.31-1.75-.56-2.38-.48-.78-.97-1.57-1.45-2.35.49-.92.86-1.85.11-2.82-.54-2.1-.58-4.53-3.36-5.19l-.34-.12c-3.88-5.21-7.69-10.51-14.89-11.4-2.8-1.31-5.61-2.62-8.41-3.93-1.29-.88-2.57-1.76-3.86-2.63-.57-2.47-3.11-2.17-4.64-3.29-.26-.14-.51-.29-.77-.43-.31-.02-.62-.01-.93.02-3.88-5.29-9.67-8.59-13.99-13.41-2.41-2.69-4.94-5.34-8.3-6.68-5.66-2.25-9.52-5.81-10.48-12.04.07-.31.11-.62.13-.93,2.74-2.97,3.02-6.29,1.41-9.88.27-.13.49-.32.66-.57,4.29-4.22,8.05-9.25,12.99-12.49,10.04-6.59,18.94-16.49,31.96-16.31,10.91.15,22.82-2.58,32.01,6.92,4.41,4.55,4.45,13.19-.64,16.9-2.69,1.95-5.11.41-7.46-1.18-3.35-2.27-5.33-6.36-9.67-7.3-.12-.14-.26-.24-.43-.31-.14-.32-.38-.43-.72-.36-1.84.47-3.67.95-5.51,1.42-4.77-.8-9.05.09-12.61,3.57-1.31.49-2.62.98-3.93,1.47-1.25-.46-2.33-.2-3.24.77-2.11,1.3-4.22,2.6-6.33,3.9-1.76,1.58-3.51,3.16-5.27,4.74-.58.49-1.16.98-1.74,1.46,0,0,0,.09,0,.09-.15.44-.29.88-.44,1.31-1.63,1.81-5,4.12-2.88,6.1,3.28,3.07,5.42,7.48,9.9,9.25,1.33,1.06,4.55-.39,4.35,1.58-.54,5.26,2.34,3.49,4.85,2.93.19.4.39.8.58,1.21.22,4.46,3.24,1.87,5.16,2.05.09.64.18,1.29.27,1.93-.88.71-1.44,1.53-.97,2.72,3.15,5.29,9.07,6.42,13.92,9.08,4.63,2.54,9.75,4.19,14.35,6.78,5.6,3.16,8.69,8.94,12.88,13.57,0,0-.19.27-.19.27-.1.08-.31.2-.3.22.09.18.22.35.34.52.3.34.61.68.91,1.02-.21,2.71-.51,5.47,2.75,6.78-.09,1.67,1.2,2.09,2.37,2.62.05.49.09.98.14,1.47-1.21,1.22-2.52,2.43-.71,4.17.11.54.21,1.09.32,1.63-.77,1.01-.78,1.88.44,2.54-.63,1.09.05,1.73.81,2.35-.69,1.44-2.7,3.04.5,3.99.02.25.02.51.07.75,0,.03.27.01.42.02-4.16.43-4.09,2.87-2.79,5.89l-.03.19c-2.97,1.84-2.7,6.16-5.98,7.76-1.9,2.12-3.79,4.23-5.69,6.35-.51.15-1.01.3-1.52.45-.52.05-1.04.11-1.56.16-.55.15-1.09.3-1.63.45-.37.2-.74.4-1.12.6-8.54,2.23-17.07,4.45-25.61,6.68-1.15-.58-2.28-.47-3.4.11Z"/>
    <path class="cls-2" d="m440.21,38.97c2.86-1.76,5.25-4.35,9.08-4.21,4.72.18,7.94,2.86,10.67,6.16,3.55,4.29,7.08,8.51,12.08,11.23.43.23.94.8.96,1.24.25,4.27,3.71,6.56,6.46,8.51,4.62,3.27,7.55,8.01,11.73,11.58,1.07.91,1.8,2.46,3.49,1.61,1.82-.92,1.41-2.71,1.01-4.17-1.13-4.12-2.31-8.2-2.58-12.52-.39-6.1-3.1-11.74-4.35-17.5-2.09-9.68-6.48-18.42-8.94-27.86-1.1-4.21.29-7.03,4.4-8.85,4.22-1.87,6.06.67,7.66,3.75.71,1.38,1.29,2.88,1.64,4.39,1.77,7.66,4.18,15.09,7.9,22.04,1.84,3.43.95,7.28,1.64,10.89.32,1.65.67,3.02,2.18,3.87.1.45.2.9.3,1.35.25,4.35,1.49,8.62.94,13.04-.19,1.53.96,2.59,1.92,3.64-.07.25-.08.5-.03.75-.96,1.75.16,3.27.52,4.89,1.27,5.64,3.12,11.11,4.15,16.86.86,4.81-2.2,6.35-4.89,8.14-3.15,2.09-6.53,1.64-9.17-1.4-1.5-1.73-3.37-2.93-5.31-4.08-.21-.19-.43-.39-.64-.58-3.79-5.86-10.08-9.26-14.38-14.62-.11-.13-.26-.2-.43-.21-1.4-3.69-5.28-4.22-7.98-6.25l.1-.27c-1.75-6-5.97-9.89-11.15-12.91-1.4-.82-2.01-.07-2.27,1.35-.3,1.64-.02,3.07,1.12,4.31.21.85.42,1.69.63,2.54.18.18.37.36.55.53-.67,3.05,1.82,5.13,2.39,7.79,1.57,5.23,4.47,9.76,7.41,14.28.3.5.6.99.91,1.49.12,1.2.35,2.36,1.34,3.2.16.56.32,1.13.48,1.69-.12.75.26,1.22.88,1.54.18.53.36,1.05.54,1.58-.13,1.19.28,2.22.89,3.2.1.37.2.73.31,1.09.04.24.16.41.37.53.15.8.3,1.61.44,2.41-1.73.68-2.07,2.43-2.93,3.78-1.06.65-2.13,1.3-3.19,1.96-2.31.38-4.16-.95-6.17-1.66l-.3-.12c-2.03-5.04-2.81-10.61-6.35-15.02-1.09-1.36-1.48-2.98-2.08-4.57-2.95-7.85-5.17-16.01-9.5-23.29,0,0,.05-.11.05-.11-.67-4.27-1.2-8.57-2.06-12.8-.89-4.39.32-9.22-2.73-13.15.09-.36.19-.71.28-1.07Z"/>
    <path class="cls-2" d="m323.26,261.94c.38,6.95,4.82,11.53,9.37,16.03.98,5.23,3.52,9.3,8.61,11.45.48,1.54.95,3.09,1.42,4.63,3.14,3.19,6.29,6.39,9.44,9.58-.7,3.28-1.4,6.56-2.1,9.83-1.63.84-3.26,1.68-4.88,2.53-14.69,7.64-17.75,6.99-30.97-3.32-4.15-3.24-8.49-7.13-14.36-7.57,0,0-.45-.13-.44-.12-5.56-9.16-9.44-19.78-20.7-24.06-.45-.58-1-1.03-1.66-1.34-3.41-2.87-6.25-6.7-11.34-6.79-.63-.47-1.26-.94-1.89-1.4-1.95-10.16-10.02-13.69-18.36-16.94-.77.01-1.55.03-2.3.04-12.34-4.38-16.44-13.36-14.37-25.79.51-.69,1.02-1.38,1.53-2.08,8.46-9.77,17.08-10.98,26.66-2.33,10.34,9.33,22.53,16.96,29.35,29.84,1.23,2.32,3.36,4.24,6.42,2.72,2.26-1.13,2.89-3.31,2.51-5.65-.65-4-.65-8.37-2.38-11.87-6.68-13.54-13.93-26.79-20.97-40.15.11-1.99.23-3.98.34-5.97-1.75-9.29-5.93-17.75-9.27-26.49,0,0,.24-.47.23-.47,3.01-4.92,6.57-9.63,6.07-15.89.66-.16,1.29-.41,1.88-.75,7.56-6.44,16.08-6.45,25.01-3.73-.26.68-.11,1.26.45,1.74-.68,2.94.59,5.15,2.66,7.05.17,1.32.34,2.65.5,3.97-12.54,10.75-12.98,22.85-5.98,37.29,10.51,21.69,19.74,44,29.51,66.05Z"/>
    <g>
      <path class="cls-2" d="m152.47,158.95c-5.57-4.56-11.79-8.28-18.59-11.21-1.55-.67-3.52-.76-5.65-.45-3.02.44-5.18-.4-6.25-2.77-.81-1.79.62-5.79,2.76-7.78,2.86-2.66,5.22-2.87,7.01-1.66,4.09,2.75,7.84,5.93,13.66,6.39,2.87.23,5.21,1.82,7.06,3.61,1.94,1.87,4.16,3.4,7.08,3.56,4.09.22,6.15,3.25,9.8,3.86,5.58.93,9.07,4.78,14.37,6.07,1.4.34,2.23,1.46,4.1,1.25,3.51-.39,3.1,2.96,2.29,6.08-.77,2.97-3.07,5.21-5.96,6.31-.32.12-.68.51-1.01.77-.47.51-.94,1.02-1.42,1.53-.73-.51-1.19-1.41-2.53-1.02-.32-.24-.64-.48-.96-.72-.48-.84-1.07-1.53-2.47-1.03-.31-.19-.61-.37-.92-.56-.79-.43-1.57-.86-2.36-1.28-.13-.15-.26-.3-.39-.45-.3-2.23-1.88-2.4-4.3-1.2.24-.81.05-1.28-.5-1.46-2.25-3.05-7.02-2.66-9.75-5.08-.1-.09-.68.36-1.03.56-.91-.55-.42-2.52-1.91-2.48-.18-.09-.36-.19-.54-.29-.53-.18-1.06-.36-1.59-.55Z"/>
      <path class="cls-2" d="m152.12,197.6c-2.42,1.52-4.45,3.74-7.71,3.65-4.02-.12-6.79-2.38-9.13-5.18-3.05-3.64-6.09-7.21-10.36-9.49-.37-.2-.8-.68-.83-1.05-.24-3.64-3.21-5.57-5.56-7.21-3.96-2.76-6.49-6.78-10.08-9.79-.92-.77-1.55-2.09-2.99-1.35-1.55.8-1.18,2.31-.83,3.56.99,3.51,2.02,6.97,2.28,10.65.37,5.2,2.72,9.99,3.82,14.89,1.85,8.23,5.64,15.66,7.8,23.68.96,3.58-.2,5.99-3.69,7.57-3.58,1.62-5.17-.53-6.55-3.15-.62-1.17-1.12-2.44-1.42-3.73-1.56-6.52-3.66-12.83-6.88-18.73-1.59-2.91-.85-6.19-1.47-9.27-.28-1.41-.59-2.57-1.88-3.28-.09-.38-.17-.77-.27-1.15-.25-3.7-1.33-7.33-.89-11.11.15-1.31-.84-2.2-1.66-3.09.05-.21.06-.42.02-.64.8-1.5-.16-2.78-.48-4.16-1.12-4.8-2.74-9.45-3.65-14.34-.77-4.09,1.83-5.43,4.11-6.97,2.67-1.8,5.56-1.44,7.82,1.13,1.29,1.46,2.89,2.48,4.55,3.44.18.16.37.33.55.49,3.27,4.97,8.65,7.83,12.35,12.37.1.11.22.17.37.17,1.22,3.14,4.53,3.56,6.84,5.27l-.08.23c1.53,5.1,5.15,8.38,9.59,10.93,1.2.69,1.72.04,1.92-1.17.24-1.4,0-2.62-.98-3.67-.18-.72-.37-1.44-.55-2.16-.16-.15-.32-.3-.48-.45.55-2.6-1.58-4.36-2.09-6.62-1.38-4.44-3.88-8.29-6.41-12.12-.26-.42-.52-.84-.78-1.26-.11-1.03-.32-2.01-1.16-2.72-.14-.48-.28-.96-.42-1.44.1-.64-.23-1.03-.76-1.31-.16-.45-.32-.89-.47-1.34.11-1.01-.26-1.89-.78-2.72-.09-.31-.18-.62-.27-.93-.03-.2-.14-.35-.32-.45-.13-.68-.26-1.37-.39-2.05,1.47-.59,1.75-2.08,2.47-3.24.9-.56,1.81-1.12,2.71-1.69,1.97-.34,3.55.79,5.27,1.37l.25.1c1.76,4.28,2.47,9.02,5.51,12.75.94,1.15,1.28,2.53,1.8,3.88,2.56,6.67,4.51,13.6,8.25,19.79,0,0-.04.09-.04.09.6,3.63,1.08,7.29,1.84,10.89.79,3.73-.22,7.86,2.41,11.19-.08.3-.16.61-.23.91Z"/>
    </g>
  </g>
</svg>