<?xml version="1.0" encoding="UTF-8"?>
<svg id="Layer_2" data-name="Layer 2" xmlns="http://www.w3.org/2000/svg" viewBox="0 0 53.41 104.71">
  <defs>
    <style>
      .cls-1 {
        fill: #fff;
      }
    </style>
  </defs>
  <g id="Layer_1-2" data-name="Layer 1">
    <path class="cls-1" d="m49.54,10.39c0-.1,0-.19,0-.28-1.27-.93-2.08-2.23-2.64-3.74,0,0-.21,0-.21,0-1.49.12-1.81-1.06-2.28-2.07-.3-.11-.59-.22-.89-.33-2.6-.88-5.2-1.76-7.8-2.65-.11.03-.23.02-.34-.02-1.42-.28-2.85-.56-4.27-.84-.15.07-.31.07-.46.01-1.77-.16-3.53-.32-5.3-.47-.25.13-.5.25-.76.38-.15.32-.4.43-.73.3-.52-.08-1.04-.17-1.55-.25-3.69.2-6.6,3.04-10.34,3.08C7.65,6.06,2.22,7.11,0,12.47c.53.69,1.46,1.3.44,2.28l-.03.06c2.82,3.68,4.74,3.99,8.01.95,4.58-4.27,9.6-7.25,16.1-7.75,6.51-.5,12.09.9,16.58,5.81l.1.04c1.91,1.38,4.02,2.82,4.83,4.99.05.13.1.25.15.37,1.23-.57,2.45-1.17,3.66-1.79-.07-2.34-.16-4.69-.29-7.03Z"/>
    <path class="cls-1" d="m44.26,31.27c2.76.6,5.58.98,8.45,1.21.13-.43.27-.86.4-1.29-.08-.27-.16-.55-.25-.82-.32-.19-.38-.46-.17-.79.21-.52.41-1.05.62-1.57.59-3.82-1.86-7.14-1.09-10.99-1.82-4.73-1.78-10.44-7.13-13.33-.87.46-1.74,1.36-2.59.19l-.06-.04c-4.64,2.48-5.4,4.43-2.8,8.13,3.65,5.2,5.8,10.7,4.91,17.43-.08.63-.19,1.25-.31,1.86Z"/>
    <path class="cls-1" d="m53.31,31.97c.05-.65.08-1.29.07-1.92,0-.25,0-.45,0-.59-.22-.4-.37-.81-.46-1.22-2.31.08-4.65.21-7.03.42-.46.41-.97.82-1.41,1.24-1.78,2.24-3.11,4.68-5.74,6.55-.14.43-.28.86-.42,1.29-.38.62-.77,1.25-1.16,1.87-.4,1.36-1.49,2.22-2.94,2.83-.96,1.82-2.31,3.51-4.06,5.06-.45.78-.89,1.56-1.34,2.34-.16,2.22-.2,4.43,2.79,4.21,2.43-.17,4.74-1.79,6.54-3.94,4.82-5.75,10.12-11.32,14.99-17.06.06-.36.13-.72.16-1.09Z"/>
    <path class="cls-1" d="m38.64,50.92c.37-.29.77-.57,1.17-.83,2.86-2.89,5.88-5.63,8.68-8.58.3-.58.6-1.16.91-1.72-.08-.78-.14-1.56-.23-2.35-2.09.49-4.2.89-6.3,1.3-.16.14-.35.23-.57.25-1.87,1.59-4.09,2.04-6.47,1.96,0,0-.1.23-.1.23-.57,1.74-2.04,1.55-3.4,1.61-.26.28-.52.57-.79.85-2.21,2.53-4.42,5.05-6.63,7.58-.02.14-.08.27-.18.37-.98,1.48-1.96,2.96-2.94,4.43,0,.2-.06.38-.2.53-1,1.92-2.01,3.84-3.01,5.76.02.34.05.69.07,1.03.29.32.3.65,0,.97-.26.41-.51.83-.77,1.25,3.01.83,6,1.74,8.98,2.66.11-.4.23-.8.36-1.2,1.69-5.18,4.18-9.46,8.02-12.53.94-1.29,2.05-2.49,3.41-3.56Z"/>
    <path class="cls-1" d="m27.93,63.34c-2.97-.9-5.94-1.82-8.92-2.66-.08,1.15-.28,2.29-.72,3.4.85,6.07-.49,12.7,4.52,17.71,1.02-.27,2.15-1.05,2.79.58l.05.06c5.47-1.47,6.72-3.5,4.81-8.61-1.31-3.5-2.22-6.97-2.52-10.48Z"/>
    <path class="cls-1" d="m33.04,93.59c-1.31-.6-3.17-.76-2.43-3.02v-.11c-7.04-3.2-10.11-2.14-12.53,4.89-.1.31-.22.6-.33.9-.01,1.04,0,2.08.14,3.1.26,1.95,1.24,3.05,2.46,4.26,3.43,1.55,7.68,1.47,10.8-.36,1.41-2.86,2.24-5.98,1.88-9.67Z"/>
  </g>
</svg>