<?xml version="1.0" encoding="UTF-8"?>
<svg id="Layer_2" data-name="Layer 2" xmlns="http://www.w3.org/2000/svg" viewBox="0 0 25.03 25.03">
  <defs>
    <style>
      .cls-1 {
        fill: #0d5ecc;
      }

      .cls-2 {
        fill: #f8f8f8;
      }
    </style>
  </defs>
  <g id="Layer_1-2" data-name="Layer 1">
    <rect class="cls-1" width="25.03" height="25.03"/>
    <path class="cls-2" d="m21.05,12.9c0,1.21,0,2.42,0,3.63-.02,2.4-1.61,4.35-3.92,4.82-.31.06-.62.09-.94.09-2.44,0-4.89,0-7.33,0-2.72,0-4.86-2.17-4.87-4.89,0-2.42,0-4.85,0-7.27,0-2.75,2.15-4.9,4.9-4.91,2.41,0,4.82,0,7.23,0,2.78,0,4.91,2.13,4.93,4.91,0,1.21,0,2.42,0,3.63Z"/>
    <path class="cls-1" d="m12.6,5.83c1.2,0,2.39,0,3.59,0,2.01,0,3.48,1.48,3.48,3.49,0,2.41,0,4.82,0,7.23,0,1.72-1.22,3.12-2.91,3.38-.17.03-.35.03-.52.03-2.42,0-4.85,0-7.27,0-1.7,0-3.07-1.15-3.38-2.82-.04-.21-.05-.43-.05-.64,0-2.4,0-4.81,0-7.21,0-1.97,1.48-3.45,3.45-3.46,1.21,0,2.42,0,3.63,0Z"/>
    <path class="cls-2" d="m12.59,17.27c-2.41,0-4.37-1.97-4.36-4.37,0-2.41,1.97-4.37,4.38-4.36,2.43.01,4.37,1.97,4.36,4.4,0,2.4-1.97,4.34-4.38,4.34Z"/>
    <path class="cls-1" d="m9.69,12.9c0-1.61,1.3-2.9,2.91-2.9,1.59,0,2.9,1.3,2.9,2.89,0,1.61-1.3,2.91-2.9,2.91-1.61,0-2.91-1.3-2.91-2.9Z"/>
  </g>
</svg>