<?xml version="1.0" encoding="UTF-8"?>
<svg id="Layer_2" data-name="Layer 2" xmlns="http://www.w3.org/2000/svg" viewBox="0 0 25.56 25.56">
  <defs>
    <style>
      .cls-1 {
        fill: #fff;
      }

      .cls-2 {
        fill: #0d5ecc;
      }
    </style>
  </defs>
  <g id="Layer_1-2" data-name="Layer 1">
    <rect class="cls-2" width="25.56" height="25.56"/>
    <g id="enHmRs.tif">
      <g>
        <path class="cls-1" d="m13.58,12.13c1.23-1.79,2.89-1.96,4.6-1.49,1.26.35,1.87,1.31,2.13,2.53.14.66.19,1.33.19,2,0,1.84,0,3.67,0,5.51,0,.25-.06.34-.32.33-.86-.02-1.71-.02-2.57,0-.27,0-.32-.09-.32-.34,0-1.63,0-3.26,0-4.89,0-.43-.02-.85-.12-1.27-.17-.75-.61-1.19-1.28-1.26-.92-.1-1.6.22-1.92.92-.18.38-.26.79-.27,1.21,0,1.76-.02,3.51,0,5.27,0,.29-.08.37-.36.36-.85-.02-1.71-.01-2.57,0-.21,0-.28-.05-.28-.27,0-3.27,0-6.54,0-9.81,0-.2.07-.25.26-.25.86,0,1.71,0,2.57,0,.2,0,.26.06.25.25-.01.37,0,.73,0,1.2Z"/>
        <path class="cls-1" d="m8.49,15.82c0,1.61,0,3.21,0,4.82,0,.31-.09.39-.39.38-.84-.02-1.69-.01-2.53,0-.23,0-.3-.06-.3-.29,0-3.26,0-6.52,0-9.77,0-.22.08-.27.28-.26.88,0,1.76.01,2.63,0,.26,0,.3.09.3.32,0,1.61,0,3.21,0,4.82Z"/>
        <path class="cls-1" d="m5.05,7.43c0-1.03.81-1.86,1.83-1.87,1.03,0,1.87.83,1.87,1.86,0,1.02-.83,1.85-1.85,1.85-1.02,0-1.85-.82-1.85-1.84Z"/>
      </g>
    </g>
  </g>
</svg>