<?xml version="1.0" encoding="UTF-8"?>
<svg id="Layer_2" data-name="Layer 2" xmlns="http://www.w3.org/2000/svg" viewBox="0 0 1275 752">
  <defs>
    <style>
      .cls-1 {
        opacity: .08;
      }

      .cls-2 {
        opacity: .5;
      }

      .cls-2, .cls-3 {
        fill: #f9cb00;
      }

      .cls-4 {
        fill: #f5f6f7;
      }

      .cls-5 {
        opacity: .16;
      }

      .cls-6 {
        fill: none;
      }

      .cls-7 {
        fill: #ffcb00;
      }

      .cls-8 {
        opacity: .09;
      }

      .cls-9 {
        fill: #010101;
      }

      .cls-10 {
        fill: #fcfcfc;
      }
    </style>
  </defs>
  <g id="Layer_1-2" data-name="Layer 1">
    <path class="cls-4" d="m732.27,162.59c-.38.37-.49.82-.4,1.33-.79.46-.77,1.24-.87,1.97-1.26.63-2.53,1.25-3.79,1.88-1.04.35-2.08.71-3.12,1.06-.27.13-.54.26-.8.4-.45.18-.9.37-1.35.55-2.08.55-4.18,1.03-6.23,1.65-2.59.78-5.36,1.4-6.34,4.24-.04.14-.08.28-.12.42-.14.33.03.48.36.55.15.05.3.05.45,0,.12.25.23.5.35.74-.11.18-.23.35-.34.53-.46.38-.53.72.15.96.17.05.34.1.51.15,1.98,3.42,2.88,7.21,4.42,10.78.54,1.26,1.22,1.57,2.55,1.11,7.12-2.52,14.77-4.05,21.21-7.77,3.5-2.03,7.63-3.37,10.42-6.62,1.83-2.13,5.1-2.23,8-2.17,1.45.03,2.67,2.35,2.4,4.34-.16,1.16-.57,2.28-.86,3.43-.1.02-.18.07-.24.15-.78.83-1.56,1.66-2.34,2.49-.23.01-.46.03-.7.04-2.89-.65-5.44-.37-7.16,2.16-.57.21-1.14.43-1.7.64-1.14-.04-2.22.1-3.1.82-.62.33-1.23.65-1.85.98-3.47,1.18-6.8,2.61-10.14,4.08-3.34,1.47-7.18,2.24-10.75,3.46-1,.34-1.9.74-2.38,1.68-.4.35-.4.76-.18,1.2.44,1.97-.04,4.26,2.39,5.51.02.39.04.77.06,1.16.06.33.27.5.63.53-.52.72-.87,1.4.47,1.72-.04.15,0,.26.15.34-.26.7-.17,1.32.49,1.82.02.19.05.39.07.58-.37.53-.35,1.03.15,1.49.1.25.2.5.3.75l-.05.09c-.27.35-.16.62.23.83.13.11.26.21.39.32.9,3.49,2.85,4.15,6.58,2.64,3.86-1.56,7.48-3.64,11.65-4.55.54-.12,1.15-.25,1.54-.57,2.78-2.28,6.16-3.2,9.76-3.64h.05c.29.68.31,1.5,1.17,1.88l.14.05c.13.47.26.94.39,1.41-.04.13-.05.27-.04.41-.51.38-.67.87-.53,1.46-2.2,2.42-5.02,3.87-8.37,4.55-.58.12-1.07.6-1.6.92-.28.07-.56.15-.84.22-.47.18-.94.36-1.41.54-5.14,2.9-10.9,4.36-16.61,5.97-3.16.89-4.6-1.4-6.55-2.81-.07-.37-.2-.69-.64-.81-.7-3.38-1.7-6.68-3.72-9.64,0,0,.04-.06.04-.06.23-.24.22-.48-.03-.71-.17-.66-.34-1.31-.51-1.97-1.13-1.92-1.34-4.21-2.94-5.94.24-.69.02-1.05-.82-.95-.09-.31-.18-.63-.28-.94.59-.23.91-.67.71-1.22-.25-.68-.87-.47-1.41-.34-.38-.53-.83-.83-1.49-.38-1.21-1.13-2.53-.32-3.81-.26-.08-.25-.16-.5-.24-.74,0,0,.02-.02.02-.02.28-.4.28-.85.14-1.28-.65-2.02-.26-3.4,2.04-4.45,2.28-1.04,2.62-3.11.88-6.02-2.29-3.83-4.15-7.89-7.04-11.4-.91-1.1-1.5-2.28-1.64-3.65-.19-1.81,1.08-3.34,3.01-3.55,6.77-.75,13.16-2.6,19.27-5.31.88-.39,1.65-.86,2.27-1.55,1.85-2.1,4.29-3.21,7.19-3.49.09.12.21.2.36.25.88.92,1.89,1.76,2.09,3.07-.02.18-.04.36-.06.55Z"/>
    <path class="cls-4" d="m785.17,132.99c3.76.19,7.56-.63,11.14,1.8,4.41,2.99,5.94,7.28,6.63,11.8.9,5.88,1.83,11.7,5.03,17.07.28.46.43,1.26.2,1.66-2.24,3.88-.26,7.96,1.24,11.31,2.52,5.64,2.57,11.54,4.5,17.17.5,1.44.29,3.23,2.41,3.5,2.28.29,2.92-1.51,3.39-3.04,1.32-4.28,2.56-8.54,4.81-12.48,3.18-5.56,3.85-12.12,6.01-17.9,3.62-9.71,4.5-19.98,7.63-29.7,1.4-4.34,4.36-5.96,9.35-5.08,5.13.91,5.42,4.23,5.15,7.89-.12,1.63-.44,3.29-.98,4.82-2.76,7.75-4.77,15.68-5.25,24-.23,4.1-3.32,6.92-4.76,10.49-.66,1.63-1.11,3.04-.16,4.69-.17.45-.33.91-.5,1.36-2.28,3.95-3.58,8.42-6.67,11.95-1.07,1.23-.58,2.84-.28,4.33-.21.18-.36.39-.47.63-1.94.95-1.75,2.95-2.34,4.58-2.06,5.69-3.47,11.58-5.82,17.22-1.97,4.72-5.8,4.22-9.41,4.16-4.23-.07-7.21-2.5-7.97-6.74-.43-2.41-1.52-4.59-2.71-6.75-.09-.3-.19-.6-.28-.9-.22-7.4-4.27-14.16-5.27-21.42-.03-.19-.13-.33-.29-.44.8-4.07-2.6-6.86-4.01-10.26l.25-.17c1.82-6.29.03-12.22-3.17-17.98-.86-1.55-1.89-1.27-2.96-.19-1.24,1.25-1.8,2.67-1.44,4.44-.29.87-.58,1.73-.88,2.6.07.27.15.53.22.8-2.42,2.26-1.24,5.57-2.24,8.24-1.53,5.51-1.39,11.22-1.2,16.93,0,.62,0,1.23,0,1.85-.59,1.12-1.03,2.27-.58,3.6-.17.59-.35,1.18-.52,1.77-.55.58-.46,1.22-.06,1.87-.13.57-.26,1.14-.4,1.7-.82.95-1.02,2.11-1.01,3.33-.11.38-.23.76-.34,1.14-.1.23-.09.46.04.69-.33.79-.65,1.58-.98,2.37-2.05-.45-3.39.87-5,1.54-1.4-.07-2.79-.15-4.19-.22-2.43-1.06-3.42-3.34-4.94-5.17l-.21-.28c.99-5.62,3.47-10.96,2.65-16.93-.25-1.84.32-3.49.67-5.24,1.74-8.63,4.35-17.09,4.44-26.05,0,0,.11-.06.11-.06,1.84-4.13,3.83-8.2,5.47-12.41,1.7-4.36,5.67-7.85,5.03-13.12.3-.25.59-.51.89-.76Z"/>
    <path class="cls-4" d="m442.3,294.33c-1.1.07-2.14.25-2.94,1.01-.35.35-.7.71-1.05,1.06,0,0-.14.17-.14.17-5.25-.25-10.48-.34-15.3,1.68-1.02.13-2.04.26-3.05.39-3.7,1.51-7.7,1.25-11.68,1.14-.89-.96-2.06-1.3-3.3-1.47-.7-1.97-2.35-3.18-3.97-4.41-.4-2.07-1.77-3.75-2.75-5.58-.22-1-.29-2.04-.68-2.98-1.91-4.54-1.63-9.93-6.42-13.34-.06-.28-.13-.56-.19-.83.07-2.47.57-4.96-.9-7.34.01-.31.02-.62.04-.93-1.33-2.46-.91-5.58-3.56-7.54l-.16-.1c-.19-.74-.38-1.48-.57-2.22-.09-1.19-.66-2.18-1.57-3.02-.12-.52-.25-1.05-.37-1.57.4-2.6.17-5.19-.59-7.78-2.08-5.67-.04-12-4.21-17.38-.4-.52-.06-1.75.27-2.51,1.14-2.68,2.41-5.34,6.22-5.16,3.82.17,6.96,2.71,8.51,6.12,1.19,2.6.93,5.23,1.47,7.82.07.37.13.74.2,1.11.16,1.86.73,3.61,1.91,5.19.05.67.1,1.35.15,2.02.02.61.05,1.21.07,1.82l-.24.2c-.97,2.24-.61,4.41.77,6.54-.78.84-.93,1.65.29,2.39,4.02,11.48,5.79,23.58,12.71,34.26,2.17,3.35,4.74,4.86,9.05,3.34,6.06-2.14,12.07-1.52,18.37-.42,3.11.54,5,1.6,5.75,4.51-.09.71-.17,1.41-.26,2.12,0,0,0,.13,0,.13-.35.26-.7.51-1.05.77-.28.27-.56.54-.84.81Z"/>
    <path class="cls-4" d="m291.48,245.92c-.48.15-.75.49-.89.96-.85.04-1.17.71-1.56,1.3-1.31-.03-2.62-.06-3.94-.09-1.01-.16-2.02-.32-3.03-.49-.28,0-.56-.01-.83-.02-.45-.04-.9-.09-1.35-.13-1.95-.46-3.9-.99-5.86-1.37-2.48-.49-5.03-1.2-7.05.8-.09.1-.19.21-.28.31-.26.22-.18.43.07.63.1.11.23.18.37.2,0,.26-.02.53-.03.79-.17.1-.34.2-.51.3-.54.12-.74.38-.28.89.12.12.24.24.36.35.18,3.82-.68,7.46-.92,11.21-.09,1.32.34,1.9,1.64,2.09,6.96,1.03,13.94,3.14,20.85,2.83,3.76-.17,7.75.52,11.44-1.01,2.42-1.01,5.16.37,7.54,1.72,1.19.68,1.21,3.21.14,4.79-.62.92-1.44,1.7-2.17,2.55-.09-.03-.18-.02-.26.02-1,.36-2,.72-2.99,1.08-.2-.09-.4-.18-.59-.27-2.12-1.85-4.35-2.75-6.85-1.35-.56-.07-1.12-.14-1.68-.21-.92-.54-1.88-.9-2.92-.68-.65,0-1.3,0-1.94.01-3.37-.54-6.74-.8-10.12-1.04-3.39-.24-6.9-1.3-10.37-1.84-.98-.15-1.89-.21-2.68.38-.48.12-.65.47-.66.94-.48,1.88-1.85,3.63-.36,5.79-.15.34-.3.68-.45,1.02-.09.31.02.55.29.73-.74.38-1.32.81-.35,1.68-.1.11-.11.23-.02.36-.51.48-.71,1.06-.37,1.78-.06.18-.13.35-.19.53-.53.28-.73.72-.51,1.34-.02.26-.05.52-.07.78l-.07.05c-.37.18-.39.46-.16.81.06.15.12.3.18.45-.74,3.39.59,4.83,4.32,5.21,3.86.39,7.74.22,11.57,1.31.49.14,1.06.3,1.52.2,3.27-.71,6.46.02,9.62,1.25l.03.03c-.04.71-.37,1.42.17,2.13l.09.11c-.09.46-.19.92-.28,1.38-.09.1-.16.21-.21.33-.58.1-.92.45-1.06,1.01-2.85,1.09-5.8,1.07-8.86.15-.53-.16-1.14.04-1.71.07-.26-.06-.53-.12-.79-.19-.46-.06-.93-.11-1.39-.17-5.49.19-10.88-1.14-16.28-2.31-2.99-.65-3.21-3.26-4.22-5.34.1-.35.13-.68-.18-.98.86-3.22,1.43-6.48,1.02-9.93,0,0,.06-.04.06-.04.29-.1.38-.31.28-.62.14-.64.27-1.28.41-1.92-.12-2.15.68-4.21.09-6.4.49-.48.47-.89-.27-1.18.06-.31.12-.62.17-.93.58.07,1.04-.16,1.11-.73.08-.69-.52-.79-1.03-.92-.09-.63-.33-1.08-1.07-.99-.52-1.51-1.96-1.41-3.05-1.93.04-.25.08-.5.12-.74,0,0,.02,0,.02,0,.4-.22.59-.6.66-1.04.32-2.02,1.23-3.03,3.58-2.9,2.32.13,3.49-1.49,3.29-4.77-.27-4.3-.08-8.62-.98-12.92-.29-1.35-.27-2.62.19-3.86.61-1.64,2.31-2.38,4-1.7,5.92,2.39,11.99,3.66,18.2,4.07.9.06,1.73,0,2.53-.32,2.43-.97,4.91-.83,7.44.22.03.14.09.27.2.37.34,1.18.81,2.35.43,3.57-.09.15-.19.29-.28.44Z"/>
    <path class="cls-4" d="m539.94,194.75c-.1.52.07.95.43,1.31-.39.82.07,1.45.41,2.11-.69,1.22-1.38,2.44-2.07,3.66-.66.87-1.32,1.74-1.98,2.61-.15.26-.29.52-.44.77-.27.4-.53.81-.8,1.21-1.41,1.61-2.87,3.17-4.22,4.82-1.7,2.09-3.64,4.13-2.82,7.02.05.14.1.28.15.42.07.35.3.38.62.25.15-.04.28-.13.37-.25.24.14.48.28.72.42,0,.21.02.42.02.63-.16.57-.03.89.68.7.17-.05.34-.11.51-.16,3.61,1.72,6.53,4.34,9.86,6.42,1.17.73,1.92.62,2.75-.5,4.46-6.03,9.93-11.55,13.12-18.19,1.74-3.62,4.39-7.02,4.84-11.25.29-2.77,2.94-4.67,5.39-6.23,1.22-.78,3.57.45,4.49,2.24.54,1.04.84,2.2,1.25,3.3-.07.07-.11.16-.11.25-.17,1.12-.34,2.23-.51,3.35-.18.14-.37.28-.55.42-2.77,1.07-4.73,2.72-4.7,5.77-.35.49-.7.98-1.04,1.48-.97.6-1.78,1.32-2.1,2.41-.32.61-.65,1.22-.97,1.83-2.2,2.9-4.14,5.93-6.07,9-1.93,3.07-4.67,5.84-6.93,8.83-.63.84-1.15,1.67-1.01,2.71-.13.51.11.85.54,1.09,1.49,1.38,2.42,3.54,5.15,3.21.24.31.47.61.71.92.24.24.51.26.82.09-.02.88.09,1.64,1.37,1.16.05.15.15.21.32.2.19.72.62,1.19,1.45,1.23.13.15.26.3.39.44,0,.64.3,1.04.98,1.15.23.15.46.3.68.45v.1c-.01.44.24.6.67.56.17.02.34.03.5.05,2.75,2.38,4.75,1.84,6.97-1.48,2.3-3.43,4.11-7.16,7.04-10.22.38-.39.81-.84.95-1.32,1-3.43,3.27-6.06,6.01-8.42l.04-.02c.63.39,1.12,1.05,2.05.9l.15-.03c.38.32.76.63,1.13.95.05.13.11.25.2.36-.2.59-.06,1.09.4,1.5-.43,3.22-1.94,5.98-4.33,8.4-.41.42-.54,1.09-.8,1.65-.19.22-.38.43-.57.65-.29.41-.57.82-.86,1.23-2.59,5.25-6.54,9.66-10.34,14.16-2.11,2.49-4.62,1.4-7.05,1.32-.27-.27-.56-.46-1-.32-2.53-2.4-5.25-4.56-8.63-5.88,0,0,0-.07,0-.07.05-.33-.09-.52-.43-.57-.52-.45-1.04-.89-1.56-1.34-2.04-.95-3.53-2.73-5.85-3.26-.2-.7-.58-.88-1.23-.33-.26-.21-.51-.41-.77-.62.36-.52.37-1.06-.11-1.4-.6-.42-.99.1-1.37.51-.62-.23-1.17-.22-1.45.52-1.65-.26-2.29,1.14-3.31,1.91-.21-.16-.42-.32-.62-.48,0,0,0-.02,0-.02,0-.49-.26-.85-.62-1.13-1.7-1.31-2.17-2.66-.87-4.8,1.29-2.12.39-4.02-2.73-5.45-4.1-1.88-7.98-4.2-12.4-5.48-1.39-.4-2.55-1.04-3.46-2.09-1.2-1.38-1.03-3.35.45-4.6,5.18-4.38,9.42-9.46,12.93-15.09.51-.81.88-1.62.99-2.54.33-2.76,1.71-5.03,3.96-6.88.14.04.29.04.44,0,1.26.27,2.58.4,3.5,1.36.09.16.17.32.26.48Z"/>
    <path class="cls-4" d="m426.13,220.86c2-2.31,3.35-5.16,6.74-6.24,4.17-1.33,7.75-.17,11.07,1.64,4.32,2.36,8.6,4.67,13.73,5.3.44.05,1.05.35,1.19.7,1.44,3.37,5.1,4.14,8.05,4.86,4.96,1.2,8.87,4.12,13.53,5.69,1.2.4,2.27,1.43,3.51.21,1.33-1.31.46-2.63-.3-3.69-2.16-2.98-4.34-5.9-5.81-9.31-2.07-4.81-6.04-8.52-8.77-12.79-4.58-7.17-10.89-12.87-15.72-19.72-2.15-3.06-1.74-5.77,1.33-8.53,3.15-2.83,5.48-1.36,7.75.64,1.01.89,1.94,1.92,2.68,3.04,3.72,5.64,7.93,10.89,13.16,15.35,2.58,2.2,2.89,5.58,4.52,8.29.75,1.24,1.44,2.23,3,2.45.21.33.43.67.65,1,1.46,3.43,3.75,6.5,4.53,10.24.27,1.3,1.57,1.79,2.71,2.34.01.22.07.43.18.61-.34,1.72,1.07,2.59,1.85,3.79,2.71,4.16,5.88,8.01,8.41,12.32,2.12,3.62-.12,5.82-1.96,8.11-2.16,2.67-5.24,3.37-8.41,1.74-1.8-.93-3.78-1.32-5.79-1.64-.24-.09-.49-.18-.73-.27-4.97-3.55-11.43-4.34-16.71-7.33-.14-.07-.28-.08-.44-.03-2.27-2.55-5.81-1.76-8.75-2.56v-.25c-3.22-4.31-8.01-6.12-13.39-6.95-1.45-.22-1.78.58-1.6,1.8.21,1.42.86,2.49,2.2,3.14.42.62.85,1.24,1.27,1.86.21.09.42.17.64.26.28,2.68,3.04,3.58,4.3,5.55,2.86,3.73,6.68,6.49,10.53,9.22.4.31.81.61,1.21.92.44.94.98,1.8,2.08,2.17.3.41.6.81.9,1.22.11.64.57.9,1.2.97.31.37.61.74.92,1.1.22,1,.88,1.7,1.69,2.31.19.26.39.53.58.79.1.18.26.29.47.32.36.6.72,1.21,1.07,1.81-1.32,1.09-1.12,2.61-1.48,3.97-.74.86-1.49,1.72-2.23,2.58-1.91,1.03-3.9.53-5.86.59h-.29c-3.21-3.44-5.47-7.7-9.81-10.15-1.34-.76-2.14-1.95-3.11-3.05-4.8-5.42-9.06-11.32-14.91-15.86,0,0,.01-.1,0-.1-1.8-3.24-3.48-6.55-5.43-9.7-2.02-3.27-2.33-7.55-6.11-9.77-.02-.32-.04-.63-.06-.95Z"/>
    <g>
      <path class="cls-4" d="m655.36,201.97c-4.9-4.34-10.44-8.02-16.57-11.07-1.39-.69-3.21-.93-5.19-.83-2.81.14-4.76-.75-5.62-2.86-.66-1.6.87-4.91,2.95-6.44,2.78-2.05,4.96-2.04,6.55-.87,3.63,2.68,6.93,5.7,12.27,6.55,2.63.42,4.71,1.97,6.33,3.65,1.69,1.75,3.66,3.24,6.35,3.61,3.77.51,5.51,3.27,8.84,4.08,5.1,1.24,8.12,4.81,12.94,6.33,1.27.4,1.98,1.43,3.72,1.4,3.26-.06,2.7,2.78,1.79,5.39-.86,2.48-3.11,4.22-5.83,4.93-.3.08-.65.39-.98.58-.46.4-.92.8-1.39,1.2-.65-.49-1.02-1.3-2.28-1.07-.28-.23-.57-.46-.85-.69-.4-.76-.91-1.39-2.22-1.08-.27-.18-.55-.37-.82-.55-.7-.43-1.41-.86-2.11-1.29-.11-.14-.22-.28-.33-.41-.16-1.94-1.61-2.21-3.91-1.37.26-.67.11-1.09-.38-1.29-1.92-2.79-6.34-2.84-8.73-5.12-.09-.09-.64.26-.98.4-.81-.55-.26-2.19-1.63-2.27-.16-.09-.32-.19-.48-.29-.48-.2-.96-.4-1.44-.59Z"/>
      <path class="cls-4" d="m653.02,235.06c-2.32,1.11-4.3,2.85-7.31,2.52-3.7-.42-6.14-2.57-8.16-5.16-2.62-3.36-5.24-6.65-9.07-8.94-.33-.2-.71-.64-.71-.96-.04-3.14-2.67-5.02-4.75-6.61-3.51-2.68-5.63-6.32-8.78-9.18-.81-.73-1.32-1.91-2.68-1.39-1.47.56-1.21,1.89-.95,2.99.73,3.08,1.5,6.13,1.55,9.3.07,4.48,1.99,8.77,2.75,13.05,1.28,7.2,4.39,13.86,5.96,20.9.7,3.15-.5,5.12-3.8,6.19-3.39,1.11-4.74-.86-5.88-3.21-.51-1.05-.9-2.18-1.12-3.31-1.1-5.71-2.71-11.28-5.37-16.59-1.31-2.62-.47-5.37-.87-8.06-.19-1.23-.41-2.24-1.57-2.96-.06-.34-.12-.67-.19-1-.03-3.19-.84-6.39-.24-9.58.21-1.11-.66-1.95-1.37-2.77.06-.18.08-.36.05-.54.82-1.22,0-2.4-.23-3.6-.78-4.2-2.03-8.31-2.62-12.57-.49-3.57,1.97-4.51,4.16-5.65,2.56-1.33,5.2-.8,7.16,1.59,1.11,1.36,2.54,2.35,4.02,3.3.16.16.32.31.48.47,2.76,4.51,7.58,7.39,10.75,11.57.08.11.19.16.33.18.96,2.78,3.99,3.41,6.04,5.06l-.09.19c1.14,4.49,4.31,7.59,8.28,10.12,1.07.68,1.58.17,1.84-.85.3-1.18.13-2.24-.71-3.22-.13-.63-.26-1.26-.4-1.89-.14-.14-.28-.28-.42-.42.65-2.19-1.23-3.86-1.58-5.84-1.04-3.91-3.14-7.41-5.28-10.89-.22-.38-.44-.76-.65-1.14-.05-.89-.19-1.75-.93-2.42-.11-.42-.21-.84-.31-1.27.12-.54-.16-.9-.63-1.18-.12-.39-.24-.79-.37-1.18.15-.86-.14-1.64-.58-2.39-.07-.27-.13-.55-.2-.82-.02-.18-.11-.31-.27-.41-.09-.6-.17-1.19-.26-1.79,1.39-.39,1.72-1.65,2.45-2.58.86-.41,1.72-.82,2.59-1.23,1.83-.14,3.23.95,4.79,1.59l.23.11c1.4,3.81,1.81,7.93,4.42,11.36.8,1.06,1.05,2.27,1.46,3.47,2.02,5.91,3.46,12.01,6.58,17.6,0,0-.04.07-.04.07.37,3.16.61,6.33,1.13,9.48.53,3.26-.61,6.71,1.64,9.77-.09.25-.17.51-.26.76Z"/>
    </g>
    <g class="cls-8">
      <path d="m1213.95,194.57c1.17-2.28,2.2-2.5,4.3-1.12,12.92,8.48,26.51,15.58,40.86,21.45,5.53,2.27,10.77,5.13,15.89,8.23v-7.17c-6.77-3.76-13.67-7.32-20.82-10.42-12.69-5.51-24.92-12.03-35.95-20.51-3.48-2.68-4.92-2.73-7.03,1.14-5.3,9.72-10.48,19.52-15.86,29.2-2.05,3.68-1.3,5.77,2.52,7.51,3.41,1.56,7.19,2.88,9.75,5.68,5.14,5.6,6.39,12.71,6.76,20.03.19,3.92.54,7.81-1.3,11.56-4.8,9.8-9.17,19.82-14.25,29.48-9.69,18.45-19.24,37-29.77,54.98-17.3,29.55-29.59,61.27-41.82,93.06-4.31,11.22-4.94,11.65-16.41,8.27-.42-.12-.85-.2-1.26-.34-7.14-2.54-13.76-1.04-20.03,2.71-2.63,1.58-4.43,3.97-4.63,7.05-.66,10.21.1,20.03,10.05,26.13,3.17,1.94,1.99,3.22,0,5.08-8.4,7.82-17.8,14.09-28.44,18.37-7.38,2.97-15.25,5.09-22.98,2.38-10.6-3.72-20.29-9.51-29.88-15.33-3.35-2.03-5.19-1.5-6.97,1.78-9.5,17.56-19.07,35.09-28.68,52.59-1.48,2.69-.98,4.42,1.52,6.23,8.66,6.26,18.48,10.46,27.65,15.82,1.75,1.02,3.59,1.98,5.15,3.26,7.55,6.22,15.61,11.76,24.1,16.52,22.11,12.38,44.45,24.35,66.64,36.6,4.31,2.39,8.49,5.11,12.45,8.03,12.17,9,24.45,17.82,37.05,26.21,2.77,1.84,6.05,2.9,8.32,5.48.71,1.68,2.5,1.83,3.79,2.68,2.05,1.34,4.56,2,6,4.2,1.67.85,3.37,1.05,5.11.24.55-.32,1.01-.78,1.62-.99l.83-1.54c-.04-1.72,1.12-2.96,1.86-4.33,8.63-15.98,17.31-31.93,25.92-47.92.72-1.34,2.1-2.5,1.64-4.31-.55-3.37-2.48-5.86-5.19-7.74-4.66-3.23-9.29-6.54-14.35-9.15-2.33-1.19-4.67-2.62-5.98-4.95-9.08-16.26-9.72-33.15-3.47-50.5.83-2.3,1.86-3.05,4.77-2.25,10.63,2.9,21.09,3.89,30.39-4.37,6-5.33,7.45-14.13,2.97-20.84-2.68-4.01-6.84-5.8-10.65-8.1-3.15-1.89-3.4-3.55-1.6-6.89,23.59-43.87,47.01-87.82,70.46-131.76v-14.99c-.81,1.7-1.65,3.38-2.53,5.04-17.13,32.12-34.41,64.16-51.17,96.48-7.23,13.97-14.66,27.82-21.95,41.75-1.63,3.12-2.72,4.18-5.92,1.46-5.37-4.57-5.51-4.32-2.16-10.63,15.4-29.1,30.85-58.17,46.11-87.33,6.07-11.61,10.89-23.88,17.63-35.14,6.6-11.02,13.29-21.99,20-32.94v-12.61c-5.45,9.07-11.15,17.99-16.91,26.87-8.1,12.52-14.85,25.73-21.11,39.19-5.48,11.78-11.87,23.05-17.89,34.54-11.5,21.93-23.17,43.79-34.63,65.74-1.67,3.19-2.68,4.72-6.37,1.87-3.32-2.55-6.76-5.01-10.18-7.44-2.75-1.96-2.84-3.59-1.26-6.43,7.78-14.01,15.34-28.15,22.98-42.24.38.2.75.41,1.14.61,18.27-33.69,36.29-67.5,54.93-100.97,5.81-10.43,12.07-20.65,17.4-31.32,3.96-7.95,7.83-15.94,11.9-23.84v-17.64c-2.12-1.03-4.24-2.07-6.34-3.14-8.54-4.38-17.07-8.76-25.5-13.34-12.67-6.87-25.31-13.82-38.05-20.55-2.69-1.42-3.14-2.57-1.58-5.25,3.67-6.28,7.09-12.73,10.42-19.19Zm-138.72,313.79c10.09-4.43,18.23-11.33,26.13-18.62,3.08-2.84,6.31-2.42,8.81-.47,10.24,7.98,21.15,14.89,32.44,21.19,5.68,3.17,10.2,7.68,15.2,11.62,4.56,3.6,8.99,7.38,14.07,10.21,1.75.98,2.26,1.93,1.44,3.78-6.93,15.75-7.27,31.78-1.9,48.02-1.58,1.3-2.35-.18-3.32-.97-36.58-22.84-74.22-43.99-110.05-68.58,5.81-1.44,11.51-3.69,17.17-6.18Zm117.25,97.79c8,5.33,8.19,5.04,3.57,13.57-3.26,6.02-6.53,12.03-9.79,18.06-4.17,7.68-8.38,15.35-12.46,23.07-1.06,2-1.72,2.77-4.11,1.19-13.62-8.94-27.44-17.58-40.36-27.51-24.78-19.04-53.66-30.9-80.34-46.61-11.64-6.86-23-14.13-33.7-22.48-7.24-5.63-15.93-9.03-23.92-13.51-6.88-3.86-6.98-3.81-3.17-10.67,7.29-13.1,14.69-26.13,21.95-39.25,1.09-1.95,1.86-2.86,4.24-1.53,16.77,9.36,34.54,16.88,50.89,26.99,15.21,9.4,30.05,19.4,45.15,28.97,7.49,4.74,15.16,9.22,22.87,13.62,10.11,5.76,20.66,10.71,29.83,18.08,8.99,7.23,19.78,11.61,29.36,18Zm3.83-100.37c3.52,2.58,7.18,4.92,10.91,7.19,7.08,4.29,7.24,11.27.78,16.38-7.68,6.05-15.86,4.04-24.01,1.48-2.05-.65-3.86-2.02-4.92-2.6-8.73-4.15-15.18-9.86-21.7-15.41-4.11-3.51-8.44-6.68-13.15-9.32-13.22-7.41-25.86-15.67-37.26-25.73-1.3-1.14-2.79-2.41-4.38-2.75-8.3-1.79-11.65-10.12-11.05-16.9.2-2.29,1.05-3.77,3.05-4.85,3.19-1.72,6.77-2.72,10.12-1.86,8.25,2.14,16.6,3.96,23.88,9.08,6.52,4.59,13.59,8.45,20.57,12.38,5.11,2.86,9.74,6.34,14.22,10.06,10.33,8.56,22.16,14.95,32.93,22.85Zm57.52-253.3c5.54,3.22,11.23,6.2,16.94,9.11,1.89.97,2.15,1.87,1.1,3.68-2.06,3.52-3.93,7.16-5.87,10.75-5.89,11.87-11.4,23.94-18.15,35.36-17.15,28.98-32.5,58.96-49.21,88.18-12.8,22.4-24.99,45.13-37.29,67.79-1.55,2.86-2.7,3.47-5.47,1.58-2.87-1.97-6.03-3.55-9.17-5.08-3.26-1.58-3.88-3.2-1.96-6.68,13.92-25.28,27.9-50.54,41.27-76.12,11.66-22.32,22.43-45.11,33.81-67.58,6.25-12.34,11.2-25.33,18.45-37.16,4.35-7.12,6.78-15.14,10.95-22.34,1.29-2.22,2.18-2.91,4.62-1.48Zm-33.43-10.87c-.3-2.11-.68-4.2-1.2-7.27,6.43,3.48,12.07,6.37,17.53,9.57,2.48,1.45,6.53,1.46,7.32,4.07.78,2.56-2.36,5.04-3.4,7.75-4.94,12.83-12.5,24.37-18.34,36.74-11.37,24.1-23.64,47.76-35.54,71.6-15.31,30.66-32.51,60.29-48.36,90.64-1.3,2.49-2.48,2.84-4.59,1.22-.8-.62-1.73-1.09-2.66-1.51-3.27-1.49-3.81-3.14-1.96-6.68,7.47-14.33,13.21-29.42,18.84-44.55,3.5-9.41,7.47-18.65,12.23-27.52,14.89-27.74,29.86-55.44,44.63-83.24,5.05-9.51,9.65-19.25,14.31-28.97,3.39-7.06,2.26-14.49,1.2-21.85Z"/>
      <path class="cls-10" d="m1186.26,637.78c3.26-6.02,6.53-12.04,9.79-18.06,4.62-8.53,4.42-8.24-3.58-13.58-9.57-6.38-20.36-10.77-29.35-18-9.17-7.37-19.72-12.32-29.82-18.08-7.71-4.39-15.38-8.88-22.87-13.63-15.11-9.57-29.94-19.57-45.15-28.97-16.36-10.11-34.12-17.63-50.89-26.99-2.38-1.33-3.16-.43-4.24,1.53-7.26,13.11-14.66,26.15-21.95,39.25-3.81,6.86-3.71,6.81,3.17,10.67,7.99,4.48,16.68,7.89,23.92,13.52,10.71,8.33,22.07,15.61,33.71,22.47,26.67,15.71,55.56,27.57,80.34,46.61,12.91,9.92,26.74,18.57,40.35,27.51,2.4,1.58,3.05.81,4.11-1.19,4.09-7.72,8.3-15.39,12.47-23.07Z"/>
      <path class="cls-10" d="m1247.84,311.37c6.76-11.42,12.26-23.49,18.15-35.36,1.95-3.59,3.81-7.22,5.87-10.74,1.05-1.8.79-2.71-1.1-3.68-5.71-2.92-11.39-5.89-16.93-9.11-2.44-1.42-3.34-.74-4.62,1.48-4.17,7.2-6.6,15.23-10.95,22.35-7.25,11.84-12.2,24.83-18.45,37.17-11.38,22.47-22.15,45.26-33.81,67.59-13.36,25.58-27.34,50.83-41.27,76.11-1.92,3.48-1.3,5.1,1.96,6.68,3.14,1.52,6.3,3.11,9.17,5.08,2.77,1.9,3.92,1.29,5.48-1.57,12.3-22.67,24.49-45.4,37.29-67.8,16.71-29.22,32.06-59.2,49.21-88.18Z"/>
      <path class="cls-10" d="m1275,223.13v32.92c-2.12-1.03-4.24-2.07-6.34-3.14-8.54-4.38-17.07-8.76-25.5-13.34-12.67-6.87-25.31-13.82-38.05-20.55-2.69-1.42-3.14-2.57-1.58-5.25,3.67-6.28,7.09-12.73,10.42-19.19,1.17-2.28,2.2-2.5,4.3-1.12,12.92,8.48,26.51,15.58,40.86,21.45,5.53,2.27,10.77,5.13,15.89,8.23Z"/>
      <path class="cls-10" d="m1171.42,584.1c-5.37-16.24-5.03-32.27,1.91-48.03.82-1.85.31-2.8-1.44-3.78-5.09-2.83-9.52-6.61-14.08-10.21-5-3.94-9.52-8.46-15.2-11.63-11.29-6.3-22.21-13.2-32.44-21.18-2.5-1.95-5.74-2.37-8.82.47-7.9,7.29-16.04,14.19-26.12,18.62-5.66,2.48-11.36,4.74-17.17,6.18,35.83,24.6,73.47,45.74,110.05,68.58.97.8,1.73,2.27,3.31.97Z"/>
      <path class="cls-10" d="m1275,273.68v43.42c-5.45,9.07-11.15,17.99-16.91,26.87-8.1,12.52-14.85,25.73-21.11,39.19-5.48,11.78-11.87,23.05-17.89,34.54-11.5,21.93-23.17,43.79-34.63,65.74-1.67,3.19-2.68,4.72-6.37,1.87-3.32-2.55-6.76-5.01-10.18-7.44-2.75-1.96-2.84-3.59-1.26-6.43,7.78-14.01,15.34-28.15,22.98-42.24.38.2.75.41,1.14.61,18.27-33.69,36.29-67.5,54.93-100.97,5.81-10.43,12.07-20.65,17.4-31.32,3.96-7.95,7.83-15.94,11.9-23.84Z"/>
      <path class="cls-10" d="m1129.19,447.74c-1.85,3.54-1.31,5.19,1.96,6.68.93.42,1.86.89,2.66,1.51,2.11,1.63,3.29,1.27,4.58-1.21,15.85-30.36,33.06-59.98,48.37-90.64,11.9-23.84,24.18-47.49,35.55-71.6,5.84-12.38,13.4-23.91,18.34-36.75,1.04-2.7,4.17-5.18,3.4-7.74-.79-2.61-4.83-2.61-7.31-4.07-5.46-3.2-11.1-6.09-17.53-9.58.51,3.08.9,5.17,1.2,7.27,1.05,7.37,2.18,14.79-1.2,21.86-4.65,9.71-9.26,19.46-14.31,28.97-14.76,27.81-29.74,55.5-44.63,83.24-4.76,8.87-8.73,18.11-12.23,27.52-5.63,15.13-11.37,30.22-18.84,44.55Z"/>
      <path class="cls-10" d="m1106.97,477.77c11.4,10.06,24.04,18.32,37.26,25.73,4.71,2.64,9.03,5.81,13.15,9.32,6.52,5.56,12.96,11.26,21.7,15.41,1.06.57,2.87,1.95,4.92,2.6,8.15,2.56,16.33,4.57,24.01-1.48,6.46-5.1,6.3-12.08-.78-16.38-3.74-2.27-7.4-4.61-10.91-7.19-10.78-7.9-22.61-14.29-32.94-22.85-4.48-3.72-9.11-7.19-14.22-10.06-6.98-3.91-14.04-7.77-20.57-12.37-7.27-5.13-15.63-6.94-23.88-9.08-3.35-.87-6.92.13-10.12,1.86-2,1.07-2.85,2.55-3.05,4.85-.59,6.78,2.76,15.11,11.05,16.89,1.59.34,3.1,1.62,4.38,2.75Z"/>
      <path class="cls-10" d="m1275,329.71v21.31c-.81,1.7-1.65,3.38-2.53,5.04-17.13,32.12-34.41,64.16-51.17,96.48-7.23,13.97-14.66,27.82-21.95,41.75-1.63,3.12-2.72,4.18-5.92,1.46-5.37-4.57-5.51-4.32-2.16-10.63,15.4-29.1,30.85-58.17,46.11-87.33,6.07-11.61,10.89-23.88,17.63-35.14,6.6-11.02,13.29-21.99,20-32.94Z"/>
    </g>
    <path class="cls-4" d="m314.96,244.87c-.48-1.17-1.24-2.07-2.35-2.79-3.73-2.41-3.6-7.07-1.46-9.99.35-.48,1.15-.89,1.77-.88,7.4.12,13.9-2.94,20.91-4.16,5.25-.91,10.49-1.88,15.77-2.62,2.24-.31,4.31,1.08,6.42,1.88-.29.67-.11,1.21.57,1.61.18.45.37.89.56,1.34-.15.78-.31,1.57-.46,2.35,0,0,0,.04,0,.04-.64.84-1.27,1.67-1.91,2.51-1.11.21-2.1.92-3.4.25-1.17-.61-2.32-.48-3.34.23-2.48-.52-4.68.3-6.93.88-1.86-1.68-3.67-.78-5.48-.31-1.6-.48-3.17-.59-4.72-.14-1.87.5-3.8.87-5.58,1.56-1.58.61-2.9,1.61-.59,3.32l-.11.23c-.23,2.12.59,3.92,2.14,5.49,1.3,3.24,3.35,6.24,3.77,9.75-.22.6-.03,1.07.58,1.4.05.12.13.21.24.28.5,5.09,2.57,6.33,6.63,3.54,5.94-4.07,11.82-8.26,17.16-13.05,3.97-3.56,7.9-6.99,13.92-6.87.71.03,1.41.06,2.12.09,0,.42,0,.84.01,1.25-.04.19-.08.38-.12.57-.26.68-.04,1.18.69,1.48,0,0-.21.04-.21.04-.42.35-.84.7-1.26,1.05-.29.23-.59.46-.88.69-.1.18-.2.36-.3.55,0,0-.07.16-.07.16-1.63,1.16-3.26,2.33-4.89,3.49-.25.31-.5.63-.75.94-1.39.58-2.01,1.94-3.07,2.85-2.32,1.53-4.04,3.64-5.88,5.65-3.92,1.82-7.17,4.52-10.42,7.22-1.43,1.39-4.18,1.47-4.29,4.16,0,.07-.05.16-.02.2.08.1.2.19.3.28-4.67.88-4.99,1.84-2.06,6.13,1.09,4.55,1.71,4.85,6,3.99,2.76-.55,4.81-2.06,6.9-3.6,2.71-2,5.64-3.39,9.32-2.88,0,0,.02.01.02.01.67,1.21,1.72,1.38,2.89,1.2.74,3.54-1.07,5.24-3.72,7.28-2.91,2.24-6.25,3.48-9.31,5.3-2.71,2.05-6.59,2.27-8.9,4.97-1.5.2-3.09-.11-4.52.49l-.04-.04c-.12-1.83-1.78-2.01-2.97-2.7-1.36-2.14-3.09-4.09-3.95-6.5.08-.08.13-.18.13-.29.92-3.34.02-6.48-2.8-8.67-1.93-1.51-2.89-3.14-3.4-5.25.05-.88.09-1.75.14-2.62,2.08-1.58,1.09-3.7.52-5.68-1.77-6.21-5.23-11.7-8.78-17.14-.19-.16-.38-.32-.58-.49Z"/>
    <g>
      <path class="cls-3" d="m159.32,323.17c3.19-2.63.97-9.7-4.4-13.76-.33-.25-.68-.46-1.04-.67-.49-.22-.96-.49-1.39-.8-.08,0-.16,0-.24,0-4.39-1.73-10.02-1.1-15.42-.52-19.69-1.49-44.35-5.69-64.19-8.68,6.91.24,14.47.49,14.45.48-.67-.29-28.74-5.73-29.41-6.01-3.97-.75-7.45-.78-10.44-2.58-.59-.36-5.98-2.81-6.64-2.58-.48.17-13.01-6.73-13.28-6.87-12.14-6.47-13.86-3.72-25.61-11.17-.18-.06-.79-.44-1.72-1.04v23.23c10.09,4.18,20.82,10.62,31.13,13.02,9.03,2.1,26.22,4.55,35.1,9.45,8.5,4.69,30.86,6.38,39.84,8.59,17.21,4.23,34.29-.45,50.26,5.69,1.3-.03,2.6-.01,3.9.09-1.38-1.74-2.95-4.21-.91-5.9Zm-32.38-15.34c-1.68-.2.4-.1,4.09.1-1.44.06-2.82.05-4.09-.1Z"/>
      <path class="cls-3" d="m451.13,515.45c-5.2,7.64-14.33,15.18-21.01,23.14-1.15,12.59-3.79,25.28-.99,37.61,1.53-2.77,2.63-4.75,2.76-4.9,1.76-3.31,2.63-6.36,5.28-8.55.52-.43,4.45-4.58,4.36-5.21-.06-.46,10.35-9.81,10.57-10.01,9.86-9.11,7.33-11.28,18.14-19.81.12-.15.79-.69,1.82-1.49,2.53-6.38,5.08-12.75,7.59-19.14,2.21-5.63,4.53-11.18,7.2-16.56-13.55,7.98-29.41,15.64-35.73,24.93Z"/>
      <path class="cls-3" d="m421.49,569.93c.46,4.25,1.34,8.11,2.95,11.32,5.17,10.36,6.65,25.38,12.71,35.88.29.5.61,1.03.94,1.58,2.44.15-.48-2.88.03.04.09.51,5.32,5.42,5.44,5.92,8.95,6.35,17.91,12.41,25.13,20.41,2.11.74,4.21,1.51,6.29,2.32-1.6-2.29-3.18-4.54-4.7-6.7,2.53,2.75,5.2,5.64,7.02,7.61.36.15.72.31,1.08.46-3.45-5.62-13.4-21.31-13.58-21.84-2.04-3.18-4.35-5.53-4.87-8.74-.1-.64-1.7-5.9-2.33-6.19-.46-.21-3.19-13.26-3.25-13.53-2.81-12.49-6.23-11.81-7.98-24.7-.29-.72-1.34-11.51-2.17-21.2-7.49,5.87-15.07,11.64-22.7,17.36Z"/>
      <path class="cls-3" d="m450.92,593.38c-.97-1.56-2.35-3.21-4.25-4.8.02.12.03.23.05.35.76.85,2.23,2.4,4.2,4.46Z"/>
      <path class="cls-3" d="m650.3,690.58c-1.01-.02-2.07-.06-3.14-.12-4.21-2.06-9.88-1.87-15.31-1.71-19.48-3.01-43.65-9.1-63.14-13.61,6.86.77,14.37,1.61,14.35,1.6-.65-.34-28.09-7.93-28.73-8.26-3.89-1.05-7.35-1.35-10.15-3.37-.56-.4-5.69-3.26-6.37-3.08-.49.13-12.33-7.71-12.58-7.87-11.48-7.38-13.46-4.78-24.47-13.11-.91-.41-13.38-10.6-21.97-17.79-9.64-10.93-21.41-23.14-27.85-29.88,5.28,8.48-1.58,14.36-4.2-4.46-.38-.43-.58-.67-.57-.72-2.04-1.55-8.87-7.31-12.05-9.87-1.79,17.16,8.64,33.06,17.54,48.05,12.81,11.5,25.57,28.73,38.72,33.68,11.6,4.37,24.01,14.42,36.35,18.34,8.8,2.79,25.7,6.56,34.08,12.13,8.02,5.33,30.14,8.74,38.89,11.64,17.75,5.88,36.31,1.72,52.28,10.95,7,4.05-3.8-3.77.78-6.95,3.42-2.38,1.88-9.59-3.08-14.05-.35-.31-.73-.59-1.11-.85,2.03.06,2.91-.12,1.74-.69Zm-28.36-2.2c-1.66-.33.41-.07,4.07.41-1.44-.05-2.81-.16-4.07-.41Z"/>
      <path class="cls-3" d="m485.84,390.06c-14.68-4.7-30.93-26.83-45.82-30.96-9.78-2.71-20.72-9.98-31.06-12.27-7.38-1.64-21.4-3.48-28.68-7.4-6.97-3.75-25.2-4.94-32.54-6.66-10.46-2.46-20.82-.89-30.82-1.93-1.01.66-2.16.99-3.46,1.22-.03,0-.05,0-.08.01-1.67.35-3.33.76-5,1.13-1.41.31-2.68.38-3.99.09,0,0-.01.01-.02.02-2.57,2.17-.69,7.91,3.72,11.17.31.23.64.43.98.61-1.65.09-2.35.3-1.35.68.82-.06,1.68-.1,2.56-.13,3.59,1.37,8.17.81,12.56.29,16.05,1.05,36.18,4.26,52.36,6.53-5.63-.13-11.79-.28-11.77-.27.55.23,23.46,4.42,24.01,4.65,3.24.58,6.08.57,8.52,2.01.48.29,4.9,2.24,5.43,2.04.39-.14,10.66,5.37,10.89,5.48,9.95,5.17,11.33,2.91,20.97,8.88.77.27,11.77,7.64,19.35,12.85,8.77,8.17,19.37,17.23,25.18,22.23-5.01-6.49.03-11.75,3.79,3.31.35.33.53.51.53.54,2.09,1.29,10.17,6.92,11.78,7.87.11.08.2.13.23.13.25.11,1.27-.02,1.55-.02.96,0,.34-.74-.96-1.75.53-.02,1.05-.23,1.38-.64.16-.21.33-.41.49-.62.47-.26.83-.72,1.45-.76,5.6-.39,8.23-2.89,6.11-7.29-1.22-2.54-2.83-5.25-5.38-7.35-.25-.21-.52-.33-.79-.38-3.61-5.12-9.28-11.82-11.85-13.21-.09-.05-.19-.09-.29-.12Zm-158.27-44.57c1.17-.06,2.29-.07,3.33.04,1.37.15-.33.08-3.33-.04Z"/>
      <path class="cls-3" d="m464.5,524.68c-1.3.37-2.72.97-4.17,1.9.09,0,.17.01.26.02.74-.34,2.1-1.01,3.91-1.92Z"/>
      <path class="cls-3" d="m479.56,408.76c.23.71.46,1.41.69,2.09-.38-.77-.76-1.56-1.14-2.32-.52-.27-1.05-.52-1.58-.78,1.41,5.3,3.46,12.83,3.46,13.14.69,2.45,1.72,4.4,1.39,6.61-.06.44-.11,4.19.25,4.49.26.22-.66,9.3-.68,9.5-.75,8.74,1.65,8.87.12,17.69.05.63-2.17,10.89-3.81,18.01-3.71,9.01-7.49,19.61-9.61,25.42,3.65-5.81,9.91-4.23-1.42,3.82-.15.36-.24.55-.27.56-.34,1.91-2.15,9.53-2.36,10.98-.02.1-.04.19-.02.21,0,.21.48.87.57,1.06.34.67.75-.03,1.13-1.3.21.36.57.64,1.04.72.23.04.47.08.7.12.39.23.9.31,1.16.72,2.36,3.72,5.42,4.64,8.35,1.58,1.7-1.77,3.39-3.86,4.24-6.37.08-.25.09-.48.04-.68,3-4.35,6.59-10.69,6.84-12.96,0-.08,0-.16,0-.24-1.36-11.83,11.39-31.06,9.48-42.83-1.26-7.73.9-17.91-.91-25.88-.89-3.91-2.84-10.03-3.75-15.57-4.55-2.73-9.16-5.36-13.91-7.77Z"/>
      <path class="cls-3" d="m346.21,335.72c-2.87-2.2-6.26-4.4-10.32-5.47-.4-.11-.77-.1-1.09-.04-7.04-3.88-17.3-8.5-20.95-8.77-.13,0-.25,0-.38.01-12.93.63-28.05-4.34-41.83-8.11-5.04-1.04-10.04-.8-15.26-.51-5.96.33-11.78.09-17.73-.17-13.4-.58-26.74-.56-39.89,2.09-2.31.46-4.23-.08-5.65-1.15-2.47.57-5.07,1.15-7.71,1.69-.09,4.73-.19,9.43-.18,14.04.49.12.98.29,1.43.51.05.02.09.05.13.07,2.37.12,4.71.3,6.91,1.09.68-.05,1.37-.06,2.08.02.71.08,6.73.07,7.21-.41.34-.34,14.96.7,15.28.72,14.06.83,14.23-2.33,28.42-.47,1.53-.12,38.81,6.27,39.91,6.79.72.34,13.34,4.58,14.02,4.18.49-.29,1.19-.7,2.02-1.19,5.91,1.55,11.28,2.92,15.41,3.98,1.19-.4,2.47-.47,3.69-.02,4.75,1.72,9.97,1.22,14.97,1.77,2.2.24,4.38.59,6.56.96.14-.22.31-.43.58-.57,5.94-3.17,7.35-7.22,2.39-11.03Z"/>
      <path class="cls-2" d="m373.01,352.99c-7.5-3.4-7.85-7.61,0,0h0Z"/>
      <path class="cls-3" d="m192.97,310.27c-17.74-3.47-34.8,2.27-51.38-3.6-1.12.33-2.27.33-3.34.07,1.53,1.67,3.62,4.27,1.55,6.17-3.03,2.78-.41,9.73,5.19,13.53.4.27.81.49,1.23.7-.02,0-.03,0-.05,0,.42.18.81.4,1.18.65.13,0,.25-.02.38-.03,4.49,1.52,10.07.63,15.43-.21,15.11.43,33.22,2.3,49.85,4.06.31-.4.66-.77,1.09-1.1.03-.09.06-.18.08-.27,1.45-5.47,3.47-11.44,2.7-17.12-8.95-1.19-18.65-1.83-23.91-2.86Zm-24.04,16.53c1.43-.13,2.81-.19,4.09-.1,1.69.12-.39.12-4.09.1Z"/>
      <path class="cls-3" d="m75.49,299.57c3.6.61,7.19,1.22,10.79,1.83.85.14,1.69.29,2.55.33.76.03,1.52-.01,2.28.08.85.1,1.66.39,2.47.67,2.32.81,4.64,1.61,6.88,2.58,2.37,1.03,4.66,2.24,7.17,2.93,2.92.81,6.04.89,8.93,1.78"/>
      <path class="cls-3" d="m470.29,400.99c1.76.97,3.35,2.16,4.94,3.35.3.22.6.45.82.74.17.23.28.49.42.74.64,1.12,1.86,1.92,2.38,3.09-.44-.05-.75-.41-1.01-.73-1.18-1.47-2.56-2.82-4.08-4.01,1.14.72,1.76,1.95,2.84,2.73.39.28.83.5,1.23.78.55.38,1.01.87,1.5,1.32,1.5,1.37,3.36,2.42,5.38,3.04"/>
      <path class="cls-3" d="m453.66,379.69c-.88-.7-1.9-1.25-3-1.62-.72-.24-1.46-.4-2.17-.67-.79-.31-1.51-.76-2.28-1.11-1.03-.47-2.15-.77-3.21-1.19-3.38-1.33-6.03-3.81-9.15-5.57-1.3-.73-2.68-1.35-3.95-2.13-1.26-.79-2.42-1.78-3.04-3.05"/>
      <path class="cls-3" d="m437.91,536.9c-1.58,2.07-4.1,3.43-5.61,5.54-.64.9-1.08,1.9-1.46,2.92-.99,2.63-1.6,5.36-2.54,8-.74,2.11-1.69,4.16-2.23,6.31-.45,1.79-.63,3.62-.8,5.44-.1,1.11-.21,2.23-.16,3.34.11,2.27.87,4.48,1.73,6.62"/>
      <path class="cls-3" d="m437.89,537.11c.84-.73,1.86-1.25,2.86-1.77,1.27-.66,2.54-1.31,3.81-1.97.87-.45,1.74-.9,2.63-1.33,3.93-1.93,8.05-3.53,12.3-4.78.87-.25,1.74-.5,2.64-.64,1.01-.16-25.26,10.53-24.24,10.49Z"/>
      <path class="cls-3" d="m424.56,568.71c.01-.72.15-1.44.29-2.15.06-.31.12-.62.21-.92.12-.42.3-.82.48-1.23.18-.41.36-.82.54-1.23.34-.77.68-1.55,1.2-2.24.25-.32.53-.61.81-.91.46-.48.93-.97,1.39-1.45"/>
      <path class="cls-3" d="m463.81,538.96c-4.07,1.96-7.82,5.16-10.85,8.6s-5.44,7.12-7.78,10.79c-1.08,1.7-2.16,3.41-3.04,5.13-.84,1.66-1.49,3.32-2.07,4.97-1.14,3.26-2,6.52-2.03,9.5"/>
      <path class="cls-3" d="m491.41,410.97c.79,1.26,1.58,2.52,2.36,3.78,1.42,2.27,2.86,4.58,3.44,7.13.64,2.78.22,5.66.49,8.49.11,1.14.33,2.26.36,3.41.04,1.47-.23,2.92-.49,4.37-.64,3.49-1.29,6.99-1.93,10.48"/>
      <path class="cls-3" d="m497.7,481.88c-.69.93-1.37,1.85-2.06,2.78-.44.6-.89,1.2-1.22,1.86-.47.94-.68,1.98-1.07,2.95-.42,1.05-1.04,2.02-1.53,3.05-1.35,2.84-1.68,6.04-3.36,8.73"/>
      <path class="cls-3" d="m487.22,422.76c2.53,1.74,4.93,3.65,7.17,5.7,3.33,3.05,6.45,6.78,6.52,11.06.02,1.26-.23,2.51-.48,3.74-.57,2.86-1.15,5.74-2.2,8.49-.57,1.49-1.28,2.94-1.99,4.39-1.25,2.54-2.5,5.08-3.74,7.62"/>
      <path class="cls-3" d="m485.9,406.62c-3.1-1.84-6.8-2.86-10.52-2.89"/>
      <path class="cls-3" d="m501.04,415.23c-.09,2.94-.19,5.89.04,8.78.18,2.32.58,4.59.73,6.92.18,2.7.05,5.46-.12,8.2-.4,6.73-.95,13.47-1.51,20.2-.13,1.63-.27,3.26-.45,4.89-.27,2.45-.63,4.89-1,7.33-.37,2.47-.74,4.94-1.11,7.42-.19,1.24-.53,2.73-1.46,3.11"/>
      <path class="cls-3" d="m496.06,468.49c1,2.05,1.08,4.4.66,6.61-.42,2.21-1.31,4.33-2.19,6.42-1.02,2.42-2.04,4.85-3.43,7.12-1.32,2.17-2.96,4.17-4.61,6.14-2.01,2.39-4.07,4.75-6.17,7.08-1.29,1.43-2.59,2.84-4.02,4.15-1.43,1.3-3,2.49-4.42,3.8-1.39,1.27-2.64,2.66-3.85,4.07-1.46,1.72-2.86,3.48-4.18,5.29"/>
      <path class="cls-3" d="m464.12,537.22c1.49-1.46,2.71-3.11,3.93-4.76,4.05-5.48,8.1-10.95,12.15-16.43,1.43-1.93,2.87-3.88,3.81-6.05.62-1.44,1.02-2.94,1.56-4.41,1.37-3.7,3.7-7.32,3.34-11.21"/>
      <path class="cls-3" d="m465.32,538.28c6.24-6.81,11.6-14.23,16.96-21.63,1.88-2.59,3.76-5.2,5.16-8.03.75-1.5,1.35-3.06,1.96-4.61,2.09-5.38,4.19-10.76,6.28-16.14.21-.53.42-1.08.47-1.64.05-.59-.07-1.17-.17-1.75-.55-3.01-.72-6.07-.51-9.11"/>
    </g>
    <g class="cls-1">
      <path class="cls-6" d="m84.43,490.2c-4.93,2.33-10.13,3.96-15.36,5.45-1.41.4-1.86,1.07-1.19,2.43,1.15,2.36,1.82,4.89,2.64,7.37,5.24,15.77,12.08,30.92,17.9,46.47.84,1.94,1.76,3.86,2.48,5.84.55,1.52,1.28,1.71,2.73,1.04,4.66-2.17,9.4-4.17,14.49-5.17,1.84-.36,1.98-1.24,1.25-2.77-2.4-5.11-4.13-10.48-5.64-15.92-.51-1.83-1.21-3.72-2.3-5.24-2.29-3.19-3.36-6.83-4.61-10.44-3.24-9.31-6.5-18.61-9.71-27.93-.5-1.45-1.14-1.87-2.67-1.14Z"/>
      <path class="cls-9" d="m287.7,401.99c-2.62-5.57-4.98-11.26-7.57-16.84-1.59-3.42-2.98-3.95-6.56-2.59-2.98,1.13-5.88,2.46-8.81,3.73-6.7,2.91-13.45,5.73-19.79,9.38-3.73,2.15-3.64,2.31-4.22-1.78-.43-3.02-1.78-3.87-4.63-2.58-2.19.99-4.51,1.42-6.8,1.95-2.24.52-4.47,1.17-6.23,2.59-9.7,7.85-21.44,12.14-32.29,17.88-13.26,7-27.42,12.31-41.26,18.21-4.06,1.73-8.25,3.27-12.52,4.37-11.43,2.94-22.19,7.56-32.68,12.82-7.35,3.69-14.58,7.63-22.13,10.92-4.51,1.96-5.08,2.9-3.54,7.64.45,1.4.19,1.93-1.14,2.47-11.43,4.7-21.87,11.49-33.44,15.91-2.38.91-3.04,2.29-1.79,4.74,2.06,4.04,3.94,8.18,4.96,12.64,1.75,4.06,3.5,8.12,5.24,12.18,9.34,21.72,18.67,43.44,28.01,65.16,2.54,1.72,5.07.46,7.3-.53,6.3-2.8,12.94-4.04,19.66-4.99,2.74-.39,5.56-.28,8.09-1.67,1.43-.79,1.75.26,2.14,1.21,3.14,7.66,6.74,15.1,10.21,22.61,1.13,2.44,2.35,3.25,4.94,2.05,9.34-4.31,18.78-8.16,28.81-10.83,11.35-3.03,22.77-6.52,32.28-14.37,3.36,7.56,5.97,15.18,8.61,22.8,5.08,14.65,11.7,28.68,17.24,43.15.93,2.41.32,3.21-1.83,3.86-5.33,1.61-10.36,4.01-15.5,6.12-2.21.91-2.97,2.39-2.49,4.57,1.04,4.72,1.79,9.54,3.23,14.14,4.58,14.6,10.4,28.77,15.36,43.25,3.48,10.19,8.27,19.93,12.53,29.85,1.94,4.53,2.39,4.64,7.15,2.63,10.82-4.57,21.04-10.4,31.96-14.75.38-.15.72-.39,1.08-.59,9.2-5.03,18.21-10.43,27.93-14.46,5.61-2.33,11.19-4.76,16.8-7.09,1.94-.81,3.33-1.91,2.38-4.14-3.73-8.72-6.77-17.85-11.49-26-7.19-12.41-13.69-25.1-19.45-38.2-2.19-4.99-4.39-9.97-6.58-14.96-1.97-4.49-2.63-4.72-7.15-2.86-4.09,1.68-8,3.81-12.35,4.83-.97.23-1.69.59-2.16-.66-2.89-7.64-7.34-14.56-10.57-22.03-5.8-13.42-11.32-26.97-16.98-40.45-2-4.77-2.04-4.75,2.78-6.75.19-.08.39-.14.57-.25,6.85-4.07,14.33-6.72,21.68-9.66,12.44-4.97,24.44-10.94,36.66-16.39,3.39-1.51,3.76-3.06,2.29-6.34-3.44-7.63-6.84-15.28-10.37-22.87-.83-1.78-.59-2.61,1.34-3.37,4.12-1.62,7.83-4.07,11.67-6.26,6.87-3.91,13.41-8.44,21.07-10.84,2.21-.69,2.62-2.22,1.65-4.33-11.32-24.65-21.78-49.69-33.33-74.24Zm-200.6,89.35c3.21,9.32,6.47,18.62,9.71,27.93,1.25,3.6,2.33,7.25,4.61,10.44,1.09,1.52,1.79,3.41,2.3,5.24,1.51,5.44,3.24,10.8,5.64,15.92.72,1.54.58,2.41-1.25,2.77-5.08,1-9.82,2.99-14.49,5.17-1.45.68-2.18.48-2.73-1.04-.71-1.99-1.64-3.9-2.48-5.84-5.82-15.55-12.66-30.7-17.9-46.47-.82-2.48-1.49-5.02-2.64-7.37-.66-1.36-.21-2.03,1.19-2.43,5.24-1.49,10.43-3.12,15.36-5.45,1.54-.72,2.18-.3,2.67,1.14Zm-4.56-5.26c-3.79,1.31-7.55,2.7-11.32,4.05-1.55.55-3.14,1.01-4.65,1.65-4.74,2.01-5.05,3.28-3.39,7.88,5.82,16.11,12.27,31.97,18.43,47.95,2.03,5.27,4.33,10.43,6.56,15.61.89,2.07,2.31,2.5,4.45,1.41,5.23-2.66,10.62-4.92,16.29-6.53,2.22-.63,3.2-.07,3.69,2.01.36,1.57.84,3.11,1.37,4.63,1.43,4.11.95,4.92-3.66,5.5-3.87.48-7.72.98-11.56,1.75-3.96.8-7.78,1.92-11.46,3.52-2.24.98-3.52.95-4.54-1.73-2.24-5.94-4.93-11.71-7.44-17.54-.11.05-12.19-27.24-17.96-40.99-3.31-7.89-6.27-15.94-9.43-23.89-.46-1.15-.43-1.83.89-2.32,10.17-3.76,19.24-9.81,29.23-13.97,1.97-.82,3.05-.8,3.34,1.46.31,2.44,1.31,4.67,2.35,6.84.72,1.48.32,2.18-1.17,2.7Zm191.76,140.33c1.63-.71,2.08-.09,2.66,1.22,3.75,8.37,7.76,16.63,11.32,25.08,3.57,8.48,8.35,16.29,12.82,24.29,4.52,8.1,8.15,16.65,11.8,25.17.6,1.4-.09,1.69-1.17,2.14-5.04,2.1-10.04,4.28-15.06,6.42-8.72,3.71-16.83,8.57-25.12,13.1-6.68,3.66-13.98,6.01-20.66,9.72-4.21,2.34-8.72,4.17-13.04,6.32-1.6.79-2.11.47-2.75-1.19-2.04-5.26-4.39-10.41-7.39-17.39-5.76-11.24-8.91-25.56-14.72-38.85-3.71-8.47-5.51-17.43-7.81-26.29-.47-1.83.46-2.32,1.8-2.86,5.92-2.37,11.96-4.51,17.73-7.2,16.15-7.55,33.3-12.56,49.61-19.68Zm-54.45,1.24c-5.82-13.51-11.03-27.26-15.9-41.14-1.5-4.27-3.36-8.43-5.17-12.59-.62-1.44-.62-2.17,1.01-3.04,7.55-4.04,15.63-6.89,23.38-10.48,1.44-.67,1.96-.17,2.48,1.08,1.73,4.19,3.56,8.35,5.35,12.51-.11.05,4.75,11.77,7.16,17.64,4.84,11.74,10.77,22.98,15.98,34.55.96,2.13.86,3.17-1.58,3.87-8.73,2.5-16.88,6.5-25.22,10.01-1.09.46-2.04,1.01-2.51-.76-1.09-4.12-3.31-7.78-4.98-11.66Zm70.33-104.16c.95,2.18.6,3.03-1.57,4-20.14,8.95-40.38,17.65-60.82,25.89-10.49,4.23-21.06,8.37-30.95,13.95-.18.1-.36.21-.54.3-3.46,1.66-6.83,3.17-9.72,6.08-2.98,3.01-7.53,4.05-11.54,5.68-11.73,4.76-24.52,6.34-35.87,12.19-.55.28-1.13.49-1.7.75-5.51,2.53-5.63,2.58-7.97-2.82-4.38-10.07-9.24-19.95-12.44-30.51-.43-1.43-1.15-2.82-.26-4.36.38-.66.38-1.48-.17-2-4.44-4.24-5.2-10.18-7.21-15.53-1.56-4.16-3.42-8.17-5.21-12.22-2.48-5.61-4.57-11.41-6.44-17.26-2.74-8.57-5.91-16.95-9.52-25.17-2.32-5.28-2.88-11.11-5.1-16.43-.5-1.19.52-1.34,1.22-1.65,12.6-5.6,24.46-12.7,37.25-17.95,7.84-3.22,16.03-5.19,23.99-7.95,1.94-.67,3.9-1.29,5.79-2.11,12.3-5.3,24.68-10.41,36.84-16.01,7.36-3.39,14.16-8.03,21.59-11.26,7.11-3.1,13-8.26,20.16-11.05,5.5-2.15,5.65-1.87,8,3.58,8.7,20.2,17.37,40.41,26.05,60.62-.06.03-.13.05-.19.08,8.76,20.39,17.48,40.8,26.34,61.15Zm-27.42-76.22l.04-.02c-4.02-9.35-7.99-18.73-12.1-28.04-.81-1.82-.49-2.55,1.37-3.32,3.79-1.57,7.54-3.29,11.17-5.21,2.3-1.22,3.16-.47,3.95,1.62,1.58,4.14,3.31,8.23,5.07,12.3,6.13,14.15,12.24,28.3,18.5,42.39.99,2.23.48,2.96-1.64,3.93-3.63,1.67-7.35,3.22-10.65,5.55-1.79,1.26-2.78,1.18-3.73-1.12-3.87-9.41-7.97-18.73-11.99-28.08Zm50.28,30.95c-9.14,3.36-16.86,9.38-25.36,13.95-5.02,2.7-4.92,3.01-7.03-2.08-.42-1.02-.75-2.08-1.08-3.14-1.35-4.36-1.28-4.25,2.84-6.73,3.81-2.3,7.9-3.98,11.95-5.74,3.62-1.57,3.96-2.27,2.43-5.75-3.89-8.86-7.34-17.92-11.8-26.06-4.46-11.26-9.81-21.7-13.42-32.85-.28-.86-.74-1.66-1.09-2.49-1.08-2.56-2.78-3.16-5.4-1.91-4.91,2.36-9.92,4.52-14.84,6.86-1.54.73-2.41.62-2.96-1.09-.46-1.43-1.17-2.79-1.76-4.18-2.2-5.13-2.22-5.16,2.98-7.9,8.2-4.33,16.78-7.81,25.33-11.38,1.46-.61,2.13-.51,2.74,1.02,4.15,10.51,9.58,20.44,13.95,30.84,7.69,18.31,16.42,36.16,24.16,54.45.94,2.23.89,3.25-1.63,4.18Z"/>
      <path class="cls-7" d="m264.03,462.26c-8.68-20.21-17.36-40.42-26.05-60.62-2.35-5.45-2.5-5.73-8-3.58-7.16,2.8-13.05,7.96-20.16,11.05-7.42,3.23-14.22,7.86-21.59,11.26-12.16,5.6-24.54,10.71-36.84,16.01-1.89.81-3.85,1.43-5.79,2.11-7.96,2.76-16.15,4.73-23.99,7.95-12.79,5.25-24.65,12.34-37.25,17.95-.7.31-1.72.46-1.22,1.65,2.22,5.31,2.78,11.15,5.1,16.43,3.61,8.22,6.78,16.61,9.52,25.17,1.87,5.85,3.96,11.65,6.44,17.26,1.79,4.05,3.65,8.06,5.21,12.22,2.01,5.35,2.77,11.29,7.21,15.53.54.52.55,1.34.17,2-.89,1.55-.18,2.93.26,4.36,3.2,10.56,8.07,20.44,12.44,30.51,2.35,5.4,2.47,5.35,7.97,2.82.56-.26,1.15-.47,1.7-.75,11.36-5.85,24.15-7.42,35.87-12.19,4.01-1.63,8.56-2.68,11.54-5.68,2.89-2.91,6.25-4.42,9.72-6.08.19-.09.36-.2.54-.3,9.9-5.58,20.46-9.72,30.95-13.95,20.44-8.25,40.68-16.94,60.82-25.89,2.18-.97,2.52-1.82,1.57-4-8.85-20.35-17.58-40.76-26.34-61.15.06-.03.13-.05.19-.08Z"/>
      <path class="cls-7" d="m224.69,646.09c-5.77,2.7-11.8,4.83-17.73,7.2-1.34.54-2.28,1.03-1.8,2.86,2.3,8.86,4.11,17.82,7.81,26.29,5.81,13.29,8.96,27.61,14.72,38.85,3,6.98,5.34,12.12,7.39,17.39.65,1.67,1.16,1.99,2.75,1.19,4.33-2.15,8.83-3.98,13.04-6.32,6.68-3.71,13.98-6.07,20.66-9.72,8.29-4.54,16.4-9.4,25.12-13.1,5.02-2.14,10.03-4.32,15.06-6.42,1.08-.45,1.77-.74,1.17-2.14-3.65-8.52-7.28-17.07-11.8-25.17-4.47-8-9.25-15.8-12.82-24.29-3.56-8.45-7.57-16.71-11.32-25.08-.58-1.3-1.03-1.93-2.66-1.22-16.31,7.11-33.46,12.13-49.61,19.68Z"/>
      <path class="cls-7" d="m227.34,640.07c8.34-3.51,16.49-7.51,25.22-10.01,2.44-.7,2.54-1.74,1.58-3.87-5.21-11.57-11.15-22.81-15.98-34.55-2.42-5.87-7.28-17.59-7.16-17.64-1.79-4.17-3.62-8.32-5.35-12.51-.52-1.25-1.04-1.75-2.48-1.08-7.75,3.59-15.82,6.44-23.38,10.48-1.62.87-1.63,1.61-1.01,3.04,1.81,4.16,3.67,8.31,5.17,12.59,4.88,13.88,10.08,27.63,15.9,41.14,1.67,3.88,3.89,7.54,4.98,11.66.47,1.77,1.42,1.22,2.51.76Z"/>
      <path class="cls-7" d="m276.57,388.75c-.6-1.53-1.28-1.63-2.74-1.02-8.55,3.57-17.13,7.05-25.33,11.38-5.2,2.75-5.18,2.78-2.98,7.9.6,1.39,1.3,2.74,1.76,4.18.55,1.71,1.42,1.82,2.96,1.09,4.92-2.34,9.93-4.51,14.84-6.86,2.62-1.25,4.32-.65,5.4,1.91.35.84.82,1.63,1.09,2.49,3.61,11.15,8.96,21.59,13.42,32.85,4.46,8.14,7.9,17.2,11.8,26.06,1.53,3.48,1.19,4.18-2.43,5.75-4.05,1.76-8.14,3.44-11.95,5.74-4.11,2.49-4.19,2.37-2.84,6.73.33,1.06.66,2.12,1.08,3.14,2.11,5.09,2.01,4.78,7.03,2.08,8.5-4.57,16.21-10.58,25.36-13.95,2.51-.93,2.57-1.95,1.63-4.18-7.74-18.29-16.46-36.14-24.16-54.45-4.37-10.4-9.8-20.34-13.95-30.84Z"/>
      <path class="cls-7" d="m81.36,476.55c-.29-2.26-1.36-2.28-3.34-1.46-9.99,4.16-19.06,10.21-29.23,13.97-1.32.49-1.35,1.16-.89,2.32,3.17,7.96,6.12,16,9.43,23.89,5.77,13.76,17.85,41.04,17.96,40.99,2.51,5.84,5.2,11.6,7.44,17.54,1.01,2.68,2.29,2.71,4.54,1.73,3.68-1.61,7.5-2.73,11.46-3.52,3.84-.77,7.69-1.26,11.56-1.75,4.62-.58,5.09-1.39,3.66-5.5-.53-1.52-1.01-3.06-1.37-4.63-.48-2.08-1.47-2.64-3.69-2.01-5.67,1.61-11.06,3.87-16.29,6.53-2.14,1.09-3.56.66-4.45-1.41-2.23-5.19-4.53-10.35-6.56-15.61-6.15-15.98-12.61-31.84-18.43-47.95-1.66-4.6-1.34-5.88,3.39-7.88,1.51-.64,3.1-1.1,4.65-1.65,3.77-1.35,7.54-2.74,11.32-4.05,1.49-.52,1.89-1.22,1.17-2.7-1.05-2.17-2.04-4.39-2.35-6.84Z"/>
      <g>
        <path d="m182.05,491.74l1.03,8.85.17,5.61,13.01-4.69,4.87,11.33-17.4,8.89.46,16.71-10.7.86-1.38-11.8-6.27,3.21-9.51,3.31.49,16.18-10.7.86-1.51-13.03-9.45,3.16-4.87-11.33,12.58-6.31-1.06-9.22-.09-5.12-13.17,4.63-4.87-11.33,17.67-8.88-.38-16.23,10.59-.81,1.26,11.21,6.15-3.16,9.78-3.3-.42-15.7,10.59-.81,1.44,12.55,9.29-3.22,4.87,11.33-12.47,6.26Zm-20.02,10.15l-7.2,2.57.88,7.88.13,4.59,6.93-3.5,7.31-2.62-.91-8.26-.1-4.22-7.04,3.54Z"/>
        <path d="m226.56,518.96l-12.74-32.73-9.04-18.58-11.66,4.75-5.68-8.01,17.97-13.4,14.68-6.31,12.87,33.32,15.08,31.73-21.47,9.22Z"/>
      </g>
    </g>
    <g class="cls-5">
      <path class="cls-4" d="m98.8,282.91c6.77,11.48,15.29,22.01,25.45,31.63,2.31,2.19,5.8,3.71,9.86,4.67,5.76,1.36,9.05,4.26,9.28,8.96.17,3.56-5.3,9.25-10.59,11.08-7.08,2.46-11.48,1.17-13.85-2.08-5.4-7.43-9.87-15.35-20.04-20.15-5.01-2.36-8.08-6.65-10.14-10.92-2.15-4.46-5.05-8.57-10.21-10.85-7.23-3.2-8.75-9.69-14.9-13.24-9.39-5.42-12.92-14.28-21.54-20.1-2.28-1.54-2.97-3.98-6.49-4.93-6.62-1.78-3.45-7.09.26-11.74,3.53-4.43,9.31-6.58,15.31-6.41.66.02,1.59-.39,2.39-.59,1.22-.52,2.44-1.05,3.66-1.57.95,1.35,1.13,3.18,3.83,3.46.4.63.81,1.25,1.21,1.87.25,1.74.83,3.29,3.71,3.43.42.52.84,1.04,1.25,1.57,1.11,1.26,2.22,2.52,3.33,3.78.12.34.25.68.37,1.02-1.07,3.94,1.65,5.32,6.9,4.99-1.01,1.18-1.02,2.1-.16,2.79,1.86,6.66,10.75,9.32,13.93,15.24.12.23,1.48-.13,2.27-.22,1.23,1.55-1.05,4.5,1.66,5.46.26.28.51.56.76.85.83.67,1.65,1.34,2.48,2.02Z"/>
      <path class="cls-4" d="m163.5,235.93c-12.1-11.32-27.31-14.07-45.14-12.1-17.77,1.96-31.6,9.74-44.27,20.58-9.03,7.72-14.28,7.19-21.86-1.36l.09-.15c2.85-2.5.3-3.86-1.11-5.46,6.25-13.18,21.14-16.36,33.04-23,10.23-.55,18.28-7.73,28.39-8.64,1.42.14,2.83.28,4.24.42.91.26,1.58-.02,2.01-.82.7-.33,1.39-.67,2.08-1,4.82.18,9.64.36,14.46.53.43.13.85.1,1.26-.08,3.88.51,7.76,1.02,11.64,1.53.3.1.61.11.92.02,7.07,1.83,14.15,3.66,21.23,5.48.81.23,1.62.46,2.43.69,1.24,2.39,2.06,5.2,6.15,4.74,0,0,.57-.01.56-.01,1.8,4.32,4.57,7.91,9.42,9.92.23.37.56.65,1,.81,4.79,6.33,9.49,12.72,15.36,18.32,1.22.7,2.44,1.4,3.66,2.1-.84,8.18,4.68,14.29,8.42,20.66,4.01,6.83,9,14.02,10.38,20.97,1.89,9.55,2.78,20.5-3.24,30.43-5.27,8.71-13.96,12.96-24.05,16.71-23.64,8.77-48.14,7.55-72.29,10.33-4.91.56-9.37-.68-11.61-4.68-2.76-4.91.82-8.69,4.52-12.27,1.61-.57,3.23-1.14,4.85-1.72,3.91.38,7.72-.18,11.41-1.66,2.14,1.49,4.41,1.93,6.92.26,1.31-.41,2.62-.81,3.94-1.22.8-.5,1.61-1,2.41-1.5,5.13,1.38,10.12-.52,15.16-1.28,1.86.09,3.88.7,5.55.19,7.54-2.28,14.48-5.99,22-8.5,3.22-1.08,7.49-4.49,7.89-8.67.9-9.31-1.52-17.98-5.34-26.38-3.04-6.68-5.65-13.53-8.45-20.3-4.89-3.18-8.46-6.95-10.71-12.33-2.15-5.14-7.85-8.37-13.04-11.49l-.28-.07Z"/>
    </g>
    <g>
      <path class="cls-4" d="m138.42,265.59c4.97,8.41,11.25,16.11,18.76,23.13,1.71,1.6,4.3,2.7,7.31,3.38,4.28.97,6.71,3.09,6.86,6.54.11,2.62-3.99,6.83-7.94,8.21-5.28,1.85-8.55.93-10.29-1.45-3.98-5.43-7.26-11.24-14.8-14.71-3.71-1.71-5.97-4.85-7.48-7.98-1.58-3.27-3.71-6.28-7.53-7.93-5.36-2.32-6.46-7.08-11.01-9.66-6.96-3.94-9.53-10.44-15.91-14.67-1.69-1.12-2.19-2.91-4.8-3.59-4.91-1.28-2.53-5.2.26-8.64,2.65-3.28,6.96-4.89,11.42-4.8.49,0,1.19-.29,1.78-.45.91-.39,1.82-.78,2.73-1.18.7.99.82,2.34,2.83,2.52.3.46.59.92.89,1.37.18,1.28.6,2.42,2.74,2.5.31.38.62.76.92,1.15.82.92,1.64,1.84,2.45,2.76.09.25.18.5.27.75-.82,2.9,1.2,3.9,5.1,3.63-.76.88-.77,1.55-.14,2.06,1.35,4.89,7.95,6.8,10.28,11.14.09.17,1.1-.11,1.69-.17.91,1.14-.81,3.32,1.21,4.01.19.2.38.41.56.62.61.49,1.22.98,1.83,1.47Z"/>
      <path class="cls-4" d="m186.8,230.67c-8.94-8.26-20.23-10.2-33.5-8.66-13.23,1.54-23.55,7.34-33.04,15.38-6.76,5.73-10.66,5.37-16.25-.88l.06-.11c2.13-1.85.24-2.84-.8-4.01,4.72-9.73,15.81-12.15,24.7-17.1,7.61-.46,13.64-5.79,21.16-6.52,1.05.1,2.1.19,3.15.29.68.19,1.18-.02,1.5-.61.52-.25,1.04-.5,1.55-.75,3.58.1,7.17.21,10.75.31.32.09.63.07.94-.07,2.88.35,5.76.71,8.65,1.06.22.07.45.08.69,0,5.25,1.31,10.51,2.61,15.76,3.92.6.16,1.2.33,1.8.49.91,1.75,1.51,3.81,4.55,3.45,0,0,.42-.01.42-.01,1.31,3.17,3.36,5.79,6.95,7.25.17.27.41.47.74.59,3.53,4.63,6.99,9.31,11.32,13.39.9.51,1.81,1.02,2.71,1.52-.67,6.02,3.4,10.49,6.15,15.16,2.94,5,6.62,10.26,7.6,15.37,1.35,7.01,1.95,15.07-2.58,22.41-3.97,6.44-10.46,9.61-17.98,12.43-17.63,6.58-35.84,5.82-53.82,8-3.65.44-6.96-.45-8.61-3.38-2.02-3.6.66-6.4,3.43-9.05,1.2-.43,2.41-.86,3.61-1.29,2.91.26,5.74-.18,8.5-1.28,1.58,1.09,3.27,1.39,5.14.15.98-.31,1.96-.61,2.94-.92.6-.37,1.2-.75,1.8-1.12,3.81.99,7.53-.44,11.28-1.03,1.38.06,2.88.49,4.12.11,5.62-1.72,10.8-4.48,16.41-6.38,2.4-.81,5.59-3.34,5.92-6.42.72-6.86-1.03-13.22-3.83-19.38-2.22-4.9-4.13-9.92-6.17-14.89-3.62-2.31-6.26-5.07-7.9-9.01-1.57-3.77-5.79-6.12-9.63-8.38l-.21-.05Z"/>
    </g>
    <rect class="cls-6" width="88.33" height="752"/>
    <rect class="cls-6" x="108.33" width="88.33" height="752"/>
    <rect class="cls-6" x="216.67" width="88.33" height="752"/>
  </g>
</svg>