<?xml version="1.0" encoding="UTF-8"?><svg id="Layer_1" xmlns="http://www.w3.org/2000/svg" xmlns:xlink="http://www.w3.org/1999/xlink" viewBox="0 0 1280 2238"><defs><style>.cls-1{fill:#0d5ecd;}.cls-2{fill:#fff;}.cls-3{fill:#fdfdfd;}.cls-4{fill:url(#linear-gradient);}.cls-5{opacity:.09;}</style><linearGradient id="linear-gradient" x1="640" y1="1118.09" x2="641.82" y2="2247.8" gradientUnits="userSpaceOnUse"><stop offset="0" stop-color="#0d5ecd"/><stop offset="1" stop-color="#0498eb"/></linearGradient></defs><g><rect class="cls-1" width="1280" height="2238"/><rect class="cls-4" width="1280" height="2238"/></g><g id="D9vOuq.tif" class="cls-5"><g><path class="cls-2" d="m836.23,814.49c.83-.63,1.34-.91,1.73-1.32,5.63-5.82,11.54-11.4,16.75-17.57,3.38-4,7.51-5.5,12.14-5.21,11.25.71,21.96,3.43,30.13,11.92,4.5,4.67,8.18,9.99,9.94,16.42.49,1.78,1.52,3.43,1.89,5.22.28,1.35.2,2.95-.26,4.25-1.32,3.76-3.19,7.33-4.34,11.13-4.07,13.35-7.87,26.78-11.94,40.13-.6,1.98-1.9,3.88-3.28,5.46-1.8,2.05-3.82,1.86-5.44-.31-1.32-1.78-2.56-3.67-3.51-5.67-2.89-6.13-7.64-10.65-12.97-14.45-12.01-8.57-25.39-14.05-39.87-16.95-5.79-1.16-11.53-2.04-17.46-1.44-3.1.31-4.98-1.57-5.32-4.71-1.83-17.08-10.41-29.65-25.39-37.94-6.49-3.6-12.92-7.31-19.43-10.86-2.21-1.21-4.66-1.96-6.87-3.17-3.95-2.15-4.37-4.44-1.34-7.8,1.78-1.97,3.86-3.71,5.92-5.39,4.95-4.04,9.94-8.02,14.97-11.94,1.5-1.17,2.3-2.45,1.95-4.37-1.06-5.76-1.43-11.69-4.12-17.03-1.12-2.21-2.64-4.22-3.98-6.31-.32-.5-.8-.93-.98-1.46-2.77-8.28-8.64-14.25-15.42-19.11-7.64-5.49-15.82-10.23-23.87-15.15-2.71-1.66-5.71-2.84-8.58-4.22-1.42-.68-2.26.18-2.93,1.24-2.32,3.63-4.61,7.27-6.9,10.91-3.79,6.03-7.69,12-11.33,18.12-2,3.37-1.62,4.12,1.94,6.01,5.36,2.85,10.18,6.36,14.26,10.89,5.34,5.92,8.55,12.55,8,20.79-.29,4.28-.14,8.61.1,12.89.06,1.11.98,2.49,1.92,3.19,3.33,2.49,6.89,4.66,10.26,7.1,1.4,1.02,2.46,2.49,3.82,3.58.45.36,1.54.5,1.99.21,2.91-1.88,5.5-1.22,8.35.33,5.07,2.75,10.37,5.09,15.48,7.78,6.62,3.5,13.16,7.16,19.72,10.77,4.5,2.48,7.36,6.39,9.34,11.01,1.4,3.28,2.69,6.6,3.96,9.93,2.27,5.95,2.13,12.25,2.47,18.46.21,3.74-1.34,7.13-3.34,10.24-1.93,3-3.77,6.09-6.03,8.83-3.91,4.74-9.08,7.87-15.14,8.64-9.12,1.17-18.4,2.02-27.35-.87-6.83-2.2-13.45-5.05-20.14-7.69-2.07-.82-3.65-2.25-4.38-4.48-.15-.48-.53-.88-.81-1.32-1.55-2.41-3.19-4.76-4.62-7.23-1.12-1.95-1.52-2.21-3.08-.7-5.54,5.38-12.54,7.82-19.74,9.75-3.71,1-7.54,1.6-11.35,2.19-5.92.92-11.68.4-17.22-2.13-7.5-3.42-15.11-6.59-22.56-10.11-7.34-3.47-13.37-8.78-19.19-14.35-4.93-4.72-9.9-9.41-14.87-14.1-2.52-2.38-3.95-5.2-4.61-8.66-.61-3.23-1.79-6.37-2.91-9.49-1.91-5.29-4.45-10.4-5.85-15.82-2.06-7.96-3.24-16.09-3.65-24.4-.75-15.15,4.1-28.7,10.03-42.24,5.65-12.9,15.74-21.5,26.52-29.63,2.02-1.52,4.16-2.87,6.13-4.45,5.74-4.6,12.38-6.95,19.42-8.91,13.18-3.68,26.12-2.03,39.27-.2,7.88,1.09,15.15,3.71,22.28,6.78,6.18,2.66,12.12,5.94,17.92,9.37,6.57,3.89,12.95,8.15,19.26,12.45,7.81,5.32,14.07,12.06,17.87,20.86.09.2.16.43.3.59,5.67,6.43,7.51,14.32,8.6,22.5.05.37.15.73.21,1.09.3,1.8,1.18,1.89,2.4.79,3.25-2.93,6.75-5.65,9.67-8.89,3.89-4.3,8.82-5.19,14.12-5.24,10.53-.1,19.68,4.11,27.62,10.42,6.35,5.05,10.64,11.99,12.06,20.26.86,4.97-.59,9.46-3.69,13.32-4.7,5.84-9.58,11.52-14.38,17.28-1.53,1.83-1.31,2.31.98,2.79,4.05.85,7.5,2.52,8.71,7.4Zm-127.71-16c3.01-3.77,4.79-8.2,5.66-13.04.35-1.95-.05-3.25-1.97-4.13-2.77-1.26-5.46-2.69-8.16-4.1-1.05-.55-2.24-1.07-2.94-1.94-.58-.72-.97-2.12-.66-2.89.25-.6,1.69-.83,2.64-.98.51-.08,1.12.33,1.65.59,2.54,1.24,5.05,2.51,7.59,3.74,2.63,1.27,3.04,1.03,3.04-1.97,0-3.85-.17-7.71-.12-11.56.04-4.02-1.22-7.58-3.46-10.85-4.31-6.25-9.9-10.98-16.65-14.44-2.79-1.43-3.1-1.42-4.48,1.47-.95,2-1.94,4.02-3.18,5.85-.84,1.24-2.28,2.27-3.82,1.23-1.51-1.02-1.04-2.61-.38-4.02.22-.47.55-.88.79-1.34.78-1.51,1.52-3.05,2.32-4.56,1.06-2,.47-3.52-1.49-4.37-2.71-1.18-5.43-2.71-8.29-3.12-8.82-1.25-17.61-.81-25.95,2.68-2.42,1.01-4.64,2.64-6.73,4.26-1.77,1.37-1.54,2.13.43,3.28,2.63,1.53,5.28,3.03,7.84,4.67,1.36.87,2.63,2.12,1.54,3.86-1.1,1.76-2.66,1.06-4.11.24-3.04-1.72-6.11-3.38-9.13-5.12-1.53-.88-2.8-.81-3.89.67-5.4,7.29-9.88,15.1-11.71,24.05-.88,4.29-1.92,8.91.27,13.12,3.05,5.86,5.38,12.36,11.99,15.51.39.18.68.57,1.02.86,2.48,2.12,4.89,4.33,7.47,6.32,2,1.54,2.87,1.25,4.05-.9,3.27-5.91,6.54-11.82,9.8-17.74,1.18-2.14,2.59-2.96,3.97-2.23,1.36.72,1.56,2.46.52,4.57-.16.33-.35.65-.54.98-3.25,5.84-6.47,11.69-9.76,17.51-.88,1.56-.92,2.75.79,3.72,4.49,2.56,9.15,4.03,14.47,3.27,7.27-1.03,14.62-1.51,21.88-2.64,7.17-1.11,13.91-3.31,17.68-10.52Zm78.82,63.29c.83-1.23,1.88-2.37,2.46-3.71,1.11-2.56,2.69-5.21,2.79-7.87.41-10.37-2.19-20.11-7.24-29.22-1.84-3.32-4.43-5.72-7.72-7.46-5.44-2.88-10.86-5.79-16.32-8.62-5.72-2.96-11.44-5.92-17.25-8.7-.95-.46-2.49-.29-3.52.15-1.97.84-3.71,2.18-5.64,3.12-7.2,3.53-11.65,9.6-14.03,16.85-3.55,10.81-5.46,21.92-1.94,33.25,1.5,4.82,3.22,9.42,8.11,11.97,1.36.71,2.89,1.61,3.63,2.86,1.36,2.3,3.44,3.13,5.71,3.89,2.75.91,5.49,1.84,8.23,2.78,4.75,1.63,9.62,2.49,14.66,2.27,1.78-.08,3.56-.28,5.33-.18,9.77.54,17.52-2.9,22.75-11.39Zm-54-67.56c-4.24-2.88-8.13-5.58-12.09-8.16-1.24-.81-1.79.09-2.24,1.22-1.59,4.06-3.13,8.14-4.92,12.11-4.08,9.07-12.12,12.82-21.13,14.49-7.79,1.44-15.77,1.78-23.64,2.82-5.95.78-11.35-.57-16.48-3.42-2.5-1.39-2.73-1.34-4.07,1.15-4.78,8.89-9.55,17.78-14.37,26.65-.73,1.35-.64,2.38.63,3.26,5.11,3.57,10.18,7.21,16.08,9.47,3.25,1.25,6.37,2.85,9.61,4.15,4.53,1.81,8.82,4.45,13.89,4.5,10.12.09,19.7-2.25,28.81-6.64,3.37-1.62,6.01-4.02,8.2-7.01,1.13-1.54,1.33-3.13,1.1-5.03-.39-3.29-.87-6.68-.5-9.93.6-5.36,1.67-10.7,2.87-15.97,1.72-7.55,6-13.67,11.55-18.89,1.86-1.74,4.18-2.99,6.69-4.74Zm-113.94-69.84c-.07.13-.14.26-.21.38,5.08,2.76,10.2,5.43,15.22,8.3,2.06,1.18,3.48.89,5.05-.81,3.24-3.51,7.21-5.93,11.85-7.17,5-1.34,9.99-2.29,15.25-2.55,7.35-.37,14.2.38,20.6,4.11,1.77,1.03,3.05.6,4.01-1.22,1.4-2.62,2.78-5.26,4.37-7.76,4.43-6.94,8.97-13.82,13.47-20.72.24-.37.48-.75.69-1.14.75-1.34.61-2.52-.94-3.06-4.12-1.45-8.18-3.32-12.44-4.1-7.13-1.31-14.38-2.11-21.62-2.76-10.46-.95-20.58.83-30.08,5.26-3.66,1.7-6.92,4.26-10.33,6.48-7.76,5.05-14.65,11.12-21,17.84-2.34,2.48-2.29,3.19.56,5.16,1.83,1.26,3.69,2.5,5.53,3.76Zm-1.94,5.05c.05-.1.11-.2.16-.3-2.4-1.63-4.79-3.26-7.19-4.87-1.38-.93-2.51-.73-3.28.83-6.38,13.02-11.76,26.2-11.17,41.22.32,8.08,1.14,16.03,3.17,23.77,1.42,5.41,3.89,10.54,5.75,15.84,1.29,3.68,2.21,7.49,3.56,11.15.77,2.09,1.71,4.33,3.22,5.88,4.6,4.73,9.54,9.13,14.3,13.7,3.05,2.93,4.02,2.82,6.02-1,2.44-4.67,4.82-9.38,7.24-14.06,1.81-3.49,3.67-6.96,5.49-10.45.67-1.28.85-2.52-.48-3.59-2.83-2.27-5.4-4.98-8.5-6.78-6.26-3.64-10.57-8.73-13.28-15.34-.5-1.23-1.44-2.29-1.86-3.54-.66-1.94-1.41-3.96-1.49-5.97-.29-6.92.8-13.69,3.97-19.89,2.66-5.2,5.79-10.16,8.77-15.2,1.36-2.3,1.25-2.74-.99-3.96-4.49-2.44-8.94-4.96-13.4-7.45Z"/><path class="cls-2" d="m865.14,927.55c-3.85,5.29-10.37,9.72-17.85,11.66-5.12,1.33-10.93.64-16.34.04-7.94-.87-15.26-3.97-21.73-8.62-4.91-3.53-8.88-8.08-11.69-13.53-.54-1.06-1.06-2.14-1.7-3.13-3.88-5.99-4.56-12.61-3.84-19.49.88-8.51,3.6-16.55,6.81-24.38,2.88-7.01,8.88-10.7,15.88-12.9.21-.07.45-.05.65-.14,9.63-4.24,19.12-1.56,28.52.81,3.17.8,6.27,2.33,9.08,4.05,4.81,2.93,9.38,6.28,14.05,9.44,3.88,2.62,6.04,6.2,7.19,10.8,1.8,7.16,1.83,14.38,1.87,21.64.03,4.66-2.09,8.63-4.14,12.56-1.78,3.41-3.97,6.61-6.77,11.19Zm-7.97-56.94c-6.22-4.97-13.19-7.84-21.1-9.36-6.15-1.18-11.83-1.57-17.88.26-4.14,1.25-8.07,2.67-11.19,5.61-1.51,1.42-2.74,3.34-3.53,5.26-.98,2.38-1.45,4.98-1.99,7.52-.77,3.59-.65,7.45-3.47,10.36-.23.24-.28.68-.34,1.05-1.35,7.34-1.46,14.49,3.12,20.96.59.84.93,1.85,1.44,2.76,2.9,5.21,6.68,9.72,11.78,12.79,8.12,4.88,16.97,7.15,26.55,7,9.8-.15,16.47-5.31,22.04-12.56,1.26-1.63,2.09-3.59,3.18-5.35,3.51-5.66,6.16-11.53,5.05-18.45-.15-.94,0-1.93,0-2.89,0-10.33-2.16-19.53-12.72-24.34-.33-.15-.62-.41-.92-.62Z"/><path class="cls-2" d="m849.88,738.01c5.31,4.12,6.63,11.45,2.75,17.83-1.12,1.84-2.82,3.41-4.5,4.81-1.41,1.17-3.27.92-3.91-.85-2.49-6.82-8.71-9.4-14.16-12.86-2.12-1.35-4.49-2.35-6.53-3.8-.95-.68-2.1-2.26-1.88-3.08.28-1.03,1.81-2.32,2.91-2.44,6.32-.67,12.67-1.21,19.02-1.37,2.08-.05,4.19,1.14,6.29,1.77Z"/><path class="cls-2" d="m898.23,774.37c1.34,1.65,3.06,3.13,3.95,5,2.97,6.18,4.91,12.71,5.46,19.6.13,1.67-.05,3.27-1.93,3.76-1.82.47-2.6-.93-3.33-2.29-3.44-6.43-9.54-9.31-15.95-11.63-2.35-.85-4.95-1.02-7.32-1.82-1.28-.43-3-1.33-3.32-2.39-.31-1.03.55-3.05,1.52-3.72,3.94-2.72,8-5.3,12.25-7.51,2.84-1.48,5.8-.54,8.68,1Z"/><path class="cls-2" d="m683.05,770.98c-.25.37-.51.73-.75,1.11-2.61,4.03-3.99,4.45-8.19,2.18-3.71-2-7.04-4.44-8.58-8.65-1.17-3.19-.93-6.26.61-9.26,1-1.94,2.63-3.12,4.71-2.52,4.18,1.2,8.45,2.37,12.32,4.28,3.75,1.86,4.35,5.19,2.38,8.91-.73,1.37-1.73,2.59-2.6,3.88.04.03.07.05.11.08Z"/><path class="cls-2" d="m728.9,818.57c1.34-1.63,2.85-3.45,4.35-5.29,2-2.44,4.84-2.63,7.66-2.95,4.02-.45,7.99-.68,11.71,1.42,1.94,1.1,3.94,4.72,3.63,6.88-.22,1.5-1.6,2.2-3.49,1.68-1.43-.39-2.81-.95-4.24-1.27-3.59-.79-6.61.6-9.23,2.84-3.38,2.89-6,6.37-7.14,10.78-.26,1-.39,2.14-.95,2.95-.61.87-1.68,2-2.53,1.98-.83-.02-2.05-1.17-2.39-2.09-2.21-5.97-.85-11.51,2.62-16.93Z"/><path class="cls-2" d="m811.68,873.83c4.6-6.96,13.81-10.39,21.89-8.12,2.64.74,5.27,1.52,7.89,2.32.7.22,1.39.55,2.01.94,1.4.88,2.62,2.02,1.76,3.81-.81,1.7-2.43,1.44-3.9.95-5.81-1.93-11.47-.94-16.92,1.22-4.24,1.68-8.04,8.51-7.86,13.34.1,2.73-2.1,5.16-4.8,5.15-1.87,0-2.71-1.25-3.13-2.92-1.15-4.54.3-12.55,3.05-16.71Z"/></g></g><g class="cls-5"><path d="m1213.76,1092.31c1.17-2.28,2.2-2.5,4.3-1.12,12.92,8.48,26.51,15.58,40.86,21.45,5.53,2.27,10.77,5.13,15.89,8.23v-7.17c-6.77-3.76-13.67-7.32-20.82-10.42-12.69-5.51-24.92-12.03-35.95-20.51-3.48-2.68-4.92-2.73-7.03,1.14-5.3,9.72-10.48,19.52-15.86,29.2-2.05,3.68-1.3,5.77,2.52,7.51,3.41,1.56,7.19,2.88,9.75,5.68,5.14,5.6,6.39,12.71,6.76,20.03.19,3.92.54,7.81-1.3,11.56-4.8,9.8-9.17,19.82-14.25,29.48-9.69,18.45-19.24,37-29.77,54.98-17.3,29.55-29.59,61.27-41.82,93.06-4.31,11.22-4.94,11.65-16.41,8.27-.42-.12-.85-.2-1.26-.34-7.14-2.54-13.76-1.04-20.03,2.71-2.63,1.58-4.43,3.97-4.63,7.05-.66,10.21.1,20.03,10.05,26.13,3.17,1.94,1.99,3.22,0,5.08-8.4,7.82-17.8,14.09-28.44,18.37-7.38,2.97-15.25,5.09-22.98,2.38-10.6-3.72-20.29-9.51-29.88-15.33-3.35-2.03-5.19-1.5-6.97,1.78-9.5,17.56-19.07,35.09-28.68,52.59-1.48,2.69-.98,4.42,1.52,6.23,8.66,6.26,18.48,10.46,27.65,15.82,1.75,1.02,3.59,1.98,5.15,3.26,7.55,6.22,15.61,11.76,24.1,16.52,22.11,12.38,44.45,24.35,66.64,36.6,4.31,2.39,8.49,5.11,12.45,8.03,12.17,9,24.45,17.82,37.05,26.21,2.77,1.84,6.05,2.9,8.32,5.48.71,1.68,2.5,1.83,3.79,2.68,2.05,1.34,4.56,2,6,4.2,1.67.85,3.37,1.05,5.11.24.55-.32,1.01-.78,1.62-.99l.83-1.54c-.04-1.72,1.12-2.96,1.86-4.33,8.63-15.98,17.31-31.93,25.92-47.92.72-1.34,2.1-2.5,1.64-4.31-.55-3.37-2.48-5.86-5.19-7.74-4.66-3.23-9.29-6.54-14.35-9.15-2.33-1.19-4.67-2.62-5.98-4.95-9.08-16.26-9.72-33.15-3.47-50.5.83-2.3,1.86-3.05,4.77-2.25,10.63,2.9,21.09,3.89,30.39-4.37,6-5.33,7.45-14.13,2.97-20.84-2.68-4.01-6.84-5.8-10.65-8.1-3.15-1.89-3.4-3.55-1.6-6.89,23.59-43.87,47.01-87.82,70.46-131.76v-14.99c-.81,1.7-1.65,3.38-2.53,5.04-17.13,32.12-34.41,64.16-51.17,96.48-7.23,13.97-14.66,27.82-21.95,41.75-1.63,3.12-2.72,4.18-5.92,1.46-5.37-4.57-5.51-4.32-2.16-10.63,15.4-29.1,30.85-58.17,46.11-87.33,6.07-11.61,10.89-23.88,17.63-35.14,6.6-11.02,13.29-21.99,20-32.94v-12.61c-5.45,9.07-11.15,17.99-16.91,26.87-8.1,12.52-14.85,25.73-21.11,39.19-5.48,11.78-11.87,23.05-17.89,34.54-11.5,21.93-23.17,43.79-34.63,65.74-1.67,3.19-2.68,4.72-6.37,1.87-3.32-2.55-6.76-5.01-10.18-7.44-2.75-1.96-2.84-3.59-1.26-6.43,7.78-14.01,15.34-28.15,22.98-42.24.38.2.75.41,1.14.61,18.27-33.69,36.29-67.5,54.93-100.97,5.81-10.43,12.07-20.65,17.4-31.32,3.96-7.95,7.83-15.94,11.9-23.84v-17.64c-2.12-1.03-4.24-2.07-6.34-3.14-8.54-4.38-17.07-8.76-25.5-13.34-12.67-6.87-25.31-13.82-38.05-20.55-2.69-1.42-3.14-2.57-1.58-5.25,3.67-6.28,7.09-12.73,10.42-19.19Zm-138.72,313.79c10.09-4.43,18.23-11.33,26.13-18.62,3.08-2.84,6.31-2.42,8.81-.47,10.24,7.98,21.15,14.89,32.44,21.19,5.68,3.17,10.2,7.68,15.2,11.62,4.56,3.6,8.99,7.38,14.07,10.21,1.75.98,2.26,1.93,1.44,3.78-6.93,15.75-7.27,31.78-1.9,48.02-1.58,1.3-2.35-.18-3.32-.97-36.58-22.84-74.22-43.99-110.05-68.58,5.81-1.44,11.51-3.69,17.17-6.18Zm117.25,97.79c8,5.33,8.19,5.04,3.57,13.57-3.26,6.02-6.53,12.03-9.79,18.06-4.17,7.68-8.38,15.35-12.46,23.07-1.06,2-1.72,2.77-4.11,1.19-13.62-8.94-27.44-17.58-40.36-27.51-24.78-19.04-53.66-30.9-80.34-46.61-11.64-6.86-23-14.13-33.7-22.48-7.24-5.63-15.93-9.03-23.92-13.51-6.88-3.86-6.98-3.81-3.17-10.67,7.29-13.1,14.69-26.13,21.95-39.25,1.09-1.95,1.86-2.86,4.24-1.53,16.77,9.36,34.54,16.88,50.89,26.99,15.21,9.4,30.05,19.4,45.15,28.97,7.49,4.74,15.16,9.22,22.87,13.62,10.11,5.76,20.66,10.71,29.83,18.08,8.99,7.23,19.78,11.61,29.36,18Zm3.83-100.37c3.52,2.58,7.18,4.92,10.91,7.19,7.08,4.29,7.24,11.27.78,16.38-7.68,6.05-15.86,4.04-24.01,1.48-2.05-.65-3.86-2.02-4.92-2.6-8.73-4.15-15.18-9.86-21.7-15.41-4.11-3.51-8.44-6.68-13.15-9.32-13.22-7.41-25.86-15.67-37.26-25.73-1.3-1.14-2.79-2.41-4.38-2.75-8.3-1.79-11.65-10.12-11.05-16.9.2-2.29,1.05-3.77,3.05-4.85,3.19-1.72,6.77-2.72,10.12-1.86,8.25,2.14,16.6,3.96,23.88,9.08,6.52,4.59,13.59,8.45,20.57,12.38,5.11,2.86,9.74,6.34,14.22,10.06,10.33,8.56,22.16,14.95,32.93,22.85Zm57.52-253.3c5.54,3.22,11.23,6.2,16.94,9.11,1.89.97,2.15,1.87,1.1,3.68-2.06,3.52-3.93,7.16-5.87,10.75-5.89,11.87-11.4,23.94-18.15,35.36-17.15,28.98-32.5,58.96-49.21,88.18-12.8,22.4-24.99,45.13-37.29,67.79-1.55,2.86-2.7,3.47-5.47,1.58-2.87-1.97-6.03-3.55-9.17-5.08-3.26-1.58-3.88-3.2-1.96-6.68,13.92-25.28,27.9-50.54,41.27-76.12,11.66-22.32,22.43-45.11,33.81-67.58,6.25-12.34,11.2-25.33,18.45-37.16,4.35-7.12,6.78-15.14,10.95-22.34,1.29-2.22,2.18-2.91,4.62-1.48Zm-33.43-10.87c-.3-2.11-.68-4.2-1.2-7.27,6.43,3.48,12.07,6.37,17.53,9.57,2.48,1.45,6.53,1.46,7.32,4.07.78,2.56-2.36,5.04-3.4,7.75-4.94,12.83-12.5,24.37-18.34,36.74-11.37,24.1-23.64,47.76-35.54,71.6-15.31,30.66-32.51,60.29-48.36,90.64-1.3,2.49-2.48,2.84-4.59,1.22-.8-.62-1.73-1.09-2.66-1.51-3.27-1.49-3.81-3.14-1.96-6.68,7.47-14.33,13.21-29.42,18.84-44.55,3.5-9.41,7.47-18.65,12.23-27.52,14.89-27.74,29.86-55.44,44.63-83.24,5.05-9.51,9.65-19.25,14.31-28.97,3.39-7.06,2.26-14.49,1.2-21.85Z"/><path class="cls-3" d="m1186.06,1535.53c3.26-6.02,6.53-12.04,9.79-18.06,4.62-8.53,4.42-8.24-3.58-13.58-9.57-6.38-20.36-10.77-29.35-18-9.17-7.37-19.72-12.32-29.82-18.08-7.71-4.39-15.38-8.88-22.87-13.63-15.11-9.57-29.94-19.57-45.15-28.97-16.36-10.11-34.12-17.63-50.89-26.99-2.38-1.33-3.16-.43-4.24,1.53-7.26,13.11-14.66,26.15-21.95,39.25-3.81,6.86-3.71,6.81,3.17,10.67,7.99,4.48,16.68,7.89,23.92,13.52,10.71,8.33,22.07,15.61,33.71,22.47,26.67,15.71,55.56,27.57,80.34,46.61,12.91,9.92,26.74,18.57,40.35,27.51,2.4,1.58,3.05.81,4.11-1.19,4.09-7.72,8.3-15.39,12.47-23.07Z"/><path class="cls-3" d="m1247.65,1209.12c6.76-11.42,12.26-23.49,18.15-35.36,1.95-3.59,3.81-7.22,5.87-10.74,1.05-1.8.79-2.71-1.1-3.68-5.71-2.92-11.39-5.89-16.93-9.11-2.44-1.42-3.34-.74-4.62,1.48-4.17,7.2-6.6,15.23-10.95,22.35-7.25,11.84-12.2,24.83-18.45,37.17-11.38,22.47-22.15,45.26-33.81,67.59-13.36,25.58-27.34,50.83-41.27,76.11-1.92,3.48-1.3,5.1,1.96,6.68,3.14,1.52,6.3,3.11,9.17,5.08,2.77,1.9,3.92,1.29,5.48-1.57,12.3-22.67,24.49-45.4,37.29-67.8,16.71-29.22,32.06-59.2,49.21-88.18Z"/><path class="cls-3" d="m1274.81,1120.87v32.92c-2.12-1.03-4.24-2.07-6.34-3.14-8.54-4.38-17.07-8.76-25.5-13.34-12.67-6.87-25.31-13.82-38.05-20.55-2.69-1.42-3.14-2.57-1.58-5.25,3.67-6.28,7.09-12.73,10.42-19.19,1.17-2.28,2.2-2.5,4.3-1.12,12.92,8.48,26.51,15.58,40.86,21.45,5.53,2.27,10.77,5.13,15.89,8.23Z"/><path class="cls-3" d="m1171.23,1481.84c-5.37-16.24-5.03-32.27,1.91-48.03.82-1.85.31-2.8-1.44-3.78-5.09-2.83-9.52-6.61-14.08-10.21-5-3.94-9.52-8.46-15.2-11.63-11.29-6.3-22.21-13.2-32.44-21.18-2.5-1.95-5.74-2.37-8.82.47-7.9,7.29-16.04,14.19-26.12,18.62-5.66,2.48-11.36,4.74-17.17,6.18,35.83,24.6,73.47,45.74,110.05,68.58.97.8,1.73,2.27,3.31.97Z"/><path class="cls-3" d="m1274.81,1171.43v43.42c-5.45,9.07-11.15,17.99-16.91,26.87-8.1,12.52-14.85,25.73-21.11,39.19-5.48,11.78-11.87,23.05-17.89,34.54-11.5,21.93-23.17,43.79-34.63,65.74-1.67,3.19-2.68,4.72-6.37,1.87-3.32-2.55-6.76-5.01-10.18-7.44-2.75-1.96-2.84-3.59-1.26-6.43,7.78-14.01,15.34-28.15,22.98-42.24.38.2.75.41,1.14.61,18.27-33.69,36.29-67.5,54.93-100.97,5.81-10.43,12.07-20.65,17.4-31.32,3.96-7.95,7.83-15.94,11.9-23.84Z"/><path class="cls-3" d="m1129,1345.49c-1.85,3.54-1.31,5.19,1.96,6.68.93.42,1.86.89,2.66,1.51,2.11,1.63,3.29,1.27,4.58-1.21,15.85-30.36,33.06-59.98,48.37-90.64,11.9-23.84,24.18-47.49,35.55-71.6,5.84-12.38,13.4-23.91,18.34-36.75,1.04-2.7,4.17-5.18,3.4-7.74-.79-2.61-4.83-2.61-7.31-4.07-5.46-3.2-11.1-6.09-17.53-9.58.51,3.08.9,5.17,1.2,7.27,1.05,7.37,2.18,14.79-1.2,21.86-4.65,9.71-9.26,19.46-14.31,28.97-14.76,27.81-29.74,55.5-44.63,83.24-4.76,8.87-8.73,18.11-12.23,27.52-5.63,15.13-11.37,30.22-18.84,44.55Z"/><path class="cls-3" d="m1106.78,1375.51c11.4,10.06,24.04,18.32,37.26,25.73,4.71,2.64,9.03,5.81,13.15,9.32,6.52,5.56,12.96,11.26,21.7,15.41,1.06.57,2.87,1.95,4.92,2.6,8.15,2.56,16.33,4.57,24.01-1.48,6.46-5.1,6.3-12.08-.78-16.38-3.74-2.27-7.4-4.61-10.91-7.19-10.78-7.9-22.61-14.29-32.94-22.85-4.48-3.72-9.11-7.19-14.22-10.06-6.98-3.91-14.04-7.77-20.57-12.37-7.27-5.13-15.63-6.94-23.88-9.08-3.35-.87-6.92.13-10.12,1.86-2,1.07-2.85,2.55-3.05,4.85-.59,6.78,2.76,15.11,11.05,16.89,1.59.34,3.1,1.62,4.38,2.75Z"/><path class="cls-3" d="m1274.81,1227.46v21.31c-.81,1.7-1.65,3.38-2.53,5.04-17.13,32.12-34.41,64.16-51.17,96.48-7.23,13.97-14.66,27.82-21.95,41.75-1.63,3.12-2.72,4.18-5.92,1.46-5.37-4.57-5.51-4.32-2.16-10.63,15.4-29.1,30.85-58.17,46.11-87.33,6.07-11.61,10.89-23.88,17.63-35.14,6.6-11.02,13.29-21.99,20-32.94Z"/></g><g class="cls-5"><path d="m57.81,1522.21c-.96-1.86-1.79-2.04-3.51-.91-10.54,6.92-21.63,12.71-33.34,17.5-4.51,1.85-8.78,4.18-12.96,6.71v-5.85c5.53-3.07,11.15-5.97,16.99-8.5,10.35-4.49,20.33-9.81,29.33-16.73,2.84-2.19,4.01-2.23,5.73.93,4.33,7.93,8.55,15.92,12.94,23.82,1.67,3,1.06,4.71-2.06,6.13-2.79,1.27-5.86,2.35-7.96,4.63-4.19,4.57-5.21,10.37-5.51,16.35-.16,3.2-.44,6.37,1.06,9.43,3.92,8,7.48,16.17,11.63,24.05,7.91,15.05,15.7,30.19,24.29,44.86,14.12,24.11,24.14,50,34.12,75.93,3.52,9.16,4.03,9.51,13.39,6.75.34-.1.69-.16,1.03-.28,5.83-2.07,11.23-.85,16.35,2.21,2.15,1.29,3.61,3.24,3.78,5.75.54,8.33-.09,16.34-8.2,21.32-2.59,1.59-1.62,2.63,0,4.14,6.86,6.38,14.53,11.5,23.2,14.99,6.02,2.42,12.44,4.16,18.75,1.94,8.65-3.04,16.55-7.76,24.38-12.5,2.74-1.66,4.23-1.22,5.68,1.45,7.76,14.33,15.56,28.63,23.4,42.91,1.21,2.19.8,3.61-1.24,5.08-7.07,5.11-15.08,8.53-22.56,12.9-1.43.84-2.93,1.61-4.2,2.66-6.16,5.08-12.73,9.6-19.67,13.48-18.04,10.1-36.27,19.87-54.37,29.86-3.52,1.95-6.93,4.17-10.16,6.56-9.93,7.34-19.95,14.54-30.23,21.39-2.26,1.5-4.93,2.36-6.79,4.47-.58,1.37-2.04,1.49-3.09,2.19-1.67,1.09-3.72,1.63-4.89,3.43-1.36.69-2.75.86-4.17.2-.45-.26-.82-.64-1.32-.81l-.68-1.26c.03-1.41-.91-2.41-1.52-3.53-7.04-13.04-14.13-26.05-21.15-39.1-.59-1.09-1.71-2.04-1.34-3.52.45-2.75,2.02-4.78,4.23-6.31,3.81-2.64,7.58-5.33,11.71-7.46,1.9-.97,3.81-2.14,4.88-4.04,7.41-13.27,7.93-27.05,2.84-41.21-.68-1.88-1.51-2.49-3.89-1.84-8.68,2.36-17.21,3.18-24.79-3.56-4.9-4.35-6.08-11.53-2.42-17,2.19-3.27,5.58-4.73,8.69-6.61,2.57-1.54,2.77-2.9,1.31-5.62-19.25-35.79-38.36-71.66-57.49-107.51v-12.23c.66,1.39,1.34,2.76,2.06,4.11,13.98,26.21,28.08,52.35,41.75,78.73,5.9,11.4,11.96,22.7,17.91,34.06,1.33,2.54,2.22,3.41,4.83,1.19,4.38-3.73,4.49-3.53,1.76-8.68-12.56-23.74-25.17-47.46-37.62-71.26-4.96-9.48-8.88-19.48-14.38-28.67-5.38-8.99-10.85-17.94-16.32-26.88v-10.29c4.45,7.4,9.1,14.68,13.8,21.92,6.61,10.22,12.12,21,17.22,31.98,4.47,9.61,9.68,18.81,14.6,28.18,9.38,17.9,18.9,35.73,28.26,53.64,1.36,2.6,2.19,3.85,5.2,1.53,2.71-2.08,5.51-4.08,8.31-6.07,2.24-1.6,2.32-2.93,1.03-5.25-6.35-11.43-12.52-22.97-18.75-34.46-.31.16-.61.34-.93.5-14.9-27.49-29.61-55.07-44.82-82.39-4.74-8.51-9.85-16.85-14.2-25.55-3.23-6.48-6.39-13-9.71-19.45v-14.39c1.73-.84,3.46-1.69,5.17-2.56,6.97-3.57,13.93-7.15,20.81-10.88,10.34-5.61,20.65-11.28,31.05-16.77,2.19-1.16,2.56-2.1,1.29-4.28-2.99-5.13-5.78-10.38-8.51-15.66Zm113.19,256.04c-8.23-3.61-14.88-9.24-21.32-15.19-2.51-2.32-5.15-1.98-7.19-.39-8.36,6.51-17.26,12.15-26.47,17.29-4.63,2.59-8.32,6.27-12.4,9.48-3.72,2.94-7.33,6.02-11.48,8.33-1.43.8-1.84,1.57-1.17,3.08,5.66,12.85,5.93,25.93,1.55,39.18,1.29,1.06,1.92-.14,2.71-.79,29.85-18.64,60.56-35.89,89.79-55.96-4.74-1.17-9.39-3.01-14.01-5.04Zm-95.66,79.79c-6.53,4.35-6.68,4.11-2.91,11.08,2.66,4.91,5.33,9.82,7.99,14.73,3.4,6.27,6.83,12.53,10.17,18.82.86,1.63,1.4,2.26,3.36.97,11.11-7.29,22.39-14.35,32.93-22.45,20.22-15.53,43.78-25.21,65.55-38.03,9.5-5.6,18.77-11.53,27.5-18.34,5.91-4.59,13-7.37,19.52-11.03,5.61-3.15,5.7-3.11,2.59-8.71-5.95-10.69-11.98-21.32-17.91-32.03-.89-1.59-1.51-2.34-3.46-1.25-13.68,7.64-28.18,13.78-41.52,22.02-12.41,7.67-24.52,15.83-36.84,23.64-6.11,3.87-12.37,7.53-18.66,11.11-8.25,4.7-16.85,8.74-24.34,14.75-7.33,5.9-16.14,9.48-23.95,14.69Zm-3.13-81.9c-2.87,2.11-5.86,4.01-8.91,5.87-5.78,3.5-5.91,9.2-.64,13.36,6.26,4.93,12.94,3.3,19.59,1.21,1.67-.53,3.15-1.65,4.01-2.12,7.13-3.38,12.38-8.04,17.7-12.58,3.36-2.86,6.88-5.45,10.73-7.61,10.79-6.05,21.1-12.78,30.4-21,1.06-.93,2.28-1.96,3.58-2.24,6.77-1.46,9.51-8.26,9.02-13.79-.16-1.87-.86-3.08-2.49-3.96-2.61-1.4-5.52-2.22-8.26-1.51-6.73,1.75-13.55,3.23-19.48,7.41-5.32,3.75-11.09,6.9-16.78,10.1-4.17,2.34-7.95,5.17-11.6,8.21-8.43,6.98-18.08,12.2-26.87,18.65Zm-46.93-206.68c-4.52,2.63-9.16,5.06-13.82,7.43-1.54.79-1.76,1.53-.9,3,1.68,2.87,3.21,5.84,4.79,8.77,4.81,9.68,9.3,19.53,14.81,28.85,13.99,23.64,26.52,48.1,40.16,71.95,10.45,18.27,20.39,36.82,30.43,55.32,1.26,2.34,2.21,2.84,4.46,1.29,2.34-1.61,4.92-2.9,7.48-4.14,2.66-1.29,3.16-2.61,1.6-5.45-11.36-20.62-22.77-41.23-33.67-62.11-9.51-18.21-18.3-36.81-27.59-55.14-5.1-10.07-9.14-20.67-15.05-30.32-3.55-5.81-5.53-12.35-8.93-18.23-1.05-1.81-1.78-2.37-3.77-1.21Zm27.28-8.87c.24-1.72.56-3.43.98-5.93-5.25,2.84-9.85,5.2-14.3,7.81-2.02,1.19-5.33,1.19-5.97,3.32-.64,2.09,1.93,4.11,2.77,6.32,4.03,10.47,10.2,19.88,14.97,29.98,9.28,19.67,19.29,38.97,29,58.42,12.49,25.02,26.53,49.19,39.46,73.95,1.06,2.03,2.02,2.32,3.74.99.65-.51,1.41-.89,2.17-1.23,2.67-1.21,3.11-2.56,1.6-5.45-6.1-11.69-10.78-24-15.38-36.35-2.86-7.68-6.1-15.22-9.98-22.45-12.15-22.64-24.37-45.23-36.41-67.92-4.12-7.76-7.88-15.71-11.68-23.64-2.76-5.76-1.84-11.83-.98-17.83Z"/><path class="cls-3" d="m80.41,1883.84c-2.66-4.91-5.33-9.82-7.99-14.74-3.77-6.96-3.61-6.72,2.92-11.08,7.81-5.21,16.62-8.79,23.95-14.68,7.48-6.01,16.09-10.05,24.33-14.75,6.29-3.59,12.55-7.24,18.66-11.12,12.33-7.81,24.43-15.97,36.84-23.64,13.34-8.25,27.84-14.38,41.52-22.02,1.94-1.09,2.58-.35,3.46,1.25,5.93,10.7,11.96,21.34,17.91,32.03,3.11,5.6,3.02,5.56-2.59,8.7-6.52,3.66-13.61,6.43-19.52,11.03-8.74,6.8-18.01,12.74-27.51,18.33-21.76,12.82-45.33,22.5-65.55,38.03-10.54,8.1-21.82,15.15-32.93,22.44-1.96,1.29-2.49.66-3.35-.97-3.34-6.3-6.78-12.55-10.18-18.82Z"/><path class="cls-3" d="m30.16,1617.51c-5.51-9.32-10-19.17-14.81-28.85-1.59-2.93-3.11-5.89-4.79-8.77-.86-1.47-.65-2.21.9-3,4.66-2.38,9.3-4.81,13.81-7.44,1.99-1.16,2.73-.61,3.77,1.21,3.4,5.88,5.38,12.43,8.94,18.23,5.91,9.66,9.95,20.26,15.05,30.33,9.28,18.34,18.07,36.93,27.59,55.15,10.9,20.87,22.31,41.48,33.67,62.1,1.56,2.84,1.06,4.16-1.6,5.45-2.57,1.24-5.14,2.53-7.48,4.14-2.26,1.55-3.2,1.05-4.47-1.28-10.04-18.5-19.98-37.04-30.43-55.32-13.63-23.84-26.16-48.3-40.15-71.95Z"/><path class="cls-3" d="m8,1545.51v26.86c1.73-.84,3.46-1.69,5.17-2.56,6.97-3.57,13.93-7.15,20.81-10.88,10.34-5.61,20.65-11.28,31.05-16.77,2.19-1.16,2.56-2.1,1.29-4.28-2.99-5.13-5.78-10.38-8.51-15.66-.96-1.86-1.79-2.04-3.51-.91-10.54,6.92-21.63,12.71-33.34,17.5-4.51,1.85-8.78,4.18-12.96,6.71Z"/><path class="cls-3" d="m92.51,1840.04c4.38-13.25,4.1-26.33-1.56-39.19-.67-1.51-.25-2.29,1.17-3.08,4.15-2.31,7.76-5.39,11.49-8.33,4.08-3.22,7.77-6.9,12.4-9.49,9.21-5.14,18.12-10.77,26.47-17.28,2.04-1.59,4.68-1.94,7.19.38,6.44,5.95,13.08,11.58,21.31,15.19,4.62,2.03,9.27,3.87,14.01,5.04-29.24,20.07-59.94,37.32-89.8,55.96-.79.65-1.41,1.85-2.7.79Z"/><path class="cls-3" d="m8,1586.76v35.43c4.45,7.4,9.1,14.68,13.8,21.92,6.61,10.22,12.12,21,17.22,31.98,4.47,9.61,9.68,18.81,14.6,28.18,9.38,17.9,18.9,35.73,28.26,53.64,1.36,2.6,2.19,3.85,5.2,1.53,2.71-2.08,5.51-4.08,8.31-6.07,2.24-1.6,2.32-2.93,1.03-5.25-6.35-11.43-12.52-22.97-18.75-34.46-.31.16-.61.34-.93.5-14.9-27.49-29.61-55.07-44.82-82.39-4.74-8.51-9.85-16.85-14.2-25.55-3.23-6.48-6.39-13-9.71-19.45Z"/><path class="cls-3" d="m126.97,1728.78c1.51,2.89,1.07,4.24-1.6,5.45-.76.34-1.52.73-2.17,1.23-1.72,1.33-2.68,1.04-3.74-.99-12.93-24.77-26.98-48.94-39.46-73.96-9.71-19.45-19.73-38.75-29-58.42-4.77-10.1-10.94-19.51-14.96-29.98-.85-2.2-3.41-4.23-2.77-6.32.64-2.13,3.94-2.13,5.97-3.32,4.45-2.61,9.06-4.97,14.3-7.82-.42,2.51-.73,4.22-.98,5.93-.86,6.01-1.78,12.07.98,17.84,3.8,7.92,7.55,15.88,11.67,23.64,12.05,22.69,24.27,45.28,36.41,67.92,3.88,7.24,7.12,14.78,9.98,22.45,4.6,12.35,9.28,24.66,15.37,36.35Z"/><path class="cls-3" d="m145.1,1753.28c-9.3,8.21-19.61,14.94-30.4,21-3.84,2.15-7.37,4.74-10.73,7.6-5.32,4.53-10.58,9.19-17.7,12.57-.86.47-2.34,1.59-4.01,2.12-6.65,2.09-13.32,3.73-19.59-1.21-5.27-4.16-5.14-9.86.63-13.36,3.05-1.85,6.04-3.76,8.91-5.87,8.8-6.45,18.45-11.66,26.87-18.65,3.65-3.03,7.43-5.87,11.6-8.21,5.69-3.19,11.46-6.34,16.78-10.1,5.93-4.19,12.75-5.66,19.48-7.41,2.73-.71,5.65.11,8.26,1.51,1.63.88,2.33,2.08,2.49,3.96.48,5.53-2.25,12.33-9.02,13.78-1.3.28-2.53,1.32-3.58,2.25Z"/><path class="cls-3" d="m8,1632.48v17.39c.66,1.39,1.34,2.76,2.06,4.11,13.98,26.21,28.08,52.35,41.75,78.73,5.9,11.4,11.96,22.7,17.91,34.06,1.33,2.54,2.22,3.41,4.83,1.19,4.38-3.73,4.49-3.53,1.76-8.68-12.56-23.74-25.17-47.46-37.62-71.26-4.96-9.48-8.88-19.48-14.38-28.67-5.38-8.99-10.85-17.94-16.32-26.88Z"/></g></svg>