<?xml version="1.0" encoding="UTF-8"?><svg id="Layer_2" xmlns="http://www.w3.org/2000/svg" viewBox="0 0 384.69 87.25"><defs><style>.cls-1{fill:#f5f6f7;}</style></defs><g id="Layer_1-2"><g><path class="cls-1" d="m205.34,35.76c-.31.08-.51.28-.64.57-.54,0-.79.41-1.08.76-.82-.05-1.65-.11-2.47-.16-.62-.13-1.25-.26-1.87-.39-.17-.01-.35-.02-.52-.03-.28-.04-.56-.08-.84-.12-1.19-.34-2.38-.72-3.58-1.01-1.52-.37-3.07-.88-4.5.3-.07.06-.13.12-.2.19-.18.13-.14.26,0,.39.06.07.13.12.22.14-.03.16-.05.33-.08.49-.11.06-.23.12-.34.17-.35.06-.5.21-.24.54.07.08.13.15.2.23-.18,2.37-1,4.62-1.44,6.94-.16.82.07,1.19.87,1.34,4.3.83,8.53,2.34,12.9,2.33,2.38,0,4.83.54,7.27-.31,1.6-.56,3.22.37,4.61,1.28.69.45.52,2.03-.28,2.98-.46.56-1.04,1.02-1.56,1.52-.06-.02-.11-.02-.16,0-.66.2-1.31.39-1.97.59-.12-.06-.23-.12-.35-.19-1.19-1.21-2.52-1.83-4.2-1.03-.35-.06-.69-.12-1.04-.18-.54-.36-1.11-.61-1.78-.5-.41-.02-.82-.03-1.22-.05-2.08-.43-4.18-.68-6.29-.93-2.11-.24-4.24-1-6.38-1.43-.6-.12-1.17-.18-1.72.16-.31.06-.45.28-.49.57-.44,1.15-1.44,2.2-.67,3.59-.12.21-.24.41-.36.62-.08.19-.03.34.13.46-.49.22-.89.47-.35,1.03-.07.06-.08.14-.04.22-.36.29-.52.64-.37,1.09-.05.11-.11.22-.16.33-.36.16-.51.43-.43.82-.03.16-.07.32-.1.48l-.05.03c-.25.1-.28.27-.17.5.03.09.05.19.08.28-.73,2.09,0,3.02,2.32,3.35,2.4.35,4.85.35,7.18,1.13.3.1.64.22.94.17,2.11-.35,4.06.19,5.96,1.04l.02.02c-.08.44-.34.87-.06,1.33l.05.07c-.09.28-.19.57-.28.85-.06.06-.12.13-.16.2-.37.04-.61.25-.74.6-1.88.6-3.73.5-5.58-.15-.32-.11-.72,0-1.08,0-.16-.05-.32-.09-.48-.14-.29-.05-.58-.1-.86-.14-3.47-.03-6.75-1.01-10.06-1.89-1.83-.49-1.77-2.11-2.24-3.43.09-.21.13-.42-.04-.61.79-1.97,1.4-3.99,1.4-6.14,0,0,.04-.02.04-.02.19-.06.27-.18.22-.38.14-.39.27-.79.41-1.18.09-1.34.75-2.6.55-3.97.35-.29.36-.54-.08-.74.06-.19.12-.38.18-.57.36.06.67-.07.75-.42.11-.43-.27-.51-.57-.6,0-.39-.13-.68-.6-.64-.21-.95-1.12-.93-1.77-1.28.04-.15.09-.31.13-.46,0,0,.01,0,.01,0,.27-.13.42-.36.49-.63.36-1.25,1.01-1.85,2.47-1.7,1.45.14,2.31-.83,2.43-2.87.16-2.68.61-5.35.37-8.05-.08-.85.03-1.63.42-2.39.51-1,1.64-1.41,2.65-.94,3.54,1.65,7.26,2.6,11.14,3.03.56.06,1.09.05,1.62-.13,1.6-.53,3.15-.38,4.66.34,0,.09.04.17.09.24.12.74.33,1.48,0,2.23-.07.09-.14.18-.21.27Z"/><path class="cls-1" d="m311.32,37.52c-.4.05-.69.27-.89.62-.68-.08-1.05.39-1.47.79-1.03-.2-2.05-.4-3.08-.59-.76-.26-1.53-.52-2.29-.78-.22-.04-.43-.08-.65-.13-.35-.09-.69-.19-1.04-.28-1.44-.61-2.87-1.27-4.34-1.83-1.85-.71-3.72-1.59-5.7-.32-.09.07-.19.13-.28.2-.25.13-.22.3-.07.49.06.1.14.17.25.21-.06.2-.12.4-.18.61-.15.06-.31.11-.46.17-.45.02-.66.19-.39.65.07.11.14.21.21.32-.6,2.96-1.98,5.64-2.9,8.49-.32,1-.1,1.5.88,1.82,5.27,1.71,10.35,4.27,15.84,4.94,2.99.37,5.99,1.43,9.19.74,2.1-.45,3.99.97,5.59,2.32.8.68.33,2.63-.81,3.7-.67.63-1.46,1.12-2.2,1.67-.07-.03-.14-.04-.21-.02-.85.14-1.71.29-2.56.43-.14-.1-.28-.19-.41-.29-1.31-1.7-2.88-2.69-5.12-1.95-.43-.13-.85-.26-1.28-.39-.62-.54-1.3-.94-2.16-.91-.51-.08-1.02-.17-1.53-.25-2.55-.87-5.14-1.51-7.75-2.15-2.62-.64-5.17-1.91-7.79-2.8-.74-.25-1.44-.41-2.18-.07-.4.03-.6.28-.7.64-.74,1.38-2.16,2.55-1.41,4.4-.18.24-.36.48-.55.72-.13.22-.09.42.09.6-.65.2-1.19.45-.6,1.25-.1.07-.13.16-.09.27-.49.3-.76.72-.63,1.32-.08.13-.17.26-.25.38-.47.15-.71.46-.66.96-.07.2-.14.39-.21.59l-.07.03c-.33.09-.4.3-.29.6.02.12.04.24.06.37-1.24,2.51-.47,3.79,2.39,4.57,2.96.81,6.04,1.2,8.84,2.55.36.17.77.37,1.15.36,2.71-.11,5.07.87,7.32,2.24l.02.03c-.17.54-.57,1.04-.28,1.66l.05.1c-.16.34-.33.68-.49,1.03-.09.06-.16.14-.23.23-.48,0-.81.22-1.03.64-2.45.46-4.77.05-6.99-1.06-.39-.19-.9-.12-1.36-.17-.19-.08-.39-.17-.58-.25-.35-.11-.71-.21-1.06-.32-4.35-.58-8.33-2.32-12.35-3.94-2.22-.9-1.89-2.93-2.28-4.66.15-.25.23-.51.05-.78,1.3-2.36,2.38-4.79,2.72-7.49,0,0,.05-.02.05-.02.25-.04.36-.19.34-.44.23-.47.46-.94.69-1.42.32-1.67,1.35-3.14,1.31-4.91.48-.31.54-.62.02-.94.11-.23.21-.46.32-.69.45.13.85.01,1.01-.41.2-.52-.26-.68-.63-.85.05-.49-.05-.88-.65-.9-.11-1.23-1.27-1.34-2.02-1.88.08-.19.16-.37.24-.56,0,0,.02,0,.02,0,.36-.12.58-.38.72-.71.65-1.51,1.55-2.17,3.37-1.75,1.8.41,3.03-.68,3.51-3.22.62-3.34,1.61-6.63,1.73-10.05.04-1.08.29-2.05.9-2.94.8-1.18,2.28-1.52,3.47-.77,4.19,2.62,8.72,4.41,13.52,5.55.69.17,1.36.23,2.05.09,2.09-.42,4.02.01,5.8,1.16,0,.11.02.22.08.31.04.95.18,1.92-.35,2.8-.1.1-.21.2-.31.3Z"/><path class="cls-1" d="m159.6,1.69c1.71.47,3.58.46,4.9,2,1.63,1.89,1.76,4.1,1.46,6.35-.38,2.92-.74,5.81,0,8.72.06.25.03.65-.13.82-1.56,1.64-1.2,3.8-.96,5.56.4,2.97-.38,5.81-.25,8.71.03.74-.31,1.58.64,1.93,1.01.37,1.56-.43,1.98-1.11,1.19-1.92,2.34-3.85,3.91-5.51,2.22-2.35,3.42-5.43,5.2-7.99,2.99-4.3,4.79-9.15,7.56-13.5,1.23-1.94,2.82-2.42,5.01-1.49,2.24.96,1.93,2.59,1.31,4.32-.28.77-.65,1.54-1.11,2.22-2.33,3.45-4.33,7.05-5.68,11-.66,1.95-2.47,2.99-3.62,4.56-.53.72-.93,1.35-.71,2.24-.14.2-.28.4-.41.6-1.59,1.67-2.8,3.68-4.7,5.07-.66.48-.65,1.3-.72,2.05-.12.06-.22.15-.3.26-1.02.26-1.21,1.24-1.7,1.97-1.73,2.52-3.17,5.21-5.02,7.68-1.55,2.07-3.25,1.44-4.91,1.04-1.94-.46-2.99-1.93-2.77-4.05.13-1.2-.08-2.36-.34-3.52,0-.15,0-.31,0-.46.9-3.58-.05-7.24.47-10.83.01-.09-.01-.17-.08-.24.92-1.87-.27-3.56-.46-5.34l.14-.06c1.69-2.84,1.67-5.87.97-8.97-.19-.83-.7-.8-1.34-.39-.74.48-1.19,1.1-1.27,1.99-.25.39-.5.77-.76,1.16,0,.14,0,.27,0,.41-1.42.84-1.33,2.55-2.15,3.74-1.45,2.49-2.17,5.25-2.85,8.02-.08.3-.17.59-.25.89-.42.48-.79.99-.76,1.67-.16.27-.32.53-.48.8-.33.22-.38.54-.28.9-.14.26-.28.52-.41.78-.51.38-.76.91-.92,1.5-.1.17-.21.34-.31.51-.08.1-.1.21-.07.33-.26.35-.52.69-.77,1.04-.89-.43-1.69.08-2.52.23-.64-.18-1.27-.35-1.91-.53-.98-.76-1.13-1.95-1.58-2.99l-.06-.16c1.22-2.6,3.09-4.91,3.52-7.87.13-.91.62-1.64,1.02-2.45,1.97-3.97,4.33-7.77,5.59-12.07,0,0,.06-.02.06-.02,1.41-1.8,2.88-3.55,4.21-5.41,1.38-1.93,3.68-3.2,4.1-5.79.17-.09.34-.18.51-.28Z"/><path class="cls-1" d="m72.81,9.6c-.28.11-.45.32-.53.61-.51.06-.69.48-.92.84-.78.04-1.56.09-2.34.13-.6-.05-1.2-.1-1.8-.14-.17,0-.33.02-.5.03-.27,0-.54,0-.8-.01-1.16-.18-2.32-.4-3.48-.53-1.47-.17-2.99-.47-4.19.81-.06.07-.11.13-.17.2-.15.14-.1.26.04.37.06.06.14.09.22.1,0,.16-.01.31-.02.47-.1.07-.2.14-.3.2-.32.1-.44.26-.17.54.07.06.14.13.21.19.11,2.25-.4,4.45-.55,6.69-.05.79.2,1.11.97,1.16,4.13.28,8.29,1.2,12.39.68,2.23-.28,4.6-.06,6.8-1.14,1.44-.71,3.07-.03,4.48.66.71.34.72,1.84.09,2.83-.37.58-.85,1.08-1.29,1.61-.06-.01-.11,0-.15.03-.59.26-1.19.52-1.78.78-.12-.04-.24-.09-.35-.13-1.26-1-2.58-1.42-4.07-.47-.33-.02-.67-.03-1-.05-.55-.28-1.12-.45-1.73-.27-.38.03-.77.07-1.15.1-2-.16-4-.15-6.02-.14-2.01.02-4.1-.44-6.16-.6-.58-.04-1.12-.04-1.59.35-.29.09-.39.31-.39.59-.28,1.14-1.1,2.24-.21,3.45-.09.21-.18.42-.26.62-.05.19.01.32.17.42-.44.26-.78.54-.2,1.01-.06.07-.06.14-.01.21-.3.31-.42.66-.22,1.07-.04.11-.08.22-.11.32-.32.19-.43.46-.3.82-.01.16-.03.31-.04.47l-.04.03c-.22.12-.23.29-.1.49.04.09.07.17.11.25-.44,2.05.35,2.84,2.57,2.88,2.29.05,4.6-.24,6.88.23.29.06.63.13.9.05,1.95-.58,3.84-.3,5.72.28h.02c-.03.44-.22.87.1,1.27l.05.06c-.06.28-.11.56-.17.83-.05.06-.09.13-.13.21-.35.08-.55.31-.63.65-1.7.78-3.45.91-5.26.51-.31-.07-.68.08-1.02.13-.16-.02-.31-.05-.47-.07-.28-.01-.55-.02-.83-.03-3.26.37-6.46-.16-9.68-.6-1.78-.24-1.91-1.78-2.51-2.96.06-.21.08-.41-.11-.57.51-1.95.85-3.91.6-5.93,0,0,.04-.02.04-.02.18-.08.23-.2.17-.38.08-.38.16-.77.24-1.15-.07-1.27.4-2.53.05-3.8.29-.31.28-.55-.16-.69.03-.19.07-.37.1-.56.35.01.62-.15.66-.48.05-.42-.31-.44-.61-.5-.05-.37-.2-.63-.64-.53-.31-.87-1.16-.74-1.81-1,.02-.15.05-.3.07-.45,0,0,.01,0,.01,0,.24-.15.35-.38.39-.65.19-1.21.73-1.86,2.13-1.89,1.38-.03,2.07-1.05,1.95-2.98-.16-2.54-.05-5.1-.59-7.61-.17-.79-.16-1.54.11-2.3.36-1,1.37-1.52,2.38-1.2,3.52,1.13,7.13,1.6,10.82,1.54.53,0,1.03-.08,1.51-.31,1.44-.69,2.92-.73,4.42-.22.02.08.06.15.12.21.2.68.48,1.36.26,2.09-.06.09-.11.18-.17.27Z"/><path class="cls-1" d="m89.94,8.07c.05-.75-.11-1.42-.52-2.06-1.35-2.15-.06-4.7,1.85-5.84.31-.19.85-.24,1.17-.1,3.91,1.69,8.18,1.44,12.24,2.31,3.04.65,6.08,1.27,9.09,2.03,1.27.32,2.01,1.55,2.92,2.45-.33.3-.38.64-.12,1.02-.02.29-.04.57-.06.86-.29.4-.58.8-.86,1.2,0,0-.02.02-.02.02-.56.32-1.12.64-1.68.96-.65-.13-1.36.05-1.87-.61-.46-.59-1.11-.78-1.84-.61-1.18-.83-2.57-.87-3.92-1.04-.55-1.34-1.75-1.24-2.84-1.38-.72-.62-1.54-1.02-2.48-1.12-1.13-.13-2.25-.36-3.38-.37-1-.01-1.97.25-1.19,1.7l-.12.1c-.68,1.12-.72,2.29-.31,3.5-.16,2.07.14,4.18-.56,6.21-.27.28-.3.58-.06.9,0,.08.01.15.05.21-1.07,2.92-.3,4.06,2.6,3.42,4.24-.94,8.47-1.96,12.58-3.42,3.05-1.09,6.05-2.12,9.22-.73.37.17.74.35,1.11.52-.11.23-.22.46-.32.69-.07.1-.14.19-.21.29-.32.32-.33.64-.02.97,0,0-.12-.03-.12-.03-.31.1-.63.2-.95.3-.22.06-.43.12-.65.19-.1.08-.2.16-.3.24,0,0-.08.07-.08.07-1.17.28-2.35.57-3.52.85-.22.12-.43.24-.65.36-.89.01-1.58.63-2.39.9-1.64.33-3.11,1.12-4.62,1.82-2.57.14-5.01.91-7.45,1.69-1.13.45-2.61-.11-3.38,1.35-.02.03-.07.08-.06.1.02.08.06.15.09.22-2.72-.54-3.14-.08-2.71,2.93-.62,2.75-.37,3.05,2.15,3.52,1.61.3,3.11-.07,4.63-.47,1.97-.51,3.9-.63,5.72.47,0,0,0,.01,0,.01.04.81.55,1.14,1.22,1.3-.54,2.12-1.95,2.66-3.9,3.2-2.14.59-4.25.54-6.35.87-1.99.53-4.11-.2-6.05.78-.85-.22-1.62-.74-2.54-.73v-.03c.4-1.04-.43-1.5-.88-2.14-.16-1.48-.57-2.94-.39-4.46.07-.03.11-.07.15-.13,1.37-1.64,1.71-3.57.79-5.4-.63-1.26-.71-2.37-.43-3.65.26-.47.51-.95.77-1.42,1.52-.41,1.55-1.8,1.77-3.02.69-3.82.3-7.61-.16-11.4-.06-.13-.12-.26-.18-.4Z"/><g><path class="cls-1" d="m264.68,66.77c-1.25,1.03-2.93,1.27-4.51.84-.17-.05-.45.01-.67.01-.36.07-.72.14-1.09.21-.15-.44-.07-.97-.76-1.22-.06-.2-.12-.41-.18-.61.05-.51.01-.98-.74-1.21-.07-.17-.14-.35-.22-.52-.2-.43-.4-.86-.6-1.28,0-.11-.02-.21-.03-.32.57-1.04-.05-1.61-1.47-1.85.36-.27.43-.53.25-.78,0-2.01-2.17-3.33-2.59-5.21-.01-.07-.4-.05-.61-.08-.22-.52.6-1.21-.05-1.65-.05-.1-.09-.2-.14-.29-.17-.25-.34-.49-.51-.73-.82-3.14-2.01-6.15-3.59-9.06-.03.37-.04.74-.02,1.12.04.78-.25,1.48-.45,2.22-.98,3.65-2.3,7.22-2.63,11.02l-.05.03c-.87,1.74-1.81,3.45-2.61,5.23-.82,1.84-2.54,3.29-2.45,5.53-.13.1-.26.21-.39.32-1.5-.11-3.06.21-4.43-.85-1.68-1.3-2.16-3.13-2.29-5.06-.17-2.5-.35-4.97-1.47-7.28-.1-.2-.13-.54-.03-.71,1.03-1.63.37-3.37-.13-4.81-.83-2.41-.66-4.91-1.25-7.32-.16-.61,0-1.37-.86-1.5-.91-.14-1.23.62-1.47,1.26-.67,1.81-1.3,3.61-2.34,5.26-1.46,2.34-1.95,5.12-3,7.55-1.78,4.1-2.47,8.45-4.05,12.55-.7,1.83-1.95,2.5-3.93,2.09-2.04-.42-2.05-1.84-1.82-3.39.1-.69.28-1.39.55-2.03,1.37-3.28,2.44-6.63,2.9-10.15.23-1.74,1.56-2.91,2.26-4.42.32-.69.55-1.28.22-1.99.08-.19.16-.38.24-.57,1.05-1.66,1.72-3.55,3.08-5.02.47-.52.33-1.2.25-1.84.09-.07.16-.16.21-.26.81-.4.8-1.24,1.09-1.93,1.02-2.4,1.78-4.89,2.91-7.27.95-1.98,2.47-1.75,3.93-1.69,1.7.06,2.82,1.11,2.99,2.92.09,1.02.46,1.96.87,2.88.03.13.06.26.09.39-.16,3.14,1.25,6.04,1.42,9.13.01.08.04.14.1.19-.45,1.72.83,2.93,1.29,4.38l-.11.07c-.94,2.66-.41,5.19.69,7.66.3.66.72.55,1.19.1.54-.52.81-1.12.72-1.87.15-.37.29-.73.44-1.1-.02-.11-.04-.23-.06-.34,1.04-.94.68-2.35,1.17-3.48.79-2.33.92-4.75,1.03-7.18.02-.26.04-.52.06-.78.28-.47.49-.96.35-1.52.09-.25.18-.5.27-.75.24-.24.23-.51.08-.8.08-.24.15-.48.22-.72.15-.16.26-.34.34-.54h0c-.14-.42-.16-.86-.06-1.34.08-.38.39-.8.83-1.18h.01s.07-.07.11-.1c.72-.59,1.74-1.07,2.65-1.18,2.05-.25,3.12.4,3.52,1.47.89,2.45,1.5,4.98,3.84,6.99,1.16.99,1.66,2.4,1.9,3.74.25,1.4.72,2.75,1.92,3.73,1.68,1.37,1.61,3.3,2.98,4.7,2.09,2.13,2.39,4.87,4.25,7.07.49.58.5,1.32,1.36,1.81,1.62.93.4,2.23-.92,3.31Z"/><path class="cls-1" d="m243.18,35.13s-.08.06-.11.09c.02-.03.03-.07.05-.1.02,0,.04.01.06.01Z"/></g><path class="cls-1" d="m348.07,28.57c2,.84,4.26,1.13,5.62,3.19,1.68,2.54,1.48,5.25.77,7.92-.92,3.48-1.81,6.92-1.36,10.56.04.31-.07.79-.29.97-2.15,1.74-2.05,4.41-2.04,6.59.01,3.66-1.37,6.98-1.67,10.51-.08.91-.62,1.87.47,2.44,1.17.61,1.95-.28,2.57-1.04,1.74-2.14,3.44-4.29,5.61-6.06,3.06-2.5,5-6.04,7.56-8.86,4.3-4.74,7.25-10.33,11.28-15.16,1.8-2.16,3.8-2.49,6.3-1.01,2.57,1.51,1.93,3.44.9,5.43-.46.89-1.03,1.76-1.69,2.51-3.36,3.81-6.36,7.86-8.61,12.43-1.11,2.25-3.47,3.23-5.11,4.95-.75.79-1.33,1.48-1.21,2.6-.2.22-.4.44-.6.66-2.19,1.77-3.97,4.02-6.5,5.39-.88.48-1,1.48-1.19,2.37-.15.06-.29.15-.41.26-1.28.16-1.66,1.31-2.37,2.11-2.49,2.79-4.67,5.82-7.3,8.52-2.2,2.26-4.16,1.23-6.11.49-2.28-.87-3.32-2.81-2.71-5.34.35-1.44.27-2.87.15-4.32.02-.19.04-.37.06-.56,1.66-4.19,1.08-8.78,2.28-13.05.03-.11.01-.21-.05-.31,1.41-2.12.23-4.36.28-6.54l.18-.05c2.5-3.17,2.95-6.85,2.59-10.71-.1-1.04-.72-1.08-1.56-.69-.97.46-1.62,1.15-1.85,2.21-.37.43-.73.86-1.1,1.28-.02.16-.05.33-.07.49-1.86.79-2.01,2.88-3.2,4.19-2.15,2.79-3.45,6.02-4.72,9.26-.15.35-.29.69-.44,1.04-.59.51-1.11,1.07-1.18,1.91-.24.3-.47.59-.71.89-.44.22-.54.59-.48,1.04-.21.29-.42.59-.62.88-.67.38-1.06.98-1.35,1.67-.15.19-.31.38-.46.57-.11.11-.16.24-.14.39-.37.38-.73.76-1.1,1.14-1.01-.65-2.05-.17-3.09-.12-.74-.31-1.48-.63-2.23-.94-1.07-1.07-1.06-2.54-1.45-3.87l-.05-.2c1.89-2.96,4.52-5.47,5.5-8.98.3-1.08,1.01-1.89,1.62-2.81,3.02-4.5,6.47-8.73,8.67-13.74,0,0,.07-.02.07-.02,1.99-1.96,4.05-3.85,5.95-5.89,1.97-2.12,4.96-3.29,5.88-6.37.22-.08.44-.17.67-.25Z"/><path class="cls-1" d="m41.77,31.56c-.06-1.8-.91-3.83-1.55-5.72-.6-1.76-1.6-3.53-1.14-5.55-.24-.23-.48-.46-.73-.68-1.09-1.67-1.9-3.48-2.74-5.27-.09-.07-.15-.15-.19-.25-.99-.72-1.48-1.74-1.72-2.9l-.13-.03c-.91-.06-1-.8-1.19-1.45-.16-.1-.33-.19-.5-.28-1.49-.77-2.99-1.54-4.48-2.31-.07.01-.13,0-.2-.04-.83-.3-1.67-.6-2.5-.9-.1.03-.19.02-.28-.03-1.05-.26-2.1-.51-3.16-.77-.16.05-.32.11-.49.16-.12.18-.28.22-.47.12-.3-.1-.61-.2-.91-.29-2.25-.22-4.27,1.23-6.53.92-2.84,1.14-6.22,1.29-8.05,4.32.06.12.14.23.22.34-.1.02-.19.03-.27.01-1.31-.31-2.65-.02-3.58.93-.97,1.01-1.85,2.2-.46,2.94.74.39.81,1.03,1.25,1.52,1.69,1.84,2.16,4.21,4.04,5.99,1.22,1.16,1.33,2.85,2.81,3.97,1.05.8,1.55,1.96,1.87,3.17.3,1.16.83,2.37,1.85,3.18,1.85,1.48,2.61,3.4,3.42,5.3-.44.52-.68,1.14-.41,1.97.35,1.1,1.29,1.61,2.38,1.68,5.4.36,10.74,1.74,16.23.58,2.34-.5,4.4-1.18,5.85-3.14,1.67-2.23,1.85-5.01,1.76-7.49Zm-6.39,2.96c-.23,1.03-1.29,1.7-2.03,1.83-1.74.3-3.39.92-5.12,1.16-.39.06-.81-.18-1.21-.29-1.14-.03-2.3.23-3.38-.34-.19.09-.39.18-.58.27-.3.04-.6.09-.91.13-.08.04-.16.07-.23.09.1-1.17-.52-2.03-1.73-2.61-.86-.42-1.57-.96-2-1.61-1.9-2.86-3.41-5.87-4.5-9.05-.16-.2-.32-.41-.47-.61-.05-.08-.1-.17-.14-.25-.57-.36.04-1-.18-1.44-.17-.01-.49.02-.5-.05-.5-1.62-2.36-2.68-2.54-4.43-.16-.21-.13-.44.14-.69-1.17-.15-1.72-.62-1.35-1.56-.01-.09-.03-.18-.04-.27-.13-.23-.25-.46-.38-.69.4-.15.85-.4,1.36-.75,3.16-2.16,6.46-3.51,10.43-3.22,3.98.29,7.23,1.64,9.49,5.02l.06.03c1.03,1.01,2.17,2.07,2.47,3.45.3,1.45.96,2.55,1.92,3.56.38,1.82.72,3.66,1.16,5.47.54,2.27.78,4.55.26,6.85Z"/><path class="cls-1" d="m148.17,58.88c-.63-.14-1.25-.2-1.85.1-.27.15-.53.29-.8.44,0,0-.11.07-.11.07-2.88-.99-5.77-1.89-8.87-1.51-.59-.09-1.19-.18-1.78-.27-2.37.27-4.55-.53-6.74-1.23-.3-.69-.88-1.07-1.53-1.37.02-1.24-.65-2.2-1.3-3.16.21-1.25-.21-2.43-.38-3.64.08-.6.26-1.21.24-1.81-.13-2.9,1.14-5.94-.82-8.67.02-.17.04-.34.07-.51.55-1.4,1.34-2.74,1.01-4.35.07-.18.14-.35.21-.53-.24-1.62.64-3.34-.43-4.89l-.07-.08.14-1.36c.19-.69.08-1.35-.25-1.98.04-.32.08-.64.12-.96.76-1.42,1.16-2.94,1.28-4.54.01-3.58,2.46-6.87,1.24-10.62-.12-.36.33-1.01.67-1.39,1.19-1.35,2.44-2.66,4.53-1.95,2.09.72,3.32,2.67,3.48,4.87.12,1.68-.56,3.14-.8,4.71-.04.22-.08.44-.12.67-.3,1.09-.34,2.18,0,3.28-.11.39-.22.79-.33,1.18-.11.35-.22.7-.33,1.05l-.18.08c-1,1.12-1.25,2.42-.92,3.86-.61.36-.86.8-.33,1.41-.13,7.21-1.64,14.42.01,21.64.52,2.27,1.64,3.55,4.35,3.37,3.82-.24,7.04,1.08,10.32,2.72,1.62.81,2.46,1.72,2.27,3.51-.19.39-.39.78-.58,1.17,0,0-.02.07-.02.07-.25.09-.49.18-.74.27-.21.11-.42.22-.64.33Z"/></g></g></svg>