<?xml version="1.0" encoding="UTF-8"?><svg id="Layer_2" xmlns="http://www.w3.org/2000/svg" viewBox="0 0 820.95 239.21"><defs><style>.cls-1{fill:#f5f6f7;}.cls-2{opacity:.16;}</style></defs><g id="Layer_1-2"><g><path class="cls-1" d="m700.48,33.71c-.38.37-.49.82-.4,1.33-.79.46-.77,1.24-.87,1.97-1.26.63-2.53,1.25-3.79,1.88-1.04.35-2.08.71-3.12,1.06-.27.13-.54.26-.8.4-.45.18-.9.37-1.35.55-2.08.55-4.18,1.03-6.23,1.65-2.59.78-5.36,1.4-6.34,4.24-.04.14-.08.28-.12.42-.14.33.03.48.36.55.15.05.3.05.45,0,.12.25.23.5.35.74-.11.18-.23.35-.34.53-.46.38-.53.72.15.96.17.05.34.1.51.15,1.98,3.42,2.88,7.21,4.42,10.78.54,1.26,1.22,1.57,2.55,1.11,7.12-2.52,14.77-4.05,21.21-7.77,3.5-2.03,7.63-3.37,10.42-6.62,1.83-2.13,5.1-2.23,8-2.17,1.45.03,2.67,2.35,2.4,4.34-.16,1.16-.57,2.28-.86,3.43-.1.02-.18.07-.24.15-.78.83-1.56,1.66-2.34,2.49-.23.01-.46.03-.7.04-2.89-.65-5.44-.37-7.16,2.16-.57.21-1.14.43-1.7.64-1.14-.04-2.22.1-3.1.82-.62.33-1.23.65-1.85.98-3.47,1.18-6.8,2.61-10.14,4.08-3.34,1.47-7.18,2.24-10.75,3.46-1,.34-1.9.74-2.38,1.68-.4.35-.4.76-.18,1.2.44,1.97-.04,4.26,2.39,5.51.02.39.04.77.06,1.16.06.33.27.5.63.53-.52.72-.87,1.4.47,1.72-.04.15,0,.26.15.34-.26.7-.17,1.32.49,1.82.02.19.05.39.07.58-.37.53-.35,1.03.15,1.49.1.25.2.5.3.75l-.05.09c-.27.35-.16.62.23.83.13.11.26.21.39.32.9,3.49,2.85,4.15,6.58,2.64,3.86-1.56,7.48-3.64,11.65-4.55.54-.12,1.15-.25,1.54-.57,2.78-2.28,6.16-3.2,9.76-3.64h.05c.29.68.31,1.5,1.17,1.88l.14.05c.13.47.26.94.39,1.41-.04.13-.05.27-.04.41-.51.38-.67.87-.53,1.46-2.2,2.42-5.02,3.87-8.37,4.55-.58.12-1.07.6-1.6.92-.28.07-.56.15-.84.22-.47.18-.94.36-1.41.54-5.14,2.9-10.9,4.36-16.61,5.97-3.16.89-4.6-1.4-6.55-2.81-.07-.37-.2-.69-.64-.81-.7-3.38-1.7-6.68-3.72-9.64,0,0,.04-.06.04-.06.23-.24.22-.48-.03-.71-.17-.66-.34-1.31-.51-1.97-1.13-1.92-1.34-4.21-2.94-5.94.24-.69.02-1.05-.82-.95-.09-.31-.18-.63-.28-.94.59-.23.91-.67.71-1.22-.25-.68-.87-.47-1.41-.34-.38-.53-.83-.83-1.49-.38-1.21-1.13-2.53-.32-3.81-.26-.08-.25-.16-.5-.24-.74,0,0,.02-.02.02-.02.28-.4.28-.85.14-1.28-.65-2.02-.26-3.4,2.04-4.45,2.28-1.04,2.62-3.11.88-6.02-2.29-3.83-4.15-7.89-7.04-11.4-.91-1.1-1.5-2.28-1.64-3.65-.19-1.81,1.08-3.34,3.01-3.55,6.77-.75,13.16-2.6,19.27-5.31.88-.39,1.65-.86,2.27-1.55,1.85-2.1,4.29-3.21,7.19-3.49.09.12.21.2.36.25.88.92,1.89,1.76,2.09,3.07-.02.18-.04.36-.06.55Z"/><path class="cls-1" d="m753.38,4.11c3.76.19,7.56-.63,11.14,1.8,4.41,2.99,5.94,7.28,6.63,11.8.9,5.88,1.83,11.7,5.03,17.07.28.46.43,1.26.2,1.66-2.24,3.88-.26,7.96,1.24,11.31,2.52,5.64,2.57,11.54,4.5,17.17.5,1.44.29,3.23,2.41,3.5,2.28.29,2.92-1.51,3.39-3.04,1.32-4.28,2.56-8.54,4.81-12.48,3.18-5.56,3.85-12.12,6.01-17.9,3.62-9.71,4.5-19.98,7.63-29.7,1.4-4.34,4.36-5.96,9.35-5.08,5.13.91,5.42,4.23,5.15,7.89-.12,1.63-.44,3.29-.98,4.82-2.76,7.75-4.77,15.68-5.25,24-.23,4.1-3.32,6.92-4.76,10.49-.66,1.63-1.11,3.04-.16,4.69-.17.45-.33.91-.5,1.36-2.28,3.95-3.58,8.42-6.67,11.95-1.07,1.23-.58,2.84-.28,4.33-.21.18-.36.39-.47.63-1.94.95-1.75,2.95-2.34,4.58-2.06,5.69-3.47,11.58-5.82,17.22-1.97,4.72-5.8,4.22-9.41,4.16-4.23-.07-7.21-2.5-7.97-6.74-.43-2.41-1.52-4.59-2.71-6.75-.09-.3-.19-.6-.28-.9-.22-7.4-4.27-14.16-5.27-21.42-.03-.19-.13-.33-.29-.44.8-4.07-2.6-6.86-4.01-10.26l.25-.17c1.82-6.29.03-12.22-3.17-17.98-.86-1.55-1.89-1.27-2.96-.19-1.24,1.25-1.8,2.67-1.44,4.44-.29.87-.58,1.73-.88,2.6.07.27.15.53.22.8-2.42,2.26-1.24,5.57-2.24,8.24-1.53,5.51-1.39,11.22-1.2,16.93,0,.62,0,1.23,0,1.85-.59,1.12-1.03,2.27-.58,3.6-.17.59-.35,1.18-.52,1.77-.55.58-.46,1.22-.06,1.87-.13.57-.26,1.14-.4,1.7-.82.95-1.02,2.11-1.01,3.33-.11.38-.23.76-.34,1.14-.1.23-.09.46.04.69-.33.79-.65,1.58-.98,2.37-2.05-.45-3.39.87-5,1.54-1.4-.07-2.79-.15-4.19-.22-2.43-1.06-3.42-3.34-4.94-5.17l-.21-.28c.99-5.62,3.47-10.96,2.65-16.93-.25-1.84.32-3.49.67-5.24,1.74-8.63,4.35-17.09,4.44-26.05,0,0,.11-.06.11-.06,1.84-4.13,3.83-8.2,5.47-12.41,1.7-4.36,5.67-7.85,5.03-13.12.3-.25.59-.51.89-.76Z"/><path class="cls-1" d="m410.51,165.45c-1.1.07-2.14.25-2.94,1.01-.35.35-.7.71-1.05,1.06,0,0-.14.17-.14.17-5.25-.25-10.48-.34-15.3,1.68-1.02.13-2.04.26-3.05.39-3.7,1.51-7.7,1.25-11.68,1.14-.89-.96-2.06-1.3-3.3-1.47-.7-1.97-2.35-3.18-3.97-4.41-.4-2.07-1.77-3.75-2.75-5.58-.22-1-.29-2.04-.68-2.98-1.91-4.54-1.63-9.93-6.42-13.34-.06-.28-.13-.56-.19-.83.07-2.47.57-4.96-.9-7.34.01-.31.02-.62.04-.93-1.33-2.46-.91-5.58-3.56-7.54l-.16-.1c-.19-.74-.38-1.48-.57-2.22-.09-1.19-.66-2.18-1.57-3.02-.12-.52-.25-1.05-.37-1.57.4-2.6.17-5.19-.59-7.78-2.08-5.67-.04-12-4.21-17.38-.4-.52-.06-1.75.27-2.51,1.14-2.68,2.41-5.34,6.22-5.16,3.82.17,6.96,2.71,8.51,6.12,1.19,2.6.93,5.23,1.47,7.82.07.37.13.74.2,1.11.16,1.86.73,3.61,1.91,5.19.05.67.1,1.35.15,2.02.02.61.05,1.21.07,1.82l-.24.2c-.97,2.24-.61,4.41.77,6.54-.78.84-.93,1.65.29,2.39,4.02,11.48,5.79,23.58,12.71,34.26,2.17,3.35,4.74,4.86,9.05,3.34,6.06-2.14,12.07-1.52,18.37-.42,3.11.54,5,1.6,5.75,4.51-.09.71-.17,1.41-.26,2.12,0,0,0,.13,0,.13-.35.26-.7.51-1.05.77-.28.27-.56.54-.84.81Z"/><path class="cls-1" d="m259.69,117.04c-.48.15-.75.49-.89.96-.85.04-1.17.71-1.56,1.3-1.31-.03-2.62-.06-3.94-.09-1.01-.16-2.02-.32-3.03-.49-.28,0-.56-.01-.83-.02-.45-.04-.9-.09-1.35-.13-1.95-.46-3.9-.99-5.86-1.37-2.48-.49-5.03-1.2-7.05.8-.09.1-.19.21-.28.31-.26.22-.18.43.07.63.1.11.23.18.37.2,0,.26-.02.53-.03.79-.17.1-.34.2-.51.3-.54.12-.74.38-.28.89.12.12.24.24.36.35.18,3.82-.68,7.46-.92,11.21-.09,1.32.34,1.9,1.64,2.09,6.96,1.03,13.94,3.14,20.85,2.83,3.76-.17,7.75.52,11.44-1.01,2.42-1.01,5.16.37,7.54,1.72,1.19.68,1.21,3.21.14,4.79-.62.92-1.44,1.7-2.17,2.55-.09-.03-.18-.02-.26.02-1,.36-2,.72-2.99,1.08-.2-.09-.4-.18-.59-.27-2.12-1.85-4.35-2.75-6.85-1.35-.56-.07-1.12-.14-1.68-.21-.92-.54-1.88-.9-2.92-.68-.65,0-1.3,0-1.94.01-3.37-.54-6.74-.8-10.12-1.04-3.39-.24-6.9-1.3-10.37-1.84-.98-.15-1.89-.21-2.68.38-.48.12-.65.47-.66.94-.48,1.88-1.85,3.63-.36,5.79-.15.34-.3.68-.45,1.02-.09.31.02.55.29.73-.74.38-1.32.81-.35,1.68-.1.11-.11.23-.02.36-.51.48-.71,1.06-.37,1.78-.06.18-.13.35-.19.53-.53.28-.73.72-.51,1.34-.02.26-.05.52-.07.78l-.07.05c-.37.18-.39.46-.16.81.06.15.12.3.18.45-.74,3.39.59,4.83,4.32,5.21,3.86.39,7.74.22,11.57,1.31.49.14,1.06.3,1.52.2,3.27-.71,6.46.02,9.62,1.25l.03.03c-.04.71-.37,1.42.17,2.13l.09.11c-.09.46-.19.92-.28,1.38-.09.1-.16.21-.21.33-.58.1-.92.45-1.06,1.01-2.85,1.09-5.8,1.07-8.86.15-.53-.16-1.14.04-1.71.07-.26-.06-.53-.12-.79-.19-.46-.06-.93-.11-1.39-.17-5.49.19-10.88-1.14-16.28-2.31-2.99-.65-3.21-3.26-4.22-5.34.1-.35.13-.68-.18-.98.86-3.22,1.43-6.48,1.02-9.93,0,0,.06-.04.06-.04.29-.1.38-.31.28-.62.14-.64.27-1.28.41-1.92-.12-2.15.68-4.21.09-6.4.49-.48.47-.89-.27-1.18.06-.31.12-.62.17-.93.58.07,1.04-.16,1.11-.73.08-.69-.52-.79-1.03-.92-.09-.63-.33-1.08-1.07-.99-.52-1.51-1.96-1.41-3.05-1.93.04-.25.08-.5.12-.74,0,0,.02,0,.02,0,.4-.22.59-.6.66-1.04.32-2.02,1.23-3.03,3.58-2.9,2.32.13,3.49-1.49,3.29-4.77-.27-4.3-.08-8.62-.98-12.92-.29-1.35-.27-2.62.19-3.86.61-1.64,2.31-2.38,4-1.7,5.92,2.39,11.99,3.66,18.2,4.07.9.06,1.73,0,2.53-.32,2.43-.97,4.91-.83,7.44.22.03.14.09.27.2.37.34,1.18.81,2.35.43,3.57-.09.15-.19.29-.28.44Z"/><g><path class="cls-1" d="m657.93,82c-.86,2.49-3.1,4.22-5.83,4.94-.3.08-.65.38-.97.58-.46.4-.93.8-1.39,1.2-.65-.49-1.03-1.3-2.28-1.08-.28-.23-.57-.46-.85-.69-.4-.76-.91-1.39-2.22-1.07-.28-.19-.55-.37-.82-.55-.7-.43-1.41-.86-2.11-1.29-.11-.14-.22-.28-.33-.41-.16-1.94-1.61-2.21-3.91-1.37.26-.67.11-1.09-.38-1.3-1.92-2.79-6.34-2.83-8.73-5.11-.1-.09-.65.25-.99.39-.8-.54-.26-2.19-1.63-2.27-.16-.09-.32-.19-.48-.29-.48-.19-.96-.39-1.44-.59-4.17-3.69-8.8-6.91-13.87-9.66.3.54.65,1.07,1.04,1.59.8,1.06,1.04,2.27,1.45,3.47,2.02,5.92,3.46,12.01,6.58,17.6l-.04.07c.37,3.16.61,6.34,1.13,9.48.53,3.26-.61,6.72,1.64,9.78-.09.25-.18.5-.27.76-2.31,1.11-4.29,2.85-7.3,2.51-3.7-.42-6.14-2.57-8.16-5.15-2.62-3.36-5.24-6.66-9.06-8.95-.33-.2-.71-.64-.71-.96-.04-3.14-2.67-5.02-4.75-6.61-3.51-2.68-5.63-6.32-8.79-9.18-.81-.73-1.32-1.91-2.68-1.39-1.47.56-1.22,1.89-.96,2.99.73,3.08,1.5,6.13,1.55,9.3.07,4.49,1.99,8.77,2.75,13.06,1.28,7.2,4.39,13.86,5.96,20.9.7,3.15-.5,5.12-3.8,6.2-3.39,1.1-4.74-.86-5.87-3.22-.51-1.05-.91-2.18-1.12-3.31-1.1-5.7-2.71-11.27-5.37-16.58-1.32-2.62-.47-5.38-.87-8.06-.19-1.23-.41-2.24-1.57-2.96-.06-.34-.12-.67-.19-1.01-.03-3.19-.84-6.38-.24-9.58.21-1.11-.66-1.95-1.37-2.77.06-.18.08-.36.06-.55.82-1.22,0-2.4-.23-3.6-.78-4.2-2.03-8.31-2.62-12.57-.49-3.57,1.97-4.51,4.16-5.65,2.55-1.33,5.2-.8,7.16,1.58,1.11,1.36,2.54,2.36,4.02,3.31.16.15.32.31.48.46,2.76,4.52,7.58,7.39,10.75,11.57.08.11.19.17.33.18.96,2.78,3.99,3.41,6.04,5.06l-.09.18c1.14,4.5,4.32,7.59,8.28,10.12,1.06.68,1.58.17,1.83-.85.3-1.18.13-2.24-.71-3.22-.13-.63-.26-1.26-.4-1.89-.13-.14-.27-.29-.41-.43.65-2.18-1.23-3.85-1.58-5.84-1.04-3.91-3.15-7.4-5.29-10.88-.22-.39-.43-.77-.65-1.15-.05-.89-.19-1.74-.93-2.42-.11-.42-.21-.84-.32-1.26.13-.55-.15-.91-.63-1.19-.12-.39-.24-.79-.37-1.18.07-.37.05-.72-.02-1.06-.59-.45-1.04-1.05-1.35-1.81-.25-.6-.19-1.44.1-2.33.02-.08.05-.16.08-.25.51-1.42,1.55-2.95,2.77-3.86,2.78-2.05,4.97-2.05,6.56-.87,3.63,2.67,6.93,5.69,12.27,6.55,2.63.42,4.71,1.97,6.33,3.64,1.69,1.75,3.66,3.24,6.35,3.61,3.76.51,5.5,3.27,8.84,4.08,5.09,1.23,8.12,4.81,12.93,6.33,1.28.4,1.98,1.43,3.72,1.4,3.26-.06,2.7,2.77,1.79,5.38Z"/><path class="cls-1" d="m596.37,55.74c-.03.09-.06.17-.08.25l-.03-.21s.08-.02.11-.04Z"/></g><path class="cls-1" d="m283.17,115.99c-.48-1.17-1.24-2.07-2.35-2.79-3.73-2.41-3.6-7.07-1.46-9.99.35-.48,1.15-.89,1.77-.88,7.4.12,13.9-2.94,20.91-4.16,5.25-.91,10.49-1.88,15.77-2.62,2.24-.31,4.31,1.08,6.42,1.88-.29.67-.11,1.21.57,1.61.18.45.37.89.56,1.34-.15.78-.31,1.57-.46,2.35,0,0,0,.04,0,.04-.64.84-1.27,1.67-1.91,2.51-1.11.21-2.1.92-3.4.25-1.17-.61-2.32-.48-3.34.23-2.48-.52-4.68.3-6.93.88-1.86-1.68-3.67-.78-5.48-.31-1.6-.48-3.17-.59-4.72-.14-1.87.5-3.8.87-5.58,1.56-1.58.61-2.9,1.61-.59,3.32l-.11.23c-.23,2.12.59,3.92,2.14,5.49,1.3,3.24,3.35,6.24,3.77,9.75-.22.6-.03,1.07.58,1.4.05.12.13.21.24.28.5,5.09,2.57,6.33,6.63,3.54,5.94-4.07,11.82-8.26,17.16-13.05,3.97-3.56,7.9-6.99,13.92-6.87.71.03,1.41.06,2.12.09,0,.42,0,.84.01,1.25-.04.19-.08.38-.12.57-.26.68-.04,1.18.69,1.48,0,0-.21.04-.21.04-.42.35-.84.7-1.26,1.05-.29.23-.59.46-.88.69-.1.18-.2.36-.3.55,0,0-.07.16-.07.16-1.63,1.16-3.26,2.33-4.89,3.49-.25.31-.5.63-.75.94-1.39.58-2.01,1.94-3.07,2.85-2.32,1.53-4.04,3.64-5.88,5.65-3.92,1.82-7.17,4.52-10.42,7.22-1.43,1.39-4.18,1.47-4.29,4.16,0,.07-.05.16-.02.2.08.1.2.19.3.28-4.67.88-4.99,1.84-2.06,6.13,1.09,4.55,1.71,4.85,6,3.99,2.76-.55,4.81-2.06,6.9-3.6,2.71-2,5.64-3.39,9.32-2.88,0,0,.02.01.02.01.67,1.21,1.72,1.38,2.89,1.2.74,3.54-1.07,5.24-3.72,7.28-2.91,2.24-6.25,3.48-9.31,5.3-2.71,2.05-6.59,2.27-8.9,4.97-1.5.2-3.09-.11-4.52.49l-.04-.04c-.12-1.83-1.78-2.01-2.97-2.7-1.36-2.14-3.09-4.09-3.95-6.5.08-.08.13-.18.13-.29.92-3.34.02-6.48-2.8-8.67-1.93-1.51-2.89-3.14-3.4-5.25.05-.88.09-1.75.14-2.62,2.08-1.58,1.09-3.7.52-5.68-1.77-6.21-5.23-11.7-8.78-17.14-.19-.16-.38-.32-.58-.49Z"/><g class="cls-2"><path class="cls-1" d="m196.08,161.2c-1.37-6.96-6.37-14.15-10.38-20.98-3.74-6.37-9.25-12.48-8.41-20.66-1.22-.7-2.44-1.4-3.66-2.1-5.87-5.6-10.57-11.99-15.36-18.32-.44-.17-.77-.44-1-.81-4.85-2.02-7.63-5.6-9.43-9.93l-.56.02c-4.09.45-4.91-2.35-6.15-4.74-.81-.23-1.62-.46-2.43-.69-7.08-1.83-14.16-3.65-21.23-5.48-.31.09-.62.08-.92-.02l-11.64-1.53c-.41.19-.84.22-1.26.09-4.82-.18-9.65-.36-14.47-.53-.69.33-1.38.66-2.08,1-.43.8-1.1,1.07-2.01.81-1.41-.14-2.83-.28-4.24-.42-10.11.91-18.16,8.09-28.39,8.64-11.9,6.64-26.8,9.82-33.04,23,.35.39.77.78,1.16,1.16-.43.13-.83.23-1.17.22-6-.16-11.78,1.99-15.31,6.42-3.71,4.65-6.87,9.96-.26,11.74,3.53.95,4.21,3.39,6.49,4.93,8.62,5.82,12.15,14.68,21.54,20.1,6.15,3.55,7.67,10.04,14.9,13.24,5.16,2.29,8.05,6.4,10.21,10.86,2.06,4.27,5.13,8.56,10.14,10.92,9.13,4.31,13.67,11.13,18.42,17.86-1.65,2.38-2.35,4.97-.65,7.99,2.24,3.99,6.7,5.24,11.61,4.68,24.15-2.78,48.65-1.56,72.29-10.33,10.09-3.75,18.78-8,24.06-16.71,6.01-9.94,5.13-20.89,3.23-30.43Zm-26.55,16.43c-.4,4.18-4.67,7.59-7.89,8.66-7.52,2.52-14.46,6.22-22,8.5-1.66.51-3.69-.1-5.54-.19-5.05.76-10.04,2.67-15.17,1.28-.8.5-1.61,1-2.41,1.51-1.32.4-2.63.81-3.94,1.22-.33.22-.66.4-.98.55-.28-4.62-3.57-7.48-9.27-8.83-4.06-.96-7.56-2.49-9.87-4.68-10.16-9.61-18.68-20.15-25.45-31.62-.83-.67-1.65-1.35-2.48-2.02-.25-.28-.5-.57-.76-.85-2.71-.96-.43-3.91-1.66-5.46-.78.08-2.15.44-2.27.22-3.18-5.93-12.07-8.58-13.93-15.25-.86-.69-.85-1.61.16-2.79-5.25.33-7.97-1.05-6.9-4.99-.12-.34-.25-.68-.37-1.01-.7-.8-1.4-1.6-2.11-2.39,1.73-.9,3.57-2.22,5.61-3.97,12.68-10.84,26.5-18.62,44.27-20.58,17.83-1.96,33.04.78,45.14,12.11l.28.07c5.19,3.12,10.89,6.35,13.04,11.49,2.25,5.38,5.82,9.15,10.71,12.33,2.8,6.77,5.41,13.62,8.45,20.3,3.82,8.4,6.24,17.07,5.34,26.39Z"/></g><path class="cls-1" d="m212.58,196.27c-.98-5.11-4.66-10.37-7.6-15.37-2.75-4.67-6.81-9.13-6.15-15.16-.9-.51-1.8-1.01-2.71-1.52-4.33-4.09-7.79-8.77-11.32-13.4-.32-.12-.57-.32-.74-.59-3.59-1.46-5.64-4.08-6.95-7.25h-.42c-3.04.37-3.64-1.69-4.55-3.44-.6-.16-1.2-.33-1.8-.49-5.25-1.31-10.51-2.61-15.76-3.92-.23.07-.46.07-.69-.01-2.88-.35-5.76-.7-8.64-1.05-.31.13-.63.16-.94.07-3.59-.11-7.17-.21-10.76-.32-.51.25-1.03.5-1.55.75-.32.59-.83.8-1.5.61-1.05-.09-2.1-.19-3.15-.29-7.53.73-13.55,6.06-21.17,6.52-8.88,4.95-19.98,7.37-24.7,17.1.26.29.57.57.86.85-.32.1-.62.18-.87.17-4.46-.09-8.77,1.52-11.42,4.8-2.78,3.45-5.17,7.37-.25,8.64,2.61.68,3.11,2.48,4.79,3.6,6.38,4.23,8.96,10.73,15.91,14.67,4.55,2.58,5.65,7.34,11.01,9.66,3.82,1.65,5.95,4.66,7.53,7.93,1.51,3.13,3.77,6.27,7.48,7.98,6.77,3.12,10.11,8.12,13.6,13.04-1.24,1.76-1.77,3.67-.53,5.88,1.65,2.92,4.96,3.82,8.61,3.37,17.98-2.17,36.2-1.41,53.83-7.99,7.52-2.81,14.01-5.99,17.98-12.43,4.53-7.34,3.93-15.4,2.57-22.41Zm-19.84,12.24c-.32,3.07-3.51,5.61-5.91,6.42-5.61,1.89-10.79,4.65-16.41,6.37-1.24.38-2.74-.05-4.12-.11-3.76.59-7.48,2.02-11.29,1.03-.6.37-1.2.74-1.8,1.12-.98.3-1.96.61-2.94.92-.25.16-.49.3-.73.41-.18-3.4-2.61-5.49-6.85-6.45-3.01-.68-5.6-1.79-7.3-3.38-7.51-7.02-13.79-14.72-18.76-23.13l-1.83-1.47c-.19-.21-.37-.42-.56-.62-2.02-.69-.3-2.88-1.21-4.01-.58.07-1.6.34-1.69.17-2.33-4.34-8.93-6.24-10.27-11.14-.64-.5-.63-1.18.13-2.05-3.9.27-5.92-.73-5.1-3.63-.09-.25-.18-.5-.27-.75-.52-.58-1.03-1.16-1.55-1.74,1.28-.68,2.66-1.66,4.19-2.95,9.48-8.05,19.81-13.85,33.04-15.39,13.26-1.54,24.56.39,33.5,8.66l.2.05c3.85,2.27,8.07,4.61,9.64,8.38,1.64,3.95,4.28,6.7,7.9,9.01,2.04,4.97,3.95,10,6.17,14.89,2.79,6.16,4.54,12.53,3.82,19.39Z"/><path class="cls-1" d="m394.34,91.98c2-2.31,3.35-5.16,6.74-6.24,4.17-1.33,7.75-.17,11.07,1.64,4.32,2.36,8.6,4.67,13.73,5.3.44.05,1.05.35,1.19.7,1.44,3.37,5.1,4.14,8.05,4.86,4.96,1.2,8.87,4.12,13.53,5.69,1.2.4,2.27,1.43,3.51.21,1.33-1.31.46-2.63-.3-3.69-2.16-2.98-4.34-5.9-5.81-9.31-2.07-4.81-6.04-8.52-8.77-12.79-4.58-7.17-10.89-12.87-15.72-19.72-2.15-3.06-1.74-5.77,1.33-8.53,3.15-2.83,5.48-1.36,7.75.64,1.01.89,1.94,1.92,2.68,3.04,3.72,5.64,7.93,10.89,13.16,15.35,2.58,2.2,2.89,5.58,4.52,8.29.75,1.24,1.44,2.23,3,2.45.21.33.43.67.65,1,1.46,3.43,3.75,6.5,4.53,10.24.27,1.3,1.57,1.79,2.71,2.34.01.22.07.43.18.61-.34,1.72,1.07,2.59,1.85,3.79,2.71,4.16,5.88,8.01,8.41,12.32,2.12,3.62-.12,5.82-1.96,8.11-2.16,2.67-5.24,3.37-8.41,1.74-1.8-.93-3.78-1.32-5.79-1.64-.24-.09-.49-.18-.73-.27-4.97-3.55-11.43-4.34-16.71-7.33-.14-.07-.28-.08-.44-.03-2.27-2.55-5.81-1.76-8.75-2.56v-.25c-3.22-4.31-8.01-6.12-13.39-6.95-1.45-.22-1.78.58-1.6,1.8.21,1.42.86,2.49,2.2,3.14.42.62.85,1.24,1.27,1.86.21.09.42.17.64.26.28,2.68,3.04,3.58,4.3,5.55,2.86,3.73,6.68,6.49,10.53,9.22.4.31.81.61,1.21.92.44.94.98,1.8,2.08,2.17.3.41.6.81.9,1.22.11.64.57.9,1.2.97.31.37.61.74.92,1.1.22,1,.88,1.7,1.69,2.31.19.26.39.53.58.79.1.18.26.29.47.32.36.6.72,1.21,1.07,1.81-1.32,1.09-1.12,2.61-1.48,3.97-.74.86-1.49,1.72-2.23,2.58-1.91,1.03-3.9.53-5.86.59h-.29c-3.21-3.44-5.47-7.7-9.81-10.15-1.34-.76-2.14-1.95-3.11-3.05-4.8-5.42-9.06-11.32-14.91-15.86,0,0,.01-.1,0-.1-1.8-3.24-3.48-6.55-5.43-9.7-2.02-3.27-2.33-7.55-6.11-9.77-.02-.32-.04-.63-.06-.95Z"/><path class="cls-1" d="m498.15,56.87c-.1.52.07.95.43,1.31-.39.82.07,1.45.41,2.11-.69,1.22-1.38,2.44-2.07,3.66-.66.87-1.32,1.74-1.98,2.61-.15.26-.29.52-.44.77-.27.4-.53.81-.8,1.21-1.41,1.61-2.87,3.17-4.22,4.82-1.7,2.09-3.64,4.13-2.82,7.02.05.14.1.28.15.42.07.35.3.38.62.25.15-.04.28-.13.37-.25.24.14.48.28.72.42,0,.21.02.42.02.63-.16.57-.03.89.68.7.17-.05.34-.11.51-.16,3.61,1.72,6.53,4.34,9.86,6.42,1.17.73,1.92.62,2.75-.5,4.46-6.03,9.93-11.55,13.12-18.19,1.74-3.62,4.39-7.02,4.84-11.25.29-2.77,2.94-4.67,5.39-6.23,1.22-.78,3.57.45,4.49,2.24.54,1.04.84,2.2,1.25,3.3-.07.07-.11.16-.11.25-.17,1.12-.34,2.23-.51,3.35-.18.14-.37.28-.55.42-2.77,1.07-4.73,2.72-4.7,5.77-.35.49-.7.98-1.04,1.48-.97.6-1.78,1.32-2.1,2.41-.32.61-.65,1.22-.97,1.83-2.2,2.9-4.14,5.93-6.07,9-1.93,3.07-4.67,5.84-6.93,8.83-.63.84-1.15,1.67-1.01,2.71-.13.51.11.85.54,1.09,1.49,1.38,2.42,3.54,5.15,3.21.24.31.47.61.71.92.24.24.51.26.82.09-.02.88.09,1.64,1.37,1.16.05.15.15.21.32.2.19.72.62,1.19,1.45,1.23.13.15.26.3.39.44,0,.64.3,1.04.98,1.15.23.15.46.3.68.45v.1c-.01.44.24.6.67.56.17.02.34.03.5.05,2.75,2.38,4.75,1.84,6.97-1.48,2.3-3.43,4.11-7.16,7.04-10.22.38-.39.81-.84.95-1.32,1-3.43,3.27-6.06,6.01-8.42l.04-.02c.63.39,1.12,1.05,2.05.9l.15-.03c.38.32.76.63,1.13.95.05.13.11.25.2.36-.2.59-.06,1.09.4,1.5-.43,3.22-1.94,5.98-4.33,8.4-.41.42-.54,1.09-.8,1.65-.19.22-.38.43-.57.65-.29.41-.57.82-.86,1.23-2.59,5.25-6.54,9.66-10.34,14.16-2.11,2.49-4.62,1.4-7.05,1.32-.27-.27-.56-.46-1-.32-2.53-2.4-5.25-4.56-8.63-5.88,0,0,0-.07,0-.07.05-.33-.09-.52-.43-.57-.52-.45-1.04-.89-1.56-1.34-2.04-.95-3.53-2.73-5.85-3.26-.2-.7-.58-.88-1.23-.33-.26-.21-.51-.41-.77-.62.36-.52.37-1.06-.11-1.4-.6-.42-.99.1-1.37.51-.62-.23-1.17-.22-1.45.52-1.65-.26-2.29,1.14-3.31,1.91-.21-.16-.42-.32-.62-.48,0,0,0-.02,0-.02,0-.49-.26-.85-.62-1.13-1.7-1.31-2.17-2.66-.87-4.8,1.29-2.12.39-4.02-2.73-5.45-4.1-1.88-7.98-4.2-12.4-5.48-1.39-.4-2.55-1.04-3.46-2.09-1.2-1.38-1.03-3.35.45-4.6,5.18-4.38,9.42-9.46,12.93-15.09.51-.81.88-1.62.99-2.54.33-2.76,1.71-5.03,3.96-6.88.14.04.29.04.44,0,1.26.27,2.58.4,3.5,1.36.09.16.17.32.26.48Z"/></g></g></svg>