<?xml version="1.0" encoding="utf-8"?>
<!-- Generator: Adobe Illustrator 27.2.0, SVG Export Plug-In . SVG Version: 6.00 Build 0)  -->
<svg version="1.1" id="Layer_2_00000030454247194535033310000006428065793551284628_"
	 xmlns="http://www.w3.org/2000/svg" xmlns:xlink="http://www.w3.org/1999/xlink" x="0px" y="0px" viewBox="0 0 221.8 221.3"
	 style="enable-background:new 0 0 221.8 221.3;" xml:space="preserve">
<style type="text/css">
	.st0{fill:#0497EA;}
</style>
<g id="Layer_1-2">
	<path class="st0" d="M209.1,63.6c-14.4-24.2-34.6-42-60.1-53.8c-19.6-9-40-12.4-61.3-7.4C37.9,14.1-0.2,63.3,0,115.6
		c0.5,6.8,0.7,13.7,1.6,20.4c3.3,24.4,11.8,46.5,31.6,62.1c27.5,21.7,59.7,28.1,93,19.6c41.4-10.5,69.8-38.2,87.6-76.7
		C226.1,114.6,224,88.5,209.1,63.6L209.1,63.6z M147.8,58.7c0.1,2.7-1.1,4-3.8,3.9c-3.8-0.1-7.7-0.1-11.5,0
		c-6.9,0.2-10.4,3.6-10.7,10.5c-0.2,4.7,0,9.3-0.1,14c-0.1,2.8,1.2,3.8,3.9,3.8c5.5-0.1,11,0.1,16.5-0.1c3.4-0.1,5,0.9,4.4,4.6
		c-0.9,5.6-1.6,11.2-2.2,16.8c-0.4,3.2-1.8,4.7-5.2,4.5c-4.3-0.2-8.7,0.1-13-0.1c-3.3-0.2-4.4,1.2-4.3,4.4c0.1,18.5-0.1,37,0.2,55.4
		c0.1,4.6-1.2,6.3-5.9,6c-5.5-0.3-11-0.2-16.5,0c-3.4,0.1-4.7-1.3-4.7-4.7c0.1-9.3,0.1-18.6,0.1-28h0c0-9.5-0.1-19,0.1-28.5
		c0.1-3.5-1.2-4.8-4.6-4.6c-4.5,0.2-9,0-13.5,0.1c-2.6,0.1-4-0.7-4-3.6c0.1-6.2,0.1-12.3,0-18.5c-0.1-2.9,1.3-3.7,4-3.7
		c4.7,0.1,9.3-0.1,14,0.1c3,0.1,4.1-1.2,4.1-4.1c0-6.8-0.2-13.7,0.6-20.5c2.3-18.5,15.1-28.9,33.8-28.1c4.8,0.2,9.6,0.5,14.5,0.6
		c2.9,0.1,4.2,1.3,4.1,4.3C147.7,48.4,147.7,53.5,147.8,58.7L147.8,58.7z"/>
</g>
</svg>
