<?xml version="1.0" encoding="UTF-8"?><svg id="Layer_2" xmlns="http://www.w3.org/2000/svg" viewBox="0 0 133.81 133.82"><g id="Layer_1-2"><path d="m133.78,9.51c.04-6.94-1.92-9.56-9.21-9.51C86.05.29,47.53.31,9.01,0,1.43-.07-.06,3.08.05,9.74c.31,18.74.11,37.49.11,56.24-.01,19.09.3,38.18-.15,57.26-.19,7.82,1.96,10.67,10.26,10.58,37.83-.41,75.67-.35,113.5-.04,7.43.06,10.11-1.95,10.04-9.74-.35-38.18-.29-76.36-.03-114.53Zm-33.56,28.33c-9.34,1.37-12.41,7.04-12.41,18.42h12.41v13.75h-12.41v40.9h-16.92v-40.9h-6.87v-13.75h6.87s-2.83-30.09,29.33-30.09v11.67Z"/></g></svg>