<?xml version="1.0" encoding="UTF-8"?><svg id="Layer_2" xmlns="http://www.w3.org/2000/svg" viewBox="0 0 219.27 221.19"><defs><style>.cls-1{fill:#3c55a4;}</style></defs><g id="Layer_1-2"><g><path class="cls-1" d="m172.16,12.72C149.83.09,125.91-2.13,101.02,1.69,38.77,11.26-6.42,62.34.75,126.6c6.02,54.01,49.36,94.34,104.16,94.59,20.26.1,39.58-6.01,57.3-19.07,32.84-24.2,51.66-56.62,56.41-97.26,4.38-37.49-13.66-73.59-46.46-92.14Zm1.93,112.89c.03,5.27.02,10.55-.11,15.82-.48,18.84-12.34,33.79-31.1,35.07-23.17,1.57-46.6,1.48-69.79.04-18.01-1.12-30.12-14.95-30.77-33.04-.76-21.27-.8-42.6,0-63.87.71-18.92,14.31-32.66,33.31-33.45,21.43-.89,42.96-.88,64.39-.03,19.52.77,33.46,16.18,33.97,35.83.22,8.45.1,16.9.06,25.35-.01,1.55-.01,3.09-.01,4.63,0,4.55.04,9.1.06,13.65Z"/><path class="cls-1" d="m161.09,81.21c-.24-12.33-8.42-21.41-20.64-22.45-10.57-.9-21.27-.19-31.92-.19s-22.01-.67-32.92.18c-11.84.91-19.84,8.47-20.43,20.25-1.03,20.26-1.57,40.62-.69,60.87.69,15.97,8.8,24.5,22.09,24.89,20.78.61,41.6.6,62.38.01,12.84-.36,21.86-9.81,22.13-22.65.43-20.3.4-40.61,0-60.91Zm-53.74,64.54c-18.69-.07-33.73-15.3-33.81-34.21-.07-18.79,15.37-33.91,34.59-33.87,19.14.05,34.04,15.16,33.92,34.4-.12,19-15.32,33.75-34.7,33.68Zm35.85-61.25c-4.4-.04-8.14-4.03-7.98-8.5.16-4.27,3.91-7.92,8.1-7.89,4.46.03,8.03,3.88,7.89,8.5-.14,4.38-3.75,7.94-8.01,7.89Z"/><path class="cls-1" d="m129.87,111.53c.18,11.8-9.97,22.02-21.95,22.09-11.92.07-21.96-10.02-21.95-22.03.02-11.91,10.22-21.98,22.13-21.83,11.78.15,21.6,9.97,21.77,21.77Z"/></g></g></svg>