<?xml version="1.0" encoding="UTF-8"?><svg id="Layer_2" xmlns="http://www.w3.org/2000/svg" viewBox="0 0 133.82 133.82"><g id="Layer_1-2"><g><path d="m133.77,10.15c.06-7.3-1.7-10.22-9.63-10.15C85.97.37,47.78.29,9.61.05,2.8.01-.05,1.75,0,9.15.3,47.67.3,86.19,0,124.71c-.05,7.43,2.85,9.19,9.64,9.07,19.08-.33,38.17-.12,57.26-.12,18.75.01,37.5-.28,56.24.15,7.66.17,10.78-1.72,10.68-10.15-.42-37.84-.34-75.68-.05-113.51Zm-21.54,76.82c-.46,15.06-10.22,24.84-25.18,25.3-12.57.39-25.17.43-37.74.03-16.34-.51-25.83-10.28-26.07-26.4-.18-11.9-.16-23.81,0-35.71.21-16.68,10.03-26.55,26.65-26.93,3.96-.09,7.93-.07,11.89-.04,1.82.01,3.64.02,5.45.02s3.69-.01,5.53-.02c4.62-.04,9.24-.09,13.86.07,15,.52,25.07,10.07,25.59,24.92.46,12.9.42,25.85.02,38.76Z"/><path d="m105.32,77.02c-.03-2.96-.09-5.92-.09-8.89,0-1.01.01-2.01.02-3.02.05-5.46.18-10.92-.06-16.37-.47-11.2-6.73-17.72-17.94-18.04-12.92-.37-25.87-.39-38.78.04-10.62.36-17.19,6.92-17.52,17.42-.41,12.92-.39,25.87-.03,38.79.32,11.16,6.87,17.69,18,17.99,12.92.34,25.86.34,38.77-.02,10.59-.29,16.92-6.76,17.48-17.39.18-3.5.19-7,.15-10.51Zm-36.98,13.42c-12.89.12-22.74-9.49-22.91-22.36-.16-12.98,9.34-22.59,22.44-22.69,13.21-.1,22.67,9.11,22.83,22.23.15,13-9.35,22.7-22.36,22.82Zm24.24-40.08c-3.72,0-6.73-3.02-6.73-6.73s3.01-6.74,6.73-6.74,6.73,3.02,6.73,6.74-3.01,6.73-6.73,6.73Z"/><path d="m83.79,68.31c-.33,8.59-7.45,15.19-16.14,14.95-8.84-.24-15.29-7.05-15.04-15.86.25-8.7,7.15-15.14,15.99-14.94,8.56.2,15.51,7.44,15.19,15.85Z"/></g></g></svg>