<?xml version="1.0" encoding="utf-8"?>
<!-- Generator: Adobe Illustrator 27.2.0, SVG Export Plug-In . SVG Version: 6.00 Build 0)  -->
<svg version="1.1" id="Layer_2_00000049219913111797277570000007380119998446533254_"
	 xmlns="http://www.w3.org/2000/svg" xmlns:xlink="http://www.w3.org/1999/xlink" x="0px" y="0px" viewBox="0 0 219.3 221.2"
	 style="enable-background:new 0 0 219.3 221.2;" xml:space="preserve">
<style type="text/css">
	.st0{fill:#0497EA;}
</style>
<g id="Layer_1-2">
	<g>
		<path class="st0" d="M172.2,12.7C149.8,0.1,125.9-2.1,101,1.7C38.8,11.3-6.4,62.3,0.8,126.6c6,54,49.4,94.3,104.2,94.6
			c20.3,0.1,39.6-6,57.3-19.1c32.8-24.2,51.7-56.6,56.4-97.3C223,67.4,205,31.3,172.2,12.7z M174.1,125.6c0,5.3,0,10.6-0.1,15.8
			c-0.5,18.8-12.3,33.8-31.1,35.1c-23.2,1.6-46.6,1.5-69.8,0c-18-1.1-30.1-14.9-30.8-33c-0.8-21.3-0.8-42.6,0-63.9
			C43,60.7,56.6,47,75.6,46.2c21.4-0.9,43-0.9,64.4,0c19.5,0.8,33.5,16.2,34,35.8c0.2,8.4,0.1,16.9,0.1,25.3c0,1.6,0,3.1,0,4.6
			C174,116.5,174.1,121.1,174.1,125.6L174.1,125.6z"/>
		<path class="st0" d="M161.1,81.2c-0.2-12.3-8.4-21.4-20.6-22.5c-10.6-0.9-21.3-0.2-31.9-0.2s-22-0.7-32.9,0.2
			C63.8,59.7,55.8,67.2,55.2,79c-1,20.3-1.6,40.6-0.7,60.9c0.7,16,8.8,24.5,22.1,24.9c20.8,0.6,41.6,0.6,62.4,0
			c12.8-0.4,21.9-9.8,22.1-22.6C161.5,121.8,161.5,101.5,161.1,81.2L161.1,81.2z M107.3,145.8c-18.7-0.1-33.7-15.3-33.8-34.2
			c-0.1-18.8,15.4-33.9,34.6-33.9c19.1,0.1,34,15.2,33.9,34.4C141.9,131.1,126.7,145.8,107.3,145.8z M143.2,84.5c-4.4,0-8.1-4-8-8.5
			c0.2-4.3,3.9-7.9,8.1-7.9c4.5,0,8,3.9,7.9,8.5C151.1,81,147.5,84.6,143.2,84.5L143.2,84.5z"/>
		<path class="st0" d="M129.9,111.5c0.2,11.8-10,22-21.9,22.1c-11.9,0.1-22-10-21.9-22c0-11.9,10.2-22,22.1-21.8
			C119.9,89.9,129.7,99.7,129.9,111.5z"/>
	</g>
</g>
</svg>
