<?xml version="1.0" encoding="UTF-8"?><svg id="Layer_2" xmlns="http://www.w3.org/2000/svg" viewBox="0 0 698 171"><defs><style>.cls-1{fill:#f9cb00;}</style></defs><g id="Layer_1-2"><path class="cls-1" d="m698,171h-41.29c-10.02-6.84-20.91-14.12-21.82-14.44-14.14-8.8-16.16-5.47-30.74-13.09-.32-.17-15.38-8.28-15.95-8.08-.79.29-7.25-2.58-7.96-3.01-3.59-2.12-7.74-2.11-12.49-2.96-.81-.33-34.21-6.47-35.18-6.85.28,0,5.86.13,12.17.28-.51-.27-1-.54-1.45-.81-22.45-3.22-48.8-7.27-70.21-8.68-6.44.77-13.14,1.59-18.41-.43-1.29.04-2.55.1-3.75.18-1.46-.56-.44-.87,1.98-1.01-.49-.27-.97-.56-1.43-.9-1.83-1.35-3.36-3-4.52-4.74-1.16-.3-2.33-.61-3.52-.92-1.22.73-2.25,1.33-2.96,1.76-1,.58-19.49-5.67-20.54-6.17-1.61-.76-56.24-10.18-58.48-10-20.8-2.74-21.05,1.91-41.65.69-.17-.01-3.14-.22-6.87-.46-.29.29-.56.6-.8.91-4.82-.51-9.71-1.03-14.65-1.54-.03.01-.06.02-.07.03-.69.7-9.53.71-10.56.6-1.04-.11-2.05-.09-3.05-.03-3.22-1.16-6.66-1.42-10.13-1.6-.06-.03-.12-.07-.19-.11-.66-.32-1.37-.56-2.09-.74v-.63c-11.27-.96-22.24-1.68-32.31-1.97-1.77.28-3.55.56-5.32.8.33.5.69.98,1.04,1.42-1.91-.14-3.82-.17-5.72-.13-.58-.22-1.15-.44-1.73-.63-3.87.21-7.57-.02-10.87-1.14-.19.01-.38.03-.56.04-.55-.37-1.13-.69-1.74-.96.03-.01.05-.01.08-.01-.62-.31-1.23-.64-1.81-1.04-.21-.14-.42-.29-.62-.44-18.28-2.3-37.28.52-56.4-4.2-13.16-3.26-45.93-5.75-58.39-12.66-13-7.21-38.19-10.82-51.43-13.92-15.1-3.53-30.83-13.02-45.61-19.18V0c1.36.89,2.26,1.44,2.51,1.53,17.23,10.98,19.75,6.92,37.54,16.45.4.21,18.76,10.37,19.46,10.12.97-.34,8.87,3.28,9.73,3.8,4.37,2.65,9.47,2.69,15.29,3.8.98.42,42.11,8.42,43.1,8.86-.26,0-11.18-.37-21.17-.72,29.07,4.4,65.21,10.58,94.06,12.78.9-.1,1.81-.2,2.72-.29-.22-.26-.44-.5-.65-.73,1.57.38,3.24.38,4.89-.1.37.13.73.26,1.1.37,5.22-.34,10.28-.17,14.53,1.52.12,0,.23-.01.35-.01.63.46,1.31.86,2.04,1.19.41.24.82.48,1.21.76,18.22,1.32,36.87-2.3,56.06,1.47,6.84,1.35,18.81,2.25,30.58,3.66,12.05-.86,24.18-.67,36.34-.14,8.72.38,17.25.73,25.98.25,7.66-.43,14.99-.78,22.37.75,20.2,5.55,42.36,12.88,61.3,11.95.19,0,.37-.03.56,0,5.35.41,20.39,7.21,30.71,12.92.48-.09,1.01-.1,1.6.06,1.86.49,3.62,1.14,5.3,1.91h.01c4,.31,8.02.85,12.04,1.8,10.75,2.54,37.46,4.29,47.67,9.82,10.67,5.76,31.22,8.48,42.03,10.9,15.16,3.38,31.19,14.08,45.52,18.08,17.2,4.79,35.65,26.07,53.22,38.25Z"/></g></svg>