<?xml version="1.0" encoding="UTF-8"?><svg id="Layer_2" xmlns="http://www.w3.org/2000/svg" viewBox="0 0 179.54 324.04"><defs><style>.cls-1{fill:#f9cb00;}</style></defs><g id="Layer_1-2"><path class="cls-1" d="m176.03,105.08c-.04,2.82-.04,5.64.1,8.41.17,3.22.52,6.35.66,9.57.17,3.74.05,7.55-.1,11.35-.36,9.31-.86,18.63-1.36,27.94-.12,2.25-.24,4.51-.4,6.76-.24,3.4-.57,6.77-.9,10.15-.33,3.42-.67,6.84-1,10.26-.17,1.71-.48,3.77-1.32,4.3l.44-9.3c-.25,1.9-.67,3.75-1.13,5.58.06,2.26.22,4.51.48,6.74.52-1.09,1.05-2.19,1.58-3.28l-1.44,4.63c.05.46.07.92.04,1.38-.04.79-.23,1.53-.42,2.27-1.88,7.45-3.77,14.89-5.66,22.33-.54,2.15-1.09,4.3-1.76,6.38-1.26,3.91-2.96,7.52-4.65,11.11-4.82,10.24-9.65,20.5-15.27,29.92l2.61-8.38c-.05.11-.1.21-.15.32-1.1,2.28-2.2,4.57-3.54,6.59l4.46-11.84c-8.52,10.73-6.74,13.98-15.28,26.1-.13.18-4.19,5.79-6.97,9.82.11,2.02.23,4.06.35,6.05.13-.3.25-.61.38-.91,2.11-5.07,4.28-10.17,7.01-14.92,2.73-4.75,6.1-9.18,9.77-11.9l-16.5,38.36c.36,5.43.65,9.32.78,9.81.11,1.2.22,2.32.34,3.36h-21.75c-.45-2.71-.77-5.62-.99-8.68.96-1.11,1.92-2.21,2.87-3.32.05-.44.1-.89.16-1.33.05-.42.1-.85.18-1.27.05-.29.12-.57.2-.85h0c.15-2.5.31-4.99.7-7.42.5-2.98,1.35-5.82,2.02-8.74.1-.43.19-.85.28-1.28.43-6.38.99-12.77,1.37-19.14,6.01-11.02,14.24-21.45,18.92-32.02,3.29-7.43,9.46-14.11,16.44-20.55,1.97-8.36,5.02-21.26,8-32.39,1.47-9.85,3.48-24.05,3.43-24.92,1.38-12.2-.78-12.38-.11-24.47.02-.27.85-12.84.61-13.14-.32-.42-.28-5.61-.22-6.21.29-3.06-.63-5.76-1.25-9.15-.01-.42-1.84-10.76-3.1-18.08-.18-.33-.36-.65-.55-.97-.1-.1-.2-.2-.3-.31-.29-.32-.54-.69-.78-1.09.17,1.61.74,3.69,1.84,5.87-5.23-6.93-14.78-19.45-22.68-30.76-6.83-7.21-16.73-17.4-17.43-17.78-8.69-8.25-9.93-5.13-18.89-12.28-.2-.16-9.45-7.78-9.8-7.59-.49.27-4.46-2.43-4.9-2.82-2.2-1.99-4.75-1.98-7.68-2.78-.49-.32-20.97-6.06-21.61-6.44.18,0,3.61.13,7.48.27-.32-.26-.61-.51-.89-.76-13.8-3.03-30-6.83-43.16-8.16-3.96.72-8.08,1.49-11.32-.4-.79.04-1.57.09-2.3.17-.9-.53-.27-.81,1.21-.95-.3-.25-.6-.52-.88-.84C1.41,2.45.64,1.26,0,0h73.1c6.64,3.13,15.04,5,20.05,6.71,9.31,3.18,19.16,13.23,27.97,16.98,13.42,5.71,28.06,36.33,41.28,42.83.09.04.17.09.26.16,2.3,1.92,7.41,11.19,10.67,18.28.24.08.48.24.7.53,2.3,2.9,3.75,6.65,4.85,10.16,1.53,4.89.31,8.09-2.85,9.43Z"/></g></svg>