<?xml version="1.0" encoding="UTF-8"?><svg id="Layer_2" xmlns="http://www.w3.org/2000/svg" viewBox="0 0 218.96 221.16"><defs><style>.cls-1{fill:#3c55a4;}</style></defs><g id="Layer_1-2"><path class="cls-1" d="m217.31,92.04c-8.33-42.66-31.85-73.83-73.71-86.72-42.4-13.06-80.7-1.7-111.56,30.13C8.04,60.2-.23,91.46,0,125.37c.18,24.38,8.71,45.34,25.88,62.48,27.76,27.72,62.19,37.18,100.01,31.93,53.73-7.46,93.41-55.42,93.06-111.75-.4-4.08-.5-10.14-1.65-15.99Zm-138.15,63.52c-4.48-.29-9-.31-13.47-.01-4.35.3-6.17-1.49-6.07-5.7.18-7.64.46-15.29.44-22.93-.04-14.47-.23-28.94-.42-43.4-.08-6.09.69-6.97,6.66-7,4.49-.01,8.99.17,13.48-.05,4-.19,5.26,1.68,5.23,5.38-.08,11.48-.03,22.95-.03,34.43h.04c0,11.15-.07,22.29.03,33.44.04,4.15-1.44,6.14-5.89,5.84Zm-7.16-89.79c-8.13-.25-13.98-6.39-13.84-14.55.14-8.14,6.32-14.34,14.22-14.24,7.93.1,14.73,6.93,14.62,14.69-.12,7.95-6.93,14.35-15,14.1Zm99.29,89.79c-4.83-.18-9.67-.25-14.48-.01-4.22.22-5.57-1.57-5.51-5.6.17-10.98.1-21.98.1-32.97,0-2.16.04-4.35-.24-6.49-1.08-8.36-6.52-13.98-13.19-13.81-8.52.21-14.87,6.02-15.5,14.61-.39,5.3-.26,10.65-.29,15.97-.04,7.5-.13,15,.03,22.49.09,3.9-1.14,5.95-5.38,5.8-5.16-.18-10.32-.07-15.48-.03-2.99.02-4.08-1.48-4.07-4.36.04-23.48.04-46.97,0-70.45-.01-2.95,1.16-4.28,4.15-4.2,3.5.1,7,.01,10.49.01q8.06,0,9.4,6.41c7.01-2.65,13.54-6.3,20.49-7.53,18.18-3.23,33.6,9.71,34.14,28.17.45,15.64.24,31.31.41,46.96.03,3.57-1.4,5.16-5.07,5.03Z"/></g></svg>