<?xml version="1.0" encoding="utf-8"?>
<!-- Generator: Adobe Illustrator 27.2.0, SVG Export Plug-In . SVG Version: 6.00 Build 0)  -->
<svg version="1.1" id="Layer_2_00000140007342147654906480000013728546379792995227_"
	 xmlns="http://www.w3.org/2000/svg" xmlns:xlink="http://www.w3.org/1999/xlink" x="0px" y="0px" viewBox="0 0 219 221.2"
	 style="enable-background:new 0 0 219 221.2;" xml:space="preserve">
<style type="text/css">
	.st0{fill:#0497EA;}
</style>
<g id="Layer_1-2">
	<path class="st0" d="M217.3,92c-8.3-42.7-31.9-73.8-73.7-86.7C101.2-7.7,62.9,3.6,32,35.4C8,60.2-0.2,91.5,0,125.4
		c0.2,24.4,8.7,45.3,25.9,62.5c27.8,27.7,62.2,37.2,100,31.9c53.7-7.5,93.4-55.4,93.1-111.8C218.6,103.9,218.4,97.9,217.3,92
		L217.3,92z M79.2,155.6c-4.5-0.3-9-0.3-13.5,0c-4.3,0.3-6.2-1.5-6.1-5.7c0.2-7.6,0.5-15.3,0.4-22.9c0-14.5-0.2-28.9-0.4-43.4
		c-0.1-6.1,0.7-7,6.7-7c4.5,0,9,0.2,13.5-0.1c4-0.2,5.3,1.7,5.2,5.4c-0.1,11.5,0,23,0,34.4h0c0,11.2-0.1,22.3,0,33.4
		C85.1,153.9,83.6,155.9,79.2,155.6z M72,65.8c-8.1-0.2-14-6.4-13.8-14.5c0.1-8.1,6.3-14.3,14.2-14.2c7.9,0.1,14.7,6.9,14.6,14.7
		C86.9,59.6,80.1,66,72,65.8z M171.3,155.6c-4.8-0.2-9.7-0.2-14.5,0c-4.2,0.2-5.6-1.6-5.5-5.6c0.2-11,0.1-22,0.1-33
		c0-2.2,0-4.3-0.2-6.5c-1.1-8.4-6.5-14-13.2-13.8c-8.5,0.2-14.9,6-15.5,14.6c-0.4,5.3-0.3,10.7-0.3,16c0,7.5-0.1,15,0,22.5
		c0.1,3.9-1.1,5.9-5.4,5.8c-5.2-0.2-10.3-0.1-15.5,0c-3,0-4.1-1.5-4.1-4.4c0-23.5,0-47,0-70.4c0-2.9,1.2-4.3,4.2-4.2
		c3.5,0.1,7,0,10.5,0c5.4,0,8.5,2.1,9.4,6.4c7-2.7,13.5-6.3,20.5-7.5c18.2-3.2,33.6,9.7,34.1,28.2c0.4,15.6,0.2,31.3,0.4,47
		C176.4,154.1,175,155.7,171.3,155.6L171.3,155.6z"/>
</g>
</svg>
