<?xml version="1.0" encoding="UTF-8"?><svg id="Layer_2" xmlns="http://www.w3.org/2000/svg" viewBox="0 0 133.82 133.82"><defs><style>.cls-1{fill:#fff;}</style></defs><g id="Layer_1-2"><g><path d="m133.77,9.62C133.81,2.82,132.09-.06,124.68,0,86.16.3,47.64.3,9.13,0,1.71-.06-.08,2.82.04,9.62c.33,19.09.12,38.18.12,57.27-.01,18.75.27,37.5-.15,56.24-.17,7.64,1.69,10.79,10.14,10.69,37.83-.42,75.68-.34,113.51-.05,7.28.06,10.23-1.68,10.16-9.62-.37-38.18-.29-76.36-.05-114.53ZM45.13,84.22c0,5.42-.2,10.86.06,16.26.27,5.67-1.27,8.98-7.79,8.97-6.01-.01-8.6-2.24-8.48-8.37.23-11.86.23-23.72,0-35.57-.12-6.07,2.31-8.46,8.4-8.46,6.44,0,8.14,3.13,7.88,8.88-.28,6.09-.07,12.2-.07,18.29Zm-6.72-34.26c-5.76,0-10.43-4.67-10.43-10.42s4.67-10.43,10.43-10.43,10.42,4.67,10.42,10.43-4.66,10.42-10.42,10.42Zm67.72,52.28c-.22,2.55-4.27,6-7.19,6.81-4.68,1.31-8.68-.52-8.59-6.75.11-7.14.9-14.49-.54-21.34-.83-3.96-5.48-7.12-8.4-10.64-3.15,3.4-8.08,6.36-9.05,10.3-1.57,6.43-.84,13.51-.55,20.29.25,6.08-2.05,8.55-8.24,8.55-6.42-.01-8.28-3.08-8.05-8.86.13-3.25.13-6.52.11-9.78-.02-1.64-.04-3.27-.05-4.9h0c-.01-.9-.01-1.78-.01-2.66,0-1.7-.02-3.4-.03-5.1-.02-3.74-.04-7.48.04-11.22.2-9.1,3.99-11.56,13.02-9.51,3.36.77,7.43.84,10.6-.33,13.94-5.12,25.88,1.74,27,16.63.72,9.46.74,19.07-.07,28.51Z"/><path class="cls-1" d="m55.58,85.91c-.01-.88-.02-1.77-.02-2.65,0-1.7-.01-3.4-.02-5.1.01,1.7.03,3.4.03,5.1,0,.88,0,1.76.01,2.65Z"/></g></g></svg>