<?xml version="1.0" encoding="UTF-8"?><svg id="Layer_2" xmlns="http://www.w3.org/2000/svg" viewBox="0 0 538.51 340.31"><defs><style>.cls-1{fill:#fff;}.cls-2{fill:#fff7f7;}.cls-3{opacity:.09;}</style></defs><g id="Layer_1-2"><g id="D9vOuq.tif" class="cls-3"><g><path class="cls-1" d="m245.39,214.82c.83-.63,1.34-.91,1.73-1.32,5.63-5.82,11.54-11.4,16.75-17.57,3.38-4,7.51-5.5,12.14-5.21,11.25.71,21.96,3.43,30.13,11.92,4.5,4.67,8.18,9.99,9.94,16.42.49,1.78,1.52,3.43,1.89,5.22.28,1.35.2,2.95-.26,4.25-1.32,3.76-3.19,7.33-4.34,11.13-4.07,13.35-7.87,26.78-11.94,40.13-.6,1.98-1.9,3.88-3.28,5.46-1.8,2.05-3.82,1.86-5.44-.31-1.32-1.78-2.56-3.67-3.51-5.67-2.89-6.13-7.64-10.65-12.97-14.45-12.01-8.57-25.39-14.05-39.87-16.95-5.79-1.16-11.53-2.04-17.46-1.44-3.1.31-4.98-1.57-5.32-4.71-1.83-17.08-10.41-29.65-25.39-37.94-6.49-3.6-12.92-7.31-19.43-10.86-2.21-1.21-4.66-1.96-6.87-3.17-3.95-2.15-4.37-4.44-1.34-7.8,1.78-1.97,3.86-3.71,5.92-5.39,4.95-4.04,9.94-8.02,14.97-11.94,1.5-1.17,2.3-2.45,1.95-4.37-1.06-5.76-1.43-11.69-4.12-17.03-1.12-2.21-2.64-4.22-3.98-6.31-.32-.5-.8-.93-.98-1.46-2.77-8.28-8.64-14.25-15.42-19.11-7.64-5.49-15.82-10.23-23.87-15.15-2.71-1.66-5.71-2.84-8.58-4.22-1.42-.68-2.26.18-2.93,1.24-2.32,3.63-4.61,7.27-6.9,10.91-3.79,6.03-7.69,12-11.33,18.12-2,3.37-1.62,4.12,1.94,6.01,5.36,2.85,10.18,6.36,14.26,10.89,5.34,5.92,8.55,12.55,8,20.79-.29,4.28-.14,8.61.1,12.89.06,1.11.98,2.49,1.92,3.19,3.33,2.49,6.89,4.66,10.26,7.1,1.4,1.02,2.46,2.49,3.82,3.58.45.36,1.54.5,1.99.21,2.91-1.88,5.5-1.22,8.35.33,5.07,2.75,10.37,5.09,15.48,7.78,6.62,3.5,13.16,7.16,19.72,10.77,4.5,2.48,7.36,6.39,9.34,11.01,1.4,3.28,2.69,6.6,3.96,9.93,2.27,5.95,2.13,12.25,2.47,18.46.21,3.74-1.34,7.13-3.34,10.24-1.93,3-3.77,6.09-6.03,8.83-3.91,4.74-9.08,7.87-15.14,8.64-9.12,1.17-18.4,2.02-27.35-.87-6.83-2.2-13.45-5.05-20.14-7.69-2.07-.82-3.65-2.25-4.38-4.48-.15-.48-.53-.88-.81-1.32-1.55-2.41-3.19-4.76-4.62-7.23-1.12-1.95-1.52-2.21-3.08-.7-5.54,5.38-12.54,7.82-19.74,9.75-3.71,1-7.54,1.6-11.35,2.19-5.92.92-11.68.4-17.22-2.13-7.5-3.42-15.11-6.59-22.56-10.11-7.34-3.47-13.37-8.78-19.19-14.35-4.93-4.72-9.9-9.41-14.87-14.1-2.52-2.38-3.95-5.2-4.61-8.66-.61-3.23-1.79-6.37-2.91-9.49-1.91-5.29-4.45-10.4-5.85-15.82-2.06-7.96-3.24-16.09-3.65-24.4-.75-15.15,4.1-28.7,10.03-42.24,5.65-12.9,15.74-21.5,26.52-29.63,2.02-1.52,4.16-2.87,6.13-4.45,5.74-4.6,12.38-6.95,19.42-8.91,13.18-3.68,26.12-2.03,39.27-.2,7.88,1.09,15.15,3.71,22.28,6.78,6.18,2.66,12.12,5.94,17.92,9.37,6.57,3.89,12.95,8.15,19.26,12.45,7.81,5.32,14.07,12.06,17.87,20.86.09.2.16.43.3.59,5.67,6.43,7.51,14.32,8.6,22.5.05.37.15.73.21,1.09.3,1.8,1.18,1.89,2.4.79,3.25-2.93,6.75-5.65,9.67-8.89,3.89-4.3,8.82-5.19,14.12-5.24,10.53-.1,19.68,4.11,27.62,10.42,6.35,5.05,10.64,11.99,12.06,20.26.86,4.97-.59,9.46-3.69,13.32-4.7,5.84-9.58,11.52-14.38,17.28-1.53,1.83-1.31,2.31.98,2.79,4.05.85,7.5,2.52,8.71,7.4Zm-127.71-16c3.01-3.77,4.79-8.2,5.66-13.04.35-1.95-.05-3.25-1.97-4.13-2.77-1.26-5.46-2.69-8.16-4.1-1.05-.55-2.24-1.07-2.94-1.94-.58-.72-.97-2.12-.66-2.89.25-.6,1.69-.83,2.64-.98.51-.08,1.12.33,1.65.59,2.54,1.24,5.05,2.51,7.59,3.74,2.63,1.27,3.04,1.03,3.04-1.97,0-3.85-.17-7.71-.12-11.56.04-4.02-1.22-7.58-3.46-10.85-4.31-6.25-9.9-10.98-16.65-14.44-2.79-1.43-3.1-1.42-4.48,1.47-.95,2-1.94,4.02-3.18,5.85-.84,1.24-2.28,2.27-3.82,1.23-1.51-1.02-1.04-2.61-.38-4.02.22-.47.55-.88.79-1.34.78-1.51,1.52-3.05,2.32-4.56,1.06-2,.47-3.52-1.49-4.37-2.71-1.18-5.43-2.71-8.29-3.12-8.82-1.25-17.61-.81-25.95,2.68-2.42,1.01-4.64,2.64-6.73,4.26-1.77,1.37-1.54,2.13.43,3.28,2.63,1.53,5.28,3.03,7.84,4.67,1.36.87,2.63,2.12,1.54,3.86-1.1,1.76-2.66,1.06-4.11.24-3.04-1.72-6.11-3.38-9.13-5.12-1.53-.88-2.8-.81-3.89.67-5.4,7.29-9.88,15.1-11.71,24.05-.88,4.29-1.92,8.91.27,13.12,3.05,5.86,5.38,12.36,11.99,15.51.39.18.68.57,1.02.86,2.48,2.12,4.89,4.33,7.47,6.32,2,1.54,2.87,1.25,4.05-.9,3.27-5.91,6.54-11.82,9.8-17.74,1.18-2.14,2.59-2.96,3.97-2.23,1.36.72,1.56,2.46.52,4.57-.16.33-.35.65-.54.98-3.25,5.84-6.47,11.69-9.76,17.51-.88,1.56-.92,2.75.79,3.72,4.49,2.56,9.15,4.03,14.47,3.27,7.27-1.03,14.62-1.51,21.88-2.64,7.17-1.11,13.91-3.31,17.68-10.52Zm78.82,63.29c.83-1.23,1.88-2.37,2.46-3.71,1.11-2.56,2.69-5.21,2.79-7.87.41-10.37-2.19-20.11-7.24-29.22-1.84-3.32-4.43-5.72-7.72-7.46-5.44-2.88-10.86-5.79-16.32-8.62-5.72-2.96-11.44-5.92-17.25-8.7-.95-.46-2.49-.29-3.52.15-1.97.84-3.71,2.18-5.64,3.12-7.2,3.53-11.65,9.6-14.03,16.85-3.55,10.81-5.46,21.92-1.94,33.25,1.5,4.82,3.22,9.42,8.11,11.97,1.36.71,2.89,1.61,3.63,2.86,1.36,2.3,3.44,3.13,5.71,3.89,2.75.91,5.49,1.84,8.23,2.78,4.75,1.63,9.62,2.49,14.66,2.27,1.78-.08,3.56-.28,5.33-.18,9.77.54,17.52-2.9,22.75-11.39Zm-54-67.56c-4.24-2.88-8.13-5.58-12.09-8.16-1.24-.81-1.79.09-2.24,1.22-1.59,4.06-3.13,8.14-4.92,12.11-4.08,9.07-12.12,12.82-21.13,14.49-7.79,1.44-15.77,1.78-23.64,2.82-5.95.78-11.35-.57-16.48-3.42-2.5-1.39-2.73-1.34-4.07,1.15-4.78,8.89-9.55,17.78-14.37,26.65-.73,1.35-.64,2.38.63,3.26,5.11,3.57,10.18,7.21,16.08,9.47,3.25,1.25,6.37,2.85,9.61,4.15,4.53,1.81,8.82,4.45,13.89,4.5,10.12.09,19.7-2.25,28.81-6.64,3.37-1.62,6.01-4.02,8.2-7.01,1.13-1.54,1.33-3.13,1.1-5.03-.39-3.29-.87-6.68-.5-9.93.6-5.36,1.67-10.7,2.87-15.97,1.72-7.55,6-13.67,11.55-18.89,1.86-1.74,4.18-2.99,6.69-4.74ZM28.56,124.72c-.07.13-.14.26-.21.38,5.08,2.76,10.2,5.43,15.22,8.3,2.06,1.18,3.48.89,5.05-.81,3.24-3.51,7.21-5.93,11.85-7.17,5-1.34,9.99-2.29,15.25-2.55,7.35-.37,14.2.38,20.6,4.11,1.77,1.03,3.05.6,4.01-1.22,1.4-2.62,2.78-5.26,4.37-7.76,4.43-6.94,8.97-13.82,13.47-20.72.24-.37.48-.75.69-1.14.75-1.34.61-2.52-.94-3.06-4.12-1.45-8.18-3.32-12.44-4.1-7.13-1.31-14.38-2.11-21.62-2.76-10.46-.95-20.58.83-30.08,5.26-3.66,1.7-6.92,4.26-10.33,6.48-7.76,5.05-14.65,11.12-21,17.84-2.34,2.48-2.29,3.19.56,5.16,1.83,1.26,3.69,2.5,5.53,3.76Zm-1.94,5.05c.05-.1.11-.2.16-.3-2.4-1.63-4.79-3.26-7.19-4.87-1.38-.93-2.51-.73-3.28.83-6.38,13.02-11.76,26.2-11.17,41.22.32,8.08,1.14,16.03,3.17,23.77,1.42,5.41,3.89,10.54,5.75,15.84,1.29,3.68,2.21,7.49,3.56,11.15.77,2.09,1.71,4.33,3.22,5.88,4.6,4.73,9.54,9.13,14.3,13.7,3.05,2.93,4.02,2.82,6.02-1,2.44-4.67,4.82-9.38,7.24-14.06,1.81-3.49,3.67-6.96,5.49-10.45.67-1.28.85-2.52-.48-3.59-2.83-2.27-5.4-4.98-8.5-6.78-6.26-3.64-10.57-8.73-13.28-15.34-.5-1.23-1.44-2.29-1.86-3.54-.66-1.94-1.41-3.96-1.49-5.97-.29-6.92.8-13.69,3.97-19.89,2.66-5.2,5.79-10.16,8.77-15.2,1.36-2.3,1.25-2.74-.99-3.96-4.49-2.44-8.94-4.96-13.4-7.45Z"/><path class="cls-1" d="m274.3,327.89c-3.85,5.29-10.37,9.72-17.85,11.66-5.12,1.33-10.93.64-16.34.04-7.94-.87-15.26-3.97-21.73-8.62-4.91-3.53-8.88-8.08-11.69-13.53-.54-1.06-1.06-2.14-1.7-3.13-3.88-5.99-4.56-12.61-3.84-19.49.88-8.51,3.6-16.55,6.81-24.38,2.88-7.01,8.88-10.7,15.88-12.9.21-.07.45-.05.65-.14,9.63-4.24,19.12-1.56,28.52.81,3.17.8,6.27,2.33,9.08,4.05,4.81,2.93,9.38,6.28,14.05,9.44,3.88,2.62,6.04,6.2,7.19,10.8,1.8,7.16,1.83,14.38,1.87,21.64.03,4.66-2.09,8.63-4.14,12.56-1.78,3.41-3.97,6.61-6.77,11.19Zm-7.97-56.94c-6.22-4.97-13.19-7.84-21.1-9.36-6.15-1.18-11.83-1.57-17.88.26-4.14,1.25-8.07,2.67-11.19,5.61-1.51,1.42-2.74,3.34-3.53,5.26-.98,2.38-1.45,4.98-1.99,7.52-.77,3.59-.65,7.45-3.47,10.36-.23.24-.28.68-.34,1.05-1.35,7.34-1.46,14.49,3.12,20.96.59.84.93,1.85,1.44,2.76,2.9,5.21,6.68,9.72,11.78,12.79,8.12,4.88,16.97,7.15,26.55,7,9.8-.15,16.47-5.31,22.04-12.56,1.26-1.63,2.09-3.59,3.18-5.35,3.51-5.66,6.16-11.53,5.05-18.45-.15-.94,0-1.93,0-2.89,0-10.33-2.16-19.53-12.72-24.34-.33-.15-.62-.41-.92-.62Z"/><path class="cls-1" d="m259.03,138.35c5.31,4.12,6.63,11.45,2.75,17.83-1.12,1.84-2.82,3.41-4.5,4.81-1.41,1.17-3.27.92-3.91-.85-2.49-6.82-8.71-9.4-14.16-12.86-2.12-1.35-4.49-2.35-6.53-3.8-.95-.68-2.1-2.26-1.88-3.08.28-1.03,1.81-2.32,2.91-2.44,6.32-.67,12.67-1.21,19.02-1.37,2.08-.05,4.19,1.14,6.29,1.77Z"/><path class="cls-1" d="m307.38,174.7c1.34,1.65,3.06,3.13,3.95,5,2.97,6.18,4.91,12.71,5.46,19.6.13,1.67-.05,3.27-1.93,3.76-1.82.47-2.6-.93-3.33-2.29-3.44-6.43-9.54-9.31-15.95-11.63-2.35-.85-4.95-1.02-7.32-1.82-1.28-.43-3-1.33-3.32-2.39-.31-1.03.55-3.05,1.52-3.72,3.94-2.72,8-5.3,12.25-7.51,2.84-1.48,5.8-.54,8.68,1Z"/><path class="cls-1" d="m92.21,171.32c-.25.37-.51.73-.75,1.11-2.61,4.03-3.99,4.45-8.19,2.18-3.71-2-7.04-4.44-8.58-8.65-1.17-3.19-.93-6.26.61-9.26,1-1.94,2.63-3.12,4.71-2.52,4.18,1.2,8.45,2.37,12.32,4.28,3.75,1.86,4.35,5.19,2.38,8.91-.73,1.37-1.73,2.59-2.6,3.88.04.03.07.05.11.08Z"/><path class="cls-1" d="m138.06,218.9c1.34-1.63,2.85-3.45,4.35-5.29,2-2.44,4.84-2.63,7.66-2.95,4.02-.45,7.99-.68,11.71,1.42,1.94,1.1,3.94,4.72,3.63,6.88-.22,1.5-1.6,2.2-3.49,1.68-1.43-.39-2.81-.95-4.24-1.27-3.59-.79-6.61.6-9.23,2.84-3.38,2.89-6,6.37-7.14,10.78-.26,1-.39,2.14-.95,2.95-.61.87-1.68,2-2.53,1.98-.83-.02-2.05-1.17-2.39-2.09-2.21-5.97-.85-11.51,2.62-16.93Z"/><path class="cls-1" d="m220.84,274.16c4.6-6.96,13.81-10.39,21.89-8.12,2.64.74,5.27,1.52,7.89,2.32.7.22,1.39.55,2.01.94,1.4.88,2.62,2.02,1.76,3.81-.81,1.7-2.43,1.44-3.9.95-5.81-1.93-11.47-.94-16.92,1.22-4.24,1.68-8.04,8.51-7.86,13.34.1,2.73-2.1,5.16-4.8,5.15-1.87,0-2.71-1.25-3.13-2.92-1.15-4.54.3-12.55,3.05-16.71Z"/></g></g><path class="cls-2" d="m458.97,158.03c-.31-1.72-1.08-3.14-2.4-4.36-4.45-4.1-2.83-10.59,1.07-14.25.64-.6,1.87-1.02,2.73-.88,10.27,1.61,20.26-1.4,30.41-1.73,7.59-.25,15.18-.58,22.77-.58,3.21,0,5.66,2.36,8.35,3.88-.61.88-.53,1.67.29,2.37.12.66.24,1.32.36,1.98-.46,1.06-.91,2.13-1.36,3.19,0,0-.02.06-.02.06-1.14,1.04-2.29,2.09-3.43,3.13-1.61.08-3.21.88-4.8-.32-1.44-1.08-3.08-1.13-4.72-.33-3.29-1.21-6.61-.5-9.92-.13-2.07-2.71-4.86-1.81-7.54-1.51-2.07-.99-4.24-1.44-6.54-1.12-2.76.34-5.56.47-8.25,1.08-2.39.55-4.54,1.68-1.85,4.53l-.23.3c-.98,2.92-.4,5.59,1.28,8.09.81,4.78,2.73,9.38,2.23,14.36-.49.8-.37,1.49.37,2.07.03.18.11.32.25.44-.87,7.21,1.62,9.35,8.13,6.25,9.53-4.53,19.01-9.23,27.94-14.88,6.64-4.2,13.17-8.22,21.51-6.88.97.18,1.95.36,2.93.55-.12.58-.25,1.17-.37,1.75-.11.26-.23.51-.34.77-.57.9-.42,1.64.51,2.2,0,0-.3,0-.3,0-.69.41-1.39.81-2.08,1.22-.48.26-.96.53-1.44.79-.19.23-.39.47-.59.71,0,0-.15.21-.15.21-2.63,1.31-5.26,2.61-7.89,3.92-.45.39-.89.78-1.33,1.17-2.11.54-3.4,2.32-5.16,3.39-3.7,1.68-6.76,4.3-9.94,6.74-6.02,1.77-11.38,4.91-16.74,8.05-2.42,1.67-6.27,1.24-7.26,4.98-.03.09-.12.21-.09.27.08.16.22.3.33.44-6.77.32-7.51,1.59-4.76,8.16.11,6.57.87,7.11,7.12,6.75,4.01-.23,7.34-1.93,10.73-3.68,4.39-2.27,8.9-3.63,13.87-2.2,0,0,.03.02.03.02.56,1.82,1.96,2.26,3.65,2.24-.07,5.09-3.11,7.11-7.43,9.44-4.74,2.56-9.79,3.64-14.6,5.58-4.41,2.34-9.87,1.89-13.93,5.2-2.15-.02-4.28-.76-6.44-.2l-.05-.06c.4-2.58-1.86-3.16-3.29-4.36-1.23-3.26-3.04-6.32-3.48-9.86.14-.09.23-.22.28-.38,2.32-4.48,2.03-9.05-1.21-12.67-2.22-2.48-3.05-4.95-3.1-8,.34-1.21.67-2.43,1.01-3.64,3.38-1.8,2.66-4.95,2.48-7.83-.54-9.02-3.65-17.37-6.91-25.67-.22-.26-.44-.53-.65-.79Z"/><path class="cls-2" d="m323.18,91.45c.15-.31.29-.61.44-.92,1.37-5.86-1.12-10.71-4.13-15.37-.8-1.24-1.75-2.4-1.96-3.87-.9-6.56-3.54-12.46-6.72-18.17-2.65-4.76-.81-9.02,4.46-8.65,7.56.53,14.2-2.54,21.21-4.06,3.35-.72,6.9-2.01,9.11-5.17.39-.14.78-.27,1.17-.41,2.28.66,3.5-.83,4.77-2.29,1.66-1.91,3.9-2.98,6.27-2.34,2.18.59,2.65,2.77,2.61,4.92,0,.54.24,1.09.37,1.63-.03,3.19-3.78,3.65-4.61,6.24-1.17.51-2.29,1.11-3.07,2.18-.89-.11-1.79-.33-2.61.23,0,0-.16-.03-.16-.03l-.02.16c-1.16.8-2.31,1.6-3.46,2.4-3.1.18-5.02,3.26-8.26,3.23-4.34-.03-8.32,1.65-12.38,2.91-1.09.34-2.2.62-2.44,1.98-2.23,2.15-.29,4.08.46,5.95,1.66,4.19,1.75,4.15,5.71,1.61,3.37-.84,6.49-2.19,9.03-4.66.79-.52,1.57-1.03,2.36-1.55.66.16,1.09-.09,1.28-.75.47-.38.95-.76,1.42-1.13,2.94.25,4.15-2.82,6.62-3.48,1.4-.19,2.27-1.31,3.39-1.97,1.86-.5,3.52-1.38,5.09-2.47,3.54-2.45,6.58-1.83,9.05,1.82.08.7.16,1.4.24,2.1-.11.17-.11.33.01.49-.12.89-.42,1.68-1.27,2.15-2.35,1.75-5.29,2.08-7.86,3.32-.42.22-.84.45-1.25.67-.26.26-.53.51-.79.77-3,.38-4.43,3.21-7.01,4.52-5.15,2.61-10.08,5.83-15.05,8.88-2.66.22-4.64,1.13-4.31,4.33.48,2.06.79,4.25,3.52,4.59.14.47.27.94.41,1.41-.89,1.12-.84,1.91.75,2.16.12.23.24.46.37.7-.87,1.08-1.28,2.13.21,3.05.14.25.27.49.41.74-.38.64-.76,1.29-1.14,1.93-.28.46-.21.74.39.73.45-.07.9-.14,1.35-.21-.72.7-1.69,1.4-.91,2.54.57.84,1.59.81,2.49.65,1.21-.21,2.55-.3,3.58-.88,5.46-3.09,11.74-3.89,17.4-6.42,1.75-.78,3.04-.15,3.82,1.6.46,1.03,1.01,2.01,1.52,3.01-.11.34-.23.68-.34,1.01-.5,1.27-1.25,2.34-2.47,3.02-1.96.97-4.8.26-5.81,3.04-4.66.26-8.88,2.04-13.1,3.82-.25.18-.5.37-.75.56,0,0-.05,0-.05,0-.84.17-1.62.45-2.2,1.11-.81-1.08-1.61-.86-2.59-.15-1.73,1.25-3.52,2.41-5.32,3.55-2.07,1.31-4.34,3.31-6.75,1.79-2.48-1.56-2.5-4.59-2.35-7.34.04-.78.35-1.54.47-2.31.46-3.02.58-6.03-.6-8.94Z"/><path class="cls-2" d="m291.3,169c1.36-11.8,1.72-23.65,1.13-35.5-.13-2.7-.95-5.4-2.18-7.91-1.74-3.57-2.01-7.25-.48-10.96,1.16-2.82,5.23-4.81,7.89-3.91,3.57,1.2,4.82,4.12,4.6,7.66-.49,8.09-1.5,16.15.75,24.29,1.11,4.01.81,8.66.13,12.85-.71,4.38-1.02,8.81.18,12.83,1.67,5.63.02,11.3,1.16,16.72,1.74,8.29.04,16.66,1.34,24.91.35,2.18-.23,4.37.79,6.64,1.93,4.27-1.12,6.97-4.15,8.94-2.88,1.87-5.85,1-8.1-1.76-.25-.3-.74-.4-1.12-.59-.65-.13-1.3-.26-1.95-.39.1-1.46.66-2.95-.28-4.34.06-.66.12-1.32.18-1.97.5-1.45.82-2.9-.24-4.26.02-.59.04-1.17.06-1.76,0-1.46.02-2.91.03-4.37.07-.32.14-.63.21-.95,1.77-2.57,1.2-4.82-.93-6.86.8-.47,1.12-1.18,1.03-2.08,1.58-5.95-.92-11.88-.09-17.84.03-.23-.62-.55-.95-.82.06-1.74,1.96-3.01,1.25-4.94,0-.33,0-.66,0-.99-.09-.88-.17-1.76-.26-2.64Z"/><path class="cls-2" d="m414.86,168.42c2.84-11.1,4.72-22.38,5.7-33.79.22-2.59-.2-5.29-1.05-7.85-1.2-3.64-.98-7.19.97-10.54,1.48-2.54,5.62-3.91,8.05-2.71,3.26,1.61,4.07,4.56,3.4,7.92-1.52,7.66-3.54,15.24-2.45,23.32.54,3.98-.35,8.38-1.55,12.3-1.25,4.09-2.12,8.29-1.5,12.28.87,5.6-1.45,10.8-1.07,16.13.58,8.15-2.13,15.92-1.96,23.98.05,2.13-.79,4.14-.11,6.45,1.29,4.33-1.98,6.52-5.13,8-3,1.41-5.72.19-7.51-2.73-.2-.32-.66-.48-1-.71-.6-.21-1.21-.42-1.81-.63.29-1.38,1.02-2.73.3-4.18.14-.62.29-1.24.43-1.86.67-1.32,1.16-2.66.32-4.11.09-.56.19-1.11.28-1.67.2-1.39.4-2.78.59-4.17.11-.29.22-.59.32-.88,2.03-2.22,1.78-4.45,0-6.68.82-.35,1.22-.98,1.25-1.85,2.29-5.48.67-11.48,2.23-17.06.06-.21-.52-.6-.8-.91.29-1.65,2.26-2.62,1.83-4.56.04-.31.08-.63.13-.94.03-.85.07-1.7.1-2.55Z"/><path class="cls-2" d="m175.89,54.81c-1.74-5.53-3.94-10.88-6.55-16.05-.6-1.17-1.5-2.22-2.54-3.09-1.49-1.24-2.34-2.83-2.39-4.79-.04-1.49,1.37-3.18,2.74-3.31,1.83-.17,2.97.88,3.57,2.5,1.39,3.7,2.54,7.49,5.16,10.68,1.29,1.57,2.08,3.7,2.61,5.7.55,2.09,1.3,4.13,2.63,5.68,1.86,2.18,2.25,5.03,3.84,7.22,2.42,3.35,3.33,7.41,5.55,10.83.59.9.76,1.99,1.67,2.8,1.71,1.52.89,3.33-.07,4.81-.91,1.41-2.41,1.61-3.96.83-.17-.09-.41-.03-.62-.04-.31.07-.63.14-.95.21-.25-.67-.29-1.45-.99-1.88-.1-.31-.21-.61-.31-.92-.06-.75-.21-1.45-.96-1.85-.11-.26-.22-.53-.32-.79-.29-.65-.57-1.3-.86-1.95-.03-.15-.06-.31-.1-.46.28-1.5-.42-2.39-1.78-2.87.26-.37.26-.75.04-1.13-.48-2.97-2.77-5.11-3.59-7.93-.03-.11-.38-.12-.59-.18-.32-.79.27-1.73-.43-2.45-.07-.15-.13-.29-.2-.44-.21-.37-.43-.75-.64-1.12Z"/><path class="cls-2" d="m251.34,28.2c-.39-4.96-1.2-9.86-2.4-14.69-.27-1.1-.83-2.14-1.53-3.08-1-1.33-1.41-2.82-1.08-4.47.25-1.25,1.76-2.4,2.93-2.24,1.56.21,2.31,1.3,2.51,2.78.45,3.36.69,6.76,2.27,9.93.78,1.56,1.03,3.5,1.09,5.28.06,1.86.29,3.71,1.11,5.26,1.14,2.18.92,4.64,1.82,6.78,1.38,3.27,1.36,6.85,2.56,10.14.32.87.26,1.82.86,2.67,1.14,1.6.1,2.96-.99,4.01-1.04,1-2.32.88-3.47-.07-.13-.1-.34-.1-.51-.15-.28,0-.55,0-.83,0-.08-.61.04-1.27-.46-1.76-.03-.28-.06-.55-.09-.83.09-.64.1-1.26-.44-1.73-.04-.24-.08-.48-.12-.73-.11-.6-.23-1.2-.34-1.8,0-.14,0-.27,0-.41.52-1.2.11-2.08-.94-2.75.29-.26.36-.57.25-.94.17-2.57-1.34-4.81-1.48-7.33,0-.1-.3-.18-.46-.26-.11-.72.56-1.4.11-2.13-.03-.13-.05-.27-.08-.41-.11-.35-.21-.71-.32-1.06Z"/><path class="cls-2" d="m275.6,2.27c-.2.26-.24.55-.16.86-.43.34-.38.82-.39,1.29-.7.47-1.4.94-2.09,1.41-.58.29-1.17.57-1.75.86-.15.1-.3.2-.44.3-.25.14-.5.29-.75.43-1.17.47-2.36.91-3.52,1.42-1.46.65-3.03,1.21-3.43,3.05-.01.09-.03.18-.04.27-.07.22.05.3.24.32.09.02.18.01.26-.03.08.15.16.3.24.45-.06.12-.11.24-.17.35-.24.27-.27.48.14.59.1.02.2.04.3.06,1.34,2.02,2.08,4.35,3.17,6.49.39.76.8.91,1.54.54,3.98-2.02,8.33-3.45,11.85-6.18,1.91-1.49,4.23-2.59,5.66-4.8.94-1.45,2.83-1.71,4.51-1.85.84-.07,1.68,1.31,1.64,2.57-.03.74-.2,1.47-.31,2.2-.06.02-.1.06-.13.11-.41.57-.81,1.14-1.22,1.7-.13.02-.27.05-.4.07-1.71-.23-3.17.11-4.03,1.8-.32.17-.63.34-.95.51-.66.04-1.28.2-1.75.71-.34.24-.68.49-1.01.73-1.95.95-3.79,2.06-5.65,3.18-1.86,1.13-4.04,1.85-6.04,2.84-.56.28-1.06.58-1.28,1.2-.21.24-.19.5-.04.76.36,1.21.22,2.68,1.7,3.31.03.24.07.48.1.72.05.2.19.29.39.29-.26.48-.42.93.37,1.05-.02.1.02.16.1.2-.11.45-.03.84.39,1.11.02.12.05.24.07.36-.19.35-.15.67.17.93.07.15.15.3.22.45l-.02.06c-.14.24-.06.4.18.5.08.06.16.12.24.18.72,2.14,1.88,2.43,3.96,1.25,2.15-1.22,4.13-2.75,6.49-3.57.3-.11.65-.23.86-.45,1.48-1.6,3.39-2.39,5.45-2.88h.03c.21.41.27.92.78,1.11l.08.03c.1.29.2.58.3.86-.01.09-.01.17,0,.26-.27.27-.34.59-.23.95-1.14,1.66-2.69,2.74-4.59,3.37-.33.11-.58.44-.87.68-.16.06-.32.13-.47.19-.26.14-.52.28-.79.42-2.81,2.14-6.07,3.41-9.29,4.77-1.78.75-2.75-.6-3.95-1.36-.06-.23-.16-.42-.42-.47-.6-2.08-1.36-4.09-2.71-5.82,0,0,.02-.04.02-.04.12-.17.1-.31-.06-.44-.14-.4-.27-.8-.41-1.2-.77-1.13-1.02-2.56-2.04-3.55.1-.45-.05-.66-.53-.55-.07-.19-.14-.38-.21-.57.33-.18.49-.48.34-.81-.18-.41-.53-.24-.84-.13-.25-.31-.53-.47-.88-.14-.76-.64-1.49-.05-2.22.07-.06-.15-.12-.3-.18-.45,0,0,0-.01,0-.01.14-.27.11-.55,0-.81-.49-1.23-.35-2.12.93-2.92,1.26-.79,1.34-2.11.17-3.83-1.54-2.26-2.85-4.7-4.73-6.72-.59-.64-1-1.34-1.16-2.19-.21-1.12.43-2.16,1.54-2.42,3.88-.89,7.48-2.44,10.87-4.52.49-.3.91-.64,1.23-1.11.96-1.43,2.3-2.28,3.97-2.64.06.07.14.11.22.13.56.52,1.19.99,1.39,1.8,0,.12,0,.23,0,.35Z"/><path class="cls-2" d="m203.24,68.4c-.24-.03-.48-.06-.73-.09-.17-.36-.45-.54-.85-.51-.23-.09-.47-.18-.7-.27-.55-.59-1.32-.63-2.04-.81-.37-.03-.75-.07-1.12-.1-.38-.29-.76-.58-1.28-.52-.42-.39-.88-.56-1.43-.28-.17-.48.16-1.23-.71-1.35,0,0-.05-.02-.05-.02-.19-.27-.39-.54-.58-.81-.08-.33-.15-.66-.23-.99-.22-.68-.47-1.36-.64-2.05-.18-.74-.46-1.57.32-2.15.69-.51,1.5-.75,2.37-.42.86.32,1.53.92,2.15,1.57l.11.36c.58.62.78,1.65,1.86,1.71l.12.02c1.78.96,3.62,1.31,5.68,1.03,2.09-.29,3.87-1.28,5.7-2.12,2.13-.98,2.72-3.07,1.91-5.29.17-.26.22-.53.04-.8-.1-.33-.2-.66-.3-.99.17-.35.07-.62-.24-.82-.19-.26-.37-.53-.56-.79.15-.33.26-.67-.02-.99-.23-.73-.3-1.58-1.28-1.75l-.12-.04c-1.46-1.75-2.91-3.53-5.45-3.7-1.01-.4-2.02-.81-3.03-1.21-.47-.28-.94-.56-1.4-.85-.25-.85-1.13-.7-1.69-1.06-.09-.04-.19-.09-.28-.13-.11,0-.22,0-.32.03-1.47-1.77-3.56-2.82-5.17-4.42-.9-.89-1.84-1.77-3.04-2.17-2.03-.67-3.46-1.85-3.92-4.01.02-.11.03-.22.03-.33.9-1.1.93-2.26.3-3.49.09-.05.17-.12.22-.21,1.42-1.57,2.64-3.4,4.3-4.64,3.38-2.51,6.31-6.16,10.88-6.36,3.83-.17,7.95-1.37,11.36,1.78,1.64,1.51,1.83,4.54.12,5.94-.9.74-1.78.25-2.64-.26-1.22-.73-2-2.12-3.54-2.37-.04-.05-.1-.08-.16-.1-.06-.11-.14-.14-.26-.11-.63.2-1.27.41-1.9.61-1.69-.19-3.17.21-4.35,1.51-.45.2-.9.4-1.35.6-.45-.13-.82-.02-1.12.33-.71.5-1.43,1-2.14,1.49-.58.59-1.17,1.18-1.75,1.77-.19.18-.39.37-.58.55,0,0,0,.03,0,.03-.04.16-.09.31-.13.47-.54.67-1.67,1.54-.89,2.2,1.21,1.01,2.05,2.51,3.66,3.04.49.34,1.59-.23,1.56.47-.08,1.86.89,1.17,1.76.93.08.14.15.27.23.41.17,1.56,1.17.59,1.85.61.04.22.09.45.13.67-.29.27-.48.56-.28.97,1.21,1.79,3.31,2.07,5.06,2.9,1.67.8,3.5,1.27,5.17,2.09,2.03.99,3.23,2.96,4.79,4.5,0,0-.06.1-.06.1-.03.03-.1.08-.1.08.04.06.08.12.13.18.11.11.23.22.34.34-.02.96-.07,1.93,1.1,2.32,0,.59.46.71.88.87.03.17.05.34.08.51-.4.45-.83.9-.16,1.47.05.19.1.38.15.56-.25.37-.23.67.21.88-.2.4.05.61.33.81-.21.52-.89,1.12.26,1.39.01.09.02.18.04.26,0,.01.1,0,.15,0-1.45.23-1.37,1.09-.86,2.12v.07c-1.01.7-.83,2.21-1.95,2.84-.62.78-1.24,1.56-1.86,2.34-.17.06-.35.12-.52.19-.18.03-.36.06-.54.09-.19.06-.38.13-.56.19-.13.08-.25.15-.38.23-2.95.95-5.9,1.91-8.84,2.86-.42-.18-.81-.12-1.19.11Z"/><path class="cls-2" d="m231.25,55.19c-.21-.05-.42-.11-.63-.16-.11-.34-.33-.53-.7-.56-.2-.11-.39-.21-.59-.32-.42-.59-1.1-.71-1.72-.95-.33-.07-.66-.15-.98-.22-.31-.3-.61-.6-1.08-.61-.33-.4-.72-.6-1.24-.42-.1-.45.28-1.07-.47-1.28,0,0-.04-.03-.04-.03-.14-.26-.28-.53-.42-.79-.03-.3-.06-.61-.09-.91-.11-.63-.26-1.26-.32-1.89-.07-.68-.23-1.45.53-1.87.68-.37,1.42-.49,2.15-.1.73.39,1.25,1,1.73,1.65l.06.33c.44.62.5,1.55,1.45,1.74l.1.03c1.47,1.06,3.06,1.59,4.92,1.58,1.88-.01,3.59-.69,5.3-1.21,2.01-.62,2.77-2.41,2.32-4.47.18-.21.26-.44.13-.71-.05-.3-.1-.61-.15-.91.19-.29.14-.54-.12-.76-.13-.26-.27-.51-.4-.77.18-.28.31-.56.1-.88-.12-.67-.08-1.43-.93-1.7l-.1-.05c-1.09-1.72-2.17-3.47-4.4-3.92-.85-.48-1.7-.95-2.55-1.43-.38-.3-.76-.61-1.15-.91-.12-.79-.93-.75-1.38-1.14-.08-.05-.15-.1-.23-.15-.1-.01-.19-.02-.29-.01-1.09-1.75-2.83-2.91-4.07-4.52-.69-.9-1.43-1.79-2.45-2.28-1.72-.84-2.85-2.04-3.01-4.01.03-.1.05-.19.06-.29.93-.87,1.09-1.9.67-3.06.09-.03.16-.09.22-.16,1.44-1.22,2.74-2.71,4.36-3.61,3.3-1.83,6.31-4.73,10.39-4.37,3.41.3,7.21-.28,9.87,2.91,1.28,1.53,1.09,4.24-.59,5.28-.89.55-1.61.01-2.31-.54-1-.79-1.52-2.11-2.86-2.51-.03-.05-.08-.08-.13-.11-.04-.1-.11-.14-.22-.13-.59.11-1.17.21-1.76.32-1.48-.36-2.84-.18-4.03.83-.42.12-.84.25-1.26.37-.38-.17-.73-.12-1.03.17-.69.36-1.38.72-2.07,1.08-.59.45-1.17.91-1.76,1.36-.19.14-.39.28-.58.42,0,0,0,.03,0,.03-.06.13-.11.27-.17.4-.55.53-1.66,1.17-1.04,1.85.96,1.04,1.52,2.47,2.89,3.13.39.36,1.44-.02,1.33.6-.29,1.64.65,1.15,1.45,1.03.05.13.1.26.16.39-.03,1.4.97.66,1.57.76.01.2.03.41.04.61-.29.2-.49.45-.37.83.86,1.73,2.69,2.22,4.15,3.17,1.39.9,2.96,1.54,4.34,2.46,1.68,1.12,2.52,3,3.72,4.55,0,0-.07.08-.07.08-.03.02-.1.06-.1.06.02.06.06.11.09.17.09.11.18.23.26.34-.13.85-.29,1.7.7,2.19-.07.52.33.68.68.88,0,.15,0,.31.01.46-.41.36-.85.7-.32,1.29.02.17.04.34.06.52-.27.3-.29.57.08.81-.22.33-.03.54.2.75-.25.43-.92.89.06,1.26,0,.08,0,.16,0,.24,0,.01.08.01.13.02-1.31.04-1.35.8-1.01,1.78v.06c-.99.51-1,1.87-2.07,2.29-.64.62-1.29,1.24-1.93,1.86-.16.03-.32.07-.49.1-.16,0-.33,0-.49.01-.17.03-.35.07-.52.1-.12.05-.24.11-.36.16-2.73.5-5.45,1-8.18,1.5-.35-.21-.7-.2-1.07-.04Z"/><path class="cls-2" d="m346.05,230.01c-.46-.22-.92-.44-1.38-.66-.09-.83-.52-1.38-1.35-1.59-.4-.33-.81-.66-1.21-.99-.7-1.54-2.2-2.13-3.51-2.96-.72-.31-1.44-.63-2.16-.94-.57-.82-1.12-1.66-2.2-1.89-.57-1.06-1.37-1.7-2.65-1.52-.02-1.07,1.13-2.33-.5-3.15,0,0-.08-.08-.09-.08-.2-.67-.41-1.33-.61-2,.07-.71.14-1.42.21-2.12.03-1.5-.03-3,.11-4.49.15-1.59.13-3.43,2.06-4.05,1.72-.55,3.47-.48,4.98.75,1.5,1.22,2.41,2.85,3.22,4.55l-.02.79c.73,1.61.44,3.78,2.54,4.64l.22.12c2.89,3.09,6.3,5.02,10.57,5.83,4.33.82,8.54.04,12.71-.4,4.88-.51,7.44-4.28,7.33-9.22.52-.4.8-.89.62-1.56.02-.72.04-1.44.06-2.16.57-.58.56-1.18.07-1.79-.19-.65-.38-1.3-.57-1.95.53-.56.97-1.15.62-1.98.03-1.59.46-3.32-1.37-4.32l-.22-.15c-1.73-4.44-3.41-8.94-8.33-10.96-1.73-1.47-3.46-2.94-5.2-4.42-.74-.87-1.48-1.74-2.22-2.61.07-1.86-1.78-2.14-2.65-3.23-.15-.15-.31-.3-.46-.45-.21-.08-.43-.13-.66-.16-1.72-4.5-5.18-7.96-7.3-12.21-1.18-2.37-2.46-4.74-4.58-6.34-3.57-2.69-5.62-5.96-5.09-10.56.11-.21.2-.42.27-.64,2.51-1.57,3.36-3.87,2.92-6.72.22-.04.41-.13.57-.28,3.86-2.16,7.5-4.99,11.62-6.32,8.38-2.72,16.61-8,25.8-5.35,7.7,2.22,16.66,2.6,21.33,11.11,2.24,4.08.59,10.21-3.73,11.84-2.28.86-3.7-.7-5.06-2.28-1.93-2.26-2.54-5.53-5.43-7.05-.06-.12-.14-.22-.24-.3-.04-.25-.19-.38-.44-.39-1.39-.02-2.78-.04-4.18-.06-3.22-1.49-6.43-1.69-9.62.09-1.02.09-2.04.19-3.07.28-.8-.57-1.61-.6-2.45-.08-1.75.51-3.49,1.02-5.24,1.53-1.55.78-3.1,1.56-4.65,2.34-.51.23-1.01.47-1.52.7,0,0-.02.06-.02.06-.19.28-.38.56-.57.85-1.51.96-4.34,1.95-3.22,3.76,1.73,2.81,2.39,6.35,5.22,8.47.74,1.01,3.3.61,2.77,1.96-1.41,3.62.98,2.92,2.86,3.02.06.32.12.65.18.97-.71,3.2,1.93,1.95,3.25,2.45-.06.47-.12.95-.18,1.42-.76.33-1.32.8-1.21,1.74,1.2,4.36,5.18,6.31,8.1,9.13,2.79,2.7,6.1,4.86,8.85,7.59,3.35,3.32,4.42,8.01,6.49,12.11,0,0-.19.16-.19.16-.09.03-.26.08-.25.1.03.15.09.29.14.43.15.3.3.6.45.9-.67,1.88-1.42,3.77.63,5.33-.39,1.17.44,1.71,1.17,2.32-.06.36-.12.71-.18,1.07-1.1.63-2.26,1.23-1.31,2.81-.03.4-.06.81-.09,1.21-.74.56-.92,1.18-.18,1.88-.66.65-.3,1.24.12,1.82-.77.88-2.5,1.63-.42,2.92-.04.18-.09.36-.1.55,0,.03.19.06.3.1-3.03-.5-3.45,1.24-3.12,3.63l-.06.13c-2.46.73-3.11,3.84-5.74,4.34-1.75,1.13-3.51,2.26-5.26,3.39-.39,0-.77.01-1.16.02-.38-.06-.76-.13-1.13-.19-.42,0-.83,0-1.24,0-.3.07-.6.14-.91.21-6.48-.08-12.95-.16-19.43-.23-.7-.64-1.53-.77-2.43-.58Z"/><path class="cls-2" d="m378.43,36.3c2.37-.69,4.56-2.06,7.25-1.22,3.31,1.04,5.07,3.56,6.36,6.43,1.68,3.73,3.36,7.4,6.37,10.29.26.25.51.75.44,1.06-.65,3.08,1.36,5.37,2.92,7.28,2.63,3.21,3.79,7.14,6.07,10.47.58.85.8,2.09,2.16,1.81,1.47-.3,1.52-1.64,1.52-2.76,0-3.14-.04-6.25.6-9.37.91-4.4.08-8.92.31-13.24.39-7.26-1.02-14.3-.93-21.46.04-3.2,1.57-4.92,4.83-5.41,3.35-.51,4.17,1.65,4.7,4.14.24,1.12.35,2.29.31,3.43-.23,5.77.03,11.49,1.32,17.14.64,2.78-.74,5.34-.95,8.03-.1,1.23-.11,2.27.79,3.16-.02.34-.03.68-.05,1.01-.66,3.13-.62,6.39-1.86,9.42-.43,1.05.18,2.02.65,2.95-.1.16-.15.34-.17.52-1.02,1.06-.52,2.34-.58,3.56-.2,4.24.06,8.48-.33,12.74-.32,3.57-2.79,4.07-5.04,4.82-2.64.87-4.95-.1-6.22-2.77-.73-1.52-1.82-2.73-2.97-3.92-.11-.18-.23-.36-.34-.54-1.55-4.89-5.34-8.51-7.35-13.15-.05-.12-.14-.19-.27-.23-.28-2.89-2.92-4.01-4.44-5.97l.12-.17c-.07-4.59-2.31-8.16-5.39-11.3-.83-.85-1.41-.44-1.87.52-.53,1.11-.61,2.17-.05,3.27-.02.64-.03,1.28-.05,1.92.1.16.19.32.29.49-1.07,2.03.29,3.98.18,5.98.1,4.01,1.27,7.78,2.48,11.55.12.41.23.82.35,1.23-.15.88-.21,1.74.33,2.53,0,.43,0,.86.01,1.29-.23.51-.05.91.32,1.26.03.41.05.81.08,1.22-.32.81-.23,1.63.01,2.44,0,.28,0,.56,0,.83-.02.18.03.32.16.45-.05.6-.1,1.2-.15,1.8-1.36.14-1.94,1.32-2.8,2.11-.88.25-1.76.51-2.64.77-1.71-.18-2.76-1.48-4.05-2.37l-.19-.14c-.46-3.96.06-8.06-1.59-11.87-.51-1.17-.47-2.4-.58-3.64-.57-6.13-.56-12.34-2.21-18.34,0,0,.05-.07.05-.07.35-3.15.81-6.3,1.03-9.46.22-3.28,2.02-6.46.62-9.84.14-.23.27-.47.41-.7Z"/><path class="cls-2" d="m252.37,171.52c-1.08,5,1.18,9.1,3.53,13.17-.32,3.9.69,7.27,3.88,9.78.04,1.19.08,2.37.11,3.55,1.6,2.87,3.22,5.74,4.83,8.62-1.13,2.19-2.26,4.37-3.39,6.55-1.31.28-2.63.56-3.95.84-11.88,2.56-13.93,1.51-21.29-8.36-2.31-3.1-4.63-6.7-8.7-8.15,0,0-.29-.18-.29-.17-2.16-7.57-2.85-15.84-9.99-21.05-.2-.5-.51-.93-.92-1.27-1.86-2.69-3.13-5.96-6.71-7.01-.36-.45-.71-.91-1.07-1.36.59-7.57-4.44-11.64-9.72-15.56-.55-.14-1.1-.28-1.64-.42-7.89-5.49-9.05-12.65-5.17-21.05.5-.39.99-.78,1.49-1.17,7.88-5.28,14.22-4.46,19.33,3.52,5.51,8.61,12.67,16.38,15,26.82.42,1.88,1.56,3.65,4.02,3.17,1.82-.36,2.69-1.78,2.88-3.52.32-2.96,1.16-6.06.62-8.87-2.11-10.88-4.67-21.67-7.07-32.5.47-1.39.93-2.78,1.4-4.16.56-6.92-.75-13.72-1.43-20.56,0,0,.26-.29.26-.29,3.08-2.9,6.52-5.55,7.38-10.08.5.02.99-.04,1.47-.17,6.6-3.1,12.64-1.45,18.43,2.21-.32.43-.32.87-.02,1.32-1.05,1.95-.58,3.76.52,5.51-.14.97-.28,1.94-.41,2.91-10.97,5.18-13.62,13.67-11.47,25.25,3.24,17.4,5.45,34.99,8.09,52.5Z"/><path class="cls-2" d="m176.71,77.67c-1.12,1.96-3.19,3.1-5.45,3.32-.25.02-.58.23-.87.35-.43.27-.86.54-1.3.81-.42-.5-.57-1.23-1.59-1.22-.18-.23-.36-.46-.54-.7-.18-.69-.46-1.28-1.55-1.2l-.54-.57c-.48-.46-.95-.92-1.42-1.37-.07-.13-.13-.26-.19-.39.22-1.64-.86-2.07-2.82-1.69.33-.52.29-.89-.06-1.13-1-2.6-4.46-3.25-5.92-5.49-.06-.08-.55.12-.84.2-.54-.57.18-1.87-.88-2.13-.11-.1-.21-.2-.32-.3-.34-.24-.68-.47-1.02-.7-2.61-3.67-5.66-6.99-9.13-9.99.13.5.31.99.52,1.47.44.99.42,2.04.52,3.1.53,5.22.56,10.51,2.01,15.61l-.05.06c-.28,2.69-.65,5.37-.81,8.07-.16,2.79-1.68,5.52-.46,8.39-.12.2-.23.4-.34.6-2.01.6-3.88,1.78-6.17,1.08-2.83-.86-4.35-3-5.47-5.44-1.45-3.16-2.91-6.28-5.5-8.73-.22-.21-.43-.63-.38-.9.53-2.62-1.19-4.56-2.54-6.18-2.26-2.72-3.28-6.06-5.23-8.88-.51-.73-.7-1.78-1.86-1.54-1.25.27-1.29,1.41-1.28,2.37.02,2.67.08,5.32-.45,7.98-.75,3.75-.01,7.6-.18,11.28-.29,6.19.96,12.19.93,18.29-.01,2.72-1.3,4.2-4.08,4.64-2.85.46-3.56-1.37-4.03-3.5-.21-.95-.31-1.94-.28-2.91.16-4.92-.1-9.8-1.24-14.6-.56-2.37.59-4.55.76-6.85.07-1.05.08-1.93-.7-2.69.01-.29.02-.58.03-.87.55-2.67.49-5.45,1.53-8.03.36-.9-.17-1.72-.58-2.51.08-.14.13-.29.14-.45.86-.9.43-2,.47-3.04.14-3.61-.1-7.22.19-10.86.25-3.05,2.35-3.49,4.27-4.14,2.24-.76,4.21.06,5.32,2.32.63,1.29,1.57,2.32,2.55,3.32.1.15.2.3.3.45,1.35,4.16,4.61,7.22,6.35,11.16.05.09.12.16.23.19.25,2.46,2.51,3.4,3.82,5.06l-.1.15c.09,3.91,2.02,6.93,4.67,9.59.71.72,1.2.37,1.59-.45.44-.94.5-1.85.02-2.79,0-.54,0-1.09.02-1.63-.08-.14-.16-.28-.25-.42.9-1.73-.27-3.39-.19-5.09-.11-3.42-1.14-6.63-2.19-9.83-.1-.35-.21-.7-.31-1.05.12-.74.17-1.48-.3-2.15,0-.36-.01-.73-.02-1.1.2-.43.04-.77-.28-1.07-.02-.35-.05-.69-.07-1.04.11-.3.17-.58.17-.88-.38-.46-.63-1.02-.74-1.71-.09-.53.11-1.22.5-1.93,0-.06.01-.12.01-.18.03,0,.06-.01.09-.01.65-1.13,1.74-2.27,2.87-2.85,2.54-1.33,4.25-1.02,5.28.18,2.37,2.74,4.41,5.72,8.44,7.18,1.99.71,3.34,2.3,4.3,3.92,1.02,1.7,2.29,3.22,4.33,3.9,2.85.95,3.72,3.49,6.19,4.63,3.77,1.74,5.5,5.15,9,7.09.92.51,1.29,1.46,2.66,1.68,2.56.4,1.61,2.69.44,4.74Z"/></g></svg>