<?xml version="1.0" encoding="UTF-8"?><svg id="Layer_2" xmlns="http://www.w3.org/2000/svg" viewBox="0 0 188.28 165.44"><defs><style>.cls-1{fill:#fff;}.cls-2{fill:#fff5f5;}.cls-3{opacity:.09;}</style></defs><g id="Layer_1-2"><g><g id="D9vOuq.tif" class="cls-3"><g><path class="cls-1" d="m115.23,112.08c.36-.27.58-.39.75-.56,2.45-2.47,5.02-4.85,7.29-7.47,1.47-1.7,3.27-2.34,5.28-2.21,4.9.3,9.55,1.46,13.11,5.07,1.96,1.99,3.56,4.25,4.32,6.98.21.76.66,1.46.82,2.22.12.58.09,1.25-.11,1.81-.57,1.6-1.39,3.12-1.89,4.73-1.77,5.68-3.42,11.39-5.2,17.06-.26.84-.82,1.65-1.43,2.32-.78.87-1.66.79-2.37-.13-.58-.76-1.11-1.56-1.53-2.41-1.26-2.6-3.33-4.53-5.64-6.14-5.22-3.64-11.05-5.98-17.35-7.21-2.52-.49-5.01-.87-7.59-.61-1.35.13-2.17-.67-2.32-2-.8-7.26-4.53-12.61-11.04-16.13-2.82-1.53-5.62-3.11-8.45-4.62-.96-.51-2.03-.84-2.99-1.35-1.72-.91-1.9-1.89-.58-3.31.77-.84,1.68-1.58,2.58-2.29,2.15-1.72,4.32-3.41,6.51-5.08.65-.5,1-1.04.85-1.86-.46-2.45-.62-4.97-1.79-7.24-.49-.94-1.15-1.79-1.73-2.68-.14-.21-.35-.39-.43-.62-1.21-3.52-3.76-6.06-6.71-8.13-3.33-2.33-6.88-4.35-10.38-6.44-1.18-.7-2.48-1.21-3.73-1.8-.62-.29-.98.08-1.28.53-1.01,1.54-2.01,3.09-3,4.64-1.65,2.56-3.35,5.1-4.93,7.7-.87,1.43-.71,1.75.85,2.56,2.33,1.21,4.43,2.7,6.21,4.63,2.32,2.52,3.72,5.34,3.48,8.84-.13,1.82-.06,3.66.04,5.48.03.47.43,1.06.84,1.36,1.45,1.06,3,1.98,4.46,3.02.61.43,1.07,1.06,1.66,1.52.2.15.67.21.87.09,1.27-.8,2.39-.52,3.63.14,2.21,1.17,4.51,2.16,6.74,3.31,2.88,1.49,5.73,3.04,8.58,4.58,1.96,1.05,3.2,2.72,4.06,4.68.61,1.39,1.17,2.81,1.72,4.22.99,2.53.93,5.21,1.08,7.85.09,1.59-.58,3.03-1.45,4.35-.84,1.28-1.64,2.59-2.63,3.75-1.7,2.01-3.95,3.34-6.58,3.67-3.97.5-8,.86-11.9-.37-2.97-.94-5.85-2.15-8.76-3.27-.9-.35-1.59-.96-1.9-1.9-.07-.2-.23-.37-.35-.56-.67-1.02-1.39-2.02-2.01-3.08-.49-.83-.66-.94-1.34-.3-2.41,2.29-5.46,3.32-8.59,4.15-1.62.42-3.28.68-4.94.93-2.58.39-5.08.17-7.49-.9-3.26-1.45-6.57-2.8-9.81-4.3-3.19-1.48-5.82-3.73-8.35-6.1-2.15-2.01-4.31-4-6.47-6-1.1-1.01-1.72-2.21-2.01-3.68-.27-1.37-.78-2.71-1.27-4.03-.83-2.25-1.94-4.42-2.54-6.73-.9-3.39-1.41-6.84-1.59-10.37-.33-6.44,1.79-12.2,4.36-17.96,2.46-5.49,6.85-9.14,11.54-12.6.88-.65,1.81-1.22,2.67-1.89,2.5-1.96,5.39-2.95,8.45-3.79,5.73-1.57,11.36-.86,17.09-.09,3.43.46,6.59,1.58,9.69,2.88,2.69,1.13,5.27,2.52,7.8,3.98,2.86,1.66,5.63,3.46,8.38,5.3,3.4,2.26,6.12,5.13,7.78,8.87.04.09.07.18.13.25,2.47,2.73,3.27,6.09,3.74,9.57.02.16.06.31.09.47.13.77.51.8,1.05.33,1.42-1.25,2.94-2.4,4.21-3.78,1.69-1.83,3.84-2.21,6.14-2.23,4.58-.04,8.56,1.75,12.02,4.43,2.76,2.15,4.63,5.1,5.25,8.62.37,2.11-.26,4.02-1.61,5.66-2.04,2.48-4.17,4.9-6.26,7.35-.66.78-.57.98.42,1.19,1.76.36,3.26,1.07,3.79,3.15Zm-55.56-6.8c1.31-1.6,2.08-3.49,2.46-5.55.15-.83-.02-1.38-.86-1.76-1.2-.54-2.38-1.14-3.55-1.75-.45-.23-.97-.45-1.28-.83-.25-.31-.42-.9-.29-1.23.11-.26.73-.35,1.15-.42.22-.03.49.14.72.25,1.1.53,2.2,1.07,3.3,1.59,1.14.54,1.32.44,1.32-.84,0-1.64-.07-3.28-.05-4.92.02-1.71-.53-3.22-1.51-4.61-1.87-2.66-4.31-4.67-7.25-6.14-1.22-.61-1.35-.6-1.95.63-.41.85-.84,1.71-1.38,2.49-.36.53-.99.97-1.66.52-.66-.43-.45-1.11-.16-1.71.1-.2.24-.37.34-.57.34-.64.66-1.3,1.01-1.94.46-.85.2-1.5-.65-1.86-1.18-.5-2.36-1.15-3.61-1.32-3.84-.53-7.66-.35-11.29,1.14-1.05.43-2.02,1.12-2.93,1.81-.77.58-.67.9.19,1.39,1.14.65,2.3,1.29,3.41,1.98.59.37,1.14.9.67,1.64-.48.75-1.16.45-1.79.1-1.32-.73-2.66-1.44-3.97-2.18-.66-.37-1.22-.34-1.69.28-2.35,3.1-4.3,6.42-5.09,10.23-.38,1.82-.84,3.79.12,5.58,1.33,2.49,2.34,5.26,5.22,6.6.17.08.29.24.44.37,1.08.9,2.13,1.84,3.25,2.69.87.65,1.25.53,1.76-.38,1.42-2.51,2.85-5.03,4.26-7.54.51-.91,1.13-1.26,1.73-.95.59.31.68,1.05.23,1.94-.07.14-.15.28-.23.42-1.41,2.48-2.81,4.97-4.24,7.44-.38.66-.4,1.17.34,1.58,1.96,1.09,3.98,1.71,6.29,1.39,3.16-.44,6.36-.64,9.52-1.12,3.12-.47,6.05-1.41,7.69-4.47Zm34.29,26.91c.36-.52.82-1.01,1.07-1.58.48-1.09,1.17-2.21,1.21-3.35.18-4.41-.95-8.55-3.15-12.42-.8-1.41-1.93-2.43-3.36-3.17-2.37-1.23-4.72-2.46-7.1-3.67-2.49-1.26-4.98-2.52-7.5-3.7-.41-.19-1.08-.12-1.53.06-.86.36-1.62.93-2.45,1.33-3.13,1.5-5.07,4.08-6.1,7.17-1.54,4.6-2.38,9.32-.85,14.14.65,2.05,1.4,4,3.53,5.09.59.3,1.26.69,1.58,1.21.59.98,1.5,1.33,2.49,1.65,1.2.39,2.39.78,3.58,1.18,2.07.69,4.19,1.06,6.38.97.77-.03,1.55-.12,2.32-.08,4.25.23,7.62-1.23,9.9-4.84Zm-23.49-28.73c-1.85-1.22-3.54-2.37-5.26-3.47-.54-.34-.78.04-.97.52-.69,1.72-1.36,3.46-2.14,5.15-1.78,3.86-5.27,5.45-9.19,6.16-3.39.61-6.86.76-10.28,1.2-2.59.33-4.94-.24-7.17-1.46-1.09-.59-1.19-.57-1.77.49-2.08,3.78-4.16,7.56-6.25,11.33-.32.57-.28,1.01.27,1.39,2.23,1.52,4.43,3.06,6.99,4.03,1.42.53,2.77,1.21,4.18,1.76,1.97.77,3.84,1.89,6.04,1.91,4.4.04,8.57-.96,12.53-2.82,1.46-.69,2.62-1.71,3.57-2.98.49-.66.58-1.33.48-2.14-.17-1.4-.38-2.84-.22-4.22.26-2.28.73-4.55,1.25-6.79.75-3.21,2.61-5.81,5.03-8.03.81-.74,1.82-1.27,2.91-2.02Zm-49.57-29.7c-.03.05-.06.11-.09.16,2.21,1.17,4.44,2.31,6.62,3.53.9.5,1.52.38,2.2-.34,1.41-1.49,3.14-2.52,5.15-3.05,2.18-.57,4.35-.97,6.63-1.08,3.2-.16,6.18.16,8.96,1.75.77.44,1.33.25,1.75-.52.61-1.11,1.21-2.24,1.9-3.3,1.93-2.95,3.9-5.88,5.86-8.81.11-.16.21-.32.3-.49.33-.57.27-1.07-.41-1.3-1.79-.62-3.56-1.41-5.41-1.74-3.1-.56-6.26-.9-9.4-1.18-4.55-.4-8.95.35-13.09,2.24-1.59.72-3.01,1.81-4.49,2.75-3.37,2.15-6.38,4.73-9.13,7.59-1.02,1.06-1,1.36.24,2.19.8.54,1.6,1.06,2.41,1.6Zm-.84,2.15s.05-.08.07-.13c-1.04-.69-2.08-1.39-3.13-2.07-.6-.4-1.09-.31-1.43.35-2.77,5.53-5.12,11.14-4.86,17.53.14,3.43.49,6.81,1.38,10.11.62,2.3,1.69,4.48,2.5,6.74.56,1.56.96,3.19,1.55,4.74.34.89.74,1.84,1.4,2.5,2,2.01,4.15,3.88,6.22,5.82,1.33,1.25,1.75,1.2,2.62-.43,1.06-1.99,2.09-3.99,3.15-5.98.79-1.48,1.6-2.96,2.39-4.44.29-.54.37-1.07-.21-1.53-1.23-.96-2.35-2.12-3.7-2.88-2.72-1.55-4.6-3.71-5.78-6.52-.22-.52-.63-.97-.81-1.51-.29-.83-.61-1.68-.65-2.54-.12-2.94.35-5.82,1.73-8.46,1.16-2.21,2.52-4.32,3.82-6.46.59-.98.54-1.17-.43-1.68-1.95-1.04-3.89-2.11-5.83-3.17Z"/><path class="cls-1" d="m127.81,160.16c-1.68,2.25-4.51,4.13-7.76,4.96-2.23.57-4.76.27-7.11.02-3.45-.37-6.64-1.69-9.46-3.67-2.14-1.5-3.86-3.43-5.08-5.75-.24-.45-.46-.91-.74-1.33-1.69-2.55-1.98-5.36-1.67-8.29.38-3.62,1.57-7.04,2.96-10.37,1.25-2.98,3.86-4.55,6.91-5.49.09-.03.2-.02.28-.06,4.19-1.8,8.32-.66,12.41.34,1.38.34,2.73.99,3.95,1.72,2.09,1.25,4.08,2.67,6.11,4.01,1.69,1.11,2.63,2.64,3.13,4.59.78,3.04.8,6.11.82,9.2.01,1.98-.91,3.67-1.8,5.34-.77,1.45-1.73,2.81-2.95,4.76Zm-3.47-24.21c-2.7-2.11-5.74-3.33-9.18-3.98-2.68-.5-5.15-.67-7.78.11-1.8.53-3.51,1.14-4.87,2.39-.66.6-1.19,1.42-1.53,2.24-.43,1.01-.63,2.12-.87,3.2-.33,1.53-.28,3.17-1.51,4.4-.1.1-.12.29-.15.44-.59,3.12-.64,6.16,1.36,8.91.26.36.41.79.63,1.17,1.26,2.21,2.9,4.13,5.13,5.44,3.53,2.08,7.38,3.04,11.55,2.98,4.26-.06,7.17-2.26,9.59-5.34.55-.69.91-1.52,1.39-2.27,1.53-2.4,2.68-4.9,2.2-7.85-.07-.4,0-.82,0-1.23,0-4.39-.94-8.3-5.53-10.35-.14-.06-.27-.17-.4-.26Z"/><path class="cls-1" d="m121.17,79.57c2.31,1.75,2.88,4.87,1.2,7.58-.49.78-1.23,1.45-1.96,2.04-.61.5-1.42.39-1.7-.36-1.08-2.9-3.79-3.99-6.16-5.47-.92-.57-1.95-1-2.84-1.62-.41-.29-.91-.96-.82-1.31.12-.44.79-.99,1.27-1.04,2.75-.28,5.51-.51,8.28-.58.9-.02,1.82.49,2.74.75Z"/><path class="cls-1" d="m142.2,95.02c.58.7,1.33,1.33,1.72,2.12,1.29,2.63,2.13,5.4,2.38,8.33.06.71-.02,1.39-.84,1.6-.79.2-1.13-.39-1.45-.97-1.5-2.73-4.15-3.96-6.94-4.94-1.02-.36-2.15-.43-3.19-.77-.56-.18-1.31-.57-1.44-1.01-.13-.44.24-1.3.66-1.58,1.71-1.16,3.48-2.25,5.33-3.19,1.24-.63,2.52-.23,3.77.42Z"/><path class="cls-1" d="m48.59,93.59c-.11.16-.22.31-.33.47-1.13,1.71-1.74,1.89-3.56.93-1.62-.85-3.06-1.89-3.73-3.68-.51-1.36-.4-2.66.26-3.94.43-.83,1.15-1.33,2.05-1.07,1.82.51,3.68,1.01,5.36,1.82,1.63.79,1.89,2.21,1.03,3.79-.32.58-.75,1.1-1.13,1.65.02.01.03.02.05.03Z"/><path class="cls-1" d="m68.54,113.82c.58-.69,1.24-1.47,1.89-2.25.87-1.04,2.11-1.12,3.33-1.25,1.75-.19,3.47-.29,5.09.61.85.47,1.72,2.01,1.58,2.92-.1.64-.7.93-1.52.72-.62-.16-1.22-.4-1.85-.54-1.56-.34-2.88.26-4.01,1.21-1.47,1.23-2.61,2.71-3.11,4.58-.11.43-.17.91-.41,1.25-.27.37-.73.85-1.1.84-.36,0-.89-.5-1.04-.89-.96-2.54-.37-4.89,1.14-7.2Z"/><path class="cls-1" d="m104.55,137.31c2-2.96,6.01-4.42,9.52-3.45,1.15.32,2.29.64,3.43.99.3.09.6.23.87.4.61.37,1.14.86.77,1.62-.35.72-1.06.61-1.7.41-2.53-.82-4.99-.4-7.36.52-1.84.71-3.5,3.62-3.42,5.67.04,1.16-.91,2.19-2.09,2.19-.81,0-1.18-.53-1.36-1.24-.5-1.93.13-5.34,1.33-7.1Z"/></g></g><path class="cls-2" d="m153.68,67.2c-.14-.73-.47-1.33-1.05-1.85-1.93-1.74-1.23-4.5.46-6.06.28-.26.82-.43,1.19-.37,4.47.68,8.82-.59,13.23-.73,3.3-.11,6.61-.25,9.91-.25,1.4,0,2.46,1,3.63,1.65-.26.37-.23.71.13,1.01.05.28.1.56.16.84-.2.45-.4.91-.59,1.36,0,0-.01.02-.01.02-.5.44-1,.89-1.49,1.33-.7.03-1.4.37-2.09-.13-.63-.46-1.34-.48-2.05-.14-1.43-.52-2.88-.21-4.32-.05-.9-1.15-2.12-.77-3.28-.64-.9-.42-1.84-.61-2.84-.47-1.2.14-2.42.2-3.59.46-1.04.23-1.97.71-.8,1.93l-.1.13c-.43,1.24-.17,2.38.56,3.44.35,2.03,1.19,3.99.97,6.1-.21.34-.16.63.16.88.01.08.05.14.11.19-.38,3.06.7,3.98,3.54,2.66,4.15-1.93,8.27-3.93,12.16-6.33,2.89-1.78,5.73-3.5,9.36-2.93.42.08.85.15,1.27.23-.05.25-.11.5-.16.75-.05.11-.1.22-.15.33-.25.38-.18.7.22.94,0,0-.13,0-.13,0-.3.17-.6.35-.9.52-.21.11-.42.22-.63.34-.08.1-.17.2-.25.3,0,0-.06.09-.06.09-1.14.56-2.29,1.11-3.43,1.67-.19.17-.39.33-.58.5-.92.23-1.48.99-2.24,1.44-1.61.72-2.94,1.83-4.33,2.86-2.62.75-4.95,2.09-7.28,3.42-1.05.71-2.73.53-3.16,2.12-.01.04-.05.09-.04.11.04.07.09.13.14.19-2.95.14-3.27.68-2.07,3.47.05,2.79.38,3.02,3.1,2.87,1.74-.1,3.19-.82,4.67-1.57,1.91-.96,3.87-1.54,6.03-.93,0,0,.01,0,.01,0,.24.77.85.96,1.59.95-.03,2.17-1.35,3.02-3.23,4.02-2.06,1.09-4.26,1.55-6.35,2.37-1.92.99-4.3.8-6.06,2.21-.93,0-1.86-.32-2.8-.09l-.02-.03c.17-1.1-.81-1.34-1.43-1.85-.54-1.39-1.32-2.69-1.51-4.19.06-.04.1-.09.12-.16,1.01-1.91.88-3.85-.53-5.39-.96-1.06-1.33-2.11-1.35-3.4.15-.52.29-1.03.44-1.55,1.47-.76,1.16-2.11,1.08-3.33-.24-3.84-1.59-7.39-3.01-10.92-.09-.11-.19-.22-.28-.34Z"/><path class="cls-2" d="m94.6,38.88c.06-.13.13-.26.19-.39.6-2.49-.49-4.55-1.8-6.53-.35-.53-.76-1.02-.85-1.65-.39-2.79-1.54-5.3-2.92-7.73-1.15-2.02-.35-3.84,1.94-3.68,3.29.22,6.18-1.08,9.23-1.73,1.46-.31,3-.85,3.97-2.2.17-.06.34-.12.51-.17.99.28,1.52-.35,2.08-.98.72-.81,1.7-1.27,2.73-1,.95.25,1.15,1.18,1.14,2.09,0,.23.1.46.16.69-.01,1.36-1.64,1.55-2.01,2.66-.51.22-1,.47-1.34.92-.39-.05-.78-.14-1.14.1,0,0-.07-.01-.07-.01v.07c-.51.34-1.02.68-1.52,1.02-1.35.07-2.18,1.38-3.59,1.37-1.89-.01-3.62.7-5.39,1.24-.47.14-.96.26-1.06.84-.97.92-.12,1.73.2,2.53.72,1.78.76,1.77,2.48.69,1.47-.36,2.82-.93,3.93-1.98.34-.22.68-.44,1.02-.66.29.07.47-.04.56-.32.21-.16.41-.32.62-.48,1.28.11,1.8-1.2,2.88-1.48.61-.08.99-.56,1.48-.84.81-.21,1.53-.59,2.22-1.05,1.54-1.04,2.86-.78,3.94.77.03.3.07.6.1.89-.05.07-.05.14,0,.21-.05.38-.18.72-.55.91-1.02.74-2.3.89-3.42,1.41-.18.1-.36.19-.55.29-.11.11-.23.22-.34.33-1.31.16-1.93,1.37-3.05,1.92-2.24,1.11-4.39,2.48-6.55,3.78-1.16.09-2.02.48-1.88,1.84.21.87.34,1.81,1.53,1.95.06.2.12.4.18.6-.39.48-.36.81.33.92.05.1.11.2.16.3-.38.46-.56.91.09,1.3.06.1.12.21.18.32-.17.27-.33.55-.5.82-.12.2-.09.31.17.31.2-.03.39-.06.59-.09-.31.3-.73.59-.4,1.08.25.36.69.34,1.08.28.53-.09,1.11-.13,1.56-.38,2.37-1.31,5.11-1.65,7.57-2.73.76-.33,1.32-.07,1.66.68.2.44.44.85.66,1.28-.05.14-.1.29-.15.43-.22.54-.54.99-1.07,1.28-.85.41-2.09.11-2.53,1.29-2.03.11-3.86.87-5.7,1.62-.11.08-.22.16-.33.24,0,0-.02,0-.02,0-.36.07-.7.19-.96.47-.35-.46-.7-.36-1.13-.06-.75.53-1.53,1.02-2.32,1.51-.9.56-1.89,1.41-2.94.76-1.08-.66-1.09-1.95-1.02-3.12.02-.33.15-.65.2-.98.2-1.28.25-2.56-.26-3.8Z"/><path class="cls-2" d="m80.73,71.86c.59-5.02.75-10.06.49-15.1-.06-1.15-.41-2.3-.95-3.36-.76-1.52-.87-3.08-.21-4.66.51-1.2,2.27-2.04,3.43-1.66,1.55.51,2.1,1.75,2,3.26-.21,3.44-.65,6.87.33,10.33.48,1.71.35,3.68.06,5.47-.31,1.86-.44,3.75.08,5.45.73,2.39,0,4.8.5,7.11.76,3.52.02,7.08.58,10.59.15.93-.1,1.86.34,2.82.84,1.81-.49,2.96-1.81,3.8-1.26.79-2.54.42-3.52-.75-.11-.13-.32-.17-.49-.25-.28-.05-.57-.11-.85-.17.04-.62.29-1.25-.12-1.85.03-.28.05-.56.08-.84.22-.62.36-1.23-.11-1.81,0-.25.02-.5.03-.75,0-.62,0-1.24.01-1.86.03-.13.06-.27.09-.4.77-1.09.52-2.05-.4-2.92.35-.2.49-.5.45-.88.69-2.53-.4-5.05-.04-7.59.01-.1-.27-.23-.41-.35.03-.74.85-1.28.54-2.1,0-.14,0-.28,0-.42-.04-.37-.07-.75-.11-1.12Z"/><path class="cls-2" d="m134.49,71.61c1.23-4.72,2.05-9.52,2.48-14.37.1-1.1-.09-2.25-.46-3.34-.52-1.55-.42-3.06.42-4.48.64-1.08,2.45-1.66,3.5-1.15,1.42.69,1.77,1.94,1.48,3.37-.66,3.26-1.54,6.48-1.06,9.91.23,1.69-.15,3.56-.67,5.23-.54,1.74-.92,3.52-.65,5.22.38,2.38-.63,4.59-.47,6.86.25,3.46-.93,6.77-.85,10.2.02.91-.34,1.76-.05,2.74.56,1.84-.86,2.77-2.23,3.4-1.31.6-2.49.08-3.27-1.16-.09-.14-.29-.2-.43-.3-.26-.09-.53-.18-.79-.27.12-.59.44-1.16.13-1.78.06-.26.12-.53.19-.79.29-.56.5-1.13.14-1.75.04-.24.08-.47.12-.71.09-.59.17-1.18.26-1.77.05-.12.09-.25.14-.37.88-.95.77-1.89,0-2.84.36-.15.53-.42.54-.79,1-2.33.29-4.88.97-7.26.03-.09-.23-.26-.35-.39.12-.7.98-1.11.8-1.94.02-.13.04-.27.06-.4.01-.36.03-.72.04-1.09Z"/><path class="cls-2" d="m30.52,23.3c-.76-2.35-1.71-4.63-2.85-6.82-.26-.5-.65-.94-1.11-1.32-.65-.53-1.02-1.2-1.04-2.04-.02-.63.6-1.35,1.19-1.41.8-.07,1.29.37,1.56,1.06.61,1.57,1.11,3.19,2.25,4.54.56.67.91,1.57,1.14,2.42.24.89.57,1.76,1.14,2.42.81.93.98,2.14,1.67,3.07,1.05,1.42,1.45,3.15,2.41,4.61.26.38.33.85.73,1.19.74.65.39,1.42-.03,2.04-.4.6-1.05.68-1.72.35-.07-.04-.18-.01-.27-.02-.14.03-.27.06-.41.09-.11-.28-.13-.61-.43-.8-.05-.13-.09-.26-.14-.39-.03-.32-.09-.62-.42-.79-.05-.11-.09-.23-.14-.34-.12-.28-.25-.55-.37-.83-.01-.07-.03-.13-.04-.2.12-.64-.18-1.01-.77-1.22.11-.16.11-.32.02-.48-.21-1.26-1.21-2.17-1.56-3.37-.01-.05-.17-.05-.25-.08-.14-.33.12-.74-.19-1.04-.03-.06-.06-.12-.09-.19-.09-.16-.19-.32-.28-.48Z"/><path class="cls-2" d="m63.35,11.99c-.17-2.11-.52-4.19-1.04-6.25-.12-.47-.36-.91-.67-1.31-.44-.56-.61-1.2-.47-1.9.11-.53.77-1.02,1.28-.95.68.09,1.01.55,1.09,1.18.2,1.43.3,2.87.99,4.22.34.66.45,1.49.47,2.24.03.79.13,1.58.48,2.24.5.93.4,1.97.79,2.88.6,1.39.59,2.91,1.11,4.31.14.37.11.77.37,1.13.49.68.04,1.26-.43,1.7-.45.43-1.01.37-1.51-.03-.05-.04-.15-.04-.22-.06-.12,0-.24,0-.36,0-.03-.26.02-.54-.2-.75-.01-.12-.02-.23-.04-.35.04-.27.04-.53-.19-.74-.02-.1-.03-.21-.05-.31-.05-.25-.1-.51-.15-.76,0-.06,0-.12,0-.17.23-.51.05-.88-.41-1.17.13-.11.16-.24.11-.4.07-1.09-.58-2.05-.64-3.12,0-.04-.13-.07-.2-.11-.05-.31.24-.59.05-.91-.01-.06-.02-.12-.03-.17-.05-.15-.09-.3-.14-.45Z"/><path class="cls-2" d="m73.9.97c-.09.11-.1.23-.07.36-.19.14-.16.35-.17.55-.3.2-.61.4-.91.6-.25.12-.51.24-.76.36-.06.04-.13.08-.19.13-.11.06-.22.12-.33.18-.51.2-1.03.38-1.53.6-.63.28-1.32.51-1.49,1.3,0,.04-.01.08-.02.12-.03.09.02.13.11.14.04,0,.08,0,.11-.01.04.06.07.13.11.19-.02.05-.05.1-.07.15-.11.11-.12.21.06.25.04,0,.09.02.13.03.58.86.9,1.85,1.38,2.76.17.32.35.39.67.23,1.73-.86,3.63-1.47,5.15-2.63.83-.63,1.84-1.1,2.46-2.04.41-.62,1.23-.73,1.96-.79.37-.03.73.56.71,1.09-.01.31-.09.62-.13.94-.02,0-.04.02-.06.05-.18.24-.35.48-.53.72-.06,0-.12.02-.17.03-.75-.1-1.38.04-1.75.77-.14.07-.28.14-.41.22-.29.02-.56.08-.76.3-.15.1-.29.21-.44.31-.85.41-1.65.88-2.46,1.35-.81.48-1.76.78-2.63,1.21-.24.12-.46.25-.56.51-.09.1-.08.21-.02.32.16.51.09,1.14.74,1.41.01.1.03.2.04.31.02.09.08.12.17.12-.11.21-.18.4.16.45,0,.04,0,.07.05.09-.05.19-.01.36.17.47.01.05.02.1.03.15-.08.15-.06.28.07.39.03.06.06.13.09.19v.02c-.07.1-.03.17.07.21.04.02.07.05.11.07.31.91.82,1.03,1.72.53.93-.52,1.8-1.17,2.82-1.52.13-.05.28-.1.37-.19.65-.68,1.47-1.01,2.37-1.23h.01c.09.17.12.39.34.47h.04c.04.13.09.26.13.38,0,.04,0,.07,0,.11-.12.11-.15.25-.1.4-.5.7-1.17,1.16-2,1.43-.14.05-.25.19-.38.29-.07.03-.14.05-.21.08-.11.06-.23.12-.34.18-1.22.91-2.64,1.45-4.04,2.03-.77.32-1.19-.25-1.72-.58-.03-.1-.07-.18-.18-.2-.26-.88-.59-1.74-1.18-2.48,0,0,0-.02,0-.02.05-.07.04-.13-.02-.19-.06-.17-.12-.34-.18-.51-.33-.48-.44-1.09-.89-1.51.04-.19-.02-.28-.23-.23-.03-.08-.06-.16-.09-.24.14-.08.21-.2.15-.34-.08-.18-.23-.1-.36-.05-.11-.13-.23-.2-.38-.06-.33-.27-.65-.02-.97.03-.03-.06-.05-.13-.08-.19,0,0,0,0,0,0,.06-.11.05-.23,0-.35-.21-.52-.15-.9.4-1.24.55-.34.58-.9.07-1.63-.67-.96-1.24-2-2.06-2.86-.26-.27-.43-.57-.5-.93-.09-.48.19-.92.67-1.03,1.69-.38,3.25-1.04,4.73-1.92.21-.13.39-.27.53-.47.42-.61,1-.97,1.73-1.12.03.03.06.05.1.06.24.22.52.42.6.76,0,.05,0,.1,0,.15Z"/><path class="cls-2" d="m42.42,29.08c-.11-.01-.21-.03-.32-.04-.07-.15-.19-.23-.37-.22-.1-.04-.2-.08-.31-.11-.24-.25-.58-.27-.89-.34-.16-.01-.33-.03-.49-.04-.17-.12-.33-.25-.56-.22-.18-.17-.38-.24-.62-.12-.08-.21.07-.52-.31-.58,0,0-.02-.01-.02-.01-.08-.12-.17-.23-.25-.35-.03-.14-.07-.28-.1-.42-.09-.29-.2-.58-.28-.87-.08-.32-.2-.67.14-.91.3-.22.65-.32,1.03-.18.38.14.66.39.94.67l.05.15c.25.26.34.7.81.73h.05c.77.42,1.58.57,2.47.45.91-.12,1.69-.55,2.48-.9.93-.42,1.18-1.31.83-2.25.08-.11.1-.22.02-.34-.04-.14-.09-.28-.13-.42.07-.15.03-.26-.11-.35-.08-.11-.16-.23-.24-.34.07-.14.11-.28,0-.42-.1-.31-.13-.67-.56-.74l-.05-.02c-.64-.74-1.27-1.5-2.37-1.57-.44-.17-.88-.34-1.32-.51-.2-.12-.41-.24-.61-.36-.11-.36-.49-.3-.74-.45-.04-.02-.08-.04-.12-.06-.05,0-.09,0-.14.01-.64-.75-1.55-1.2-2.25-1.88-.39-.38-.8-.75-1.32-.92-.88-.29-1.5-.78-1.7-1.7,0-.05.01-.09.01-.14.39-.47.4-.96.13-1.48.04-.02.07-.05.09-.09.62-.67,1.15-1.45,1.87-1.97,1.47-1.07,2.74-2.62,4.73-2.71,1.66-.07,3.46-.58,4.94.76.71.64.79,1.93.05,2.52-.39.31-.78.11-1.15-.11-.53-.31-.87-.9-1.54-1.01-.02-.02-.04-.03-.07-.04-.02-.05-.06-.06-.11-.05-.28.09-.55.17-.83.26-.73-.08-1.38.09-1.89.64-.2.08-.39.17-.59.25-.19-.06-.36-.01-.49.14-.31.21-.62.42-.93.64-.25.25-.51.5-.76.75-.08.08-.17.16-.25.23h0c-.02.08-.04.15-.06.21-.23.28-.73.66-.39.93.53.43.89,1.07,1.59,1.29.21.15.69-.1.68.2-.04.79.39.5.76.4.03.06.07.12.1.17.07.66.51.25.8.26.02.1.04.19.06.29-.13.11-.21.24-.12.41.53.76,1.44.88,2.2,1.23.73.34,1.52.54,2.25.89.88.42,1.4,1.26,2.08,1.91,0,0-.03.04-.03.04-.02.01-.04.03-.04.04.02.03.04.05.06.07.05.05.1.1.15.14,0,.41-.03.82.48.99,0,.25.2.3.38.37.01.07.02.15.03.22-.17.19-.36.38-.07.63.02.08.04.16.06.24-.11.16-.1.29.09.37-.09.17.02.26.14.34-.09.22-.39.48.11.59,0,.04,0,.08.02.11,0,0,.04,0,.06,0-.63.1-.6.46-.37.9v.03c-.44.3-.36.94-.85,1.21-.27.33-.54.66-.81.99-.08.03-.15.05-.23.08-.08.01-.16.02-.24.04-.08.03-.16.05-.25.08-.05.03-.11.07-.16.1-1.28.41-2.56.81-3.85,1.22-.18-.08-.35-.05-.52.05Z"/><path class="cls-2" d="m54.6,23.47c-.09-.02-.18-.05-.28-.07-.05-.14-.14-.23-.3-.24-.09-.05-.17-.09-.26-.14-.18-.25-.48-.3-.75-.41-.14-.03-.29-.06-.43-.09-.13-.13-.26-.26-.47-.26-.14-.17-.31-.26-.54-.18-.04-.19.12-.46-.2-.55,0,0-.02-.01-.02-.01-.06-.11-.12-.22-.18-.34-.01-.13-.03-.26-.04-.39-.05-.27-.11-.53-.14-.81-.03-.29-.1-.62.23-.79.29-.16.62-.21.94-.04.32.16.54.42.75.7l.03.14c.19.26.22.66.63.74h.04c.64.46,1.33.69,2.14.68.82,0,1.56-.29,2.31-.52.87-.26,1.21-1.02,1.01-1.9.08-.09.11-.19.06-.3-.02-.13-.04-.26-.07-.39.08-.12.06-.23-.05-.32-.06-.11-.12-.22-.17-.33.08-.12.14-.24.04-.37-.05-.29-.03-.61-.41-.72l-.04-.02c-.48-.73-.94-1.48-1.91-1.66-.37-.2-.74-.4-1.11-.61-.17-.13-.33-.26-.5-.39-.05-.33-.4-.32-.6-.48-.03-.02-.07-.04-.1-.06-.04,0-.08,0-.13,0-.48-.74-1.23-1.24-1.77-1.92-.3-.38-.62-.76-1.06-.97-.75-.36-1.24-.87-1.31-1.71.01-.04.02-.08.03-.12.4-.37.47-.81.29-1.3.04-.01.07-.04.1-.07.63-.52,1.19-1.15,1.9-1.54,1.43-.78,2.75-2.01,4.52-1.86,1.49.13,3.14-.12,4.29,1.24.55.65.47,1.8-.26,2.24-.39.23-.7,0-1.01-.23-.43-.34-.66-.9-1.25-1.07-.01-.02-.03-.03-.05-.05-.02-.04-.05-.06-.09-.05-.26.05-.51.09-.77.14-.64-.15-1.24-.08-1.75.35-.18.05-.37.11-.55.16-.17-.07-.32-.05-.45.07-.3.15-.6.3-.9.46-.26.19-.51.39-.77.58-.08.06-.17.12-.25.18,0,0,0,.01,0,.01-.02.06-.05.11-.07.17-.24.23-.72.5-.45.78.42.44.66,1.05,1.26,1.33.17.15.62,0,.58.25-.13.7.28.49.63.44.02.06.04.11.07.17-.02.6.42.28.68.32,0,.09.01.17.02.26-.13.09-.21.19-.16.35.38.74,1.17.94,1.81,1.35.61.38,1.29.65,1.89,1.04.73.48,1.1,1.28,1.62,1.93,0,0-.03.03-.03.03-.01,0-.04.02-.04.03.01.03.03.05.04.07.04.05.08.1.11.14-.06.36-.12.72.31.93-.03.22.14.29.3.37,0,.07,0,.13,0,.2-.18.15-.37.3-.14.55,0,.07.02.15.03.22-.12.13-.12.24.03.34-.1.14-.01.23.09.32-.11.18-.4.38.03.54,0,.03,0,.07,0,.1,0,0,.04,0,.06,0-.57.02-.59.34-.44.76v.03c-.43.22-.44.79-.9.98-.28.26-.56.53-.84.79-.07.01-.14.03-.21.04-.07,0-.14,0-.21,0-.08.01-.15.03-.23.04-.05.02-.11.05-.16.07-1.19.21-2.37.43-3.56.64-.15-.09-.31-.08-.46-.02Z"/><path class="cls-2" d="m104.55,97.8c-.2-.09-.4-.19-.6-.28-.04-.35-.23-.58-.59-.67-.18-.14-.35-.28-.53-.42-.3-.65-.96-.91-1.53-1.26-.31-.13-.63-.27-.94-.4-.25-.35-.49-.71-.96-.8-.25-.45-.6-.72-1.15-.65,0-.46.49-.99-.22-1.34,0,0-.04-.03-.04-.03-.09-.28-.18-.57-.27-.85.03-.3.06-.6.09-.9.01-.64-.01-1.28.05-1.91.06-.68.06-1.46.9-1.72.75-.23,1.51-.2,2.16.32.65.52,1.05,1.21,1.4,1.94v.34c.31.68.18,1.61,1.1,1.97l.1.05c1.26,1.31,2.74,2.13,4.6,2.48,1.88.35,3.71.02,5.53-.17,2.12-.22,3.24-1.82,3.19-3.92.23-.17.35-.38.27-.66,0-.31.02-.61.03-.92.25-.25.24-.5.03-.76-.08-.28-.17-.55-.25-.83.23-.24.42-.49.27-.84.01-.68.2-1.41-.6-1.84l-.09-.06c-.75-1.89-1.48-3.8-3.62-4.66-.75-.63-1.51-1.25-2.26-1.88-.32-.37-.64-.74-.97-1.11.03-.79-.78-.91-1.15-1.37-.07-.06-.13-.13-.2-.19-.09-.03-.19-.06-.29-.07-.75-1.91-2.25-3.38-3.18-5.19-.52-1.01-1.07-2.02-1.99-2.7-1.55-1.14-2.44-2.54-2.21-4.49.05-.09.09-.18.12-.27,1.09-.67,1.46-1.64,1.27-2.86.09-.02.18-.06.25-.12,1.68-.92,3.26-2.12,5.06-2.69,3.65-1.16,7.23-3.4,11.22-2.28,3.35.94,7.25,1.1,9.28,4.72.97,1.73.26,4.34-1.62,5.03-.99.37-1.61-.3-2.2-.97-.84-.96-1.11-2.35-2.36-3-.03-.05-.06-.09-.11-.13-.02-.11-.08-.16-.19-.17-.61,0-1.21-.02-1.82-.03-1.4-.64-2.8-.72-4.19.04-.44.04-.89.08-1.33.12-.35-.24-.7-.25-1.06-.04-.76.22-1.52.43-2.28.65-.67.33-1.35.66-2.02.99-.22.1-.44.2-.66.3,0,0,0,.03,0,.03-.08.12-.16.24-.25.36-.66.41-1.89.83-1.4,1.6.75,1.19,1.04,2.7,2.27,3.6.32.43,1.44.26,1.21.83-.61,1.54.43,1.24,1.25,1.28.03.14.05.27.08.41-.31,1.36.84.83,1.42,1.04-.03.2-.05.4-.08.6-.33.14-.57.34-.53.74.52,1.85,2.25,2.68,3.52,3.88,1.21,1.15,2.65,2.07,3.85,3.23,1.46,1.41,1.92,3.41,2.82,5.15,0,0-.08.07-.08.07-.04.01-.11.04-.11.04.01.06.04.12.06.18.07.13.13.25.2.38-.29.8-.62,1.6.27,2.27-.17.5.19.73.51.98-.03.15-.05.3-.08.45-.48.27-.98.52-.57,1.2-.01.17-.03.34-.04.52-.32.24-.4.5-.08.8-.29.28-.13.53.05.77-.33.38-1.09.69-.18,1.24-.02.08-.04.15-.04.23,0,.01.08.03.13.04-1.32-.21-1.5.53-1.36,1.54l-.03.06c-1.07.31-1.35,1.63-2.5,1.84-.76.48-1.53.96-2.29,1.44-.17,0-.34,0-.5,0-.16-.03-.33-.05-.49-.08-.18,0-.36,0-.54,0-.13.03-.26.06-.39.09-2.82-.03-5.64-.07-8.45-.1-.31-.27-.66-.33-1.06-.25Z"/><path class="cls-2" d="m118.64,15.43c1.03-.29,1.99-.88,3.15-.52,1.44.44,2.21,1.52,2.77,2.73.73,1.59,1.46,3.15,2.77,4.38.11.11.22.32.19.45-.28,1.31.59,2.28,1.27,3.09,1.15,1.37,1.65,3.03,2.64,4.45.25.36.35.89.94.77.64-.13.66-.7.66-1.17,0-1.33-.02-2.66.26-3.98.4-1.87.03-3.79.14-5.63.17-3.09-.44-6.08-.4-9.13.02-1.36.68-2.09,2.1-2.3,1.46-.22,1.81.7,2.04,1.76.1.47.15.97.13,1.46-.1,2.45.01,4.89.57,7.29.28,1.18-.32,2.27-.41,3.41-.04.52-.05.96.35,1.35,0,.14-.02.29-.02.43-.29,1.33-.27,2.72-.81,4-.19.45.08.86.28,1.25-.04.07-.07.14-.07.22-.44.45-.23,1-.25,1.52-.08,1.8.02,3.6-.14,5.42-.14,1.52-1.21,1.73-2.19,2.05-1.15.37-2.15-.04-2.71-1.18-.32-.64-.79-1.16-1.29-1.66-.05-.08-.1-.15-.15-.23-.67-2.08-2.33-3.62-3.2-5.59-.02-.05-.06-.08-.12-.1-.12-1.23-1.27-1.71-1.93-2.54l.05-.07c-.03-1.95-1-3.47-2.35-4.81-.36-.36-.61-.19-.81.22-.23.47-.26.92-.02,1.39,0,.27-.01.54-.02.82.04.07.08.14.13.21-.47.86.13,1.69.08,2.54.04,1.7.55,3.31,1.08,4.91.05.17.1.35.15.52-.07.37-.09.74.14,1.07,0,.18,0,.37,0,.55-.1.22-.02.39.14.54.01.17.02.35.03.52-.14.35-.1.69,0,1.04,0,.12,0,.24,0,.36,0,.07.01.14.07.19-.02.25-.04.51-.07.76-.59.06-.84.56-1.22.9-.38.11-.77.22-1.15.33-.74-.08-1.2-.63-1.76-1.01l-.08-.06c-.2-1.69.03-3.43-.69-5.05-.22-.5-.2-1.02-.25-1.55-.25-2.61-.24-5.25-.96-7.8,0,0,.02-.03.02-.03.15-1.34.35-2.68.45-4.02.1-1.39.88-2.75.27-4.18.06-.1.12-.2.18-.3Z"/><path class="cls-2" d="m63.79,72.93c-.47,2.12.51,3.87,1.54,5.6-.14,1.66.3,3.09,1.69,4.16.02.5.03,1.01.05,1.51.7,1.22,1.4,2.44,2.1,3.66-.49.93-.99,1.86-1.48,2.79-.57.12-1.14.24-1.72.36-5.17,1.09-6.06.64-9.26-3.55-1.01-1.32-2.01-2.85-3.79-3.46,0,0-.13-.07-.13-.07-.94-3.22-1.24-6.74-4.35-8.95-.09-.21-.22-.39-.4-.54-.81-1.14-1.36-2.53-2.92-2.98-.15-.19-.31-.39-.46-.58.26-3.22-1.93-4.95-4.23-6.61-.24-.06-.48-.12-.71-.18-3.43-2.34-3.94-5.38-2.25-8.95.22-.17.43-.33.65-.5,3.43-2.24,6.19-1.9,8.41,1.5,2.4,3.66,5.51,6.96,6.52,11.41.18.8.68,1.55,1.75,1.35.79-.15,1.17-.76,1.25-1.5.14-1.26.51-2.58.27-3.77-.92-4.63-2.03-9.22-3.07-13.82.2-.59.41-1.18.61-1.77.24-2.94-.33-5.83-.62-8.74,0,0,.11-.12.11-.12,1.34-1.23,2.84-2.36,3.21-4.29.22,0,.43-.02.64-.07,2.87-1.32,5.5-.62,8.02.94-.14.18-.14.37,0,.56-.46.83-.25,1.6.22,2.34-.06.41-.12.82-.18,1.24-4.77,2.2-5.93,5.81-4.99,10.73,1.41,7.4,2.37,14.88,3.52,22.32Z"/><path class="cls-2" d="m30.87,33.03c-.49.83-1.39,1.31-2.37,1.41-.11.01-.25.09-.38.14-.19.12-.38.23-.56.35-.19-.21-.25-.52-.7-.52-.08-.1-.16-.2-.23-.29-.08-.3-.2-.55-.68-.52-.08-.08-.15-.16-.23-.24-.21-.19-.41-.39-.62-.58-.03-.06-.05-.11-.08-.17.09-.7-.38-.88-1.23-.71.14-.23.13-.39-.03-.49-.43-1.1-1.94-1.38-2.57-2.33-.03-.04-.24.05-.37.08-.23-.24.08-.79-.38-.9-.05-.04-.09-.09-.14-.13-.15-.1-.3-.2-.44-.3-1.14-1.56-2.47-2.97-3.98-4.24.06.21.14.42.23.62.19.42.18.87.23,1.32.23,2.22.24,4.47.87,6.64l-.02.02c-.12,1.14-.28,2.29-.35,3.43-.07,1.19-.73,2.35-.2,3.57-.05.08-.1.17-.15.25-.88.26-1.69.76-2.68.47-1.23-.37-1.9-1.28-2.38-2.32-.63-1.34-1.27-2.67-2.39-3.71-.1-.09-.2-.27-.17-.38.23-1.12-.52-1.94-1.11-2.63-.98-1.16-1.42-2.58-2.27-3.78-.22-.31-.31-.75-.81-.65-.54.11-.56.6-.56,1.01.01,1.13.04,2.26-.19,3.39-.33,1.6-.01,3.23-.08,4.8-.13,2.63.42,5.18.4,7.77,0,1.16-.56,1.79-1.77,1.98-1.24.19-1.55-.59-1.75-1.49-.1-.4-.14-.83-.13-1.24.07-2.09-.04-4.17-.54-6.21-.24-1.01.26-1.93.33-2.91.03-.45.04-.82-.3-1.14,0-.13.01-.25.01-.37.24-1.14.21-2.32.67-3.42.15-.38-.08-.73-.25-1.07.03-.05.05-.12.06-.19.37-.38.18-.85.2-1.29.06-1.54-.05-3.07.09-4.62.1-1.29,1.02-1.48,1.85-1.76.97-.32,1.83.03,2.32.99.27.55.68.98,1.11,1.41.04.06.08.13.13.19.58,1.77,2,3.07,2.76,4.75.02.04.05.07.1.08.11,1.04,1.09,1.44,1.66,2.15l-.04.06c.04,1.67.88,2.95,2.03,4.08.31.31.52.16.69-.19.19-.4.22-.79.01-1.19,0-.23,0-.46,0-.69-.04-.06-.07-.12-.11-.18.39-.73-.12-1.44-.08-2.16-.05-1.45-.5-2.82-.96-4.18-.04-.15-.09-.3-.13-.45.05-.31.07-.63-.13-.91,0-.16-.01-.31-.01-.47.09-.18.02-.33-.12-.46-.01-.14-.02-.29-.04-.44.05-.12.08-.26.08-.38-.17-.19-.27-.43-.32-.72-.04-.22.04-.5.21-.8.01-.03.01-.07.01-.1.02,0,.03,0,.05-.01.28-.47.75-.95,1.24-1.2,1.1-.57,1.85-.43,2.3.08,1.03,1.16,1.91,2.43,3.67,3.05.86.3,1.45.97,1.87,1.67.44.72.99,1.36,1.88,1.65,1.24.4,1.62,1.49,2.7,1.97,1.64.74,2.39,2.19,3.91,3.01.4.22.56.63,1.16.72,1.11.17.7,1.15.19,2.02Z"/></g></g></svg>