<?xml version="1.0" encoding="UTF-8"?><svg id="Layer_2" xmlns="http://www.w3.org/2000/svg" viewBox="0 0 427.49 173"><defs><style>.cls-1{fill:#f8ca00;}</style></defs><g id="Layer_1-2"><g><path class="cls-1" d="m427.49,14.16c-.06.2-.11.4-.16.6-1.88-.35-3.28-.61-3.28-.61.13-.02,1.51,0,3.44.01Z"/><path class="cls-1" d="m427.19,15.3c-.72,2.88-1.11,5.85-1.12,8.9.06.41.13.83.19,1.24-6.36.51-15.47-.61-19.93-.48-7.8.23-13.86-2.3-20.82-2.89-.1.04-.2.08-.3.11-.29.1-.58.17-.87.24.01,0,.02.01.03.01-.27.05-.55.12-.83.22-.06-.02-.12-.04-.18-.06-1.42.15-2.78-.06-4.1-.44-.24.03-.49.06-.74.1-.66-.17-1.34-.31-2.04-.41.22-.13.45-.27.68-.43-.57-.23-1.13-.47-1.69-.71-3.61-.69-7.64-1.28-11.82-1.82-.05.08-.09.15-.14.23-.29.01-.6.04-.9.11-.03,0-.06.02-.09.02-1.27-.2-2.53-.38-3.93-.21-.34-.1-.69-.19-1.08-.23-.39-.04-3.5-.73-3.58-1.05h-.01c-1.85-.22-3.7-.41-5.51-.6-.02-.13-.04-.26-.08-.39-1.37-.21-2.46-.36-2.52-.37-7.53-1.18-6.57-2.9-14.51-3.53-.75-.24-22.1-1.08-22.83-.93-.48.1-8.39.94-8.61.65-.16-.21-.39-.52-.65-.88-.49.02-.97.04-1.44.06h-.01c-.8.55-1.7,1.04-2.65,1.39-.24.08-.47.15-.71.21.82.24,1.11.44.47.53-.4-.13-.83-.25-1.28-.36-2.3.32-4.48-.5-6.57-1.29-7.85-1.16-18.04-1.75-26.66-2.34-.22.06-.46.12-.71.18,2.32.46,4.36.86,4.36.86-.36.07-13.57-.31-13.92-.25-1.87-.06-3.33-.39-5.06.1-.35.1-3.27.65-3.48.48-.16-.12-7.28,1.68-7.43,1.71-6.84,1.65-6.8.27-13.75,2.38-.48.06-8.59,2.78-14.22,4.72-7.22,3.4-15.68,7.07-20.33,9.11,1.15-.71,1.96-1.45,2.43-2.05-.22.13-.45.23-.68.32-.08.03-.15.05-.23.07h0c-.18.11-.37.21-.55.33-2.47,2.7-5.99,6.49-6.09,6.65-1.16,1.25-2.34,2.18-2.9,3.42-.11.24-1.33,2.27-1.61,2.39-.2.09-2.73,5.11-2.78,5.21-2.5,4.81-3.78,4.6-5.9,9.54-.24.34-2.47,6.14-3.98,10.17-.95,4.74-2.28,10.16-3.14,13.67,2.46,3.41,4.4,6.8,4.51,10.13.16,4.73,2.39,9.85,3.21,14.92-1.31,2.54-2.52,5.12-3.8,7.67-.04.17-.09.35-.13.52-.31,1.22-.5,2.44-.93,3.67-.36,1.01-.87,2.02-1.38,3.03h0c-.02.11-.05.21-.08.31-.05.18-.12.35-.19.52-.08.18-.15.36-.23.54.28.56.56,1.11.85,1.66-1.64,2.25-3.37,4.23-5.25,5.78-6.09,5-11.81,12.95-18.4,17.92-.31.24-.65.49-1,.75h-.01l-.02.02c-.21.26-4.53,2.31-4.76,2.57-6.72,2.4-13.34,4.64-19.7,8.13-.54.06-1.07.13-1.6.2-5.33,2.64-10.4,4.83-14.54,5.4-7.42,1.02-17.14,5.02-24.8,5.72-5.47.5-15.43.58-21.59,2.63-5.9,1.95-18.44,1.25-23.9,1.81-9.76.99-17.29-2.27-26.64-.93.3-1.87.42-3.72.33-5.53-.04-.69-.09-1.39-.15-2.08,1.09-1.01,2.48-1.96,3.98-2.64.29-.13.57-.24.86-.34-1.07-.2-1.46-.39-.67-.57.53.11,1.09.2,1.66.3,2.86-.63,5.72.12,8.47.84,11.04.61,25.52.11,37.06-.09-3.79-.37-7.93-.78-7.93-.78.45-.12,17.11-1.05,17.55-1.16,2.36-.12,4.24.12,6.35-.65.42-.16,4.02-1.11,4.31-.93.21.12,8.9-2.75,9.09-2.81,8.36-2.67,8.52-1.03,16.95-4.26.6-.12,10.4-4.19,17.2-7.08,7.41-4.15,15.96-8.62,21.72-11.63,4.83-5.31,6.47-5.01,11.33-11.37.2-.18,1.29-1.66,2.79-3.73l-.31-17.09c1.46,1.53,2.33,3.69,2.76,5.89.44,2.21.46,4.48.46,6.73,0,.13,0,.27-.01.4.55-.76,1.11-1.54,1.65-2.32-.62-1.93-1.61-4.64-1.64-4.72-2.01-5.83-.21-6.87-2.53-12.15l-.27,5.2c-.29-.96-.37-2-.46-3.03,0-.04-.01-.09-.01-.13l-.5,3.59c-.97-4.39-1.29-9.02-1.61-13.64-.11-1.61-.23-3.24-.02-4.93.11-.89.32-1.8.52-2.71.69-3.15,1.38-6.3,2.08-9.44.07-.32.14-.63.3-.95.1-.19.22-.36.36-.54l.28-1.98c.03.5.08.99.12,1.49.68-.85,1.32-1.72,1.88-2.6.17-.77.38-1.55.7-2.33l-1.98,3.71c-.36-.31-.05-1.15.27-1.84.62-1.38,1.25-2.76,1.87-4.14.62-1.36,1.23-2.72,1.9-4.07.45-.9.92-1.8,1.39-2.7,1.93-3.7,3.87-7.4,5.88-11.08.83-1.5,1.66-3.01,2.65-4.44.85-1.24,1.8-2.42,2.66-3.66.74-1.06,1.42-2.16,2.07-3.27-1.49-.93-1.43-2.33.61-4.05,1.47-1.23,3.2-2.5,5.2-3.34.2-.09.38-.12.53-.12,3.56-2.35,8.7-5.32,10.48-5.77.06-.02.12-.03.18-.04,9.12-.84,24.81-10.93,33.86-11.44,5.94-.34,13.98-3.01,20.07-3.06,4.35-.03,12.2.58,17.24-.69,4.84-1.22,14.63.23,18.99.15,1.64-.03,3.19.08,4.68.28.75-.15,1.51-.25,2.26-.28.24-.01.43.03.57.1,4.92-1.28,11.74-2.59,13.71-2.32.07.01.13.03.19.05,6.47,1.82,15.91.88,24.26.43,2.95.02,5.45.72,8.05,1.48,2.97.86,6.05,1.4,9.2,1.95,4.4.76,8.71,1.65,12.75,2.9,4.47.41,8.89,1.03,11.6,1.07,7.6.12,13.36,2.92,20.08,3.86.2-.07.4-.13.59-.18.32-.06.65-.16.98-.28.04,0,.08.03.12.04,1.88-.28,3.69.05,5.45.58.16-.01.32-.03.48-.05.47.31,1.06.44,1.7.42-.13.07-.26.14-.4.22.3.11.6.21.9.32,9.27,1.27,21.17,1.87,31.5,2.45Z"/></g></g></svg>