<?xml version="1.0" encoding="UTF-8"?><svg id="Layer_2" xmlns="http://www.w3.org/2000/svg" viewBox="0 0 186 173.45"><defs><style>.cls-1{fill:#f8ca00;}</style></defs><g id="Layer_1-2"><g><path class="cls-1" d="m14.3,8.42c-.27-.07-.52-.18-.76-.28-.07-.03-.13-.06-.2-.09.32.12.64.24.96.37Z"/><path class="cls-1" d="m13.12,7.68c-.07-.03-.13-.06-.2-.09.02,0,.04,0,.06,0l.14.08Z"/><path class="cls-1" d="m186,173.45c-2.98-.16-6.62-.55-7.74-.97-.05-.02-.09-.04-.13-.06-5.69-3.24-19.27-3.95-24.77-7.35-3.61-2.23-9.47-4.01-13.05-6.46-2.54-1.76-6.85-5.3-10.35-6.64-3.35-1.28-8.42-6.09-11-7.82-3.67-2.46-5.59-5.58-8.53-8.15.03-.39-.12-.77-.35-1.16,0-.01-.01-.02-.01-.02-.08-.16-.16-.33-.24-.49-.62-.45-1.18-.95-1.63-1.52-.1-.12-.14-.24-.14-.34-2.67-1.96-6.05-4.88-6.57-6-.02-.04-.03-.08-.04-.12-1.05-4.05-5.12-8.46-8.45-12.53-1.05-1.5-1.45-3.07-1.86-4.71-.47-1.87-1.2-3.66-1.95-5.5-1.7-4.13-3.1-8.28-3.16-12.52-.02-.56-.29-1.02-.71-1.37-.19.01-.39.02-.59.03-1.53-2.72-2.88-5.69-3.94-7.27-3.36-4.95-2.66-10.18-6.35-14.77-.12-.1-.26-.19-.4-.27,0-.03-.02-.05-.02-.08-1.33-1.26-1.61-3.04-1.89-4.76-2.82-6.03-7.5-13.45-11.08-19.44.85,2.13,1.76,4.44,1.76,4.46-.21-.19-5.88-8.59-6.09-8.78-.79-1.19-1.17-2.27-2.38-3.1-.24-.16-2.03-1.69-1.98-1.91,0-.18-4.72-3.65-4.82-3.72-4.5-3.4-3.31-4.09-8.26-7.31-.27-.27-6.25-3.9-10.46-6.39-6.17-2.71-13.13-6.06-16.96-7.88,2.88.88,4.94.31,3.76-.31-.01,0-.01,0-.02,0-.35-.09-.69-.2-1.02-.34-.42-.1-.95-.19-1.6-.27-.02,0-.04,0-.06,0,.07.03.13.06.2.09.6.27,1.2.54,1.8.8-.18.01-.36,0-.54-.04-.03-.01-.05-.02-.08-.02-.32-.13-.64-.25-.96-.37-.05-.02-.11-.04-.16-.06-.45-.17-.9-.34-1.34-.51-.73-.07-1.56-.11-2.52-.14-.24-.11-.38-.17-.4-.16-1.09-.71-5.61-3.35-6.4-3.89-.06-.03-.1-.06-.11-.07s-.02-.03-.04-.05h0c-.65-.35-1.29-.7-1.93-1.06-.2-.1-.4-.23-.44-.4-.03-.18.16-.33.34-.46.56-.42,1.13-.83,1.69-1.25h10.9s.06.03.09.04c.16.08.26.17.34.27,3.61.98,8.46,2.63,9.66,3.5.04.03.07.06.11.1,4.85,5.23,20.55,9.73,25.08,15.08,2.98,3.52,8.9,7.13,11.7,10.89,2,2.68,5.02,7.88,8.4,10.36,3.23,2.36,6.43,9.21,8.47,11.88,3.92,5.1,3.39,10.68,8.13,15.28.04.12.08.25.13.37.95,1.26,1.08,2.88,1.21,4.44,1.81,4.67,4.65,10.19,7.28,15.25-.17.12-.31.25-.44.4-.02.01-.04.02-.06.03.15.23.33.46.55.68.04.21.11.43.22.64.12.22.75,2.09.56,2.27-.13.12,1.93,4.61,1.97,4.7,1.89,4.32.34,4.56,2.76,8.86.1.48,7.21,11.7,7.59,12.01.24.2,3.68,3.87,3.56,4.11-.1.17-.23.41-.39.69,1.4,1.75,2.65,3.34,3.61,4.56-.07.39.03.8.38,1.15,1.36,1.37,1.66,3.03,2.46,4.55.13.26.28.51.43.77.65.66,1.17,1.43,1.67,2.18,4.47,4.24,10.88,9.23,15.9,13.3-1.37-1.43-2.86-2.97-3.04-3.17.45.26,7.75,5.68,7.98,5.8,1.06.79,1.77,1.57,3,2,.24.09,2.19.97,2.24,1.15.03.13,4.97,2.02,5.08,2.06,4.71,1.86,4.08,2.63,9.06,4.27.31.16,6.23,1.94,10.37,3.14,5.67,1.02,12.17,2.39,15.79,3.14h0c-.44-.02-.85-.02-1.21.01.41.03.81.08,1.22.13v.13l-1.92-.18c-.58.11-.97.28-1.1.44l1.86.47c.35-.02.74-.05,1.2-.11.1,1.27.3,2.53.6,3.79.04.19.09.38.15.58.06.24.13.48.2.72.04.14.08.27.12.41.03.1.07.21.1.31Z"/></g></g></svg>