<?xml version="1.0" encoding="UTF-8"?><svg id="Layer_2" xmlns="http://www.w3.org/2000/svg" viewBox="0 0 390.06 241.11"><defs><style>.cls-1{fill:#fff;}.cls-2{opacity:.16;}</style></defs><g id="Layer_1-2"><g><path class="cls-1" d="m52.92,70.76c-.08-.43-.27-.78-.6-1.08-1.1-1.02-.7-2.62.26-3.53.16-.15.46-.25.68-.22,2.54.4,5.02-.35,7.53-.43,1.88-.06,3.76-.14,5.64-.14.8,0,1.4.58,2.07.96-.15.22-.13.41.07.59.03.16.06.33.09.49-.11.26-.23.53-.34.79,0,0,0,.01,0,.01-.28.26-.57.52-.85.78-.4.02-.8.22-1.19-.08-.36-.27-.76-.28-1.17-.08-.82-.3-1.64-.12-2.46-.03-.51-.67-1.2-.45-1.87-.37-.51-.24-1.05-.36-1.62-.28-.68.08-1.38.12-2.04.27-.59.14-1.12.42-.46,1.12l-.06.07c-.24.72-.1,1.38.32,2,.2,1.18.67,2.32.55,3.55-.12.2-.09.37.09.51,0,.04.03.08.06.11-.22,1.78.4,2.31,2.01,1.55,2.36-1.12,4.71-2.29,6.92-3.68,1.64-1.04,3.26-2.04,5.33-1.7.24.05.48.09.72.13-.03.14-.06.29-.09.43-.03.06-.06.13-.08.19-.14.22-.11.41.13.55,0,0-.08,0-.07,0-.17.1-.34.2-.51.3-.12.07-.24.13-.36.2-.05.06-.1.12-.14.17,0,0-.04.05-.04.05-.65.32-1.3.65-1.95.97-.11.1-.22.19-.33.29-.52.13-.84.57-1.28.84-.92.42-1.67,1.06-2.46,1.67-1.49.44-2.82,1.22-4.15,1.99-.6.41-1.55.31-1.8,1.23,0,.02-.03.05-.02.07.02.04.05.07.08.11-1.68.08-1.86.39-1.18,2.02.03,1.63.22,1.76,1.76,1.67.99-.06,1.82-.48,2.66-.91,1.09-.56,2.2-.9,3.43-.54,0,0,0,0,0,0,.14.45.49.56.9.55-.02,1.26-.77,1.76-1.84,2.34-1.17.63-2.42.9-3.62,1.38-1.09.58-2.44.47-3.45,1.29-.53,0-1.06-.19-1.6-.05h-.01c.1-.65-.46-.8-.81-1.09-.3-.81-.75-1.56-.86-2.44.03-.02.06-.05.07-.09.57-1.11.5-2.24-.3-3.14-.55-.61-.76-1.23-.77-1.98.08-.3.17-.6.25-.9.84-.44.66-1.23.62-1.94-.13-2.23-.9-4.3-1.71-6.36-.05-.07-.11-.13-.16-.2Z"/><path class="cls-1" d="m78.61,79.27c.03-.11.05-.21.08-.32.04-1.93-1.07-3.29-2.33-4.55-.33-.34-.71-.63-.88-1.08-.72-2-1.95-3.68-3.33-5.26-1.15-1.32-.86-2.78.82-3.02,2.41-.34,4.29-1.75,6.39-2.7,1-.45,2.03-1.09,2.51-2.24.11-.07.23-.14.34-.21.76.05,1.04-.5,1.34-1.04.39-.71,1.02-1.2,1.81-1.16.72.04,1.02.69,1.15,1.37.03.17.15.32.22.49.2,1-.94,1.4-1.03,2.27-.33.24-.64.5-.82.89-.29.02-.58.02-.81.25,0,0-.05,0-.05,0v.05c-.31.33-.61.66-.92.99-.96.26-1.36,1.36-2.38,1.57-1.36.28-2.5,1.08-3.69,1.75-.32.18-.65.34-.63.79-.56.83.18,1.3.54,1.84.8,1.2.83,1.19,1.9.12,1-.49,1.89-1.12,2.52-2.07.21-.21.42-.43.64-.64.22,0,.34-.1.35-.32.12-.15.25-.3.37-.45.94-.12,1.11-1.16,1.84-1.54.43-.15.62-.56.93-.85.55-.28,1.01-.67,1.43-1.12.95-1.01,1.94-1.02,2.96-.04.07.21.14.43.22.64-.02.06-.01.11.04.15.02.29-.02.56-.25.76-.62.71-1.52,1.01-2.24,1.57-.12.1-.23.2-.35.3-.06.1-.13.2-.2.29-.92.32-1.17,1.31-1.9,1.89-1.44,1.17-2.77,2.51-4.13,3.8-.82.25-1.38.67-1.06,1.65.29.61.53,1.28,1.41,1.21.07.14.15.28.22.42-.21.41-.13.66.38.63.05.06.11.13.16.19-.2.4-.26.76.27.94.06.07.12.14.18.21-.08.23-.15.46-.23.68-.06.16-.02.25.17.2.14-.05.27-.1.41-.16-.18.27-.44.55-.12.86.23.23.55.15.82.04.37-.15.78-.26,1.06-.52,1.51-1.34,3.43-2.01,5.03-3.18.5-.36.94-.25,1.31.25.21.29.45.56.68.84-.01.11-.03.23-.04.34-.07.43-.23.82-.57,1.11-.55.44-1.49.4-1.62,1.35-1.45.4-2.65,1.24-3.86,2.08-.07.07-.13.15-.2.22,0,0-.01,0-.01,0-.25.11-.48.25-.62.5-.33-.29-.56-.16-.82.13-.46.51-.94.99-1.43,1.47-.56.55-1.14,1.33-2,1.02-.88-.32-1.09-1.27-1.23-2.15-.04-.25,0-.51,0-.76-.06-.98-.22-1.93-.79-2.77Z"/><path class="cls-1" d="m171.56,92.01c.07-.11.13-.22.2-.34.74-2.2-.05-4.15-1.03-6.05-.26-.51-.59-.98-.61-1.56-.11-2.55-.91-4.91-1.92-7.22-.84-1.92.01-3.49,2.02-3.16,2.88.47,5.54-.46,8.28-.79,1.31-.16,2.72-.52,3.68-1.66.15-.04.31-.08.46-.11.85.33,1.37-.19,1.91-.71.7-.67,1.6-1,2.49-.67.81.3.92,1.16.83,1.98-.02.21.05.43.08.64-.13,1.22-1.58,1.26-1.99,2.23-.47.15-.92.34-1.26.72-.34-.08-.67-.19-1.01,0,0,0-.06-.02-.06-.02v.06c-.49.27-.96.53-1.43.8-1.19-.04-2.04,1.07-3.29.94-1.66-.17-3.25.33-4.86.67-.43.09-.86.16-1.01.67-.93.75-.26,1.56-.04,2.3.49,1.67.52,1.66,2.13.82,1.33-.2,2.57-.61,3.63-1.46.32-.17.64-.34.96-.51.25.08.42,0,.52-.24.2-.13.39-.26.59-.38,1.12.2,1.69-.93,2.66-1.1.55-.02.92-.42,1.37-.63.73-.12,1.4-.4,2.04-.77,1.45-.81,2.59-.47,3.41,1.02,0,.27.01.54.02.82-.05.06-.05.12-.01.19-.08.34-.22.63-.56.78-.96.59-2.11.61-3.13.99-.17.07-.34.14-.5.21-.11.09-.22.18-.33.27-1.17.04-1.81,1.07-2.85,1.48-2.07.82-4.08,1.87-6.09,2.87-1.03-.01-1.82.27-1.81,1.51.11.81.15,1.66,1.18,1.89.04.19.07.37.11.56-.38.4-.39.7.21.86.04.09.08.19.12.28-.37.38-.57.77-.03,1.18.04.1.09.2.13.3-.17.23-.34.47-.51.7-.12.17-.11.28.12.29.17-.01.35-.02.52-.03-.3.24-.7.48-.44.94.19.34.58.37.93.34.47-.04.99-.02,1.4-.21,2.21-.99,4.65-1.07,6.91-1.84.7-.24,1.17.05,1.41.75.14.41.32.81.48,1.21-.06.13-.11.25-.17.38-.24.47-.56.85-1.06,1.07-.79.3-1.85-.07-2.34.96-1.8-.07-3.48.47-5.16.99-.1.06-.2.12-.31.19,0,0-.02,0-.02,0-.33.03-.64.12-.89.35-.27-.44-.59-.39-.99-.15-.71.42-1.44.8-2.17,1.17-.84.43-1.78,1.11-2.65.45-.9-.69-.79-1.85-.64-2.9.04-.3.19-.58.26-.87.28-1.14.44-2.29.09-3.45Z"/><path class="cls-1" d="m168.06,20.07c.42-3.71.5-7.44.25-11.18-.06-.85-.35-1.7-.79-2.5-.62-1.13-.72-2.29-.21-3.46.39-.88,1.79-1.49,2.72-1.2,1.24.39,1.68,1.32,1.62,2.43-.14,2.54-.45,5.08.36,7.65.4,1.27.32,2.73.1,4.05-.23,1.38-.32,2.77.11,4.04.6,1.78.05,3.56.47,5.27.63,2.62.08,5.25.56,7.85.13.69-.06,1.37.3,2.09.68,1.35-.36,2.19-1.4,2.8-.99.58-2.02.29-2.81-.59-.09-.1-.26-.13-.39-.19-.22-.04-.45-.09-.68-.13.03-.46.22-.93-.11-1.37.02-.21.04-.41.05-.62.17-.46.27-.91-.1-1.34,0-.18,0-.37.01-.55,0-.46,0-.92,0-1.38.02-.1.05-.2.07-.3.6-.8.4-1.51-.35-2.16.27-.14.38-.37.35-.65.52-1.87-.37-3.75-.1-5.62,0-.07-.22-.17-.33-.26.01-.55.67-.94.41-1.55,0-.1,0-.21,0-.31-.03-.28-.07-.55-.1-.83Z"/><path class="cls-1" d="m45.66,120.6c-.38.37-.91.48-1.42.36-.06-.02-.15.01-.22.01-.11.03-.22.06-.34.09-.06-.14-.04-.32-.27-.39-.03-.07-.05-.14-.08-.2.01-.18-.02-.33-.26-.4-.03-.05-.06-.11-.09-.17-.07-.14-.15-.28-.22-.42-.01-.03-.01-.07-.02-.1.16-.36-.06-.54-.51-.59.1-.1.12-.19.06-.27-.06-.67-.78-1.08-.96-1.7-.01-.02-.13-.01-.2-.01-.08-.17.16-.42-.06-.56-.01-.03-.03-.06-.05-.09-.06-.08-.12-.16-.18-.24-.4-1.21-.97-2.37-1.69-3.46-.15-.23-.4-.42-.7-.57-.4.36-.82.68-1.14,1.15-.15.21-.39.29-.47.61,0,.83.04,1.66.1,2.49.03.53.2,1.05.45,1.54.36.69.43,1.41.14,2.14-.21.55-1,.96-1.52.8-.71-.22-.96-.79-.93-1.48.06-1.58.22-3.16-.25-4.75-.24-.77-.2-1.68-.08-2.51.12-.85.16-1.72-.09-2.5-.35-1.09-.05-2.21-.3-3.26-.37-1.62-.07-3.26-.36-4.86-.08-.43.03-.86-.18-1.3-.4-.82.19-1.37.77-1.76.56-.38,1.14-.22,1.59.31.05.06.15.07.22.11.13.02.26.04.38.07,0,.28-.11.57.08.84-.01.13-.02.26-.03.39-.09.29-.15.57.06.83v.34c0,.29.01.57.01.86l-.03.18c-.34.51-.22.95.21,1.34-.16.1-.22.24-.19.41-.29,1.17.22,2.32.09,3.49,0,.04.12.1.19.15-.01.34-.37.6-.23.97.01.07.01.13.01.2.02.17.04.34.06.51-.02.25-.04.5-.06.75.01,0,.01-.01.02-.02.65-.22.88-1.02,1.45-1.34.02-.02-.02-.13-.03-.2.15-.12.45.06.53-.19.03-.02.06-.05.08-.07.07-.08.13-.16.19-.23,1.11-.68,2.11-1.51,3.02-2.48.21-.22.35-.54.43-.9.12-.52.39-.83.85-.89.35-.04.92.4,1.12.85.26.61.15,1.01-.16,1.24-.71.53-1.48.98-1.92,1.91-.21.46-.62.76-1.04.98-.43.22-.82.5-1.03.97-.13.31-.34.51-.56.69.03.03.05.07.07.11.34.8.6,1.64,1.4,2.27.4.31.59.78.7,1.22.12.47.3.91.71,1.21.57.43.6,1.08,1.07,1.53.72.68.89,1.58,1.54,2.29.17.19.19.43.48.58.54.29.18.74-.21,1.12Z"/><path class="cls-1" d="m242.8,98.87c1.58-3.54,2.85-7.19,3.82-10.93.22-.85.23-1.77.1-2.67-.19-1.28.08-2.45.92-3.46.64-.76,2.09-.98,2.84-.44.99.72,1.1,1.75.68,2.83-.94,2.47-2.04,4.87-2.14,7.63-.05,1.36-.59,2.77-1.22,4.01-.65,1.29-1.18,2.64-1.2,4.01-.03,1.91-1.1,3.52-1.27,5.31-.27,2.75-1.62,5.18-2.02,7.88-.11.71-.5,1.34-.4,2.14.18,1.52-1.03,2.06-2.16,2.37-1.08.3-1.92-.26-2.35-1.34-.05-.12-.19-.2-.29-.29-.19-.1-.38-.21-.57-.31.17-.44.49-.85.34-1.38.08-.2.17-.4.25-.6.3-.4.54-.82.34-1.35.06-.18.13-.36.19-.54.14-.45.29-.9.43-1.36.05-.09.1-.18.16-.27.8-.63.84-1.38.38-2.22.29-.07.46-.26.52-.55,1.07-1.69.88-3.79,1.71-5.56.03-.07-.14-.23-.21-.35.19-.53.9-.74.87-1.41.03-.1.06-.2.1-.31.06-.28.12-.56.18-.85Z"/><path class="cls-1" d="m48.96,27.78c1.05,1.59,2.23,3.08,3.53,4.47.29.32.67.56,1.08.75.58.26.99.68,1.19,1.3.15.47-.14,1.13-.56,1.29-.56.22-1.02,0-1.36-.46-.78-1.04-1.48-2.14-2.6-2.9-.55-.38-.99-.98-1.34-1.56-.36-.61-.79-1.19-1.35-1.56-.79-.52-1.17-1.38-1.87-1.93-1.07-.84-1.72-2.04-2.74-2.92-.27-.23-.42-.56-.78-.73-.68-.32-.58-.97-.41-1.52.16-.53.61-.73,1.17-.62.06.01.13-.03.2-.04.09-.05.19-.1.28-.15.14.19.22.43.48.5.06.09.12.17.18.26.09.23.2.44.47.5.06.07.12.15.17.22.15.18.3.36.45.54.02.05.05.09.07.14.05.5.35.72.82.75-.05.14-.02.26.09.36.42.89,1.34,1.36,1.85,2.18.02.03.13,0,.2,0,.17.22.07.57.36.73.03.04.07.08.1.12.1.1.2.2.3.3Z"/><path class="cls-1" d="m283.94,110.3c-2.66,3.33-5.01,6.87-7.09,10.59-.47.85-.74,1.82-.84,2.82-.15,1.42-.77,2.59-1.94,3.43-.89.64-2.5.47-3.14-.31-.86-1.04-.68-2.17.05-3.21,1.68-2.37,3.52-4.63,4.39-7.53.42-1.43,1.4-2.79,2.4-3.94,1.05-1.2,1.98-2.49,2.38-3.94.56-2.03,2.14-3.44,2.82-5.31,1.05-2.85,3.15-5.07,4.32-7.83.31-.73.9-1.28,1.02-2.17.22-1.66,1.67-1.91,2.96-1.93,1.23-.02,1.97.81,2.13,2.07.02.14.15.26.23.39.17.16.35.33.52.49-.31.42-.76.77-.74,1.37-.14.19-.29.38-.43.57-.43.35-.8.73-.74,1.34-.12.17-.23.35-.35.52-.28.44-.56.88-.84,1.32-.08.08-.16.17-.24.25-1.03.45-1.28,1.24-1.02,2.26-.33,0-.56.15-.71.44-1.61,1.51-1.98,3.79-3.36,5.45-.05.06.08.28.13.43-.35.52-1.17.54-1.32,1.27-.06.1-.12.2-.19.3-.14.28-.28.57-.42.85Z"/><path class="cls-1" d="m341.57,135.36c-2.32,2.91-4.37,5.99-6.18,9.23-.41.74-.64,1.59-.73,2.46-.13,1.23-.67,2.25-1.69,2.99-.77.56-2.18.41-2.74-.27-.75-.91-.6-1.89.05-2.79,1.47-2.06,3.07-4.03,3.82-6.57.37-1.25,1.22-2.43,2.09-3.43.91-1.04,1.73-2.17,2.08-3.43.49-1.77,1.87-3,2.46-4.63.91-2.49,2.75-4.42,3.77-6.83.27-.64.79-1.12.89-1.89.2-1.45,1.45-1.66,2.58-1.68,1.07-.02,1.72.7,1.86,1.81.02.12.13.23.2.34.15.14.3.28.45.43-.27.37-.66.67-.65,1.2-.13.16-.25.33-.37.49-.37.3-.7.63-.64,1.17-.1.15-.2.3-.31.46-.24.38-.49.77-.73,1.15-.07.07-.14.14-.21.22-.89.39-1.12,1.08-.89,1.97-.29,0-.49.13-.62.38-1.41,1.32-1.73,3.3-2.93,4.75-.05.05.07.25.11.38-.3.45-1.02.47-1.15,1.1-.05.09-.11.17-.16.26-.12.25-.25.49-.37.74Z"/><path class="cls-1" d="m192.68,2.02c-.17.22-.2.48-.12.75-.37.29-.31.72-.32,1.13-.59.41-1.18.81-1.78,1.22-.5.24-.99.49-1.49.73-.13.09-.25.17-.38.26-.21.12-.43.25-.64.37-1,.4-2.01.77-3,1.2-1.24.55-2.58,1.03-2.9,2.65-.01.08-.02.16-.03.24-.05.19.04.26.21.29.08.02.15.01.22-.02.07.13.14.26.22.4-.05.1-.09.21-.14.31-.21.23-.22.42.13.52.09.02.17.04.26.06,1.18,1.8,1.84,3.85,2.8,5.76.34.67.7.81,1.33.49,3.39-1.73,7.1-2.93,10.08-5.29,1.62-1.28,3.59-2.22,4.79-4.15.79-1.26,2.4-1.47,3.84-1.57.72-.05,1.46,1.18,1.44,2.29-.01.65-.15,1.29-.23,1.94-.05.02-.08.05-.11.09-.34.5-.68.99-1.02,1.49-.11.02-.23.04-.34.06-1.47-.22-2.72.05-3.43,1.53-.27.14-.54.29-.81.43-.57.03-1.09.16-1.49.6-.29.21-.57.42-.86.63-1.66.81-3.23,1.76-4.8,2.73-1.58.97-3.44,1.57-5.14,2.42-.48.24-.9.5-1.08,1.04-.18.21-.15.44-.02.67.33,1.07.22,2.36,1.5,2.94.03.21.06.42.09.64.05.18.16.26.34.26-.22.42-.35.82.33.93-.01.08.02.14.09.18-.09.4-.01.74.35.98.02.11.05.21.07.32-.16.31-.12.58.16.82.06.13.13.27.19.4l-.02.05c-.11.21-.04.35.16.45.07.05.14.11.21.16.64,1.89,1.65,2.17,3.41,1.15,1.82-1.05,3.5-2.37,5.52-3.06.26-.09.56-.19.73-.39,1.25-1.39,2.87-2.06,4.64-2.47h.02c.18.36.24.81.69.99l.07.02c.09.25.18.51.27.76-.01.08-.01.15,0,.23-.23.23-.28.51-.18.83-.96,1.44-2.27,2.38-3.89,2.91-.28.09-.49.38-.74.58-.13.05-.27.11-.4.16-.22.12-.45.24-.67.36-2.38,1.85-5.16,2.92-7.9,4.08-1.52.64-2.36-.56-3.41-1.25-.05-.2-.14-.37-.36-.42-.54-1.84-1.22-3.62-2.39-5.16,0,0,.02-.04.02-.04.1-.14.08-.28-.05-.39-.12-.35-.24-.71-.37-1.06-.67-1.01-.9-2.27-1.79-3.15.08-.39-.05-.58-.46-.49-.06-.17-.13-.34-.19-.51.28-.15.42-.41.28-.71-.16-.37-.46-.22-.72-.12-.22-.28-.46-.42-.76-.14-.66-.57-1.27-.06-1.91.04-.05-.13-.11-.27-.16-.4,0,0,0-.01,0-.01.12-.24.09-.48,0-.72-.44-1.09-.32-1.87.76-2.56,1.07-.68,1.12-1.84.1-3.37-1.35-2.01-2.5-4.17-4.14-5.98-.52-.57-.87-1.19-1.02-1.94-.2-.99.34-1.9,1.29-2.11,3.32-.73,6.38-2.05,9.26-3.84.42-.26.77-.55,1.04-.96.8-1.25,1.94-1.98,3.37-2.27.05.06.12.1.19.12.49.47,1.04.89,1.21,1.6,0,.1,0,.2,0,.31Z"/><path class="cls-1" d="m323.77,120.14c-.16.11-.24.27-.24.47-.31.12-.37.41-.46.67-.49.14-.97.29-1.46.43-.39.06-.77.12-1.16.18-.1.03-.21.06-.31.09-.17.04-.34.07-.51.11-.76.06-1.52.09-2.28.18-.96.11-1.96.15-2.53,1.14-.03.05-.05.1-.08.15-.08.11-.03.18.08.23.05.03.1.04.16.03.02.1.04.2.06.3-.05.06-.11.12-.16.17-.19.11-.24.23-.02.37.05.03.11.06.16.09.41,1.41.41,2.88.65,4.31.09.51.29.67.79.59,2.66-.44,5.42-.48,7.94-1.42,1.37-.51,2.9-.72,4.13-1.74.8-.66,1.94-.48,2.93-.25.5.11.73,1.06.48,1.78-.15.42-.38.81-.57,1.21-.04,0-.07.01-.09.04-.34.25-.67.51-1.01.76-.08-.01-.16-.02-.24-.03-.95-.44-1.85-.51-2.65.31-.21.04-.43.08-.64.12-.39-.09-.77-.12-1.14.09-.24.08-.48.16-.72.24-1.29.2-2.56.5-3.83.81-1.27.31-2.66.33-3.99.54-.37.06-.71.14-.96.46-.17.1-.2.25-.16.43,0,.76-.36,1.58.38,2.21-.02.14-.05.29-.07.43,0,.13.05.2.17.24-.24.23-.41.46.02.67-.03.05-.02.1.02.14-.14.24-.17.48.02.71,0,.07-.02.15-.02.22-.17.17-.21.36-.07.56.01.1.03.2.04.3l-.02.03c-.12.11-.1.22.01.32.04.05.07.1.11.15.03,1.36.65,1.74,2.05,1.44,1.46-.31,2.87-.84,4.38-.88.19,0,.42-.01.58-.1,1.14-.66,2.38-.76,3.66-.67h.01c.05.28-.01.58.25.78l.04.03c0,.18.01.37.02.55-.02.05-.04.1-.05.15-.21.11-.3.28-.3.5-.96.75-2.05,1.09-3.25,1.11-.21,0-.42.15-.63.23-.1,0-.21.02-.31.02-.18.03-.35.07-.53.1-2.01.72-4.11.86-6.21,1.07-1.16.11-1.47-.84-2.03-1.5,0-.14-.01-.27-.15-.35.03-1.31-.05-2.6-.5-3.84,0,0,.02-.02.02-.02.1-.07.11-.16.05-.27,0-.26-.01-.51-.02-.77-.24-.79-.12-1.66-.53-2.41.14-.24.09-.39-.2-.41,0-.12-.01-.25-.02-.37.22-.04.37-.18.34-.4-.03-.27-.26-.23-.46-.22-.09-.22-.22-.37-.48-.24-.32-.51-.85-.3-1.29-.36,0-.1-.01-.2-.02-.29,0,0,0,0,0,0,.13-.13.16-.3.15-.47-.06-.8.18-1.28,1.06-1.51.87-.23,1.16-.97.79-2.18-.48-1.58-.79-3.22-1.51-4.73-.23-.47-.33-.95-.27-1.47.08-.69.64-1.17,1.33-1.11,2.4.19,4.75-.05,7.08-.64.34-.08.64-.2.91-.42.81-.65,1.74-.9,2.76-.8.02.05.06.09.1.12.23.4.51.79.47,1.29-.02.07-.04.13-.07.2Z"/><path class="cls-1" d="m91.33,56.21c.69-.49,1.24-1.18,2.21-1.21,1.19-.04,2.04.58,2.78,1.36.96,1.02,1.92,2.01,3.22,2.61.11.05.25.18.26.29.14,1.07,1.04,1.58,1.76,2.02,1.21.74,2.03,1.88,3.14,2.7.28.21.49.59.9.34.44-.26.31-.7.18-1.06-.35-1.01-.72-2.02-.86-3.1-.2-1.52-.98-2.89-1.39-4.32-.69-2.39-1.94-4.51-2.72-6.84-.35-1.04-.05-1.77.95-2.3,1.03-.54,1.53.06,1.99.81.2.33.37.7.49,1.07.57,1.89,1.3,3.71,2.36,5.39.52.83.36,1.81.6,2.7.11.41.22.75.61.93.03.11.06.22.1.33.14,1.09.52,2.14.46,3.26-.02.39.29.63.54.88-.01.06-.01.13,0,.19-.21.46.1.82.21,1.22.41,1.39.97,2.73,1.33,4.16.3,1.19-.44,1.63-1.09,2.13-.75.58-1.61.52-2.32-.19-.41-.41-.9-.68-1.4-.93-.06-.05-.11-.09-.17-.14-1.05-1.41-2.69-2.15-3.86-3.42-.03-.03-.07-.05-.11-.04-.41-.9-1.4-.97-2.11-1.43l.02-.07c-.54-1.48-1.67-2.38-3.02-3.05-.36-.18-.51.02-.55.38-.05.42.05.77.35,1.06.07.21.13.42.2.63.05.04.1.08.15.12-.12.78.54,1.26.73,1.91.48,1.28,1.29,2.37,2.1,3.46.08.12.17.24.25.36.05.3.13.59.39.78.05.14.1.28.15.42-.02.19.09.3.25.37.05.13.11.26.16.39-.01.3.11.55.28.79.03.09.06.18.1.27.01.06.05.1.1.13.05.2.1.4.15.6-.42.2-.48.64-.67,1-.26.18-.51.36-.77.54-.57.14-1.06-.17-1.58-.31l-.08-.02c-.6-1.23-.89-2.61-1.85-3.66-.3-.32-.42-.72-.6-1.11-.87-1.92-1.57-3.93-2.78-5.68,0,0,0-.03,0-.03-.24-1.06-.45-2.13-.73-3.18-.3-1.08-.08-2.32-.91-3.25.02-.09.03-.18.05-.27Z"/><path class="cls-1" d="m56.05,14.76c.63-.76,1.04-1.7,2.12-2.03,1.32-.4,2.47.04,3.54.7,1.39.85,2.77,1.69,4.41,1.97.14.02.34.13.38.25.48,1.16,1.65,1.47,2.6,1.75,1.59.47,2.85,1.51,4.35,2.1.38.15.73.51,1.12.11.42-.43.13-.88-.12-1.25-.7-1.04-1.42-2.05-1.9-3.23-.69-1.66-1.97-2.96-2.87-4.44-1.5-2.48-3.54-4.49-5.12-6.88-.7-1.06-.59-1.98.38-2.87.99-.92,1.74-.39,2.48.31.33.32.63.68.87,1.06,1.22,1.96,2.59,3.79,4.28,5.36.83.78.95,1.93,1.49,2.86.24.43.47.77.97.87.07.12.14.23.21.35.48,1.18,1.23,2.25,1.5,3.53.09.44.51.63.88.83,0,.07.03.15.06.21-.1.58.35.89.61,1.31.89,1.44,1.92,2.78,2.75,4.28.7,1.25,0,1.97-.58,2.72-.67.88-1.65,1.08-2.67.48-.58-.34-1.21-.49-1.86-.63-.08-.03-.16-.07-.23-.1-1.61-1.27-3.67-1.61-5.37-2.69-.04-.03-.09-.03-.14-.02-.74-.89-1.86-.67-2.81-.98v-.08c-1.05-1.5-2.59-2.17-4.31-2.52-.46-.09-.56.17-.5.59.07.48.29.85.72,1.09.14.21.28.43.41.64.07.03.14.06.2.1.1.91.99,1.25,1.4,1.93.93,1.3,2.17,2.28,3.41,3.26.13.11.26.22.39.33.15.32.32.62.67.76.1.14.2.28.29.42.04.22.19.31.39.34.1.13.2.26.3.39.08.34.29.59.55.8.06.09.13.18.19.27.03.06.08.1.15.11.12.21.23.42.35.63-.42.35-.34.87-.45,1.33-.23.28-.47.56-.7.84-.6.32-1.24.13-1.87.13h-.09c-1.04-1.21-1.79-2.68-3.18-3.57-.43-.27-.69-.69-1.01-1.07-1.56-1.9-2.95-3.95-4.84-5.56,0,0,0-.03,0-.03-.59-1.12-1.14-2.26-1.78-3.35-.66-1.13-.78-2.59-2-3.39,0-.11-.02-.21-.02-.32Z"/><path class="cls-1" d="m98.73,108.21c-.13.59.14,1.07.42,1.56-.04.46.08.86.46,1.15,0,.14,0,.28.01.42.19.34.38.68.57,1.02-.13.26-.27.52-.4.77-.16.03-.31.07-.47.1-1.4.3-1.64.18-2.51-.99-.27-.37-.55-.79-1.03-.96,0,0-.03-.02-.03-.02-.26-.89-.34-1.87-1.18-2.49-.02-.06-.06-.11-.11-.15-.22-.32-.37-.7-.79-.83-.04-.05-.08-.11-.13-.16.07-.89-.52-1.37-1.15-1.84-.06-.02-.13-.03-.19-.05-.93-.65-1.07-1.49-.61-2.49.06-.05.12-.09.18-.14.93-.62,1.68-.53,2.28.42.65,1.02,1.5,1.93,1.77,3.17.05.22.18.43.47.37.22-.04.32-.21.34-.42.04-.35.14-.72.07-1.05-.25-1.28-.55-2.56-.83-3.84.06-.16.11-.33.17-.49.07-.82-.09-1.62-.17-2.43,0,0,.03-.03.03-.03.36-.34.77-.65.87-1.19.06,0,.12,0,.17-.02.78-.37,1.49-.17,2.18.26-.04.05-.04.1,0,.16-.12.23-.07.44.06.65-.02.11-.03.23-.05.34-1.3.61-1.61,1.61-1.35,2.98.38,2.05.64,4.13.96,6.2Z"/><path class="cls-1" d="m265.52,110.47c-1.46.97-1.88,2.52-2.28,4.08-1.01.88-1.57,1.95-1.38,3.33-.27.3-.55.6-.82.9-.29,1.09-.58,2.18-.87,3.27-.8.27-1.6.53-2.4.8-.39-.25-.78-.49-1.17-.74-3.53-2.21-3.78-2.95-3.24-7.14.17-1.31.46-2.75-.19-4.08,0,0-.03-.11-.03-.11,1.28-2.38,3.08-4.58,2.57-7.56.07-.17.1-.35.08-.53.19-1.11.65-2.21.02-3.33.02-.2.04-.39.06-.59,1.95-1.72,1.69-3.92,1.33-6.15-.1-.17-.2-.33-.3-.49-.63-3.24.8-5.27,3.75-6.41.21.02.43.04.65.07,3.2.58,4.56,2.3,3.91,5.48-.7,3.44-.8,7.05-2.72,10.18-.35.56-.49,1.27.23,1.74.53.35,1.09.2,1.55-.18.78-.65,1.73-1.21,2.27-2.03,2.08-3.18,4.03-6.45,6.02-9.68.45-.23.89-.46,1.34-.69,1.79-1.57,3.09-3.55,4.56-5.4,0,0,.13,0,.13,0,1.45.02,2.93.19,4.22-.72.12.12.25.23.4.31,2.36.81,3.45,2.66,4.01,4.94-.18.03-.29.14-.32.32-.73.23-1.04.79-1.19,1.48-.27.21-.53.41-.8.62-3.93-1.35-6.61.11-8.85,3.47-3.36,5.05-7.02,9.9-10.55,14.84Z"/><path class="cls-1" d="m78.93,113.67c-1.17.06-1.95-.75-2.86-1.26-.29-.16-.34-.52-.24-.82.14-.44.51-.68.94-.78.33-.07.57.13.69.41.17.37.49.57.77.82.12.1.28.19.46.18,1.07-.03,2.06-.26,2.87-1.04.28-.27.24-.6.17-.84-.19-.63-.35-1.29-.75-1.84-.17-.23-.29-.49-.65-.51-.2-.01-.29-.25-.44-.38-.04-.11-.12-.15-.23-.15-.24-.34-.58-.5-.98-.57-.02-.02-.05-.05-.07-.07-.06,0-.11,0-.17-.01h-.04c-.22-.3-.6-.27-.89-.44-.03,0-.07.01-.1.02-.04.01-.09.02-.13.04h0c-.44-.31-1.58-.31-2.04,0h0c-.17-.18-.36-.13-.56-.07-.18-.21-.47-.24-.69-.39-.08-.15-.15-.29-.32-.36-.23-.09-.38-.28-.5-.5-.15-.27-.35-.52-.57-.76-.44-.46-.39-1.12-.59-1.68-.22-.62.19-.76.57-.97.96-.54,2.04-.73,3.07-1.06.04-.01.1,0,.13-.02.88-.67,1.83-.19,2.73-.13.37.02.74.38,1.14.52.21.07.4.17.6,0h.01c.11.61.27,1.18.98,1.35.12.03.26.1.22.25-.09.34-.03.69-.05,1.03-.02.36-.3.46-.55.6-.21-.13-.36-.03-.51.12-.41-.31-.6-.79-.88-1.2-.44-.63-1.01-1.17-1.87-1.2-.22-.11-.36.08-.54.13-.07-.06-.14-.1-.23-.08-.02-.02-.05-.04-.07-.06-.06-.05-.12-.06-.19-.03-.26.06-.4.34-.68.35-.1-.11-.22-.15-.36-.08-.32.14-.64.29-.96.43-.19-.01-.31.08-.37.26h0c-.19.11-.39.21-.46.43l-.02.03c.17.84,1.26,1.66,2.12,1.6.49-.03.97,0,1.47-.14.37-.1.83.16,1.25.24.3.06.58.02.81.35.21.29.62.5,1.03.46.23-.02.13.19.25.26.89.52,1.64,1.2,2.26,2.02.11.14.28.31.06.56-.22.26.03.53.19.72.14.18.25.38.35.58-.11.11-.17.23-.01.35.01.59-.14,1.15-.37,1.68,0,0,0,0,0,0,0,.05-.01.09-.02.14-.07.16-.1.38-.31.41-.26.04-.36.25-.53.39-.46-.03-.81.28-1.23.37-.15.08-.3.16-.45.23-.24-.12-.42-.06-.52.2-.28-.24-.51.06-.77.06-.03-.03-.05-.07-.08-.1-.08-.12-.19-.11-.31-.08Z"/><path class="cls-1" d="m59.74,34.86c-.3.23-.29.58-.41.89-.61.27-.86.92-1.34,1.33-.14.2-.28.41-.42.62-.4,0-.58.21-.54.62-.53-.14-.62.42-.95.6-.05-.03-.11-.06-.17-.08-.18-.11-.32-.03-.45.1-1.47.87-3.06.28-4.6.2-.5-.03-.81-.49-.9-.96-.13-.69.18-1.27.68-1.69.37-.33.82-.21,1.19.09.47.39,1.04.45,1.58.6.22.06.49.07.72-.06,1.38-.76,2.5-1.74,3-3.35.17-.57-.11-.97-.38-1.26-.08-.09-.16-.17-.24-.26-.05.02-.09.05-.13.07-.14-.19-.22-.43-.48-.51-.06-.09-.12-.18-.18-.26-.02-.07-.05-.14-.09-.2h-.01c-.11-.11-.22-.21-.34-.3-.02-.02-.04-.04-.06-.06-.04-.06-.08-.12-.13-.17-.14-.18-.29-.37-.44-.55-.02-.04-.04-.09-.07-.14-.04-.5-.34-.72-.81-.76.05-.13.02-.25-.08-.36-.41-.9-1.32-1.38-1.82-2.21-.02-.03-.13,0-.2,0-.17-.22-.06-.57-.35-.74-.03-.04-.06-.08-.1-.12-.1-.1-.2-.21-.29-.31-1.03-1.6-2.19-3.11-3.46-4.52-.29-.32-.66-.58-1.07-.76-.58-.27-.99-.7-1.17-1.32-.14-.47.16-1.13.58-1.28.57-.22,1.02.02,1.35.48.76,1.06,1.45,2.16,2.55,2.94.55.39.98,1,1.32,1.59.36.61.77,1.2,1.32,1.57.78.53,1.15,1.41,1.84,1.96,1.06.86,1.69,2.07,2.69,2.96.26.24.41.57.77.75.19.09.31.21.39.34.28.14.53.32.78.51-.06.23-.06.43.24.48.43.8.63,1.66.7,2.55h.02c.02.07.05.14.07.21.03.27.14.58-.11.77Z"/><path class="cls-1" d="m96.18,36.67c-.19,1.63-.78,3.1-1.6,4.48,0,.01.02.03.02.03-.03.13-.06.25-.1.37-.24.43-.4,1.01-.95,1.03-.69.02-1.04.56-1.53.89-1.18-.24-2.22.46-3.35.56-.43.16-.85.32-1.27.48-.59-.4-1.07-.3-1.43.36-.64-.75-1.35-.02-2.03-.1-.05-.1-.1-.2-.16-.3-.16-.35-.45-.37-.77-.32-3.07-.24-4.81-2.75-6.99-4.47-.7-.55-.68-1.55-.33-2.33.53-1.16,1.58-1.69,2.75-1.81.88-.08,1.43.56,1.65,1.38.3,1.07,1.08,1.74,1.72,2.52.26.32.65.61,1.13.66,2.81.31,5.47.02,7.88-1.83.84-.65.85-1.55.75-2.25-.03-.21-.06-.43-.09-.64-.09,0-.18-.02-.27-.03,0-.42.13-.86-.17-1.24.01-.19.01-.38.02-.57.03-.11.06-.22.07-.33-.07-.3-.14-.6-.22-.89,0-.01,0-.03,0-.04-.01-.03-.02-.07-.03-.1h.02c0-.13-.01-.25-.01-.37-.03-.42-.06-.84-.08-1.26.01-.09.02-.19.04-.28.45-.78.24-1.41-.41-1.96.22-.15.29-.36.25-.62.33-1.74-.51-3.4-.4-5.13.01-.07-.18-.15-.28-.22-.02-.5.5-.91.25-1.45,0-.09-.01-.19-.02-.28-.04-.25-.08-.51-.13-.76.15-3.42.01-6.84-.4-10.25-.09-.77-.38-1.53-.79-2.23-.58-.99-.73-2.05-.36-3.15.27-.83,1.4-1.49,2.19-1.29,1.05.28,1.47,1.09,1.48,2.12.03,2.33-.1,4.68.72,6.98.4,1.13.41,2.47.3,3.7-.11,1.27-.11,2.55.32,3.69.59,1.58.23,3.25.67,4.79.67,2.35.36,4.79.9,7.15.15.62.02,1.26.37,1.89.18.33.24.63.22.91.26.5.45,1.02.62,1.55-.32.28-.53.57-.16.96Z"/><path class="cls-1" d="m114.05,40.52c-1.5.85-3.03.92-4.61.24-.04-.09-.1-.15-.19-.18-.08,0-.16-.02-.25-.03-.27.03-.53.05-.8.08-.16-.18-.36-.24-.6-.17-.96.15-1.96-.79-2.88.12-.04-.34.06-.73-.31-.96-.05-.41-.33-.54-.69-.58-.07-.45-.31-.75-.75-.9-.15-.07-.29-.15-.44-.22-1.13-1.36-.88-3.18-1.6-4.68-1.1-2.31-1.07-4.84-1.26-7.32.02-.1.05-.21.07-.31.28-3.56.77-7.1,1.3-10.64.27-1.79.98-2.73,2.48-2.81,1.36-.07,2.21.77,2.6,2.56-.08.08-.15.15-.23.23-.11.35-.23.69-.34,1.04-.07.03-.12.06-.17.12-.6.45-.24.84.08,1.23-.4.15-.75.33-.29.8-.3,2.12-.31,4.25-.79,6.38-.52,2.28-.03,4.71.5,7.01.43,1.88.93,3.86,3.33,4.27.82.14,1.66.37,2.47.33.69-.03,1.46-.18,1.91-.93,1.15-1.92,1.67-4.07,2.35-6.17.48-1.5.11-3.03.38-4.55.37-2.12.1-4.32-.2-6.48.03-.19.06-.37.09-.56-.04-.26-.08-.53-.12-.79-.03-.21-.05-.41-.08-.62.09-1.1.51-2.14.32-3.3-.12-.75,2.5-2.46,3.3-2.33,1.09.18,1.67,1.3,1.61,2.87-.2,4.95-.36,9.9-.54,14.85-.92.36-.21,1.13-.42,1.7-.71,1.92-.75,4.03-1.6,5.92-.11.25-.21.5-.32.75-.12.07-.25.15-.37.22-.24.76-.95,1.35-.84,2.24-.49.12-.91.31-.83.94-.05.11-.1.23-.15.34-.42-.1-.78.04-1.12.27Z"/><path class="cls-1" d="m215.51,78.76c-.2-.4.16-.97-.38-1.27-.12-.1-.24-.19-.36-.28.39-.56.37-1.21.43-1.85.06-.06.13-.12.19-.18,1.15-.75,2.31-.85,3.63-.33.87.35,1.88.5,2.82.48,1.7-.03,3.31.37,4.94.71,3.21.68,6.44,1.31,9.64,2.02,2.43.54,4.89,1.02,6.99,2.52-.23.37-.42.75-.18,1.19-.44.87-.89,1.73-1.33,2.6,0,0-.09.04-.09.04-.32-.04-.62-.03-.78.32-.16-.03-.31-.07-.47-.1-.07-.53.25-.84.63-1.11,0,0,0,.01,0,.01-.78-.02-1.62.15-2.33-.09-2.03-.67-4.14-.69-6.21-1.06-1.25-.17-2.46-.61-3.75-.46-.33-.15-.66-.3-.99-.44-.88-.83-1.97-.79-3.07-.73-1.41.21-1.78,1.06-1.64,2.39.12,1.15-.21,2.31-.58,3.38-.31.88-.41,1.78-.65,2.65-.71,2.65-1.05,5.41-.94,8.07.1,2.35-.5,4.47-.88,6.67-.21,1.18-1.08,2.2-1.03,3.49-.65.09-1.29.17-1.94.26,0,0-.03-.06-.03-.06v.06c-.4.01-.78.02-1.17.03,0-.83-1.06-1.45-.44-2.39.04-.09.08-.19.12-.28.13-1.13.47-2.2.9-3.25.13-.31.31-.66.26-.96-.3-1.94.47-3.79.43-5.69-.05-2.45.4-4.81.95-7.17.09-.36.25-.72.11-1.1.1-.3.2-.61.31-.91.72-.86.94-1.72.06-2.62.07-.17.14-.35.2-.52.2-.36.42-.71.58-1.08.67-1.49.58-1.66-1.03-2.08l-.55-.1c-.56-.44-1.2-.67-1.92-.61-.15-.06-.3-.13-.44-.19Z"/><path class="cls-1" d="m353.84,115.82c-.25-.52.21-1.26-.5-1.65-.15-.12-.31-.25-.46-.37.51-.72.47-1.57.55-2.4.08-.08.17-.15.25-.23,1.5-.97,3-1.1,4.71-.42,1.13.45,2.44.65,3.66.63,2.21-.04,4.29.48,6.41.93,4.17.88,8.36,1.7,12.52,2.62,3.16.7,6.36,1.32,9.07,3.27-.3.48-.55.97-.23,1.54-.58,1.13-1.15,2.25-1.73,3.38,0,0-.12.05-.12.05-.42-.05-.81-.04-1.02.42-.2-.04-.4-.09-.61-.13-.1-.69.32-1.09.81-1.44,0,0,0,.01,0,.01-1.01-.02-2.11.19-3.03-.11-2.63-.87-5.38-.9-8.06-1.38-1.62-.22-3.2-.8-4.88-.6-.43-.19-.86-.38-1.29-.58-1.15-1.08-2.56-1.03-3.98-.95-1.83.27-2.31,1.37-2.13,3.11.15,1.5-.27,3-.75,4.39-.4,1.14-.54,2.31-.84,3.45-.92,3.44-1.37,7.03-1.22,10.48.13,3.05-.65,5.81-1.15,8.67-.27,1.53-1.41,2.86-1.34,4.53-.84.11-1.68.23-2.52.34,0,0-.04-.07-.04-.07l-.02.08c-.5.01-1,.03-1.5.04.01-1.07-1.37-1.89-.58-3.1.05-.12.11-.24.16-.36.17-1.47.61-2.86,1.17-4.22.16-.4.4-.85.34-1.24-.38-2.52.61-4.92.56-7.39-.06-3.18.52-6.25,1.24-9.32.11-.47.33-.93.15-1.43.13-.39.27-.79.4-1.18.93-1.11,1.22-2.24.08-3.4.09-.23.18-.45.27-.68.25-.47.54-.92.76-1.4.87-1.93.75-2.16-1.34-2.7l-.72-.13c-.73-.57-1.55-.87-2.49-.79-.19-.08-.38-.16-.58-.24Z"/><path class="cls-1" d="m331.05,116.97c-.34.22-.66.46-.62.94-.73.56-1.45,1.12-2.18,1.68h-.09c-.26-.16-.52-.28-.8-.04-.12-.09-.24-.18-.36-.27.15-.48.54-.62.97-.7-.66-.31-1.43-.51-1.94-.99-1.46-1.39-3.26-2.25-4.87-3.39-.74-.48-1.4-1.07-2.16-1.5-.05.04-.11.08-.16.12h-.09c-.26-.17-.52-.29-.8-.06-.12-.09-.24-.18-.35-.27.07-.21.18-.35.32-.45-.15-.17-.29-.35-.44-.52-.04-.1-.08-.19-.13-.27-.26-.13-.5-.28-.7-.47-.35-.34-.72-.65-1.11-.95-.13-.05-.26-.1-.39-.15-1.28-.39-1.93.18-2.35,1.38-.36,1.03-1.1,1.89-1.85,2.65-.61.63-1.06,1.35-1.61,2-1.67,1.98-3.07,4.19-4.04,6.51-.85,2.04-2.21,3.61-3.42,5.33-.65.93-1.8,1.45-2.27,2.56-.59-.18-1.17-.36-1.76-.55v-.06l-.04.05c-.33-.15-.66-.29-.99-.44.33-.7-.32-1.66.57-2.21.08-.07.15-.13.22-.19.56-.91,1.28-1.69,2.07-2.41.23-.21.52-.44.6-.71.52-1.77,1.92-3.04,2.65-4.68.93-2.11,2.26-3.95,3.68-5.73.22-.28.5-.52.54-.9.2-.22.41-.43.62-.65.95-.45,1.49-1.1,1.1-2.21.13-.12.26-.24.38-.36.31-.23.64-.44.93-.69,1.17-1,1.16-1.19-.04-2.18-.15-.11-.29-.21-.44-.31-.02-.05-.05-.09-.09-.14-.24-.15-.49-.27-.76-.36-.22-.27-.44-.53-.66-.79-.04-.1-.08-.19-.13-.28-.01-.02-.03-.04-.05-.06v-.04c-.46-.8-1.28-1.15-2.11-1.5-.37-.12-.69-.15-.97-.12-.98-.83-2.03-1.58-3.11-2.26.05-.33-.24-.64-.89-1.19-.14-.1-.28-.21-.43-.31-.29-.61-.73-1.06-1.37-1.31-.1-.11-.2-.23-.3-.34,0-.43.54-.76.2-1.24l-.18-.39c.56-.31.81-.87,1.12-1.38.08-.02.16-.05.24-.07,1.28-.16,2.3.23,3.2,1.22.6.65,1.38,1.2,2.19,1.57,1.44.68,2.64,1.68,3.88,2.65,2.06,1.61,4.14,3.18,6.2,4.8,1.07.6,2.03,1.36,3.01,2.11,2.46,1.87,4.96,3.69,7.41,5.58,1.86,1.43,3.77,2.82,4.95,4.94Z"/><path class="cls-1" d="m124.46,80.94c-.07,3.13,1.37,5.42,3.74,7.36,2.37,1.94,5.04,2.56,7.98,2.6,2.1.03,2.65.76,2.41,2.93h-.03c-.67.01-.55.52-.6.93-2.49,1.1-4.68-.31-6.98-.86-1.29-1.2-3.2-1.18-4.51-2.32-.15-.2-.3-.39-.45-.59-.07-.15-.19-.2-.35-.14-.13-.04-.25-.08-.38-.12-.55-.63-1.1-1.26-1.64-1.88-.03-.07-.09-.12-.16-.15-.39-.56-.78-1.11-1.18-1.67-.02-.05-.06-.09-.11-.12-.6-1.14-1.19-2.29-1.79-3.43-.07-.13-.13-.27-.2-.4.17-.5.45-1-.1-1.44,0,0-.07-.07-.07-.07.36-.84.51-1.7.2-2.59.02-.08.02-.16,0-.24.27-1.5.57-3,.62-4.53-.05-.25-.1-.5-.15-.76,1.19-1.06,1.35-2.62,1.75-3.99.43-1.47.8-3.12,1.56-4.28,1.05-1.6,2.4-3.27,4.43-3.93,1.78-.58,3.38-.1,5.07.63,3.97,1.71,6.71,4.94,9.94,7.57.66.53,1.02,1.27.75,2.12-.33,1.04-1.25,1.14-2.17,1.18-.27-.12-.54-.24-.8-.36-.41-.54-.94-.94-1.57-1.19-.06-.48-.27-.83-.79-.9-.21-.11-.42-.21-.63-.32-.16-.03-.32-.06-.49-.09-.42-.84-1.27-1.19-1.97-1.71-.21-.25-.37-.58-.63-.72-1.2-.62-2.51-.96-3.74-1.54-.53-.25-1.48-.3-2.09.25-1.35,1.21-2.21,2.75-2.88,4.42-.53,1.33-1.13,2.63-1.7,3.95.16,1.06.08,2.05-.37,3.09-.43,1-.18,2.17.02,3.27l.02.05Z"/><path class="cls-1" d="m165.19,33.68c-.4,0-.8.07-1.12.34-.14.13-.28.26-.43.39,0,0-.06.06-.06.06-1.91-.17-3.82-.29-5.67.41-.38.03-.76.07-1.13.1-1.42.52-2.87.36-4.32.26-.29-.38-.7-.53-1.15-.61-.18-.76-.73-1.25-1.28-1.74-.06-.8-.5-1.46-.78-2.17-.04-.38-.02-.78-.13-1.15-.52-1.76-.19-3.82-1.81-5.19-.01-.11-.02-.21-.04-.32.13-.94.41-1.89-.03-2.82.02-.12.03-.24.05-.35-.39-.96-.11-2.15-1-2.93l-.06-.04-.12-.86c.01-.46-.15-.84-.45-1.18-.02-.2-.05-.4-.07-.61.25-.99.27-1.98.1-2.98-.53-2.2.47-4.59-.84-6.7-.13-.2.05-.67.2-.96.53-1.01,1.1-2,2.49-1.88,1.39.12,2.44,1.14,2.87,2.46.33,1.01.13,2.01.22,3.01,0,.14.02.28.03.43-.02.71.12,1.39.49,2.01,0,.26-.02.52-.03.77-.02.23-.03.46-.05.7l-.1.07c-.44.84-.4,1.68.02,2.51-.32.31-.41.62.01.92,1.01,4.44,1.17,9.09,3.27,13.28.66,1.31,1.54,1.93,3.18,1.41,2.31-.73,4.48-.4,6.75.11,1.12.25,1.77.69,1.92,1.81-.06.27-.12.54-.18.81,0,0,0,.05,0,.05-.14.09-.28.18-.41.28-.11.1-.23.2-.34.3Z"/><path class="cls-1" d="m130.26,14.34c-.21.69-.3,1.39-.18,2.11-.06.2-.12.4-.19.61l-.06.11.08.09c.02.05.05.09.11.11-.19.71-.09,1.42-.06,2.13-.22.7-.36,1.39.37,1.91l.02.07c-.33.49-.39,1.04-.35,1.62-.48.62.22.54.44.74-.01.19-.03.38-.04.57-.39.31-.52.62,0,.93.03.11.06.22.1.33-.62.72-.6,1.53-.32,2.37.01.14.03.28.04.42-.25.26-.39.55-.22.92-.02.25-.05.49-.07.74-1.04.41.21,1.29-.37,1.8.06.35.13.71.19,1.06-.23.14-.27.35-.19.59.79,1.12,1.78,1.19,2.64.18.21-.07.41-.14.62-.21.68-.06,1.38-.08,2.05-.2.71-.12,1.5-.22,1.59-1.21.64.23,1.27.5,1.98.3.83.13,1.56-.24,2.27-.52,1.35-.54,2.61-.43,3.86.27.05.06.1.1.17.13.13.63.12,1.26-.03,1.89-.5.18-.86.48-.92,1.04-.26.05-.52.1-.78.15-.9.21-1.84.24-2.69.64-1.33.02-2.64.16-3.82.85,0,0,0,.01,0,.01-.12-.01-.24-.02-.37-.03-1.18.13-2.4.11-3.46.79-.59-.15-1.15.11-1.73.14-1.15.19-2.33.28-3.44.6-.61.18-1.06.01-1.56-.17-.35-.44-.85-.58-1.36-.69-.14-.21-.27-.42-.41-.62.04-.71.42-1.38.29-2.11-.04-.22-.08-.44-.12-.66.17-.61.38-1.21.14-1.85,0,0,.05-.06.05-.06.82-.92,1.22-1.95.83-3.18,0-.17,0-.34,0-.52.83-2.19.88-4.48.74-6.75-.19-2.89.23-5.77-.02-8.65-.2-2.3.17-4.67-.99-6.82-.06-.12-.07-.27-.1-.41-.54-2.71.69-3.82,3.31-2.99.19.04.39.08.58.12,1.42.86,1.36,2.01.92,3.46-.56,1.85-.49,3.8-.06,5.71.07.3.22.5.5.63,0,0,.02,0,.02,0,0,.25,0,.51.01.76-.18.24-.18.48-.01.73Z"/><path class="cls-1" d="m67.47,101.02c.08.19.12.42.36.49,0,0,.03.02.03.02.2.38.48.69.8.96,0,0,.01.01.01.01.04.1.09.2.13.3-.04.34.15.42.44.38.03.1.06.19.1.29,0,.09,0,.19,0,.28-.02.25.11.4.35.47,0,.03.02.04.05.05-.03.25-.16.54.26.6h.02c-.1.42.08.63.47.68-.28.1-.36.25-.12.48-.06.13.03.2.11.27.02.08.04.15.05.23.27.66.36,1.36.76,2,.63,1.02,1.11,2.13,1.65,3.21.09.18.2.36.27.55.16.44.27.9.63,1.24l-.19.89s-.03.03-.03.05c-.36.2-.74-.12-1.1.03-.1-.06-.2-.11-.3-.17.03-.1.04-.2-.03-.29.03-.4-.34-.64-.41-.98-.22-1-.75-1.86-1.15-2.77-.04-.02-.09-.04-.13-.06-.15-.58-.03-1.27-.65-1.66-.08-.08-.17-.23-.23-.22-.66.17-1.44-.07-1.98.53-.12.13-.26.09-.41.1-.66.06-1.34-.04-1.97.27-.23.29-.25.66-.35,1.01-.24,1.55-.83,3.04-.82,4.64,0,.17.01.33.02.5,0,.05-.02.1-.03.15-.17.32-.35.64-.52.96-.25-.08-.49-.08-.73.05-.26-.15-.26-.61-.69-.55-.09-.68.06-1.31.34-1.94.18-.39.02-.95.22-1.3.34-.58.25-1.18.35-1.77l.03-.04c.11-.3.08-.62.23-.92.14-.29-.03-.54-.26-.67-.49-.26-.45-.72-.44-1.12.02-.41.38-.52.76-.62.72-.19.8-.87.87-1.44.09-.69.2-1.36.48-1.99,0,0,0,0,0,0,.11-.06.26-.12.09-.28,0,0-.02-.03-.02-.03.18-.79.3-1.6.54-2.37.24-.78,1.02-1.01,1.75-.61.12.05.23.1.35.15Zm.49,3.45h-.02c-.02-.31-.18-.5-.44-.67-.16-.1-.13-.49-.45-.37-.28.1-.55.31-.59.63-.11.91-.45,1.77-.63,2.66-.08.41.04.55.38.53.71-.04,1.42-.08,2.11-.21.4-.08.77-.45.6-.86-.25-.6-.36-1.31-.97-1.71Z"/><path class="cls-1" d="m206.34,74.98c.04.4-.02.84.39,1.11,0,0,.05.05.05.05.14.81.48,1.54.93,2.22,0,0,.02.03.02.03.02.21.05.42.07.63-.27.6.03.86.59.96,0,.2,0,.39,0,.59-.06.17-.12.34-.18.51-.17.45-.02.8.36,1.06,0,.05.01.09.06.12-.19.44-.6.91.14,1.24l.03.04c-.41.68-.22,1.17.48,1.5-.57.02-.8.25-.5.8-.19.21-.06.39.05.57-.01.15-.02.3-.03.45.12,1.37-.12,2.71.25,4.12.58,2.23.81,4.56,1.19,6.85.06.39.17.77.19,1.16.04.9-.03,1.81.44,2.64l-.85,1.52s-.07.03-.08.08c-.78.16-1.29-.64-2.04-.58-.15-.16-.3-.32-.45-.48.11-.17.19-.35.11-.56.29-.72-.26-1.38-.2-2.04.18-1.96-.31-3.84-.52-5.76-.07-.06-.13-.13-.2-.19.06-1.15.67-2.35-.24-3.43-.1-.19-.18-.53-.29-.53-1.31-.08-2.6-.96-3.94-.18-.3.18-.54.01-.81-.04-1.25-.26-2.44-.84-3.77-.65-.6.41-.85,1.07-1.22,1.65-1.34,2.72-3.29,5.11-4.19,8.05-.09.3-.16.62-.25.92-.04.09-.09.17-.13.26-.5.49-1,.97-1.5,1.46-.41-.29-.86-.43-1.36-.32-.39-.42-.14-1.27-.94-1.41.22-1.31.86-2.37,1.75-3.37.55-.62.58-1.73,1.17-2.27.95-.86,1.14-2.02,1.66-3.04l.09-.06c.38-.48.51-1.1.95-1.56.42-.44.26-1.01-.1-1.38-.75-.76-.42-1.58-.16-2.31.27-.75,1.01-.74,1.75-.7,1.44.07,1.97-1.14,2.44-2.13.57-1.21,1.15-2.37,2.03-3.39,0,0,.01,0,.01,0,.25-.05.54-.07.33-.46,0,0-.02-.06-.01-.06.78-1.35,1.47-2.76,2.36-4.04.9-1.29,2.46-1.27,3.57-.12.18.16.37.32.55.48Zm-1.1,6.62l-.03-.03c.13-.57-.05-1-.42-1.46-.23-.28.04-.97-.6-.95-.58.02-1.19.25-1.45.81-.72,1.62-1.84,2.99-2.69,4.53-.39.7-.25,1.03.4,1.19,1.32.33,2.65.67,4,.83.79.09,1.67-.38,1.59-1.23-.11-1.24.1-2.6-.8-3.69Z"/><path class="cls-1" d="m49.79,106.84c.24,1.28.45,2.56.72,3.83.14.65.37,1.29.56,1.93-.08.31-.02.52.34.54.03.59.37.76.9.67,1.22-.21,2.42-.49,3.65-.6.91-.08,1.79-.22,2.67-.48.59-.17,1.23-.08,1.68.46,0,0,0,0,0,0-.18.28-.13.56.01.83-.4.13-.19.71-.6.82-1.4.31-2.82.2-4.24.17-.28,0-.56-.06-.83.07-.36.39-1.07.18-1.32.76l-.12.12c-.56-.3-.99-.08-1.37.34,0,0-.01,0-.01,0-.58.3-1.19.28-1.81.23-.1-.07-.2-.14-.31-.21-.05-.16-.15-.26-.32-.28-.04-.17-.08-.34-.12-.51-.06-.06-.12-.12-.18-.19-.06-.55.24-1.16-.29-1.62.11-.04.23-.08.2-.22-.05-.23-.28-.17-.43-.22.42-.27.34-.6.12-.95.13-.17.06-.32-.06-.46l-.07-.23c0-.12,0-.25-.01-.37-.03-.21-.08-.41-.28-.53-.05-.06-.1-.11-.14-.17,0-.07-.01-.14-.02-.22.02-.18.05-.35.07-.53,0-.17,0-.34,0-.51-.11-.13-.26-.18-.42-.17.28-.39.07-.77-.04-1.15.11-.09.11-.18.02-.29.08-.35-.02-.69-.11-1.02,0-.07,0-.14,0-.2-.07-.28.11-.61-.18-.84,0-.04-.01-.08-.02-.11-.04-.12-.08-.25-.12-.37.01-.05.02-.11.04-.16.1-.18.13-.36.05-.55.01-.06.02-.12.03-.19.07-.15.09-.31.04-.47l.02-.03c.47-.87,1.32-1.06,2.19-1.23.06,0,.11-.02.17-.02.06.65.3,1.28.23,1.94.13.35-.36.51-.26.84.03.12.07.24.1.36-.14.08-.14.2-.1.34.04.14.09.28.13.42-.18.1-.17.25-.14.42Z"/><path class="cls-1" d="m103.52,111.57c-.07-.05-.15-.1-.22-.15-.06-.1-.09-.25-.18-.29-.97-.44-1.35-1.25-1.33-2.24.01-.7-.34-1.29-.4-1.96-.01-.1-.1-.17-.21-.19,0,0-.02-.02-.02-.02-.02-.03-.05-.05-.07-.08,0-.07,0-.14-.01-.21,0,0,.02-.04.02-.04l-.03-.03s-.03-.04-.03-.04c-.2-1.99-.05-3.89,1.35-5.49,0,0,0-.01,0-.01.33-.13.68-.22,1-.38.57-.28,1.08-.19,1.58.16.15.1.32.18.49.27.01.02.03.03.05.03.43.75.67,1.57,1.01,2.36.02.07.04.15.06.22-.17.31.03.6.11.87.14.48.02,1.01.29,1.46.08.28-.07.58.1.84.06.44.11.88.17,1.32,0,.07,0,.14,0,.2-.1.26-.13.52-.07.79-.05.08-.1.15-.15.23,0,.11-.02.21-.03.32,0,0-.03.02-.03.02-.37.31-.32.83-.57,1.2-.23.28-.46.56-.69.84-.73.24-1.45.06-2.18,0Zm.84-9.55c-.19-.21-.4-.22-.64-.08-.31.14-.51.42-.74.66-.38.38-.6.85-.55,1.42-.21.75-.24,1.49.06,2.22,0,.11,0,.22,0,.32.13.36.26.73.39,1.09l.03.03c.15.32.29.65.63.83.53.27.63.47.3.92-.26.36-.23.62.07.88.28.24.88.15,1.1-.15.21-.29.42-.58.48-.94.25-1.47.39-2.94-.08-4.4-.06-.08-.11-.15-.17-.23h0s-.05-.07-.07-.1c.08-.46.01-.89-.18-1.31-.02-.04-.04-.09-.07-.13-.13-.33-.25-.67-.46-.96-.03-.02-.06-.04-.09-.06Z"/><path class="cls-1" d="m115.2,110.65c-.14,0-.28.02-.4.12-.05.05-.1.09-.15.14,0,0-.02.02-.02.02-.68-.06-1.37-.1-2.03.15-.14.01-.27.02-.41.04-.51.19-1.03.13-1.54.09-.1-.14-.25-.19-.41-.22-.06-.27-.26-.45-.46-.62-.02-.28-.18-.52-.28-.78-.01-.14,0-.28-.05-.41-.18-.63-.07-1.36-.65-1.86,0-.04,0-.08-.01-.11.05-.34.15-.67-.01-1.01,0-.04.01-.08.02-.13-.14-.34-.04-.77-.36-1.05h-.02c-.01-.12-.03-.22-.04-.32,0-.16-.05-.3-.16-.42,0-.07-.02-.14-.03-.22.09-.35.1-.71.04-1.06-.19-.78.17-1.64-.3-2.39-.05-.07.02-.24.07-.34.19-.36.39-.72.89-.67.5.04.87.41,1.03.88.12.36.05.72.08,1.07,0,.05,0,.1.01.15,0,.26.04.5.17.72,0,.09,0,.18,0,.28,0,.08-.01.17-.02.25l-.03.03c-.16.3-.14.6,0,.9-.11.11-.15.22,0,.33.36,1.59.42,3.25,1.17,4.74.24.47.55.69,1.14.5.82-.26,1.6-.14,2.41.04.4.09.63.25.69.65-.02.1-.04.19-.06.29,0,0,0,.02,0,.02-.05.03-.1.07-.15.1-.04.04-.08.07-.12.11Z"/><path class="cls-1" d="m162.51,84.42c-.03.07-.06.13-.09.2-.32.18-.88.07-.84.69,0,0,.05.01.05.01-.16-.03-.27.03-.36.16-.04.04-.07.09-.08.15h0c-.11.05-.23.09-.34.13-.05.01-.09.04-.11.09-.54.26-.66.53-.24,1.08,1.55,2.1,3.05,4.24,4.56,6.36.55.76,1.18,1.45,1.62,2.3.21.4.3.81.38,1.24h0c0,.14-.01.27-.02.4h-.01c-.17.08-.35.14-.51.23-1.01.58-1.9.51-2.66-.43,0,0-.06-.05-.06-.05-.6-.54-1.03-1.19-1.38-1.9l-.04-.06c-.14-.16-.33-.31-.42-.5-.95-2.03-2.25-3.86-3.41-5.78-.16-.27-.37-.42-.7-.39.22-1-.62-1.19-1.2-1.3-.58-.11-1.4-.3-1.76.56-.58-.04-1.17.09-1.74-.1-.37.19-.71.41-.8.86-.76.59-.25,1.52-.59,2.22l-.06.06c-.46.73-.14,1.52-.18,2.28-.03.53-.26,1.12.38,1.48v.02c-.25.16-.21.33-.02.49.04.03.09.04.13.03,0,.15,0,.31,0,.46-.59.39-.24,1.04-.45,1.54,0,0,.01.05.01.05-.3.07-.56.23-.78.45-.16,0-.32-.04-.47-.03-2.1.23-2.45-1.15-2.32-3.04.08-1.12.33-2.23.51-3.34,0-.19-.02-.38-.03-.57.29-1.57.6-3.14.31-4.76-.09-.48.14-.9.47-1.28.53-.62.83-1.34.79-2.19,0-.21.02-.45.13-.63,1.01-1.67,1.41-3.61,2.44-5.26.85-1.37,1.7-2.74,2.56-4.1.26-.41.69-.54,1.14-.56,1.26-.07,2.44.03,3.41,1.03.97,1,2.04,1.85,2.88,3.04.85,1.2.73,2.4.88,3.64.04.32.05.62.21.9-.42.54-.46,1.19-.08,1.57-.01.05-.02.1-.01.14-.65.35-.26.75-.05,1.14-.38.15-.63.38-.5.83-.33-.04-.52.12-.6.44Zm-5.63-9.25c-.14.13-.28.27-.42.4-.05.19-.1.38-.15.56-.09.07-.18.13-.27.2-.17.28-.28.57-.25.9-.06.08-.12.16-.18.24-.21.08-.38.2-.41.44-.35.15-.41.46-.42.79-.64.51-.67,1.35-1.06,1.99-.03.06-.07.11-.1.17-.15.77-.21,1.57-.52,2.3-.16.38-.08.79.32.83.7.08,1.5.19,2.08-.32.58-.52,1.13-.61,1.87-.4.81.24,1.66.13,2.26-.55,1.47-1.68,1.9-5.57-.81-7.05-.29-.42-.87-.32-1.2-.66-.35-.47-.56-.29-.73.15Z"/><path class="cls-1" d="m45.93,42.68c-.39.28-.8.53-1.17.85-.6.52-1.39.79-1.82,1.53-.04,0-.12-.03-.14-.01-.44.48-1.09.61-1.66.87-.06.03-.11.07-.16.1-.49.09-.69.66-1.17.7-.95.09-1.41.89-2.12,1.34-.12.07-.25.15-.37.22-.53-.03-.83.27-1.04.7-.06-.03-.12-.06-.18-.09-.07.03-.13.07-.2.1-.21-.02-.36.05-.47.21-.27-.32-.3-.06-.37.1-.07.04-.13.08-.2.12-.17.11-.34.23-.5.34-.6.2-1,.65-1.41,1.09-.11.09-.22.18-.33.27-.1.09-.2.18-.3.28-1.14,1.18-2.03.81-2.65-1.11v-.07c.07-.13.16-.24.26-.34-.04-.04-.08-.07-.12-.11l-.04-.06c-.01-.72.47-1.33.49-2.04.05-.11.11-.21.17-.31.89-1.79,1.88-3.52,2.6-5.39.16-.43.37-.85.32-1.34.2-.48.4-.96.59-1.44.36-.21.46-.58.58-.93.18-.52.36-1.05.78-1.43.52-.48.65-1.06.56-1.72.5-.26.19-.85.48-1.19.44-.13.62-.45.78-.86.09-.22.18-.45.27-.67-.04.04-.06.08-.08.12-.05,0-.13-.03-.15,0-.45.54-1.13.73-1.73,1.05-.05.04-.11.08-.16.12-.51.14-.7.74-1.2.83-1,.18-1.47,1.05-2.2,1.57-.13.09-.26.18-.38.27-.56.01-.86.36-1.08.82-.06-.03-.12-.06-.19-.09-.07.05-.14.09-.2.13-.22,0-.38.08-.49.26-.29-.3-.32-.04-.39.14-.07.05-.14.09-.21.14-.17.13-.34.27-.52.4-.61.26-1.03.76-1.45,1.25-.11.1-.22.21-.33.31-.1.1-.21.2-.31.31-1.17,1.32-2.11,1.02-2.8-.89v-.06c.27-.57.91-.78,1.21-1.33.09-.04.18-.09.27-.14,1.44-.9,2.96-1.7,4.29-2.76.31-.25.65-.46.81-.86.36-.27.71-.53,1.07-.8.37.03.6-.2.84-.41.36-.3.72-.61,1.22-.68.61-.09.95-.47,1.15-1.03.52.07.5-.55.87-.66.41.14.69,0,.98-.24.65-.5,1.3-1,2.02-1.39.86-.47,1.52-.22,2.11.66.01.08.01.16.01.24.05.01.1.04.15.06.07.11.13.22.19.33-.21.56-.46,1.12-.63,1.7-.28.96-.87,1.83-.87,2.87-.05.03-.13.06-.14.1-.16.8-.68,1.42-1.07,2.1-.03.08-.06.15-.09.23-.4.45-.29,1.15-.7,1.56-.82.81-.84,1.93-1.25,2.9-.08.17-.15.34-.23.5-.49.37-.61.89-.59,1.47-.07.01-.14.03-.21.04-.04.09-.08.17-.12.26-.2.13-.31.31-.33.55-.4-.1-.3.17-.28.38-.04.09-.08.18-.12.27-.1.24-.19.48-.28.72-.44.64-.59,1.38-.73,2.12-.01.03-.02.07-.03.1.76-.4,1.52-.81,2.22-1.31.3-.21.63-.39.79-.77.34-.23.69-.45,1.03-.68.36.06.58-.14.82-.32.34-.27.69-.54,1.17-.56.58-.03.92-.37,1.12-.9.49.12.48-.49.84-.57.39.18.65.05.94-.14.62-.43,1.26-.86,1.95-1.17.82-.38,1.45-.08,1.99.82.01.12.01.23.02.35Z"/><g class="cls-2"><path class="cls-1" d="m54.2,57.53c-.94.68-1.93,1.29-2.81,2.05-1.45,1.26-3.38,1.91-4.4,3.71-.12-.01-.29-.09-.34-.03-1.08,1.17-2.65,1.48-4.03,2.1-.13.09-.26.17-.39.26-1.17.21-1.65,1.59-2.81,1.69-2.31.21-3.43,2.14-5.13,3.22-.3.19-.6.37-.9.55-1.28-.08-2,.66-2.51,1.69-.15-.08-.29-.15-.44-.23-.16.08-.32.17-.48.26-.5-.06-.88.1-1.14.49-.65-.76-.73-.15-.89.25-.16.1-.33.19-.49.29-.41.28-.81.56-1.22.83-1.43.48-2.42,1.56-3.41,2.63-.26.22-.52.44-.78.66-.24.22-.49.42-.72.66-2.77,2.86-4.92,1.96-6.41-2.69l-.02-.16c.17-.32.4-.58.65-.82-.1-.08-.2-.17-.3-.26l-.09-.15c-.03-1.74,1.13-3.21,1.17-4.94.14-.25.28-.5.42-.75,2.15-4.31,4.56-8.5,6.28-13.02.4-1.04.9-2.07.79-3.24.48-1.16.95-2.32,1.43-3.49.85-.5,1.09-1.39,1.39-2.25.44-1.26.87-2.54,1.89-3.46,1.25-1.14,1.56-2.56,1.36-4.16,1.21-.63.45-2.05,1.16-2.88,1.06-.3,1.49-1.08,1.87-2.07.22-.56.44-1.12.67-1.67-.07.11-.14.22-.2.34-.13,0-.31-.07-.37,0-1.09,1.3-2.73,1.76-4.17,2.54-.13.1-.27.19-.4.29-1.22.33-1.7,1.79-2.9,2.01-2.43.44-3.55,2.53-5.32,3.8-.31.21-.62.43-.93.65-1.34.03-2.07.86-2.59,1.97-.15-.07-.31-.13-.46-.2-.17.1-.33.21-.5.31-.53-.01-.92.19-1.19.61-.69-.71-.76-.08-.92.35-.17.11-.34.23-.51.34-.42.33-.84.65-1.25.97-1.49.63-2.5,1.83-3.52,3.03-.27.24-.53.49-.8.74-.25.25-.51.48-.75.75-2.83,3.19-5.11,2.48-6.78-2.14v-.17c.67-1.37,2.2-1.88,2.94-3.19.21-.12.43-.24.64-.35,3.5-2.18,7.16-4.12,10.39-6.68.75-.59,1.57-1.12,1.96-2.08.85-.65,1.71-1.29,2.57-1.93.91.07,1.46-.49,2.05-.99.86-.74,1.73-1.49,2.94-1.66,1.48-.2,2.31-1.13,2.79-2.48,1.24.18,1.19-1.34,2.11-1.6.98.35,1.65-.02,2.36-.58,1.56-1.21,3.15-2.41,4.88-3.35,2.08-1.13,3.67-.53,5.11,1.59.01.19.02.38.03.57.12.05.24.1.36.16.15.26.3.53.45.79-.51,1.37-1.11,2.72-1.52,4.12-.68,2.32-2.1,4.41-2.11,6.94-.12.07-.31.13-.33.23-.38,1.94-1.65,3.43-2.59,5.09-.08.18-.15.36-.23.54-.95,1.09-.69,2.8-1.69,3.78-1.99,1.96-2.03,4.68-3.03,7.02-.18.4-.35.81-.53,1.21-1.21.89-1.48,2.15-1.43,3.55-.17.03-.34.07-.51.1-.1.21-.21.41-.31.62-.48.32-.74.77-.79,1.34-.97-.24-.72.41-.67.92-.1.22-.2.44-.3.66-.23.57-.46,1.15-.68,1.73-1.06,1.55-1.41,3.34-1.77,5.13-.02.08-.05.16-.07.24,1.86-.96,3.68-1.98,5.39-3.18.72-.51,1.52-.94,1.9-1.85.83-.55,1.66-1.1,2.49-1.65.86.15,1.4-.34,1.97-.78.84-.64,1.69-1.29,2.84-1.35,1.41-.07,2.22-.9,2.7-2.17,1.18.28,1.17-1.2,2.05-1.37.93.42,1.57.12,2.26-.36,1.51-1.04,3.05-2.06,4.72-2.82,2-.92,3.51-.19,4.83,2,.01.27.01.55.02.83Z"/></g><g id="Layer_1-2"><path class="cls-1" d="m327.8,179.97c-1.6,2.77-.59,5.97-2.04,8.76-.13.15-.26.31-.38.46-.01.22.01.45.05.68-.04.11-.09.26-.15.46-.16.48-.35.97-.56,1.46h0c-.12.26-.26.52-.41.79-1.4.83-2.81,1.65-4.24,2.46-.13.59-.27,1.17-.41,1.75-.38.35-.77.72-1.15,1.09-2.93,1.54-5.98,2.86-8.94,4.34-.38.09-.76.21-1.12.33h0c-1.33.48-2.5,1.11-3.56,1.86-3.18,1.15-5.83,3.21-8.18,5.95-.51,2.47-.66,5.03-.57,7.7.13,4.45-1.37,5.68-5.97,5.38l-.02-.06c-.07-1.42-1.14-1.12-2-1.18-2.32-4.7-.24-9.07.87-13.51-.14-.1-.28-.19-.42-.29.2-.17.4-.34.6-.5.04-.18.08-.36.11-.54.2-.23.38-.47.53-.72l.15-.57c.14-.13.27-.26.41-.39.13-.24.24-.49.35-.75.08.06.17.12.25.18.94-.89,1.89-1.79,2.83-2.69.14-.08.24-.2.29-.35,1.14-.88,2.28-1.76,3.43-2.65.1-.05.18-.13.23-.24,2.37-1.37,4.74-2.73,7.1-4.1.28-.15.56-.3.84-.45.46.13.93.31,1.38.37.06-.05.11-.1.16-.15.4-.03.78-.08,1.13-.18.13-.1.25-.23.37-.39l.14-.15c.15.06.3.11.45.16.36-.21.67-.49.92-.85.47-.37.93-.76,1.39-1.13.22-.3.44-.59.66-.89,2.52-.75,4.17-2.27,6.13-3.53,0-.01.01-.01.01-.01.06-.12.13-.24.19-.37,2.27-4.6,2.25-9.05,1.08-13.64-2.22-4.49-6.03-6.86-10.92-8.11-5.14-1.32-9.79-.33-14.44,1.76-3.32,1.48-4.72.74-5.93-2.84l.04-.03c1.04-.49.48-1.21.26-1.88,3.11-3.55,7.58-2.93,11.58-3.77,2.89.95,5.88-.47,8.78.34.37.19.75.4,1.13.6.22.18.44.17.64-.04.23-.03.46-.06.68-.1,1.33.58,2.64,1.17,3.97,1.76.1.08.22.12.35.11,1.03.59,2.05,1.18,3.08,1.77.07.06.16.1.25.1,1.77,1.37,3.55,2.73,5.32,4.09.16.12.31.25.46.37.27-.05.56-.13.83-.17,3.36,3.63,1.84,8.02,2,12.14Z"/><path class="cls-1" d="m292.93,233.98c-.69,2.94-2.15,5.12-3.99,6.96-2.88.59-6.18-.46-8.42-2.56-.62-1.25-1.09-2.35-.78-3.93.16-.82.42-1.62.7-2.42.17-.21.34-.4.49-.61,3.71-4.79,6.36-4.8,10.95-.49l-.03.09c-1.16,1.55.23,2.16,1.08,2.96Z"/></g></g></g></svg>