<?xml version="1.0" encoding="UTF-8"?><svg id="Layer_2" xmlns="http://www.w3.org/2000/svg" viewBox="0 0 243 399.01"><defs><style>.cls-1{opacity:.09;}.cls-2{fill:#fcfcfc;}</style></defs><g id="Layer_1-2"><g class="cls-1"><path d="m49.81,9.33c-.96-1.86-1.79-2.04-3.51-.91-10.54,6.92-21.63,12.71-33.34,17.5-4.51,1.85-8.78,4.18-12.96,6.71v-5.85c5.53-3.07,11.15-5.97,16.99-8.5,10.35-4.49,20.33-9.81,29.33-16.73,2.84-2.19,4.01-2.23,5.73.93,4.33,7.93,8.55,15.92,12.94,23.82,1.67,3,1.06,4.71-2.06,6.13-2.79,1.27-5.86,2.35-7.96,4.63-4.19,4.57-5.21,10.37-5.51,16.35-.16,3.2-.44,6.37,1.06,9.43,3.92,8,7.48,16.17,11.63,24.05,7.91,15.05,15.7,30.19,24.29,44.86,14.12,24.11,24.14,50,34.12,75.93,3.52,9.16,4.03,9.51,13.39,6.75.34-.1.69-.16,1.03-.28,5.83-2.07,11.23-.85,16.35,2.21,2.15,1.29,3.61,3.24,3.78,5.75.54,8.33-.09,16.34-8.2,21.32-2.59,1.59-1.62,2.63,0,4.14,6.86,6.38,14.53,11.5,23.2,14.99,6.02,2.42,12.44,4.16,18.75,1.94,8.65-3.04,16.55-7.76,24.38-12.5,2.74-1.66,4.23-1.22,5.68,1.45,7.76,14.33,15.56,28.63,23.4,42.91,1.21,2.19.8,3.61-1.24,5.08-7.07,5.11-15.08,8.53-22.56,12.9-1.43.84-2.93,1.61-4.2,2.66-6.16,5.08-12.73,9.6-19.67,13.48-18.04,10.1-36.27,19.87-54.37,29.86-3.52,1.95-6.93,4.17-10.16,6.56-9.93,7.34-19.95,14.54-30.23,21.39-2.26,1.5-4.93,2.36-6.79,4.47-.58,1.37-2.04,1.49-3.09,2.19-1.67,1.09-3.72,1.63-4.89,3.43-1.36.69-2.75.86-4.17.2-.45-.26-.82-.64-1.32-.81l-.68-1.26c.03-1.41-.91-2.41-1.52-3.53-7.04-13.04-14.13-26.05-21.15-39.1-.59-1.09-1.71-2.04-1.34-3.52.45-2.75,2.02-4.78,4.23-6.31,3.81-2.64,7.58-5.33,11.71-7.46,1.9-.97,3.81-2.14,4.88-4.04,7.41-13.27,7.93-27.05,2.84-41.21-.68-1.88-1.51-2.49-3.89-1.84-8.68,2.36-17.21,3.18-24.79-3.56-4.9-4.35-6.08-11.53-2.42-17,2.19-3.27,5.58-4.73,8.69-6.61,2.57-1.54,2.77-2.9,1.31-5.62C38.24,220.94,19.13,185.08,0,149.22v-12.23c.66,1.39,1.34,2.76,2.06,4.11,13.98,26.21,28.08,52.35,41.75,78.73,5.9,11.4,11.96,22.7,17.91,34.06,1.33,2.54,2.22,3.41,4.83,1.19,4.38-3.73,4.49-3.53,1.76-8.68-12.56-23.74-25.17-47.46-37.62-71.26-4.96-9.48-8.88-19.48-14.38-28.67-5.38-8.99-10.85-17.94-16.32-26.88v-10.29c4.45,7.4,9.1,14.68,13.8,21.92,6.61,10.22,12.12,21,17.22,31.98,4.47,9.61,9.68,18.81,14.6,28.18,9.38,17.9,18.9,35.73,28.26,53.64,1.36,2.6,2.19,3.85,5.2,1.53,2.71-2.08,5.51-4.08,8.31-6.07,2.24-1.6,2.32-2.93,1.03-5.25-6.35-11.43-12.52-22.97-18.75-34.46-.31.16-.61.34-.93.5-14.9-27.49-29.61-55.07-44.82-82.39-4.74-8.51-9.85-16.85-14.2-25.55-3.23-6.48-6.39-13-9.71-19.45v-14.39c1.73-.84,3.46-1.69,5.17-2.56,6.97-3.57,13.93-7.15,20.81-10.88,10.34-5.61,20.65-11.28,31.05-16.77,2.19-1.16,2.56-2.1,1.29-4.28-2.99-5.13-5.78-10.38-8.51-15.66Zm113.19,256.04c-8.23-3.61-14.88-9.24-21.32-15.19-2.51-2.32-5.15-1.98-7.19-.39-8.36,6.51-17.26,12.15-26.47,17.29-4.63,2.59-8.32,6.27-12.4,9.48-3.72,2.94-7.33,6.02-11.48,8.33-1.43.8-1.84,1.57-1.17,3.08,5.66,12.85,5.93,25.93,1.55,39.18,1.29,1.06,1.92-.14,2.71-.79,29.85-18.64,60.56-35.89,89.79-55.96-4.74-1.17-9.39-3.01-14.01-5.04Zm-95.66,79.79c-6.53,4.35-6.68,4.11-2.91,11.08,2.66,4.91,5.33,9.82,7.99,14.73,3.4,6.27,6.83,12.53,10.17,18.82.86,1.63,1.4,2.26,3.36.97,11.11-7.29,22.39-14.35,32.93-22.45,20.22-15.53,43.78-25.21,65.55-38.03,9.5-5.6,18.77-11.53,27.5-18.34,5.91-4.59,13-7.37,19.52-11.03,5.61-3.15,5.7-3.11,2.59-8.71-5.95-10.69-11.98-21.32-17.91-32.03-.89-1.59-1.51-2.34-3.46-1.25-13.68,7.64-28.18,13.78-41.52,22.02-12.41,7.67-24.52,15.83-36.84,23.64-6.11,3.87-12.37,7.53-18.66,11.11-8.25,4.7-16.85,8.74-24.34,14.75-7.33,5.9-16.14,9.48-23.95,14.69Zm-3.13-81.9c-2.87,2.11-5.86,4.01-8.91,5.87-5.78,3.5-5.91,9.2-.64,13.36,6.26,4.93,12.94,3.3,19.59,1.21,1.67-.53,3.15-1.65,4.01-2.12,7.13-3.38,12.38-8.04,17.7-12.58,3.36-2.86,6.88-5.45,10.73-7.61,10.79-6.05,21.1-12.78,30.4-21,1.06-.93,2.28-1.96,3.58-2.24,6.77-1.46,9.51-8.26,9.02-13.79-.16-1.87-.86-3.08-2.49-3.96-2.61-1.4-5.52-2.22-8.26-1.51-6.73,1.75-13.55,3.23-19.48,7.41-5.32,3.75-11.09,6.9-16.78,10.1-4.17,2.34-7.95,5.17-11.6,8.21-8.43,6.98-18.08,12.2-26.87,18.65ZM17.27,56.58c-4.52,2.63-9.16,5.06-13.82,7.43-1.54.79-1.76,1.53-.9,3,1.68,2.87,3.21,5.84,4.79,8.77,4.81,9.68,9.3,19.53,14.81,28.85,13.99,23.64,26.52,48.1,40.16,71.95,10.45,18.27,20.39,36.82,30.43,55.32,1.26,2.34,2.21,2.84,4.46,1.29,2.34-1.61,4.92-2.9,7.48-4.14,2.66-1.29,3.16-2.61,1.6-5.45-11.36-20.62-22.77-41.23-33.67-62.11-9.51-18.21-18.3-36.81-27.59-55.14-5.1-10.07-9.14-20.67-15.05-30.32-3.55-5.81-5.53-12.35-8.93-18.23-1.05-1.81-1.78-2.37-3.77-1.21Zm27.28-8.87c.24-1.72.56-3.43.98-5.93-5.25,2.84-9.85,5.2-14.3,7.81-2.02,1.19-5.33,1.19-5.97,3.32-.64,2.09,1.93,4.11,2.77,6.32,4.03,10.47,10.2,19.88,14.97,29.98,9.28,19.67,19.29,38.97,29,58.42,12.49,25.02,26.53,49.19,39.46,73.95,1.06,2.03,2.02,2.32,3.74.99.65-.51,1.41-.89,2.17-1.23,2.67-1.21,3.11-2.56,1.6-5.45-6.1-11.69-10.78-24-15.38-36.35-2.86-7.68-6.1-15.22-9.98-22.45-12.15-22.64-24.37-45.23-36.41-67.92-4.12-7.76-7.88-15.71-11.68-23.64-2.76-5.76-1.84-11.83-.98-17.83Z"/><path class="cls-2" d="m72.41,370.96c-2.66-4.91-5.33-9.82-7.99-14.74-3.77-6.96-3.61-6.72,2.92-11.08,7.81-5.21,16.62-8.79,23.95-14.68,7.48-6.01,16.09-10.05,24.33-14.75,6.29-3.59,12.55-7.24,18.66-11.12,12.33-7.81,24.43-15.97,36.84-23.64,13.34-8.25,27.84-14.38,41.52-22.02,1.94-1.09,2.58-.35,3.46,1.25,5.93,10.7,11.96,21.34,17.91,32.03,3.11,5.6,3.02,5.56-2.59,8.7-6.52,3.66-13.61,6.43-19.52,11.03-8.74,6.8-18.01,12.74-27.51,18.33-21.76,12.82-45.33,22.5-65.55,38.03-10.54,8.1-21.82,15.15-32.93,22.44-1.96,1.29-2.49.66-3.35-.97-3.34-6.3-6.78-12.55-10.18-18.82Z"/><path class="cls-2" d="m22.16,104.63c-5.51-9.32-10-19.17-14.81-28.85-1.59-2.93-3.11-5.89-4.79-8.77-.86-1.47-.65-2.21.9-3,4.66-2.38,9.3-4.81,13.81-7.44,1.99-1.16,2.73-.61,3.77,1.21,3.4,5.88,5.38,12.43,8.94,18.23,5.91,9.66,9.95,20.26,15.05,30.33,9.28,18.34,18.07,36.93,27.59,55.15,10.9,20.87,22.31,41.48,33.67,62.1,1.56,2.84,1.06,4.16-1.6,5.45-2.57,1.24-5.14,2.53-7.48,4.14-2.26,1.55-3.2,1.05-4.47-1.28-10.04-18.5-19.98-37.04-30.43-55.32-13.63-23.84-26.16-48.3-40.15-71.95Z"/><path class="cls-2" d="m0,32.63v26.86c1.73-.84,3.46-1.69,5.17-2.56,6.97-3.57,13.93-7.15,20.81-10.88,10.34-5.61,20.65-11.28,31.05-16.77,2.19-1.16,2.56-2.1,1.29-4.28-2.99-5.13-5.78-10.38-8.51-15.66-.96-1.86-1.79-2.04-3.51-.91-10.54,6.92-21.63,12.71-33.34,17.5-4.51,1.85-8.78,4.18-12.96,6.71Z"/><path class="cls-2" d="m84.51,327.16c4.38-13.25,4.1-26.33-1.56-39.19-.67-1.51-.25-2.29,1.17-3.08,4.15-2.31,7.76-5.39,11.49-8.33,4.08-3.22,7.77-6.9,12.4-9.49,9.21-5.14,18.12-10.77,26.47-17.28,2.04-1.59,4.68-1.94,7.19.38,6.44,5.95,13.08,11.58,21.31,15.19,4.62,2.03,9.27,3.87,14.01,5.04-29.24,20.07-59.94,37.32-89.8,55.96-.79.65-1.41,1.85-2.7.79Z"/><path class="cls-2" d="m0,73.88v35.43c4.45,7.4,9.1,14.68,13.8,21.92,6.61,10.22,12.12,21,17.22,31.98,4.47,9.61,9.68,18.81,14.6,28.18,9.38,17.9,18.9,35.73,28.26,53.64,1.36,2.6,2.19,3.85,5.2,1.53,2.71-2.08,5.51-4.08,8.31-6.07,2.24-1.6,2.32-2.93,1.03-5.25-6.35-11.43-12.52-22.97-18.75-34.46-.31.16-.61.34-.93.5-14.9-27.49-29.61-55.07-44.82-82.39-4.74-8.51-9.85-16.85-14.2-25.55-3.23-6.48-6.39-13-9.71-19.45Z"/><path class="cls-2" d="m118.97,215.9c1.51,2.89,1.07,4.24-1.6,5.45-.76.34-1.52.73-2.17,1.23-1.72,1.33-2.68,1.04-3.74-.99-12.93-24.77-26.98-48.94-39.46-73.96-9.71-19.45-19.73-38.75-29-58.42-4.77-10.1-10.94-19.51-14.96-29.98-.85-2.2-3.41-4.23-2.77-6.32.64-2.13,3.94-2.13,5.97-3.32,4.45-2.61,9.06-4.97,14.3-7.82-.42,2.51-.73,4.22-.98,5.93-.86,6.01-1.78,12.07.98,17.84,3.8,7.92,7.55,15.88,11.67,23.64,12.05,22.69,24.27,45.28,36.41,67.92,3.88,7.24,7.12,14.78,9.98,22.45,4.6,12.35,9.28,24.66,15.37,36.35Z"/><path class="cls-2" d="m137.1,240.4c-9.3,8.21-19.61,14.94-30.4,21-3.84,2.15-7.37,4.74-10.73,7.6-5.32,4.53-10.58,9.19-17.7,12.57-.86.47-2.34,1.59-4.01,2.12-6.65,2.09-13.32,3.73-19.59-1.21-5.27-4.16-5.14-9.86.63-13.36,3.05-1.85,6.04-3.76,8.91-5.87,8.8-6.45,18.45-11.66,26.87-18.65,3.65-3.03,7.43-5.87,11.6-8.21,5.69-3.19,11.46-6.34,16.78-10.1,5.93-4.19,12.75-5.66,19.48-7.41,2.73-.71,5.65.11,8.26,1.51,1.63.88,2.33,2.08,2.49,3.96.48,5.53-2.25,12.33-9.02,13.78-1.3.28-2.53,1.32-3.58,2.25Z"/><path class="cls-2" d="m0,119.6v17.39c.66,1.39,1.34,2.76,2.06,4.11,13.98,26.21,28.08,52.35,41.75,78.73,5.9,11.4,11.96,22.7,17.91,34.06,1.33,2.54,2.22,3.41,4.83,1.19,4.38-3.73,4.49-3.53,1.76-8.68-12.56-23.74-25.17-47.46-37.62-71.26-4.96-9.48-8.88-19.48-14.38-28.67-5.38-8.99-10.85-17.94-16.32-26.88Z"/></g></g></svg>