<?xml version="1.0" encoding="UTF-8"?><svg id="Layer_2" xmlns="http://www.w3.org/2000/svg" viewBox="0 0 297.82 489.03"><defs><style>.cls-1{opacity:.09;}.cls-2{fill:#fcfcfc;}</style></defs><g id="Layer_1-2"><g class="cls-1"><path d="m236.77,11.43c1.17-2.28,2.2-2.5,4.3-1.12,12.92,8.48,26.51,15.58,40.86,21.45,5.53,2.27,10.77,5.13,15.89,8.23v-7.17c-6.77-3.76-13.67-7.32-20.82-10.42-12.69-5.51-24.92-12.03-35.95-20.51-3.48-2.68-4.92-2.73-7.03,1.14-5.3,9.72-10.48,19.52-15.86,29.2-2.05,3.68-1.3,5.77,2.52,7.51,3.41,1.56,7.19,2.88,9.75,5.68,5.14,5.6,6.39,12.71,6.76,20.03.19,3.92.54,7.81-1.3,11.56-4.8,9.8-9.17,19.82-14.25,29.48-9.69,18.45-19.24,37-29.77,54.98-17.3,29.55-29.59,61.27-41.82,93.06-4.31,11.22-4.94,11.65-16.41,8.27-.42-.12-.85-.2-1.26-.34-7.14-2.54-13.76-1.04-20.03,2.71-2.63,1.58-4.43,3.97-4.63,7.05-.66,10.21.1,20.03,10.05,26.13,3.17,1.94,1.99,3.22,0,5.08-8.4,7.82-17.8,14.09-28.44,18.37-7.38,2.97-15.25,5.09-22.98,2.38-10.6-3.72-20.29-9.51-29.88-15.33-3.35-2.03-5.19-1.5-6.97,1.78-9.5,17.56-19.07,35.09-28.68,52.59-1.48,2.69-.98,4.42,1.52,6.23,8.66,6.26,18.48,10.46,27.65,15.82,1.75,1.02,3.59,1.98,5.15,3.26,7.55,6.22,15.61,11.76,24.1,16.52,22.11,12.38,44.45,24.35,66.64,36.6,4.31,2.39,8.49,5.11,12.45,8.03,12.17,9,24.45,17.82,37.05,26.21,2.77,1.84,6.05,2.9,8.32,5.48.71,1.68,2.5,1.83,3.79,2.68,2.05,1.34,4.56,2,6,4.2,1.67.85,3.37,1.05,5.11.24.55-.32,1.01-.78,1.62-.99l.83-1.54c-.04-1.72,1.12-2.96,1.86-4.33,8.63-15.98,17.31-31.93,25.92-47.92.72-1.34,2.1-2.5,1.64-4.31-.55-3.37-2.48-5.86-5.19-7.74-4.66-3.23-9.29-6.54-14.35-9.15-2.33-1.19-4.67-2.62-5.98-4.95-9.08-16.26-9.72-33.15-3.47-50.5.83-2.3,1.86-3.05,4.77-2.25,10.63,2.9,21.09,3.89,30.39-4.37,6-5.33,7.45-14.13,2.97-20.84-2.68-4.01-6.84-5.8-10.65-8.1-3.15-1.89-3.4-3.55-1.6-6.89,23.59-43.87,47.01-87.82,70.46-131.76v-14.99c-.81,1.7-1.65,3.38-2.53,5.04-17.13,32.12-34.41,64.16-51.17,96.48-7.23,13.97-14.66,27.82-21.95,41.75-1.63,3.12-2.72,4.18-5.92,1.46-5.37-4.57-5.51-4.32-2.16-10.63,15.4-29.1,30.85-58.17,46.11-87.33,6.07-11.61,10.89-23.88,17.63-35.14,6.6-11.02,13.29-21.99,20-32.94v-12.61c-5.45,9.07-11.15,17.99-16.91,26.87-8.1,12.52-14.85,25.73-21.11,39.19-5.48,11.78-11.87,23.05-17.89,34.54-11.5,21.93-23.17,43.79-34.63,65.74-1.67,3.19-2.68,4.72-6.37,1.87-3.32-2.55-6.76-5.01-10.18-7.44-2.75-1.96-2.84-3.59-1.26-6.43,7.78-14.01,15.34-28.15,22.98-42.24.38.2.75.41,1.14.61,18.27-33.69,36.29-67.5,54.93-100.97,5.81-10.43,12.07-20.65,17.4-31.32,3.96-7.95,7.83-15.94,11.9-23.84v-17.64c-2.12-1.03-4.24-2.07-6.34-3.14-8.54-4.38-17.07-8.76-25.5-13.34-12.67-6.87-25.31-13.82-38.05-20.55-2.69-1.42-3.14-2.57-1.58-5.25,3.67-6.28,7.09-12.73,10.42-19.19ZM98.05,325.23c10.09-4.43,18.23-11.33,26.13-18.62,3.08-2.84,6.31-2.42,8.81-.47,10.24,7.98,21.15,14.89,32.44,21.19,5.68,3.17,10.2,7.68,15.2,11.62,4.56,3.6,8.99,7.38,14.07,10.21,1.75.98,2.26,1.93,1.44,3.78-6.93,15.75-7.27,31.78-1.9,48.02-1.58,1.3-2.35-.18-3.32-.97-36.58-22.84-74.22-43.99-110.05-68.58,5.81-1.44,11.51-3.69,17.17-6.18Zm117.25,97.79c8,5.33,8.19,5.04,3.57,13.57-3.26,6.02-6.53,12.03-9.79,18.06-4.17,7.68-8.38,15.35-12.46,23.07-1.06,2-1.72,2.77-4.11,1.19-13.62-8.94-27.44-17.58-40.36-27.51-24.78-19.04-53.66-30.9-80.34-46.61-11.64-6.86-23-14.13-33.7-22.48-7.24-5.63-15.93-9.03-23.92-13.51-6.88-3.86-6.98-3.81-3.17-10.67,7.29-13.1,14.69-26.13,21.95-39.25,1.09-1.95,1.86-2.86,4.24-1.53,16.77,9.36,34.54,16.88,50.89,26.99,15.21,9.4,30.05,19.4,45.15,28.97,7.49,4.74,15.16,9.22,22.87,13.62,10.11,5.76,20.66,10.71,29.83,18.08,8.99,7.23,19.78,11.61,29.36,18Zm3.83-100.37c3.52,2.58,7.18,4.92,10.91,7.19,7.08,4.29,7.24,11.27.78,16.38-7.68,6.05-15.86,4.04-24.01,1.48-2.05-.65-3.86-2.02-4.92-2.6-8.73-4.15-15.18-9.86-21.7-15.41-4.11-3.51-8.44-6.68-13.15-9.32-13.22-7.41-25.86-15.67-37.26-25.73-1.3-1.14-2.79-2.41-4.38-2.75-8.3-1.79-11.65-10.12-11.05-16.9.2-2.29,1.05-3.77,3.05-4.85,3.19-1.72,6.77-2.72,10.12-1.86,8.25,2.14,16.6,3.96,23.88,9.08,6.52,4.59,13.59,8.45,20.57,12.38,5.11,2.86,9.74,6.34,14.22,10.06,10.33,8.56,22.16,14.95,32.93,22.85Zm57.52-253.3c5.54,3.22,11.23,6.2,16.94,9.11,1.89.97,2.15,1.87,1.1,3.68-2.06,3.52-3.93,7.16-5.87,10.75-5.89,11.87-11.4,23.94-18.15,35.36-17.15,28.98-32.5,58.96-49.21,88.18-12.8,22.4-24.99,45.13-37.29,67.79-1.55,2.86-2.7,3.47-5.47,1.58-2.87-1.97-6.03-3.55-9.17-5.08-3.26-1.58-3.88-3.2-1.96-6.68,13.92-25.28,27.9-50.54,41.27-76.12,11.66-22.32,22.43-45.11,33.81-67.58,6.25-12.34,11.2-25.33,18.45-37.16,4.35-7.12,6.78-15.14,10.95-22.34,1.29-2.22,2.18-2.91,4.62-1.48Zm-33.43-10.87c-.3-2.11-.68-4.2-1.2-7.27,6.43,3.48,12.07,6.37,17.53,9.57,2.48,1.45,6.53,1.46,7.32,4.07.78,2.56-2.36,5.04-3.4,7.75-4.94,12.83-12.5,24.37-18.34,36.74-11.37,24.1-23.64,47.76-35.54,71.6-15.31,30.66-32.51,60.29-48.36,90.64-1.3,2.49-2.48,2.84-4.59,1.22-.8-.62-1.73-1.09-2.66-1.51-3.27-1.49-3.81-3.14-1.96-6.68,7.47-14.33,13.21-29.42,18.84-44.55,3.5-9.41,7.47-18.65,12.23-27.52,14.89-27.74,29.86-55.44,44.63-83.24,5.05-9.51,9.65-19.25,14.31-28.97,3.39-7.06,2.26-14.49,1.2-21.85Z"/><path class="cls-2" d="m209.07,454.65c3.26-6.02,6.53-12.04,9.79-18.06,4.62-8.53,4.42-8.24-3.58-13.58-9.57-6.38-20.36-10.77-29.35-18-9.17-7.37-19.72-12.32-29.82-18.08-7.71-4.39-15.38-8.88-22.87-13.63-15.11-9.57-29.94-19.57-45.15-28.97-16.36-10.11-34.12-17.63-50.89-26.99-2.38-1.33-3.16-.43-4.24,1.53-7.26,13.11-14.66,26.15-21.95,39.25-3.81,6.86-3.71,6.81,3.17,10.67,7.99,4.48,16.68,7.89,23.92,13.52,10.71,8.33,22.07,15.61,33.71,22.47,26.67,15.71,55.56,27.57,80.34,46.61,12.91,9.92,26.74,18.57,40.35,27.51,2.4,1.58,3.05.81,4.11-1.19,4.09-7.72,8.3-15.39,12.47-23.07Z"/><path class="cls-2" d="m270.66,128.24c6.76-11.42,12.26-23.49,18.15-35.36,1.95-3.59,3.81-7.22,5.87-10.74,1.05-1.8.79-2.71-1.1-3.68-5.71-2.92-11.39-5.89-16.93-9.11-2.44-1.42-3.34-.74-4.62,1.48-4.17,7.2-6.6,15.23-10.95,22.35-7.25,11.84-12.2,24.83-18.45,37.17-11.38,22.47-22.15,45.26-33.81,67.59-13.36,25.58-27.34,50.83-41.27,76.11-1.92,3.48-1.3,5.1,1.96,6.68,3.14,1.52,6.3,3.11,9.17,5.08,2.77,1.9,3.92,1.29,5.48-1.57,12.3-22.67,24.49-45.4,37.29-67.8,16.71-29.22,32.06-59.2,49.21-88.18Z"/><path class="cls-2" d="m297.82,39.99v32.92c-2.12-1.03-4.24-2.07-6.34-3.14-8.54-4.38-17.07-8.76-25.5-13.34-12.67-6.87-25.31-13.82-38.05-20.55-2.69-1.42-3.14-2.57-1.58-5.25,3.67-6.28,7.09-12.73,10.42-19.19,1.17-2.28,2.2-2.5,4.3-1.12,12.92,8.48,26.51,15.58,40.86,21.45,5.53,2.27,10.77,5.13,15.89,8.23Z"/><path class="cls-2" d="m194.24,400.96c-5.37-16.24-5.03-32.27,1.91-48.03.82-1.85.31-2.8-1.44-3.78-5.09-2.83-9.52-6.61-14.08-10.21-5-3.94-9.52-8.46-15.2-11.63-11.29-6.3-22.21-13.2-32.44-21.18-2.5-1.95-5.74-2.37-8.82.47-7.9,7.29-16.04,14.19-26.12,18.62-5.66,2.48-11.36,4.74-17.17,6.18,35.83,24.6,73.47,45.74,110.05,68.58.97.8,1.73,2.27,3.31.97Z"/><path class="cls-2" d="m297.82,90.55v43.42c-5.45,9.07-11.15,17.99-16.91,26.87-8.1,12.52-14.85,25.73-21.11,39.19-5.48,11.78-11.87,23.05-17.89,34.54-11.5,21.93-23.17,43.79-34.63,65.74-1.67,3.19-2.68,4.72-6.37,1.87-3.32-2.55-6.76-5.01-10.18-7.44-2.75-1.96-2.84-3.59-1.26-6.43,7.78-14.01,15.34-28.15,22.98-42.24.38.2.75.41,1.14.61,18.27-33.69,36.29-67.5,54.93-100.97,5.81-10.43,12.07-20.65,17.4-31.32,3.96-7.95,7.83-15.94,11.9-23.84Z"/><path class="cls-2" d="m152.01,264.61c-1.85,3.54-1.31,5.19,1.96,6.68.93.42,1.86.89,2.66,1.51,2.11,1.63,3.29,1.27,4.58-1.21,15.85-30.36,33.06-59.98,48.37-90.64,11.9-23.84,24.18-47.49,35.55-71.6,5.84-12.38,13.4-23.91,18.34-36.75,1.04-2.7,4.17-5.18,3.4-7.74-.79-2.61-4.83-2.61-7.31-4.07-5.46-3.2-11.1-6.09-17.53-9.58.51,3.08.9,5.17,1.2,7.27,1.05,7.37,2.18,14.79-1.2,21.86-4.65,9.71-9.26,19.46-14.31,28.97-14.76,27.81-29.74,55.5-44.63,83.24-4.76,8.87-8.73,18.11-12.23,27.52-5.63,15.13-11.37,30.22-18.84,44.55Z"/><path class="cls-2" d="m129.79,294.63c11.4,10.06,24.04,18.32,37.26,25.73,4.71,2.64,9.03,5.81,13.15,9.32,6.52,5.56,12.96,11.26,21.7,15.41,1.06.57,2.87,1.95,4.92,2.6,8.15,2.56,16.33,4.57,24.01-1.48,6.46-5.1,6.3-12.08-.78-16.38-3.74-2.27-7.4-4.61-10.91-7.19-10.78-7.9-22.61-14.29-32.94-22.85-4.48-3.72-9.11-7.19-14.22-10.06-6.98-3.91-14.04-7.77-20.57-12.37-7.27-5.13-15.63-6.94-23.88-9.08-3.35-.87-6.92.13-10.12,1.86-2,1.07-2.85,2.55-3.05,4.85-.59,6.78,2.76,15.11,11.05,16.89,1.59.34,3.1,1.62,4.38,2.75Z"/><path class="cls-2" d="m297.82,146.58v21.31c-.81,1.7-1.65,3.38-2.53,5.04-17.13,32.12-34.41,64.16-51.17,96.48-7.23,13.97-14.66,27.82-21.95,41.75-1.63,3.12-2.72,4.18-5.92,1.46-5.37-4.57-5.51-4.32-2.16-10.63,15.4-29.1,30.85-58.17,46.11-87.33,6.07-11.61,10.89-23.88,17.63-35.14,6.6-11.02,13.29-21.99,20-32.94Z"/></g></g></svg>