<?xml version="1.0" encoding="UTF-8"?><svg id="Layer_2" xmlns="http://www.w3.org/2000/svg" viewBox="0 0 472.88 125.67"><defs><style>.cls-1{fill:#fff;}.cls-2{fill:#fff6f6;}.cls-3{fill:#f5f6f7;}</style></defs><g id="Layer_1-2"><path class="cls-1" d="m413.71,108.68c-3.33,1.9-6.76,2.04-10.27.54-.08-.2-.22-.33-.42-.41-.18-.02-.37-.04-.55-.07-.59.06-1.19.12-1.78.18-.37-.4-.8-.54-1.33-.37-2.13.33-4.36-1.77-6.42.27-.09-.76.13-1.62-.7-2.14-.1-.92-.74-1.21-1.55-1.28-.16-.99-.7-1.68-1.67-2.01-.33-.16-.65-.32-.98-.49-2.51-3.02-1.97-7.08-3.57-10.44-2.45-5.15-2.38-10.78-2.8-16.31.05-.23.1-.46.16-.7.63-7.94,1.72-15.83,2.89-23.71.59-3.99,2.19-6.08,5.52-6.26,3.03-.16,4.93,1.71,5.79,5.71-.17.17-.34.34-.52.51-.25.77-.51,1.55-.76,2.32-.15.06-.27.14-.38.26-1.33,1-.53,1.87.17,2.75-.9.34-1.68.73-.65,1.78-.66,4.72-.69,9.46-1.77,14.21-1.16,5.07-.06,10.49,1.12,15.61.96,4.18,2.07,8.6,7.41,9.51,1.83.31,3.69.83,5.51.74,1.55-.08,3.25-.41,4.25-2.06,2.57-4.27,3.72-9.06,5.24-13.74,1.08-3.34.26-6.74.85-10.14.83-4.73.23-9.63-.44-14.43.07-.41.14-.83.21-1.24-.09-.59-.18-1.17-.28-1.76-.06-.46-.12-.92-.18-1.37.19-2.45,1.14-4.76.71-7.36-.27-1.66,5.57-5.48,7.35-5.19,2.44.4,3.72,2.89,3.58,6.4-.45,11.03-.8,22.06-1.19,33.09-2.05.81-.46,2.53-.93,3.79-1.59,4.28-1.67,8.98-3.56,13.19-.23.56-.47,1.11-.7,1.67-.27.16-.55.32-.82.49-.52,1.7-2.12,3-1.88,4.99-1.1.27-2.03.7-1.85,2.1-.11.25-.22.51-.33.76-.93-.22-1.73.1-2.49.6Z"/><path class="cls-1" d="m52.74,16.36c-.32-1.01.7-2.22-.47-3.09-.25-.26-.5-.52-.73-.78,1.09-1.18,1.26-2.7,1.6-4.16.17-.12.34-.24.51-.34,2.93-1.36,5.65-1.22,8.56.44,1.92,1.09,4.2,1.78,6.4,2.05,3.97.49,7.58,1.95,11.27,3.29,7.26,2.64,14.56,5.17,21.79,7.88,5.48,2.06,11.07,3.98,15.44,8.17-.65.79-1.23,1.6-.8,2.71-1.32,1.87-2.63,3.75-3.95,5.62,0,0-.23.05-.23.06-.74-.19-1.44-.28-1.94.5-.35-.13-.7-.26-1.05-.39,0-1.26.85-1.87,1.83-2.37v.03c-1.81-.3-3.82-.2-5.4-.97-4.51-2.23-9.42-2.99-14.11-4.53-2.86-.8-5.54-2.24-8.59-2.32-.73-.46-1.45-.91-2.17-1.36-1.78-2.23-4.34-2.49-6.9-2.71-3.35.01-4.49,1.87-4.61,5.03-.1,2.73-1.25,5.31-2.47,7.69-1.01,1.95-1.55,4-2.39,5.98-2.54,5.94-4.24,12.25-4.86,18.49-.55,5.51-2.64,10.25-4.26,15.25-.87,2.69-3.25,4.78-3.55,7.79-1.53-.01-3.07-.02-4.6-.03l-.05-.14-.05.14c-.9-.1-1.8-.2-2.7-.3.29-1.92-1.98-3.73-.25-5.72.13-.2.25-.41.38-.61.68-2.58,1.82-4.97,3.17-7.27.4-.67.93-1.43.92-2.14-.05-4.62,2.35-8.67,2.88-13.12.69-5.72,2.51-11.08,4.59-16.39.32-.82.82-1.59.62-2.53.34-.67.68-1.35,1.02-2.02,1.94-1.75,2.75-3.71,1-6.08.22-.39.43-.76.65-1.15.58-.77,1.2-1.52,1.72-2.32,2.05-3.24,1.89-3.68-1.72-5.18l-1.26-.42c-1.17-1.21-2.57-1.95-4.28-2.05-.33-.2-.65-.39-.97-.58l.03-.02Z"/><path class="cls-2" d="m13.49,73.97c-.34-.11-.67-.22-1.01-.34-.13-.56-.48-.9-1.06-.97-.31-.2-.62-.38-.91-.58-.61-.99-1.7-1.27-2.66-1.73-.52-.15-1.04-.31-1.56-.45-.47-.51-.92-1.04-1.67-1.1-.48-.68-1.09-1.05-1.96-.82-.11-.74.58-1.69-.61-2.12l-.06-.05c-.2-.44-.39-.88-.59-1.32-.01-.49-.03-.98-.04-1.48-.11-1.03-.28-2.05-.31-3.09-.04-1.1-.2-2.36,1.06-2.96,1.13-.53,2.33-.63,3.48.08,1.13.7,1.91,1.74,2.6,2.84l.05.55c.65,1.04.63,2.56,2.15,2.95l.16.06c2.25,1.87,4.76,2.89,7.76,3.08,3.04.19,5.86-.71,8.68-1.38,3.3-.78,4.73-3.58,4.22-6.95.32-.32.47-.68.29-1.13-.05-.49-.09-.99-.14-1.49.34-.45.28-.85-.11-1.23-.18-.43-.38-.86-.56-1.29.32-.43.56-.87.25-1.41-.12-1.09.02-2.32-1.31-2.85l-.16-.08c-1.58-2.89-3.11-5.83-6.67-6.79-1.32-.86-2.63-1.71-3.95-2.57-.58-.53-1.17-1.07-1.75-1.6-.11-1.28-1.41-1.31-2.09-1.98-.12-.09-.24-.18-.36-.27-.16-.03-.31-.04-.47-.06-1.57-2.93-4.24-5.01-6.07-7.73-1.02-1.53-2.11-3.04-3.69-3.94C1.72,22.24.03,20.17,0,16.98c.05-.15.09-.3.14-.46,1.58-1.3,1.96-2.94,1.41-4.87.15-.04.27-.12.37-.24,2.46-1.81,4.71-4.07,7.42-5.34C14.85,3.47,20.02-.86,26.55.15c5.47.85,11.65.33,15.59,5.75,1.88,2.6,1.3,6.94-1.52,8.44-1.49.79-2.6-.15-3.67-1.12-1.52-1.38-2.22-3.57-4.34-4.36-.05-.08-.11-.14-.2-.19-.05-.17-.16-.25-.33-.23-.96.11-1.91.22-2.87.32-2.34-.75-4.55-.6-6.58.9-.69.16-1.38.31-2.07.46-.59-.32-1.16-.27-1.69.16-1.16.51-2.3,1-3.46,1.51-1,.67-1.99,1.34-2.98,2-.32.21-.66.4-.98.61v.04c-.11.21-.22.42-.32.63-.95.79-2.81,1.71-1.88,2.86,1.43,1.78,2.18,4.15,4.32,5.35.59.62,2.32.13,2.08,1.11-.65,2.61.93,1.92,2.23,1.82.07.21.14.44.2.65-.21,2.25,1.49,1.18,2.44,1.39,0,.34,0,.66,0,.99-.49.3-.84.66-.68,1.29,1.21,2.88,4.1,3.87,6.35,5.56,2.15,1.6,4.6,2.8,6.72,4.42,2.59,1.98,3.73,5.11,5.5,7.73l-.12.13c-.06.03-.16.08-.16.09.04.1.08.19.13.28.13.19.26.38.39.57-.29,1.35-.65,2.71.9,3.6-.17.83.46,1.14,1.01,1.48-.02.25-.02.49-.03.75-.69.53-1.44,1.04-.65,2.04.01.28.03.56.04.84-.46.45-.52.89.04,1.3-.4.5-.1.88.24,1.23-.45.68-1.57,1.34-.04,2.05-.02.13-.04.26-.01.38,0,.02.14.02.21.03-2.12-.08-2.25,1.15-1.82,2.76v.1c-1.65.71-1.83,2.9-3.58,3.47-1.11.93-2.2,1.86-3.31,2.78-.27.03-.53.08-.8.11-.26,0-.52-.02-.8-.03-.29.04-.57.07-.86.11-.2.07-.41.15-.6.22-4.45.51-8.9,1.02-13.34,1.53-.53-.38-1.11-.4-1.72-.18l-.03.08Z"/><path class="cls-2" d="m318.13,53.84c2.14-.93,4.04-2.48,6.67-2.01,3.23.58,5.19,2.75,6.74,5.28,2.02,3.3,4.05,6.55,7.22,8.91.28.2.57.64.55.95-.24,2.97,1.92,4.88,3.62,6.49,2.85,2.71,4.41,6.25,6.95,9.12.65.73.99,1.87,2.25,1.45,1.34-.46,1.24-1.72,1.1-2.78-.37-2.95-.79-5.87-.55-8.87.33-4.24-.99-8.39-1.29-12.48-.5-6.87-2.66-13.32-3.44-20.06-.34-3.01.88-4.81,3.89-5.66,3.09-.87,4.11,1.05,4.91,3.33.35,1.02.6,2.11.7,3.18.47,5.45,1.4,10.8,3.29,15.95.93,2.54-.06,5.1.06,7.65.06,1.17.16,2.14,1.12,2.88.03.32.05.64.08.96-.25,3.02.18,6.08-.63,9.07-.28,1.04.41,1.88.97,2.7-.07.16-.1.33-.09.51-.83,1.11-.21,2.26-.12,3.41.33,4,1.06,7.96,1.21,12.01.13,3.4-2.13,4.16-4.16,5.13-2.37,1.14-4.66.5-6.18-1.86-.87-1.34-2.03-2.35-3.25-3.32-.13-.15-.26-.31-.39-.46-2.03-4.41-6.04-7.36-8.47-11.47-.07-.1-.16-.16-.28-.18-.61-2.67-3.22-3.42-4.88-5.08l.1-.17c-.62-4.3-3.15-7.39-6.42-9.97-.89-.69-1.38-.25-1.69.7-.37,1.1-.31,2.12.34,3.08.06.61.12,1.21.18,1.81.11.14.22.29.33.42-.77,2.03.75,3.71.89,5.6.57,3.76,2.13,7.16,3.71,10.56.16.37.32.75.48,1.11-.04.84,0,1.66.61,2.33.05.4.11.81.16,1.21-.15.51.06.86.46,1.15.08.38.15.76.22,1.14-.21.8-.02,1.55.31,2.29.03.26.07.53.1.79,0,.16.07.3.2.4.02.57.04,1.13.07,1.71-1.26.3-1.66,1.47-2.38,2.32-.8.34-1.59.69-2.39,1.03-1.63.03-2.77-1.06-4.09-1.75l-.2-.11c-.91-3.67-.91-7.58-2.91-10.96-.61-1.04-.72-2.19-.99-3.36-1.26-5.69-2-11.52-4.26-16.97l.04-.07c-.05-3,.01-6.02-.16-9.02-.19-3.1,1.12-6.32-.6-9.32.09-.24.2-.47.29-.71h0Z"/><g><path class="cls-2" d="m201.25,37.58c.09.18.09.37-.01.55-.11.31-.22.61-.33.92-.04.58-.12,1.14-.34,1.65-.26-.78-.3-1.62-.11-2.55.15-.72.74-1.51,1.57-2.24-.26.56-.53,1.11-.78,1.67Z"/><path class="cls-2" d="m243.23,95.76c-2.38,1.96-5.58,2.42-8.57,1.61-.33-.09-.86.01-1.28.03-.68.14-1.37.27-2.06.41-.3-.85-.14-1.85-1.46-2.33-.12-.38-.23-.77-.35-1.16.1-.97.03-1.87-1.4-2.29-.14-.33-.29-.66-.42-.99-.38-.81-.78-1.62-1.16-2.44-.01-.19-.03-.4-.05-.59,1.08-1.99-.1-3.06-2.79-3.52.68-.52.81-1.02.47-1.49-.03-3.81-4.14-6.31-4.93-9.89-.04-.13-.77-.11-1.17-.15-.41-.98,1.14-2.3-.09-3.14-.1-.19-.19-.36-.27-.55-.32-.46-.65-.91-.96-1.37-1.56-5.94-3.87-11.69-6.86-17.21-.07.69-.08,1.4-.04,2.12.09,1.48-.45,2.81-.83,4.22-1.86,6.93-4.36,13.72-4.98,20.95l-.09.05c-1.65,3.31-3.43,6.57-4.94,9.95-1.56,3.5-4.82,6.26-4.65,10.52-.24.2-.48.4-.72.6v.03c-2.86-.21-5.82.41-8.42-1.59-3.2-2.48-4.11-5.95-4.37-9.61-.33-4.75-.7-9.46-2.83-13.84-.18-.38-.25-1.02-.06-1.35,1.96-3.1.68-6.42-.26-9.14-1.59-4.58-1.28-9.34-2.42-13.9-.29-1.17-.02-2.61-1.63-2.86-1.73-.27-2.33,1.18-2.78,2.41-1.27,3.43-2.47,6.85-4.43,10-2.78,4.45-3.69,9.74-5.68,14.37-3.36,7.78-4.66,16.06-7.64,23.86-1.34,3.49-3.7,4.76-7.47,3.98-3.87-.79-3.89-3.48-3.46-6.43.19-1.31.54-2.64,1.05-3.87,2.58-6.22,4.59-12.6,5.46-19.29.43-3.3,2.96-5.54,4.28-8.41.6-1.32,1.03-2.43.4-3.78.16-.37.31-.73.46-1.09,1.99-3.16,3.25-6.75,5.83-9.56.9-.98.62-2.28.48-3.49.17-.13.3-.31.39-.5,1.54-.75,1.51-2.35,2.08-3.66,1.92-4.57,3.35-9.3,5.5-13.82,1.79-3.78,4.69-3.34,7.46-3.24,3.23.12,5.38,2.1,5.69,5.54.18,1.95.89,3.72,1.67,5.48.06.25.1.49.16.73-.28,5.97,2.41,11.47,2.74,17.35.01.15.07.27.2.36-.86,3.27,1.58,5.57,2.46,8.33l-.21.13c-1.77,5.06-.75,9.86,1.35,14.55.57,1.26,1.38,1.04,2.26.18,1.03-1,1.54-2.13,1.37-3.56.27-.69.55-1.38.82-2.08-.04-.22-.08-.43-.12-.65,1.99-1.79,1.28-4.48,2.21-6.62,1.5-4.43,1.74-9.03,1.93-13.64.04-.5.07-1,.11-1.49.52-.9.93-1.82.66-2.9.17-.47.34-.95.51-1.42.46-.46.42-.98.15-1.51.14-.46.28-.92.41-1.38.29-.31.49-.65.63-1.02.22-.51.3-1.07.34-1.65.11-.31.22-.61.33-.92.1-.18.1-.37.01-.55.25-.56.52-1.11.78-1.67.08-.07.17-.14.26-.21,1.37-1.11,3.3-2.03,5.01-2.24,3.89-.48,5.93.75,6.68,2.78,1.7,4.65,2.88,9.45,7.33,13.26,2.2,1.88,3.16,4.56,3.62,7.1.47,2.67,1.37,5.22,3.65,7.08,3.21,2.6,3.08,6.27,5.69,8.93,3.98,4.05,4.56,9.25,8.1,13.42.94,1.1.95,2.5,2.58,3.44,3.09,1.76.78,4.23-1.72,6.29Z"/><path class="cls-2" d="m202.29,35.7c-.09.07-.18.14-.26.21.04-.08.07-.16.11-.24l.15.03Z"/></g><path class="cls-3" d="m115.71,51.99c-.5.08-.82.38-1.02.83-.85-.08-1.26.54-1.74,1.07-1.3-.21-2.6-.43-3.91-.65-.98-.3-1.96-.6-2.95-.91-.28-.04-.56-.09-.82-.14-.44-.1-.88-.22-1.33-.32-1.88-.73-3.74-1.54-5.64-2.19-2.4-.84-4.84-1.9-7.13-.2-.1.09-.22.18-.32.27-.29.18-.24.4-.02.64.08.12.2.21.34.25-.04.26-.09.52-.14.78-.18.08-.37.15-.55.23-.55.04-.79.27-.4.85.1.14.2.27.31.4-.36,3.83-1.73,7.33-2.5,11.03-.28,1.3.07,1.94,1.34,2.31,6.78,2.01,13.43,5.09,20.35,5.76,3.77.36,7.64,1.61,11.53.61,2.55-.66,5.08,1.1,7.26,2.77,1.09.84.75,3.36-.54,4.79-.75.83-1.67,1.49-2.52,2.23-.09-.04-.18-.05-.26-.02-1.05.22-2.09.43-3.13.65-.19-.12-.37-.24-.55-.35-1.85-2.14-3.94-3.35-6.63-2.31l-1.64-.45c-.84-.67-1.74-1.16-2.81-1.09-.65-.09-1.29-.18-1.93-.26-3.28-1.01-6.59-1.75-9.92-2.46-3.34-.72-6.68-2.27-10.06-3.29-.95-.29-1.85-.48-2.72,0-.49.05-.71.38-.79.84-.74,1.8-2.35,3.35-1.17,5.71-.2.32-.39.63-.59.95-.13.3-.06.55.19.77-.79.27-1.43.62-.59,1.62-.12.1-.14.21-.07.36-.58.41-.86.95-.62,1.72-.09.17-.18.33-.26.5-.57.2-.83.61-.7,1.26-.06.26-.12.51-.18.77l-.08.04c-.39.13-.45.4-.27.78.04.16.08.32.12.47-1.21,3.27-.09,4.89,3.56,5.79,3.79.93,7.67,1.31,11.33,2.94.47.21,1.01.45,1.48.41,3.35-.25,6.43.93,9.4,2.6l.03.03c-.14.7-.57,1.36-.13,2.14l.07.12c-.15.45-.32.89-.47,1.33-.1.09-.19.19-.26.3-.59.02-.98.32-1.2.86-2.99.68-5.92.25-8.84-1.1-.5-.23-1.14-.12-1.71-.17-.25-.1-.51-.19-.76-.3-.45-.12-.91-.24-1.36-.37-5.49-.59-10.67-2.67-15.87-4.59-2.88-1.07-2.73-3.7-3.45-5.91.15-.33.23-.66-.04-1,1.31-3.08,2.34-6.25,2.42-9.74l.07-.03c.3-.06.42-.25.37-.58.23-.62.45-1.24.68-1.85.18-2.16,1.27-4.09.99-6.36.56-.41.59-.82-.1-1.21.1-.3.21-.6.3-.9.57.15,1.06-.01,1.21-.57.18-.68-.41-.86-.9-1.06,0-.64-.18-1.12-.93-1.14-.3-1.58-1.75-1.68-2.76-2.35.08-.24.15-.49.22-.72h.02c.43-.16.67-.51.8-.94.6-1.96,1.65-2.84,3.97-2.38,2.29.46,3.68-.99,3.95-4.28.34-4.32,1.14-8.59.85-12.99-.1-1.38.1-2.65.73-3.81.84-1.55,2.63-2.04,4.22-1.13,5.55,3.21,11.41,5.33,17.54,6.62.89.19,1.72.24,2.56.04,2.55-.62,5-.13,7.37,1.27.01.14.05.28.15.4.17,1.22.47,2.45-.08,3.61-.11.14-.23.26-.34.4h-.03Z"/><g><path class="cls-1" d="m450.8,87.7c.33,3.95-.17,7.73-.96,11.44.68,1.14,1.6,2.08,3.13,2.66,1.72.64,3.58.74,5.41.57-.37-1.82-.49-3.67-.24-5.45,1.35-9.89,3.48-19.62,6.43-29.16.07-.74.13-1.48.2-2.22.05-.27.1-.55.15-.82-.29-1.7,1.47-2.46,1.79-3.89-.23-.28-.72-.64-.65-.83,1.6-4.79.45-10.09,2.68-14.75.07-.76.44-1.3,1.17-1.56-1.45-2.02-1.57-3.96.29-5.81.11-.25.21-.5.32-.75.23-1.2.46-2.4.7-3.61.11-.48.21-.96.32-1.44-.66-1.29-.18-2.44.46-3.56.15-.53.3-1.07.45-1.6-.56-1.3.13-2.44.44-3.63-.52-.21-1.04-.42-1.55-.62-.28-.22-.68-.37-.84-.66-1.43-2.62-3.74-3.8-6.42-2.7-2.81,1.15-5.74,2.92-4.81,6.74.5,2.04-.32,3.75-.37,5.61-.2,7.02-2.9,13.67-2.75,20.79.1,4.66-2.14,9.08-1.63,13.99.36,3.5-.57,7.12-1.84,10.63-1.21,3.36-2.18,7.15-1.88,10.64Z"/><path class="cls-1" d="m459.82,113.31c-1.45-.62-3.48-.74-2.74-3.23v-.12c-7.78-3.29-11.1-2.04-13.54,5.7-.1.34-.22.66-.33.99.02,1.14.06,2.27.24,3.38.34,2.12,1.44,3.29,2.81,4.58,3.79,1.59,8.43,1.38,11.78-.71,1.46-3.16,2.27-6.59,1.77-10.61h.01Z"/></g></g></svg>