<?xml version="1.0" encoding="UTF-8"?><svg id="Layer_2" xmlns="http://www.w3.org/2000/svg" viewBox="0 0 392.63 189.49"><defs><style>.cls-1{fill:#fff;}</style></defs><g id="Layer_1-2"><path class="cls-1" d="m382.66,47.52L392.63,0l-30.75,25.48c-6.93-3.82-14.9-5.99-23.38-5.99H48.5C21.71,19.49,0,41.2,0,67.99v73c0,26.79,21.71,48.5,48.5,48.5h290c26.79,0,48.5-21.71,48.5-48.5v-73c0-7.33-1.63-14.28-4.54-20.51l.2.04Zm-.66,93.47c0,23.99-19.51,43.5-43.5,43.5H48.5c-23.99,0-43.5-19.51-43.5-43.5v-73c0-23.99,19.51-43.5,43.5-43.5h290c23.99,0,43.5,19.51,43.5,43.5v73Zm-15.66-112.72l18.46-15.29-5.9,28.16c-3.35-5.03-7.62-9.4-12.56-12.87Z"/></g></svg>