<?xml version="1.0" encoding="UTF-8"?><svg id="Layer_2" xmlns="http://www.w3.org/2000/svg" viewBox="0 0 279.83 364.03"><defs><style>.cls-1{opacity:.08;}.cls-2{fill:none;}.cls-3{fill:#ffcb00;}.cls-4{fill:#010101;}</style></defs><g id="Layer_1-2"><g class="cls-1"><path class="cls-2" d="m42.73,108.34c-4.93,2.33-10.13,3.96-15.36,5.45-1.41.4-1.86,1.07-1.19,2.43,1.15,2.36,1.82,4.89,2.64,7.37,5.24,15.77,12.08,30.92,17.9,46.47.84,1.94,1.76,3.86,2.48,5.84.55,1.52,1.28,1.71,2.73,1.04,4.66-2.17,9.4-4.17,14.49-5.17,1.84-.36,1.98-1.24,1.25-2.77-2.4-5.11-4.13-10.48-5.64-15.92-.51-1.83-1.21-3.72-2.3-5.24-2.29-3.19-3.36-6.83-4.61-10.44-3.24-9.31-6.5-18.61-9.71-27.93-.5-1.45-1.14-1.87-2.67-1.14Z"/><path class="cls-4" d="m246,20.13c-2.62-5.57-4.98-11.26-7.57-16.84-1.59-3.42-2.98-3.95-6.56-2.59-2.98,1.13-5.88,2.46-8.81,3.73-6.7,2.91-13.45,5.73-19.79,9.38-3.73,2.15-3.64,2.31-4.22-1.78-.43-3.02-1.78-3.87-4.63-2.58-2.19.99-4.51,1.42-6.8,1.95-2.24.52-4.47,1.17-6.23,2.59-9.7,7.85-21.44,12.14-32.29,17.88-13.26,7-27.42,12.31-41.26,18.21-4.06,1.73-8.25,3.27-12.52,4.37-11.43,2.94-22.19,7.56-32.68,12.82-7.35,3.69-14.58,7.63-22.13,10.92-4.51,1.96-5.08,2.9-3.54,7.64.45,1.4.19,1.93-1.14,2.47-11.43,4.7-21.87,11.49-33.44,15.91-2.38.91-3.04,2.29-1.79,4.74,2.06,4.04,3.94,8.18,4.96,12.64,1.75,4.06,3.5,8.12,5.24,12.18,9.34,21.72,18.67,43.44,28.01,65.16,2.54,1.72,5.07.46,7.3-.53,6.3-2.8,12.94-4.04,19.66-4.99,2.74-.39,5.56-.28,8.09-1.67,1.43-.79,1.75.26,2.14,1.21,3.14,7.66,6.74,15.1,10.21,22.61,1.13,2.44,2.35,3.25,4.94,2.05,9.34-4.31,18.78-8.16,28.81-10.83,11.35-3.03,22.77-6.52,32.28-14.37,3.36,7.56,5.97,15.18,8.61,22.8,5.08,14.65,11.7,28.68,17.24,43.15.93,2.41.32,3.21-1.83,3.86-5.33,1.61-10.36,4.01-15.5,6.12-2.21.91-2.97,2.39-2.49,4.57,1.04,4.72,1.79,9.54,3.23,14.14,4.58,14.6,10.4,28.77,15.36,43.25,3.48,10.19,8.27,19.93,12.53,29.85,1.94,4.53,2.39,4.64,7.15,2.63,10.82-4.57,21.04-10.4,31.96-14.75.38-.15.72-.39,1.08-.59,9.2-5.03,18.21-10.43,27.93-14.46,5.61-2.33,11.19-4.76,16.8-7.09,1.94-.81,3.33-1.91,2.38-4.14-3.73-8.72-6.77-17.85-11.49-26-7.19-12.41-13.69-25.1-19.45-38.2-2.19-4.99-4.39-9.97-6.58-14.96-1.97-4.49-2.63-4.72-7.15-2.86-4.09,1.68-8,3.81-12.35,4.83-.97.23-1.69.59-2.16-.66-2.89-7.64-7.34-14.56-10.57-22.03-5.8-13.42-11.32-26.97-16.98-40.45-2-4.77-2.04-4.75,2.78-6.75.19-.08.39-.14.57-.25,6.85-4.07,14.33-6.72,21.68-9.66,12.44-4.97,24.44-10.94,36.66-16.39,3.39-1.51,3.76-3.06,2.29-6.34-3.44-7.63-6.84-15.28-10.37-22.87-.83-1.78-.59-2.61,1.34-3.37,4.12-1.62,7.83-4.07,11.67-6.26,6.87-3.91,13.41-8.44,21.07-10.84,2.21-.69,2.62-2.22,1.65-4.33-11.32-24.65-21.78-49.69-33.33-74.24ZM45.4,109.48c3.21,9.32,6.47,18.62,9.71,27.93,1.25,3.6,2.33,7.25,4.61,10.44,1.09,1.52,1.79,3.41,2.3,5.24,1.51,5.44,3.24,10.8,5.64,15.92.72,1.54.58,2.41-1.25,2.77-5.08,1-9.82,2.99-14.49,5.17-1.45.68-2.18.48-2.73-1.04-.71-1.99-1.64-3.9-2.48-5.84-5.82-15.55-12.66-30.7-17.9-46.47-.82-2.48-1.49-5.02-2.64-7.37-.66-1.36-.21-2.03,1.19-2.43,5.24-1.49,10.43-3.12,15.36-5.45,1.54-.72,2.18-.3,2.67,1.14Zm-4.56-5.26c-3.79,1.31-7.55,2.7-11.32,4.05-1.55.55-3.14,1.01-4.65,1.65-4.74,2.01-5.05,3.28-3.39,7.88,5.82,16.11,12.27,31.97,18.43,47.95,2.03,5.27,4.33,10.43,6.56,15.61.89,2.07,2.31,2.5,4.45,1.41,5.23-2.66,10.62-4.92,16.29-6.53,2.22-.63,3.2-.07,3.69,2.01.36,1.57.84,3.11,1.37,4.63,1.43,4.11.95,4.92-3.66,5.5-3.87.48-7.72.98-11.56,1.75-3.96.8-7.78,1.92-11.46,3.52-2.24.98-3.52.95-4.54-1.73-2.24-5.94-4.93-11.71-7.44-17.54-.11.05-12.19-27.24-17.96-40.99-3.31-7.89-6.27-15.94-9.43-23.89-.46-1.15-.43-1.83.89-2.32,10.17-3.76,19.24-9.81,29.23-13.97,1.97-.82,3.05-.8,3.34,1.46.31,2.44,1.31,4.67,2.35,6.84.72,1.48.32,2.18-1.17,2.7Zm191.76,140.33c1.63-.71,2.08-.09,2.66,1.22,3.75,8.37,7.76,16.63,11.32,25.08,3.57,8.48,8.35,16.29,12.82,24.29,4.52,8.1,8.15,16.65,11.8,25.17.6,1.4-.09,1.69-1.17,2.14-5.04,2.1-10.04,4.28-15.06,6.42-8.72,3.71-16.83,8.57-25.12,13.1-6.68,3.66-13.98,6.01-20.66,9.72-4.21,2.34-8.72,4.17-13.04,6.32-1.6.79-2.11.47-2.75-1.19-2.04-5.26-4.39-10.41-7.39-17.39-5.76-11.24-8.91-25.56-14.72-38.85-3.71-8.47-5.51-17.43-7.81-26.29-.47-1.83.46-2.32,1.8-2.86,5.92-2.37,11.96-4.51,17.73-7.2,16.15-7.55,33.3-12.56,49.61-19.68Zm-54.45,1.24c-5.82-13.51-11.03-27.26-15.9-41.14-1.5-4.27-3.36-8.43-5.17-12.59-.62-1.44-.62-2.17,1.01-3.04,7.55-4.04,15.63-6.89,23.38-10.48,1.44-.67,1.96-.17,2.48,1.08,1.73,4.19,3.56,8.35,5.35,12.51-.11.05,4.75,11.77,7.16,17.64,4.84,11.74,10.77,22.98,15.98,34.55.96,2.13.86,3.17-1.58,3.87-8.73,2.5-16.88,6.5-25.22,10.01-1.09.46-2.04,1.01-2.51-.76-1.09-4.12-3.31-7.78-4.98-11.66Zm70.33-104.16c.95,2.18.6,3.03-1.57,4-20.14,8.95-40.38,17.65-60.82,25.89-10.49,4.23-21.06,8.37-30.95,13.95-.18.1-.36.21-.54.3-3.46,1.66-6.83,3.17-9.72,6.08-2.98,3.01-7.53,4.05-11.54,5.68-11.73,4.76-24.52,6.34-35.87,12.19-.55.28-1.13.49-1.7.75-5.51,2.53-5.63,2.58-7.97-2.82-4.38-10.07-9.24-19.95-12.44-30.51-.43-1.43-1.15-2.82-.26-4.36.38-.66.38-1.48-.17-2-4.44-4.24-5.2-10.18-7.21-15.53-1.56-4.16-3.42-8.17-5.21-12.22-2.48-5.61-4.57-11.41-6.44-17.26-2.74-8.57-5.91-16.95-9.52-25.17-2.32-5.28-2.88-11.11-5.1-16.43-.5-1.19.52-1.34,1.22-1.65,12.6-5.6,24.46-12.7,37.25-17.95,7.84-3.22,16.03-5.19,23.99-7.95,1.94-.67,3.9-1.29,5.79-2.11,12.3-5.3,24.68-10.41,36.84-16.01,7.36-3.39,14.16-8.03,21.59-11.26,7.11-3.1,13-8.26,20.16-11.05,5.5-2.15,5.65-1.87,8,3.58,8.7,20.2,17.37,40.41,26.05,60.62-.06.03-.13.05-.19.08,8.76,20.39,17.48,40.8,26.34,61.15Zm-27.42-76.22l.04-.02c-4.02-9.35-7.99-18.73-12.1-28.04-.81-1.82-.49-2.55,1.37-3.32,3.79-1.57,7.54-3.29,11.17-5.21,2.3-1.22,3.16-.47,3.95,1.62,1.58,4.14,3.31,8.23,5.07,12.3,6.13,14.15,12.24,28.3,18.5,42.39.99,2.23.48,2.96-1.64,3.93-3.63,1.67-7.35,3.22-10.65,5.55-1.79,1.26-2.78,1.18-3.73-1.12-3.87-9.41-7.97-18.73-11.99-28.08Zm50.28,30.95c-9.14,3.36-16.86,9.38-25.36,13.95-5.02,2.7-4.92,3.01-7.03-2.08-.42-1.02-.75-2.08-1.08-3.14-1.35-4.36-1.28-4.25,2.84-6.73,3.81-2.3,7.9-3.98,11.95-5.74,3.62-1.57,3.96-2.27,2.43-5.75-3.89-8.86-7.34-17.92-11.8-26.06-4.46-11.26-9.81-21.7-13.42-32.85-.28-.86-.74-1.66-1.09-2.49-1.08-2.56-2.78-3.16-5.4-1.91-4.91,2.36-9.92,4.52-14.84,6.86-1.54.73-2.41.62-2.96-1.09-.46-1.43-1.17-2.79-1.76-4.18-2.2-5.13-2.22-5.16,2.98-7.9,8.2-4.33,16.78-7.81,25.33-11.38,1.46-.61,2.13-.51,2.74,1.02,4.15,10.51,9.58,20.44,13.95,30.84,7.69,18.31,16.42,36.16,24.16,54.45.94,2.23.89,3.25-1.63,4.18Z"/><path class="cls-3" d="m222.33,80.4c-8.68-20.21-17.36-40.42-26.05-60.62-2.35-5.45-2.5-5.73-8-3.58-7.16,2.8-13.05,7.96-20.16,11.05-7.42,3.23-14.22,7.86-21.59,11.26-12.16,5.6-24.54,10.71-36.84,16.01-1.89.81-3.85,1.43-5.79,2.11-7.96,2.76-16.15,4.73-23.99,7.95-12.79,5.25-24.65,12.34-37.25,17.95-.7.31-1.72.46-1.22,1.65,2.22,5.31,2.78,11.15,5.1,16.43,3.61,8.22,6.78,16.61,9.52,25.17,1.87,5.85,3.96,11.65,6.44,17.26,1.79,4.05,3.65,8.06,5.21,12.22,2.01,5.35,2.77,11.29,7.21,15.53.54.52.55,1.34.17,2-.89,1.55-.18,2.93.26,4.36,3.2,10.56,8.07,20.44,12.44,30.51,2.35,5.4,2.47,5.35,7.97,2.82.56-.26,1.15-.47,1.7-.75,11.36-5.85,24.15-7.42,35.87-12.19,4.01-1.63,8.56-2.68,11.54-5.68,2.89-2.91,6.25-4.42,9.72-6.08.19-.09.36-.2.54-.3,9.9-5.58,20.46-9.72,30.95-13.95,20.44-8.25,40.68-16.94,60.82-25.89,2.18-.97,2.52-1.82,1.57-4-8.85-20.35-17.58-40.76-26.34-61.15.06-.03.13-.05.19-.08Z"/><path class="cls-3" d="m182.99,264.23c-5.77,2.7-11.8,4.83-17.73,7.2-1.34.54-2.28,1.03-1.8,2.86,2.3,8.86,4.11,17.82,7.81,26.29,5.81,13.29,8.96,27.61,14.72,38.85,3,6.98,5.34,12.12,7.39,17.39.65,1.67,1.16,1.99,2.75,1.19,4.33-2.15,8.83-3.98,13.04-6.32,6.68-3.71,13.98-6.07,20.66-9.72,8.29-4.54,16.4-9.4,25.12-13.1,5.02-2.14,10.03-4.32,15.06-6.42,1.08-.45,1.77-.74,1.17-2.14-3.65-8.52-7.28-17.07-11.8-25.17-4.47-8-9.25-15.8-12.82-24.29-3.56-8.45-7.57-16.71-11.32-25.08-.58-1.3-1.03-1.93-2.66-1.22-16.31,7.11-33.46,12.13-49.61,19.68Z"/><path class="cls-3" d="m185.64,258.21c8.34-3.51,16.49-7.51,25.22-10.01,2.44-.7,2.54-1.74,1.58-3.87-5.21-11.57-11.15-22.81-15.98-34.55-2.42-5.87-7.28-17.59-7.16-17.64-1.79-4.17-3.62-8.32-5.35-12.51-.52-1.25-1.04-1.75-2.48-1.08-7.75,3.59-15.82,6.44-23.38,10.48-1.62.87-1.63,1.61-1.01,3.04,1.81,4.16,3.67,8.31,5.17,12.59,4.88,13.88,10.08,27.63,15.9,41.14,1.67,3.88,3.89,7.54,4.98,11.66.47,1.77,1.42,1.22,2.51.76Z"/><path class="cls-3" d="m234.86,6.88c-.6-1.53-1.28-1.63-2.74-1.02-8.55,3.57-17.13,7.05-25.33,11.38-5.2,2.75-5.18,2.78-2.98,7.9.6,1.39,1.3,2.74,1.76,4.18.55,1.71,1.42,1.82,2.96,1.09,4.92-2.34,9.93-4.51,14.84-6.86,2.62-1.25,4.32-.65,5.4,1.91.35.84.82,1.63,1.09,2.49,3.61,11.15,8.96,21.59,13.42,32.85,4.46,8.14,7.9,17.2,11.8,26.06,1.53,3.48,1.19,4.18-2.43,5.75-4.05,1.76-8.14,3.44-11.95,5.74-4.11,2.49-4.19,2.37-2.84,6.73.33,1.06.66,2.12,1.08,3.14,2.11,5.09,2.01,4.78,7.03,2.08,8.5-4.57,16.21-10.58,25.36-13.95,2.51-.93,2.57-1.95,1.63-4.18-7.74-18.29-16.46-36.14-24.16-54.45-4.37-10.4-9.8-20.34-13.95-30.84Z"/><path class="cls-3" d="m39.65,94.68c-.29-2.26-1.36-2.28-3.34-1.46-9.99,4.16-19.06,10.21-29.23,13.97-1.32.49-1.35,1.16-.89,2.32,3.17,7.96,6.12,16,9.43,23.89,5.77,13.76,17.85,41.04,17.96,40.99,2.51,5.84,5.2,11.6,7.44,17.54,1.01,2.68,2.29,2.71,4.54,1.73,3.68-1.61,7.5-2.73,11.46-3.52,3.84-.77,7.69-1.26,11.56-1.75,4.62-.58,5.09-1.39,3.66-5.5-.53-1.52-1.01-3.06-1.37-4.63-.48-2.08-1.47-2.64-3.69-2.01-5.67,1.61-11.06,3.87-16.29,6.53-2.14,1.09-3.56.66-4.45-1.41-2.23-5.19-4.53-10.35-6.56-15.61-6.15-15.98-12.61-31.84-18.43-47.95-1.66-4.6-1.34-5.88,3.39-7.88,1.51-.64,3.1-1.1,4.65-1.65,3.77-1.35,7.54-2.74,11.32-4.05,1.49-.52,1.89-1.22,1.17-2.7-1.05-2.17-2.04-4.39-2.35-6.84Z"/><g><path d="m140.34,109.88l1.03,8.85.17,5.61,13.01-4.69,4.87,11.33-17.4,8.89.46,16.71-10.7.86-1.38-11.8-6.27,3.21-9.51,3.31.49,16.18-10.7.86-1.51-13.03-9.45,3.16-4.87-11.33,12.58-6.31-1.06-9.22-.09-5.12-13.17,4.63-4.87-11.33,17.67-8.88-.38-16.23,10.59-.81,1.26,11.21,6.15-3.16,9.78-3.3-.42-15.7,10.59-.81,1.44,12.55,9.29-3.22,4.87,11.33-12.47,6.26Zm-20.02,10.15l-7.2,2.57.88,7.88.13,4.59,6.93-3.5,7.31-2.62-.91-8.26-.1-4.22-7.04,3.54Z"/><path d="m184.85,137.1l-12.74-32.73-9.04-18.58-11.66,4.75-5.68-8.01,17.97-13.4,14.68-6.31,12.87,33.32,15.08,31.73-21.47,9.22Z"/></g></g></g></svg>