<?xml version="1.0" encoding="UTF-8"?><svg id="Layer_2" xmlns="http://www.w3.org/2000/svg" viewBox="0 0 1092.53 216.95"><defs><style>.cls-1{fill:#fff;}.cls-2{fill:#fff6f6;}.cls-3{fill:#f5f6f7;}.cls-4{opacity:.16;}</style></defs><g id="Layer_1-2"><g><path class="cls-1" d="m917.21,167.82c-.3-1.05-.85-1.88-1.74-2.55-2.99-2.27-2.37-6.37-.18-8.87.36-.41,1.1-.74,1.63-.7,6.44.39,12.43-2.05,18.69-2.85,4.67-.6,9.34-1.25,14.04-1.7,1.99-.19,3.64,1.12,5.38,1.9-.32.57-.23,1.06.31,1.45.12.4.22.8.34,1.2-.22.69-.44,1.37-.66,2.05v.04c-.65.71-1.29,1.42-1.94,2.14-.98.14-1.93.73-2.99.08-.95-.58-1.97-.51-2.93.07-2.1-.55-4.11.08-6.13.5-1.43-1.55-3.11-.83-4.74-.49-1.34-.48-2.7-.65-4.1-.31-1.69.37-3.41.61-5.04,1.15-1.44.48-2.7,1.3-.88,2.91l-.12.2c-.44,1.86.09,3.47,1.27,4.92.78,2.9,2.24,5.64,2.22,8.74-.26.52-.13.95.35,1.26.03.11.08.19.18.26-.12,4.5,1.55,5.68,5.39,3.38,5.62-3.35,11.2-6.83,16.39-10.83,3.85-2.99,7.65-5.86,12.88-5.52.61.06,1.22.11,1.84.17-.04.37-.08.74-.13,1.11-.05.16-.11.33-.16.49-.3.59-.17,1.04.44,1.33l-.19.02c-.41.29-.8.59-1.21.87-.28.19-.56.39-.84.57-.1.16-.22.31-.32.47l-.08.14c-1.55.96-3.09,1.93-4.64,2.88-.25.27-.5.54-.75.81-1.27.46-1.96,1.63-2.99,2.4-2.19,1.25-3.93,3.06-5.75,4.75-3.62,1.45-6.75,3.7-9.87,5.96-1.39,1.17-3.81,1.14-4.19,3.51,0,.06-.06.13-.05.18.06.1.15.17.23.26-4.17.6-4.55,1.43-2.46,5.33.45,4.05.96,4.34,4.8,3.75,2.46-.38,4.42-1.63,6.41-2.91,2.58-1.65,5.28-2.76,8.44-2.17h.02c.45,1.09,1.34,1.29,2.38,1.17.25,3.15-1.5,4.58-4.04,6.27-2.78,1.86-5.83,2.83-8.69,4.31-2.59,1.7-5.98,1.75-8.3,4.03-1.33.12-2.69-.22-4,.26l-.04-.04c.1-1.62-1.33-1.84-2.29-2.5-.95-1.94-2.25-3.72-2.73-5.89.08-.07.13-.15.15-.25,1.17-2.91.72-5.7-1.49-7.75-1.52-1.4-2.18-2.88-2.39-4.76.14-.77.27-1.54.41-2.31,1.98-1.31,1.35-3.22,1.07-4.98-.87-5.54-3.28-10.51-5.78-15.46-.15-.15-.3-.3-.45-.45h0Z"/><path class="cls-1" d="m601.09,169.31c.18-.23.37-.46.55-.68,2.32-4.64,1.2-9.21-.39-13.73-.42-1.21-.99-2.36-.86-3.64.55-5.69-.48-11.17-2-16.61-1.27-4.52,1.13-7.74,5.48-6.37,6.24,1.96,12.43.71,18.62.84,2.96.06,6.19-.3,8.69-2.51.36-.03.71-.07,1.06-.1,1.77,1.01,3.11,0,4.46-.97,1.77-1.27,3.87-1.72,5.73-.71,1.72.93,1.67,2.86,1.21,4.66-.11.45-.01.96-.02,1.44-.66,2.68-3.9,2.3-5.12,4.32-1.09.19-2.15.47-3.01,1.21-.72-.27-1.43-.64-2.24-.34l-.13-.06-.05.14c-1.13.44-2.26.88-3.39,1.33-2.63-.47-4.86,1.73-7.58,1.06-3.64-.89-7.32-.28-10.98-.03-.98.06-1.97.09-2.45,1.18-2.3,1.36-1.06,3.37-.81,5.08.56,3.85.63,3.84,4.47,2.49,3-.03,5.88-.54,8.51-2.1.76-.28,1.53-.55,2.29-.82.53.27.94.13,1.22-.38.48-.23.95-.44,1.41-.67,2.42.8,4.04-1.54,6.25-1.59,1.22.12,2.16-.65,3.24-.97,1.66-.05,3.23-.46,4.77-1.06,3.46-1.35,5.89-.22,7.23,3.34-.08.61-.15,1.21-.22,1.82-.13.11-.16.26-.09.41-.29.73-.69,1.33-1.5,1.54-2.32,1-4.86.69-7.26,1.21-.4.11-.79.21-1.19.32-.27.17-.54.33-.82.48-2.6-.29-4.36,1.81-6.78,2.39-4.84,1.16-9.63,2.88-14.41,4.44-2.28-.34-4.12.01-4.48,2.78,0,1.83-.19,3.73,2.03,4.56.02.42.04.85.06,1.27-.97.76-1.09,1.43.2,1.97.06.22.11.44.17.65-.95.74-1.5,1.53-.43,2.6.07.23.13.46.19.71-.45.46-.89.93-1.34,1.39-.32.33-.32.57.18.69.39.04.78.06,1.17.1-.74.44-1.7.83-1.28,1.95.31.82,1.18,1,1.95,1.05,1.06.07,2.2.26,3.18-.03,5.2-1.5,10.63-.91,15.89-1.9,1.63-.31,2.58.48,2.89,2.11.18.95.45,1.89.67,2.84-.16.26-.33.52-.49.78-.67.96-1.51,1.71-2.67,2.04-1.84.42-4.09-.74-5.49,1.39-3.96-.71-7.86-.06-11.76.59-.25.11-.5.21-.74.32h-.04c-.74-.04-1.45.05-2.07.48-.46-1.07-1.18-1.04-2.14-.65-1.7.7-3.44,1.32-5.18,1.91-2.01.69-4.3,1.91-6.03.15-1.77-1.8-1.18-4.36-.5-6.63.19-.64.6-1.22.85-1.85.99-2.45,1.7-4.95,1.28-7.62h.02Z"/><path class="cls-1" d="m442.57,121.64c-1.48,5.5-2.49,11.08-3.06,16.73-.13,1.28.06,2.63.47,3.9.57,1.82.44,3.57-.56,5.23-.75,1.25-2.82,1.9-4.02,1.29-1.61-.83-1.99-2.29-1.63-3.96.8-3.79,1.86-7.54,1.37-11.56-.24-1.98.23-4.16.85-6.1.65-2.02,1.11-4.11.83-6.08-.39-2.79.79-5.35.64-8-.24-4.05,1.17-7.89,1.14-11.9-.01-1.06.42-2.05.1-3.2-.61-2.16,1.03-3.22,2.6-3.94,1.5-.68,2.84-.05,3.71,1.41.1.16.32.24.49.36.3.1.6.22.9.32-.15.68-.53,1.35-.18,2.08-.07.3-.15.62-.22.92-.35.65-.59,1.32-.19,2.03-.05.28-.1.55-.15.83-.1.69-.22,1.38-.32,2.07-.05.15-.11.29-.16.43-1.02,1.09-.91,2.2-.04,3.31-.41.17-.62.48-.64.91-1.18,2.71-.41,5.7-1.22,8.46-.04.11.25.3.39.46-.16.82-1.14,1.29-.94,2.25l-.07.47c-.02.42-.05.85-.07,1.27h-.02Z"/><path class="cls-1" d="m793.26,144.71c-.56.29-.86.77-.98,1.39-1.03.23-1.34,1.15-1.75,1.96-1.59.24-3.17.47-4.76.72-1.24,0-2.48.01-3.71.02-.33.05-.67.1-1.01.15-.55.04-1.1.08-1.65.12-2.4-.17-4.81-.42-7.22-.5-3.04-.1-6.2-.45-8.43,2.5-.1.15-.2.3-.31.45-.29.33-.17.57.14.78.14.12.29.17.47.18.01.34.04.68.05,1-.2.17-.39.33-.59.49-.65.26-.86.63-.25,1.18.16.12.31.25.48.37.61,4.78-.06,9.56.03,14.34.04,1.68.61,2.32,2.19,2.29,8.51-.17,17.16,1.02,25.47-.83,4.52-1,9.41-.97,13.72-3.69,2.82-1.78,6.28-.62,9.28.58,1.51.61,1.8,3.8.67,6.01-.66,1.3-1.57,2.46-2.36,3.68-.11-.02-.22.02-.31.08-1.17.67-2.34,1.33-3.5,2-.25-.08-.5-.15-.75-.22-2.75-1.89-5.54-2.55-8.41-.26-.68.02-1.37.06-2.05.08-1.17-.49-2.36-.75-3.6-.25l-2.34.43c-4.13.02-8.22.41-12.34.82-4.12.41-8.46-.18-12.72-.14-1.2.01-2.3.13-3.2,1.04-.56.26-.73.74-.71,1.33-.38,2.47-1.86,4.97.15,7.38-.15.46-.29.91-.44,1.38-.08.41.07.69.43.86-.85.64-1.5,1.3-.25,2.19-.1.16-.1.31,0,.45-.57.72-.75,1.48-.26,2.32-.05.24-.12.47-.17.72-.61.47-.81,1.06-.48,1.8,0,.33,0,.67,0,.99l-.08.08c-.43.3-.43.66-.12,1.06.09.17.17.35.27.53-.55,4.44,1.2,5.98,5.76,5.66,4.7-.33,9.37-1.35,14.11-.78.61.08,1.31.15,1.86-.06,3.88-1.58,7.8-1.34,11.76-.46l.05.03c.01.91-.3,1.87.42,2.65l.13.12c-.06.6-.13,1.2-.2,1.81-.09.14-.17.3-.22.47-.69.25-1.07.75-1.18,1.5-3.34,1.97-6.9,2.57-10.69,2.06-.66-.09-1.37.29-2.06.45-.32-.03-.65-.05-.98-.07-.57.02-1.13.05-1.7.07-6.61,1.4-13.26.85-19.91.51-3.68-.19-4.21-3.43-5.65-5.85.08-.45.08-.88-.32-1.2.7-4.23,1.07-8.48.21-12.74l.07-.06c.34-.2.43-.48.27-.84.1-.84.21-1.67.3-2.5-.37-2.68.39-5.46-.54-8.1.55-.71.48-1.22-.45-1.43.04-.4.07-.8.11-1.21.72-.04,1.24-.42,1.26-1.15.03-.89-.72-.88-1.34-.95-.17-.78-.52-1.29-1.4-1.02-.78-1.8-2.51-1.36-3.88-1.79.03-.32.04-.64.07-.97l.02-.02c.47-.36.65-.88.69-1.44.19-2.62,1.18-4.09,4.03-4.41,2.82-.33,4.06-2.61,3.49-6.7-.76-5.38-.98-10.86-2.51-16.09-.49-1.65-.59-3.25-.17-4.91.56-2.19,2.54-3.49,4.66-2.98,7.39,1.76,14.86,2.09,22.4,1.3,1.09-.11,2.09-.35,3.02-.93,2.83-1.73,5.85-2.08,9-1.28.05.17.14.31.27.42.53,1.42,1.23,2.8.88,4.41-.1.21-.2.41-.3.62h.02Z"/><g><path class="cls-1" d="m472.43,97.53c-.67,5.19-1.69,10.35-.6,15.7.54,2.63.14,5.62-.49,8.29-.66,2.79-1.05,5.64-.47,8.28.83,3.71-.49,7.29,0,10.84.75,5.43-.72,10.75-.25,16.13.12,1.43-.35,2.8.21,4.31.3.8.34,1.5.21,2.13.4,1.18.66,2.37.87,3.61-.79.51-1.35,1.09-.65,2.08-.94,3.54-2.72,6.62-4.96,9.44l.04.06c-.12.26-.22.53-.34.79-.67.88-1.21,2.11-2.44,1.98-1.52-.17-2.46.92-3.66,1.49-2.53-.9-5.07.34-7.61.2-.99.21-1.98.44-2.98.66-1.17-1.08-2.27-1-3.27.34-1.17-1.86-2.99-.47-4.46-.85-.09-.23-.17-.48-.26-.71-.26-.84-.89-.98-1.62-.96-6.72-1.49-9.79-7.61-14.09-12.11-1.37-1.43-1.03-3.66.01-5.28,1.54-2.4,4.04-3.25,6.66-3.13,1.99.08,3,1.69,3.24,3.56.32,2.47,1.84,4.2,3.01,6.13.49.8,1.25,1.57,2.29,1.83,6.14,1.56,12.13,1.76,18.06-1.6,2.08-1.17,2.37-3.17,2.37-4.73,0-.48,0-.97.01-1.46,0-1.65,0-3.31-.11-4.95h0c.2-.68.22-1.34-.21-2.01,0-.03-.01-.05-.01-.08.01-.08.02-.15.02-.23.04-.29.06-.57.09-.85.07-.94.15-1.88.22-2.82.06-.2.12-.4.17-.6,1.26-1.58,1-3.06-.29-4.47.54-.27.77-.71.76-1.29,1.28-3.77-.06-7.7.73-11.51.02-.15-.37-.38-.58-.57.12-1.12,1.4-1.85,1.03-3.13.01-.21.03-.42.04-.64-.02-.57-.03-1.14-.06-1.71h.01c1.41-7.55,2.18-15.17,2.33-22.84.03-1.74-.37-3.53-1.05-5.21-.96-2.38-.97-4.76.18-7.09.88-1.76,3.59-2.86,5.27-2.16,2.26.94,2.93,2.87,2.63,5.14Z"/><path class="cls-1" d="m460.94,157.59s-.01-.02-.02-.03c0-.02,0-.03.01-.05,0,.03.01.05.01.08Z"/><path class="cls-1" d="m460.66,164.39c.14-.93.56-1.87.02-2.81.06-.43.14-.84.21-1.26.1-.24.19-.48.26-.72.11,1.64.11,3.3.11,4.95-.2-.05-.4-.11-.6-.16Z"/><path class="cls-1" d="m460.95,157.28c0,.08-.01.15-.02.23-.01-.08-.03-.17-.04-.25.02.01.04.01.06.02Z"/><path class="cls-1" d="m461.15,159.59c-.05-.67-.12-1.34-.21-2,.43.67.41,1.33.21,2Z"/></g><path class="cls-1" d="m1030.65,139.51c-.31-.97.68-2.13-.45-2.98-.24-.25-.47-.5-.71-.75,1.05-1.13,1.2-2.6,1.54-3.99.16-.11.33-.22.48-.34,2.82-1.32,5.43-1.17,8.22.42,1.84,1.05,4.04,1.72,6.16,1.98,3.81.48,7.29,1.88,10.83,3.17,6.98,2.54,14,4.97,20.95,7.58,5.27,1.98,10.64,3.83,14.84,7.85-.63.76-1.18,1.54-.77,2.6-1.27,1.8-2.53,3.6-3.8,5.4l-.22.05c-.71-.18-1.38-.26-1.85.48-.34-.13-.68-.25-1.01-.38,0-1.21.81-1.79,1.75-2.28v.03c-1.74-.29-3.67-.19-5.19-.94-4.32-2.15-9.05-2.87-13.56-4.35-2.74-.76-5.33-2.16-8.26-2.23-.7-.43-1.39-.87-2.09-1.31-1.72-2.15-4.17-2.4-6.63-2.61-3.23,0-4.31,1.79-4.43,4.83-.1,2.62-1.2,5.12-2.38,7.39-.97,1.87-1.49,3.85-2.29,5.73-2.43,5.72-4.07,11.78-4.67,17.77-.53,5.3-2.53,9.86-4.1,14.67-.84,2.58-3.13,4.59-3.41,7.5-1.47,0-2.95-.02-4.42-.03l-.05-.14-.05.14c-.87-.1-1.73-.19-2.6-.3.28-1.85-1.91-3.59-.24-5.49.12-.2.25-.39.37-.59.66-2.49,1.74-4.78,3.05-6.98.39-.65.9-1.38.89-2.07-.05-4.43,2.25-8.34,2.77-12.61.67-5.5,2.41-10.66,4.42-15.76.3-.79.78-1.52.6-2.43.32-.64.65-1.29.98-1.94,1.87-1.69,2.65-3.56.97-5.84.2-.37.42-.73.62-1.1.55-.74,1.16-1.46,1.65-2.23,1.97-3.11,1.82-3.54-1.65-4.98l-1.21-.41c-1.12-1.16-2.47-1.87-4.11-1.97-.31-.19-.63-.37-.94-.56h0Z"/><path class="cls-1" d="m360.81,64.27c-.32-1.01.7-2.22-.47-3.09-.25-.26-.5-.52-.73-.78,1.09-1.18,1.26-2.7,1.6-4.16.17-.12.34-.24.51-.34,2.93-1.36,5.65-1.22,8.56.44,1.92,1.09,4.2,1.78,6.4,2.05,3.97.49,7.58,1.95,11.27,3.29,7.26,2.64,14.56,5.17,21.79,7.88,5.48,2.06,11.07,3.98,15.44,8.17-.65.79-1.23,1.6-.8,2.71-1.32,1.87-2.63,3.75-3.95,5.62,0,0-.23.05-.23.06-.74-.19-1.44-.28-1.94.5-.35-.13-.7-.26-1.05-.39,0-1.26.85-1.87,1.83-2.37v.03c-1.81-.3-3.82-.2-5.4-.97-4.51-2.23-9.42-2.99-14.11-4.53-2.86-.8-5.54-2.24-8.59-2.32-.73-.46-1.45-.91-2.17-1.36-1.78-2.23-4.34-2.49-6.9-2.71-3.35.01-4.49,1.87-4.61,5.03-.1,2.73-1.25,5.31-2.47,7.69-1.01,1.95-1.55,4-2.39,5.98-2.54,5.94-4.24,12.25-4.86,18.49-.55,5.51-2.64,10.25-4.26,15.25-.87,2.69-3.25,4.78-3.55,7.79-1.53-.01-3.07-.02-4.6-.03l-.05-.14-.05.14c-.9-.1-1.8-.2-2.7-.3.29-1.92-1.98-3.73-.25-5.72.13-.2.25-.41.38-.61.68-2.58,1.82-4.97,3.17-7.27.4-.67.93-1.43.92-2.14-.05-4.62,2.35-8.67,2.88-13.12.69-5.72,2.51-11.08,4.59-16.39.32-.82.82-1.59.62-2.53.34-.67.68-1.35,1.02-2.02,1.94-1.75,2.75-3.71,1-6.08.22-.39.43-.76.65-1.15.58-.77,1.2-1.52,1.72-2.32,2.05-3.24,1.89-3.68-1.72-5.18l-1.26-.42c-1.17-1.21-2.57-1.95-4.28-2.05-.33-.2-.65-.39-.97-.58l.03-.02Z"/><path class="cls-1" d="m747.02,198.14c-.9-.11-1.78-.1-2.58.41-.36.24-.71.49-1.07.73l-.15.12c-4.19-.98-8.39-1.84-12.71-.87-.85-.04-1.69-.09-2.55-.13-3.3.71-6.48-.11-9.66-.78-.52-.93-1.39-1.38-2.36-1.71-.15-1.75-1.23-3-2.28-4.27.11-1.78-.65-3.39-1.05-5.07.03-.86.2-1.75.07-2.59-.59-4.06.77-8.53-2.39-12.08,0-.24.02-.48.02-.73.57-2.05,1.5-4.05.81-6.26.08-.25.14-.52.22-.77-.56-2.25.44-4.79-1.3-6.82l-.11-.11c0-.65,0-1.29,0-1.94.17-1-.07-1.92-.64-2.75.01-.45.02-.91.03-1.37.87-2.11,1.22-4.3,1.16-6.58-.48-5.04,2.49-10.02.24-15.13-.22-.49.32-1.47.74-2.06,1.48-2.06,3.07-4.09,6.1-3.39,3.05.72,5.06,3.29,5.59,6.37.42,2.35-.34,4.5-.45,6.75-.03.32-.05.63-.07.95-.26,1.58-.17,3.12.45,4.62-.1.56-.2,1.14-.3,1.7-.1.51-.21,1.02-.32,1.53l-.24.13c-1.25,1.72-1.41,3.59-.75,5.57-.8.59-1.1,1.24-.27,2.04.84,10.17-.26,20.53,3.09,30.47,1.05,3.11,2.81,4.76,6.61,4.13,5.34-.89,10.07.52,14.92,2.37,2.4.91,3.7,2.08,3.7,4.62-.21.58-.44,1.16-.65,1.73l-.02.11c-.34.17-.67.32-1,.49-.28.18-.57.37-.85.56h0Z"/><path class="cls-1" d="m579.57,155.19c-.09.14-.18.28-.27.41-.76.31-1.97-.11-2.09,1.28l.12.05c-.34-.11-.62-.02-.85.25-.11.08-.18.18-.22.3h0c-.26.06-.52.12-.79.17-.11.01-.2.07-.27.17-1.28.4-1.62.96-.88,2.32,2.78,5.14,5.43,10.35,8.12,15.53.96,1.86,2.17,3.6,2.87,5.61.33.95.41,1.9.46,2.86l.02.02c-.05.29-.11.57-.16.87l-.03.02c-.4.11-.83.18-1.21.34-2.41.97-4.37.53-5.76-1.79l-.11-.13c-1.16-1.37-1.91-2.96-2.46-4.65l-.06-.13c-.27-.41-.63-.78-.77-1.24-1.48-4.81-3.78-9.28-5.75-13.88-.28-.64-.69-1.05-1.42-1.08.8-2.14-1.01-2.84-2.26-3.26-1.26-.42-3.01-1.11-4.09.69-1.27-.27-2.62-.16-3.82-.76-.88.31-1.71.68-2.05,1.65-1.86,1.08-1.03,3.28-2,4.73l-.16.11c-1.24,1.47-.78,3.32-1.11,5-.23,1.17-.93,2.4.38,3.39l-.04.04c-.57.28-.53.67-.16,1.09.08.07.18.11.29.11-.05.34-.09.69-.13,1.03-1.42.67-.87,2.24-1.47,3.28v.12c-.69.06-1.3.32-1.86.74-.35-.07-.69-.19-1.04-.21-4.72-.16-5.07-3.31-4.19-7.46.52-2.46,1.44-4.83,2.18-7.24.04-.42.08-.85.11-1.27,1.14-3.4,2.32-6.79,2.18-10.46-.04-1.1.6-1.95,1.45-2.7,1.37-1.21,2.25-2.72,2.43-4.6.04-.46.19-1,.48-1.35,2.75-3.38,4.26-7.57,7.06-10.91,2.32-2.77,4.63-5.54,6.97-8.29.71-.83,1.69-.98,2.71-.88,2.81.25,5.4.84,7.24,3.35,1.84,2.53,3.95,4.74,5.45,7.63,1.5,2.92.86,5.55.8,8.34-.02.72-.09,1.39.19,2.06-1.1,1.06-1.38,2.49-.67,3.45-.05.11-.06.2-.07.32-1.55.58-.81,1.58-.47,2.51-.88.21-1.5.64-1.37,1.68-.73-.18-1.2.09-1.46.78h0Zm-9.57-22.27c-.35.25-.7.51-1.06.76-.17.4-.34.8-.51,1.21-.22.12-.44.23-.66.35-.47.55-.8,1.18-.83,1.92-.15.16-.32.32-.47.47-.5.1-.9.33-1.06.86-.82.23-1.06.89-1.19,1.62-1.58.93-1.91,2.78-2.96,4.08-.1.11-.18.23-.28.34-.59,1.66-.95,3.41-1.88,4.94-.49.79-.43,1.72.44,1.95,1.54.4,3.26.89,4.71-.06,1.46-.96,2.69-1,4.26-.29,1.73.77,3.64.81,5.18-.52,3.78-3.26,5.96-11.74.42-15.88-.5-1.03-1.82-.98-2.45-1.84-.63-1.15-1.16-.81-1.66.1h0Z"/><path class="cls-1" d="m414.18,117.32c-.08.12-.16.24-.25.37-.69.27-1.76-.1-1.86,1.14l.11.05c-.3-.1-.55-.02-.75.22-.1.07-.16.15-.19.27h0c-.23.06-.47.11-.7.15-.1.02-.18.07-.24.15-1.15.36-1.44.85-.79,2.07,2.48,4.57,4.82,9.22,7.24,13.84.86,1.65,1.93,3.2,2.56,4.99.3.85.37,1.69.41,2.55l.02.02c-.05.26-.09.51-.14.77h-.03c-.36.11-.73.17-1.08.31-2.14.86-3.89.47-5.12-1.6l-.1-.12c-1.02-1.22-1.7-2.64-2.18-4.15l-.05-.12c-.23-.37-.56-.7-.69-1.09-1.31-4.28-3.37-8.25-5.11-12.36-.24-.57-.62-.94-1.26-.97.72-1.9-.89-2.53-2-2.9-1.12-.37-2.68-.99-3.64.61-1.13-.24-2.33-.15-3.41-.68-.78.28-1.52.61-1.82,1.47-1.66.95-.92,2.92-1.78,4.21l-.15.1c-1.11,1.31-.69,2.96-.99,4.45-.21,1.04-.83,2.14.33,3.02l-.03.03c-.5.25-.48.59-.14.98.07.06.16.09.25.1-.04.31-.08.61-.11.92-1.27.6-.77,1.99-1.32,2.92v.11c-.61.05-1.16.29-1.66.66-.31-.06-.62-.17-.93-.18-4.2-.14-4.52-2.94-3.73-6.64.46-2.19,1.28-4.31,1.94-6.46.03-.38.07-.75.1-1.13,1.02-3.02,2.06-6.04,1.94-9.32-.03-.98.54-1.73,1.29-2.39,1.22-1.08,2.01-2.43,2.16-4.1.04-.41.18-.89.42-1.2,2.45-3.01,3.79-6.73,6.29-9.71,2.06-2.46,4.12-4.93,6.2-7.38.62-.74,1.5-.86,2.42-.78,2.51.21,4.81.74,6.45,2.98s3.51,4.22,4.84,6.8c1.34,2.61.76,4.94.71,7.42,0,.64-.07,1.24.17,1.83-.99.95-1.23,2.22-.6,3.06-.03.09-.06.18-.06.29-1.38.51-.73,1.41-.41,2.24-.79.18-1.34.57-1.22,1.5-.65-.16-1.07.08-1.3.7h-.02Zm-8.52-19.84c-.32.23-.63.45-.94.68-.15.35-.3.72-.46,1.07-.2.1-.39.21-.59.31-.42.5-.72,1.05-.74,1.71-.14.14-.28.28-.42.42-.45.09-.8.29-.94.76-.74.2-.94.78-1.06,1.44-1.41.83-1.69,2.47-2.64,3.64-.09.1-.17.2-.25.3-.52,1.48-.85,3.04-1.68,4.4-.44.71-.38,1.53.39,1.73,1.37.36,2.9.79,4.19-.06,1.3-.86,2.4-.89,3.8-.26,1.54.69,3.24.72,4.61-.46,3.37-2.9,5.31-10.45.38-14.14-.45-.92-1.62-.87-2.18-1.64-.56-1.02-1.03-.73-1.48.1h0Z"/><path class="cls-2" d="m312.56,123.88c-.34-.11-.67-.22-1.01-.34-.13-.56-.48-.9-1.06-.97-.31-.2-.62-.38-.91-.58-.61-.99-1.7-1.27-2.66-1.73-.52-.15-1.04-.31-1.56-.45-.47-.51-.92-1.04-1.67-1.1-.48-.68-1.09-1.05-1.96-.82-.11-.74.58-1.69-.61-2.12l-.06-.05c-.2-.44-.39-.88-.59-1.32-.01-.49-.03-.98-.04-1.48-.11-1.03-.28-2.05-.31-3.09-.04-1.1-.2-2.36,1.06-2.96,1.13-.53,2.33-.63,3.48.08,1.13.7,1.91,1.74,2.6,2.84l.05.55c.65,1.04.63,2.56,2.15,2.95l.16.06c2.25,1.87,4.76,2.89,7.76,3.08,3.04.19,5.86-.71,8.68-1.38,3.3-.78,4.73-3.58,4.22-6.95.32-.32.47-.68.29-1.13-.05-.49-.09-.99-.14-1.49.34-.45.28-.85-.11-1.23-.18-.43-.38-.86-.56-1.29.32-.43.56-.87.25-1.41-.12-1.09.02-2.32-1.31-2.85l-.16-.08c-1.58-2.89-3.11-5.83-6.67-6.79-1.32-.86-2.63-1.71-3.95-2.57-.58-.53-1.17-1.07-1.75-1.6-.11-1.28-1.41-1.31-2.09-1.98-.12-.09-.24-.18-.36-.27-.16-.03-.31-.04-.47-.06-1.57-2.93-4.24-5.01-6.07-7.73-1.02-1.53-2.11-3.04-3.69-3.94-2.69-1.54-4.37-3.6-4.41-6.8.05-.15.09-.3.14-.46,1.58-1.3,1.96-2.94,1.41-4.87.15-.04.27-.12.37-.24,2.46-1.81,4.71-4.07,7.42-5.34,5.51-2.6,10.69-6.93,17.22-5.92,5.47.85,11.65.33,15.59,5.75,1.88,2.6,1.3,6.94-1.52,8.44-1.49.79-2.6-.15-3.67-1.12-1.52-1.38-2.22-3.57-4.34-4.36-.05-.08-.11-.14-.2-.19-.05-.17-.16-.25-.33-.23-.96.11-1.91.22-2.87.32-2.34-.75-4.55-.6-6.58.9-.69.16-1.38.31-2.07.46-.59-.32-1.16-.27-1.69.16-1.16.51-2.3,1-3.46,1.51-1,.67-1.99,1.34-2.98,2-.32.21-.66.4-.98.61v.04c-.11.21-.22.42-.32.63-.95.79-2.81,1.71-1.88,2.86,1.43,1.78,2.18,4.15,4.32,5.35.59.62,2.32.13,2.08,1.11-.65,2.61.93,1.92,2.23,1.82.07.21.14.44.2.65-.21,2.25,1.49,1.18,2.44,1.39,0,.34,0,.66,0,.99-.49.3-.84.66-.68,1.29,1.21,2.88,4.1,3.87,6.35,5.56,2.15,1.6,4.6,2.8,6.72,4.42,2.59,1.98,3.73,5.11,5.5,7.73l-.12.13c-.06.03-.16.08-.16.09.04.1.08.19.13.28.13.19.26.38.39.57-.29,1.35-.65,2.71.9,3.6-.17.83.46,1.14,1.01,1.48-.02.25-.02.49-.03.75-.69.53-1.44,1.04-.65,2.04.01.28.03.56.04.84-.46.45-.52.89.04,1.3-.4.5-.1.88.24,1.23-.45.68-1.57,1.34-.04,2.05-.02.13-.04.26-.01.38,0,.02.14.02.21.03-2.12-.08-2.25,1.15-1.82,2.76v.1c-1.65.71-1.83,2.9-3.58,3.47-1.11.93-2.2,1.86-3.31,2.78-.27.03-.53.08-.8.11-.26,0-.52-.02-.8-.03-.29.04-.57.07-.86.11-.2.07-.41.15-.6.22-4.45.51-8.9,1.02-13.34,1.53-.53-.38-1.11-.4-1.72-.18l-.03.08Z"/><path class="cls-2" d="m973.19,151.74c2.14-.93,4.04-2.48,6.67-2.01,3.23.58,5.19,2.75,6.74,5.28,2.02,3.3,4.05,6.55,7.22,8.91.28.2.57.64.55.95-.24,2.97,1.92,4.88,3.62,6.49,2.85,2.71,4.41,6.25,6.95,9.12.65.73.99,1.87,2.25,1.45,1.34-.46,1.24-1.72,1.1-2.78-.37-2.95-.79-5.87-.55-8.87.33-4.24-.99-8.39-1.29-12.48-.5-6.87-2.66-13.32-3.44-20.06-.34-3.01.88-4.81,3.89-5.66,3.09-.87,4.11,1.05,4.91,3.33.35,1.02.6,2.11.7,3.18.47,5.45,1.4,10.8,3.29,15.95.93,2.54-.06,5.1.06,7.65.06,1.17.16,2.14,1.12,2.88.03.32.05.64.08.96-.25,3.02.18,6.08-.63,9.07-.28,1.04.41,1.88.97,2.7-.07.16-.1.33-.09.51-.83,1.11-.21,2.26-.12,3.41.33,4,1.06,7.96,1.21,12.01.13,3.4-2.13,4.16-4.16,5.13-2.37,1.14-4.66.5-6.18-1.86-.87-1.34-2.03-2.35-3.25-3.32-.13-.15-.26-.31-.39-.46-2.03-4.41-6.04-7.36-8.47-11.47-.07-.1-.16-.16-.28-.18-.61-2.67-3.22-3.42-4.88-5.08l.1-.17c-.62-4.3-3.15-7.39-6.42-9.97-.89-.69-1.38-.25-1.69.7-.37,1.1-.31,2.12.34,3.08.06.61.12,1.21.18,1.81.11.14.22.29.33.42-.77,2.03.75,3.71.89,5.6.57,3.76,2.13,7.16,3.71,10.56.16.37.32.75.48,1.11-.04.84,0,1.66.61,2.33.05.4.11.81.16,1.21-.15.51.06.86.46,1.15.08.38.15.76.22,1.14-.21.8-.02,1.55.31,2.29.03.26.07.53.1.79,0,.16.07.3.2.4.02.57.04,1.13.07,1.71-1.26.3-1.66,1.47-2.38,2.32-.8.34-1.59.69-2.39,1.03-1.63.03-2.77-1.06-4.09-1.75l-.2-.11c-.91-3.67-.91-7.58-2.91-10.96-.61-1.04-.72-2.19-.99-3.36-1.26-5.69-2-11.52-4.26-16.97l.04-.07c-.05-3,.01-6.02-.16-9.02-.19-3.1,1.12-6.32-.6-9.32.09-.24.2-.47.29-.71h0Z"/><g><path class="cls-2" d="m916.3,207.67c-2.38,1.96-5.58,2.42-8.57,1.61-.33-.09-.86.01-1.28.03-.68.14-1.37.27-2.06.41-.3-.85-.14-1.85-1.46-2.33-.12-.38-.23-.77-.35-1.16.1-.97.03-1.87-1.4-2.29-.14-.33-.29-.66-.42-.99-.38-.81-.78-1.62-1.16-2.44-.01-.19-.03-.4-.05-.59,1.08-1.99-.1-3.06-2.79-3.52.68-.52.81-1.02.47-1.49-.03-3.81-4.14-6.31-4.93-9.89-.04-.13-.77-.11-1.17-.15-.41-.98,1.14-2.3-.09-3.14-.1-.19-.19-.36-.27-.55-.32-.46-.65-.91-.96-1.37-1.56-5.94-3.87-11.69-6.86-17.21-.07.69-.08,1.4-.04,2.12.09,1.48-.45,2.81-.83,4.22-1.86,6.93-4.36,13.72-4.98,20.95l-.09.05c-1.65,3.31-3.43,6.57-4.94,9.95-1.56,3.5-4.82,6.26-4.65,10.52-.24.2-.48.4-.72.6v.03c-2.86-.21-5.82.41-8.42-1.59-3.2-2.48-4.11-5.95-4.37-9.61-.33-4.75-.7-9.46-2.83-13.84-.18-.38-.25-1.02-.06-1.35,1.96-3.1.68-6.42-.26-9.14-1.59-4.58-1.28-9.34-2.42-13.9-.29-1.17-.02-2.61-1.63-2.86-1.73-.27-2.33,1.18-2.78,2.41-1.27,3.43-2.47,6.85-4.43,10-2.78,4.45-3.69,9.74-5.68,14.37-3.36,7.78-4.66,16.06-7.64,23.86-1.34,3.49-3.7,4.76-7.47,3.98-3.87-.79-3.89-3.48-3.46-6.43.19-1.31.54-2.64,1.05-3.87,2.58-6.22,4.59-12.6,5.46-19.29.43-3.3,2.96-5.54,4.28-8.41.6-1.32,1.03-2.43.4-3.78.16-.37.31-.73.46-1.09,1.99-3.16,3.25-6.75,5.83-9.56.9-.98.62-2.28.48-3.49.17-.13.3-.31.39-.5,1.54-.75,1.51-2.35,2.08-3.66,1.92-4.57,3.35-9.3,5.5-13.82,1.79-3.78,4.69-3.34,7.46-3.24,3.23.12,5.38,2.1,5.69,5.54.18,1.95.89,3.72,1.67,5.48.06.25.1.49.16.73-.28,5.97,2.41,11.47,2.74,17.35.01.15.07.27.2.36-.86,3.27,1.58,5.57,2.46,8.33l-.21.13c-1.77,5.06-.75,9.86,1.35,14.55.57,1.26,1.38,1.04,2.26.18,1.03-1,1.54-2.13,1.37-3.56.27-.69.55-1.38.82-2.08-.04-.22-.08-.43-.12-.65,1.99-1.79,1.28-4.48,2.21-6.62,1.5-4.43,1.74-9.03,1.93-13.64.04-.5.07-1,.11-1.49.52-.9.93-1.82.66-2.9.17-.47.34-.95.51-1.42.46-.46.42-.98.15-1.51.14-.46.28-.92.41-1.38.29-.31.49-.65.63-1.02-.26-.78-.3-1.62-.11-2.55.15-.72.74-1.51,1.57-2.24.08-.07.17-.14.26-.21,1.37-1.11,3.3-2.03,5.01-2.24,3.89-.48,5.93.75,6.68,2.78,1.7,4.65,2.88,9.45,7.33,13.26,2.2,1.88,3.16,4.56,3.62,7.1.47,2.67,1.37,5.22,3.65,7.08,3.21,2.6,3.08,6.27,5.69,8.93,3.98,4.05,4.56,9.25,8.1,13.42.94,1.1.95,2.5,2.58,3.44,3.09,1.76.78,4.23-1.72,6.29Z"/><path class="cls-2" d="m875.36,147.61c-.09.07-.18.14-.26.21.04-.08.07-.16.11-.24l.15.03Z"/></g><path class="cls-3" d="m211.78,47.9c-.5.08-.82.38-1.02.83-.85-.08-1.26.54-1.74,1.07-1.3-.21-2.6-.43-3.91-.65-.98-.3-1.96-.6-2.95-.91-.28-.04-.56-.09-.82-.14-.44-.1-.88-.22-1.33-.32-1.88-.73-3.74-1.54-5.64-2.19-2.4-.84-4.84-1.9-7.13-.2-.1.09-.22.18-.32.27-.29.18-.24.4-.02.64.08.12.2.21.34.25-.04.26-.09.52-.14.78-.18.08-.37.15-.55.23-.55.04-.79.27-.4.85.1.14.2.27.31.4-.36,3.83-1.73,7.33-2.5,11.03-.28,1.3.07,1.94,1.34,2.31,6.78,2.01,13.43,5.09,20.35,5.76,3.77.36,7.64,1.61,11.53.61,2.55-.66,5.08,1.1,7.26,2.77,1.09.84.75,3.36-.54,4.79-.75.83-1.67,1.49-2.52,2.23-.09-.04-.18-.05-.26-.02-1.05.22-2.09.43-3.13.65-.19-.12-.37-.24-.55-.35-1.85-2.14-3.94-3.35-6.63-2.31l-1.64-.45c-.84-.67-1.74-1.16-2.81-1.09-.65-.09-1.29-.18-1.93-.26-3.28-1.01-6.59-1.75-9.92-2.46-3.34-.72-6.68-2.27-10.06-3.29-.95-.29-1.85-.48-2.72,0-.49.05-.71.38-.79.84-.74,1.8-2.35,3.35-1.17,5.71-.2.32-.39.63-.59.95-.13.3-.06.55.19.77-.79.27-1.43.62-.59,1.62-.12.1-.14.21-.07.36-.58.41-.86.95-.62,1.72-.09.17-.18.33-.26.5-.57.2-.83.61-.7,1.26-.06.26-.12.51-.18.77l-.08.04c-.39.13-.45.4-.27.78.04.16.08.32.12.47-1.21,3.27-.09,4.89,3.56,5.79,3.79.93,7.67,1.31,11.33,2.94.47.21,1.01.45,1.48.41,3.35-.25,6.43.93,9.4,2.6l.03.03c-.14.7-.57,1.36-.13,2.14l.07.12c-.15.45-.32.89-.47,1.33-.1.09-.19.19-.26.3-.59.02-.98.32-1.2.86-2.99.68-5.92.25-8.84-1.1-.5-.23-1.14-.12-1.71-.17-.25-.1-.51-.19-.76-.3-.45-.12-.91-.24-1.36-.37-5.49-.59-10.67-2.67-15.87-4.59-2.88-1.07-2.73-3.7-3.45-5.91.15-.33.23-.66-.04-1,1.31-3.08,2.34-6.25,2.42-9.74l.07-.03c.3-.06.42-.25.37-.58.23-.62.45-1.24.68-1.85.18-2.16,1.27-4.09.99-6.36.56-.41.59-.82-.1-1.21.1-.3.21-.6.3-.9.57.15,1.06-.01,1.21-.57.18-.68-.41-.86-.9-1.06,0-.64-.18-1.12-.93-1.14-.3-1.58-1.75-1.68-2.76-2.35.08-.24.15-.49.22-.72h.02c.43-.16.67-.51.8-.94.6-1.96,1.65-2.84,3.97-2.38,2.29.46,3.68-.99,3.95-4.28.34-4.32,1.14-8.59.85-12.99-.1-1.38.1-2.65.73-3.81.84-1.55,2.63-2.04,4.22-1.13,5.55,3.21,11.41,5.33,17.54,6.62.89.19,1.72.24,2.56.04,2.55-.62,5-.13,7.37,1.27.01.14.05.28.15.4.17,1.22.47,2.45-.08,3.61-.11.14-.23.26-.34.4h-.03Z"/><g><path class="cls-3" d="m158.05,89.71c-.02,3.62-2.6,4.21-4.94,5.03-2.74.97-5.29.07-6.9-2.59-.91-1.51-2.2-2.69-3.54-3.85-.13-.18-.27-.35-.41-.53-2.11-4.88-6.5-8.43-9.06-13.03-.07-.12-.17-.19-.31-.23-.56-2.9-3.49-3.95-5.29-5.89l.11-.17c-.5-4.63-3.22-8.16-6.81-11.24-.97-.83-1.55-.39-1.95.59-.46,1.13-.45,2.21.25,3.3.04.65.08,1.29.13,1.94.12.16.24.32.36.48-.95,2.08.68,4.01.75,6.03.48,4.04,2.08,7.82,3.72,11.58.17.41.33.82.49,1.23-.08.89-.06,1.76.58,2.54.05.43.09.86.13,1.3-.2.52.03.92.46,1.27.06.4.13.82.2,1.22-.12.37-.15.74-.11,1.1.52.53.88,1.19,1.08,1.98.16.64-.02,1.47-.43,2.32-.03.06-.06.13-.1.19-.69,1.36-1.95,2.75-3.32,3.49-3.05,1.64-5.22,1.33-6.64-.06-3.23-3.18-6.09-6.65-11.28-8.25-2.56-.79-4.41-2.63-5.79-4.53-1.43-1.98-3.18-3.74-5.81-4.48-3.68-1.04-5.02-4.03-8.22-5.31-4.9-1.95-7.4-5.93-11.98-8.12-1.21-.58-1.77-1.71-3.51-1.92-3.25-.4-2.29-3.15-1.02-5.62,1.21-2.34,3.69-3.76,6.5-4.08.31-.04.7-.3,1.05-.44.52-.33,1.03-.67,1.56-1,.57.58.83,1.44,2.12,1.39.24.27.5.54.74.8.29.82.71,1.52,2.06,1.39.24.22.5.45.74.67.63.52,1.28,1.05,1.92,1.58.09.15.18.31.27.45-.12,1.95,1.29,2.43,3.69,1.92-.35.63-.26,1.06.2,1.33,1.52,3.05,5.91,3.72,7.97,6.33.07.1.67-.17,1.03-.26.73.66-.05,2.22,1.3,2.49.15.11.29.23.44.35.45.27.9.54,1.35.79v.03c3.63,4.27,7.8,8.14,12.46,11.59-.23-.61-.5-1.21-.83-1.8-.65-1.16-.73-2.4-.97-3.65-1.17-6.17-1.74-12.44-4.06-18.45l.05-.06c.08-3.2.28-6.39.21-9.59-.07-3.32,1.55-6.59-.25-9.96.12-.23.24-.48.36-.72v.05c2.47-.78,4.69-2.23,7.64-1.48,3.62.94,5.74,3.42,7.39,6.28,2.13,3.72,4.28,7.36,7.76,10.18.3.24.62.74.57,1.05-.4,3.14,1.95,5.38,3.8,7.25,3.11,3.16,4.71,7.09,7.44,10.38.7.84,1.05,2.08,2.47,1.76,1.54-.35,1.47-1.71,1.37-2.84-.29-3.17-.63-6.32-.23-9.48.56-4.47-.75-9.01-.9-13.37-.26-7.35-2.41-14.41-2.98-21.64-.25-3.23,1.22-5.02,4.65-5.62,3.53-.63,4.6,1.52,5.4,4.02.36,1.12.59,2.3.65,3.45.29,5.84,1.11,11.61,3,17.27.94,2.79-.29,5.41-.27,8.14.02,1.25.09,2.29,1.15,3.17.01.34.02.68.05,1.02-.42,3.18-.07,6.48-1.12,9.57-.36,1.07.38,2.03.98,2.95-.09.17-.13.34-.13.53-.99,1.1-.34,2.38-.28,3.61.18,4.29.85,8.56.84,12.88Z"/><path class="cls-3" d="m126.56,94.09v.17s-.07.01-.1.02c.04-.06.07-.13.1-.19Z"/></g><path class="cls-3" d="m289.24,84.55c-.7-3.43-.78-6.85-.9-10.27-.12-.17-.18-.35-.16-.54-1.23-1.91-1.33-3.86-.89-5.83l-.2-.14c-1.59-.86-1.18-2.06-1.02-3.2-.24-.28-.47-.55-.71-.84-2.08-2.4-4.16-4.8-6.24-7.21-.13-.05-.24-.12-.32-.24-1.27-1.14-2.53-2.28-3.8-3.43-.2-.04-.36-.13-.48-.28-1.69-1.25-3.38-2.52-5.07-3.78-.33-.05-.66-.12-1-.17-.35.18-.66.11-.92-.21-.47-.4-.94-.8-1.41-1.2-3.87-2.19-8.57-1.67-12.38-4.03-5.94-.63-12.09-3.22-17.65-.14.03.23.08.46.12.7-.19-.07-.36-.13-.48-.22-2.12-1.55-4.73-2.23-7.11-1.56-2.5.72-4.97,1.8-3.04,4.07,1.02,1.21.65,2.24,1.09,3.35,1.63,4.19.67,8.19,2.68,12.43,1.31,2.77.23,5.44,2.02,8.37,1.28,2.09,1.29,4.25.94,6.35-.34,2.03-.32,4.29.89,6.37,2.2,3.79,2.12,7.31,2.13,10.86-1.19.42-2.09,1.16-2.24,2.65-.2,1.96,1.08,3.51,2.99,4.53,9.37,5.03,17.87,11.57,28.57,14.36,4.57,1.2,8.76,1.86,12.84.12,4.67-2,7.1-6.07,8.82-9.9,1.25-2.78,1.27-6.56,1.55-9.96.25-3.18-.19-6.69,2.17-9.37-.26-.54-.53-1.09-.79-1.64Zm-11.88,9.54c-.75,3.91-2.06,7.56-4.73,10.61-1.19,1.37-3.58,1.51-5.01,1.09-3.33-.99-6.76-1.42-10.04-2.49-.73-.25-1.31-.96-1.95-1.46-2-.98-4.27-1.56-5.77-3.32-.42-.03-.84-.05-1.25-.08-.57-.18-1.14-.36-1.72-.54-.17-.01-.33-.02-.48-.05,1.06-1.7.6-3.52-1.11-5.41-1.21-1.35-2.09-2.76-2.36-4.1-1.24-5.91-1.65-11.73-1.19-17.45v-.04c-.14-.43-.26-.87-.39-1.32-.02-.16-.05-.32-.06-.48-.73-1.02.83-1.49.77-2.34-.3-.16-.88-.38-.86-.49.35-2.87-2.18-6.02-1.18-8.82-.12-.46.1-.78.77-.94-1.98-1.19-2.6-2.36-1.23-3.47.04-.15.09-.31.13-.45-.05-.45-.1-.9-.15-1.35.84.11,1.84.1,3.01,0,7.28-.66,14.19.05,21.07,3.79,6.9,3.73,11.68,8.49,13.18,15.49h.01s.07.1.07.1c1.08,2.38,2.32,4.95,1.79,7.29-.55,2.45-.21,4.66.75,6.99-.7,3.08-1.48,6.14-2.07,9.24Z"/><path class="cls-3" d="m536.62,146.79c-.39-3.2-.22-6.33-.09-9.47-.09-.16-.12-.33-.1-.5-.99-1.84-.94-3.63-.39-5.41l-.18-.13c-1.38-.9-.93-1.96-.7-3-.19-.28-.39-.56-.58-.83-1.74-2.36-3.48-4.7-5.2-7.06-.12-.06-.22-.13-.28-.24-1.08-1.15-2.16-2.29-3.23-3.42-.18-.05-.32-.15-.42-.3-1.45-1.28-2.9-2.55-4.36-3.83-.29-.08-.59-.16-.9-.23-.34.13-.62.05-.83-.26-.4-.4-.81-.81-1.21-1.21-3.37-2.29-7.72-2.16-11.04-4.59-5.4-1.01-10.83-3.82-16.15-1.4.01.2.04.42.06.63-.16-.07-.31-.14-.41-.23-1.83-1.57-4.17-2.38-6.41-1.94-2.34.47-4.68,1.28-3.08,3.5.85,1.18.43,2.09.75,3.14,1.2,3.96.03,7.55,1.56,11.58,1,2.64-.18,5,1.25,7.81,1.01,2.01.86,3.99.39,5.9-.45,1.82-.6,3.9.36,5.89,1.73,3.64,1.4,6.87,1.16,10.12-1.12.31-2,.92-2.25,2.27-.33,1.78.74,3.29,2.41,4.37,8.22,5.28,15.52,11.88,25.12,15.22,4.09,1.43,7.88,2.35,11.75,1.04,4.41-1.5,6.95-5.05,8.8-8.43,1.35-2.46,1.64-5.91,2.14-9.01.46-2.88.31-6.13,2.66-8.41-.2-.52-.4-1.04-.6-1.57Zm-8.99-.43c-.86,2.77-1.81,5.51-2.57,8.32-.97,3.51-2.43,6.77-5.1,9.37-1.19,1.16-3.38,1.12-4.66.62-2.99-1.14-6.09-1.77-9.02-3-.65-.27-1.12-.96-1.68-1.47-1.76-1.05-3.8-1.74-5.04-3.46-.38-.06-.76-.11-1.13-.16-.51-.22-1.03-.42-1.54-.64-.16-.02-.31-.04-.45-.09,1.09-1.48.8-3.18-.63-5.04-1.01-1.32-1.71-2.67-1.87-3.92-.7-5.5-.65-10.88.18-16.08h-.02c-.08-.43-.17-.84-.25-1.25,0-.16-.01-.3-.02-.45-.59-.98.88-1.29.89-2.08-.27-.18-.78-.41-.76-.51.52-2.61-1.56-5.68-.44-8.18-.09-.42.15-.69.76-.8-1.71-1.24-2.2-2.34-.86-3.27.05-.14.1-.27.15-.41-.01-.42-.03-.83-.04-1.25.77.17,1.68.24,2.76.23,6.71-.07,12.99,1.07,19.03,4.99,6.05,3.93,10.07,8.62,10.94,15.14v.02l.07.09c.82,2.27,1.76,4.7,1.12,6.81-.68,2.21-.54,4.26.18,6.47Z"/><g><path class="cls-1" d="m688.76,158.54c-.06.2-.13.41-.19.61.03-.34.05-.69.07-1.04.03.14.07.29.12.43Z"/><path class="cls-1" d="m688.78,152.44c-.1-1.06-.39-2.12-.79-3.13-.39-.96-.59-1.91-.57-2.86.11.45.2.9.26,1.37l.05.08c.54,1.5,1.15,3.08,1.05,4.54Z"/><path class="cls-3" d="m663.32,124.57c-1.1.09-2.18.35-3.25.83-.22.1-.43.21-.64.32-.02-.13-.04-.26-.04-.38,1.3-.59,2.61-.79,3.93-.77Z"/><path class="cls-3" d="m688.83,153.48c-.03,1.55-.1,3.09-.19,4.63-.46-1.61-.52-3.13-.02-4.76.09-.3.14-.6.16-.91.04.34.05.69.05,1.04Z"/><path class="cls-1" d="m696.47,160.16c-.17-.42-.32-.84-.48-1.25-.32-2.57-.18-5.08-.08-7.6-.08-.12-.1-.26-.08-.39-.8-1.49-.74-2.92-.31-4.34l-.15-.11c-1.11-.72-.74-1.57-.56-2.41-.15-.22-.31-.44-.46-.66-.75-1.02-1.5-2.04-2.25-3.06.53-.34.9-.85.96-1.65.11-1.45-.86-2.57-2.28-3.29-6.98-3.56-13.33-8.22-21.25-10.12-2.17-.51-4.23-.88-6.21-.71-1.1.09-2.18.35-3.25.83-.22.1-.43.21-.64.32-2.98,1.62-4.57,4.45-5.69,7.11-.88,2.07-.83,4.85-.98,7.35-.14,2.35.24,4.93-1.45,6.93.2.41.4.8.6,1.2.57,2.51.68,5.02.83,7.54.08.13.13.25.12.39.94,1.4,1.04,2.83.74,4.28,0,.01.15.09.15.09,1.18.61.91,1.49.81,2.34.05.06.1.12.14.17-.31.29-.52.68-.62,1.21-.27,1.43.59,2.65,1.92,3.51,6.6,4.24,12.45,9.53,20.14,12.2,3.29,1.14,6.32,1.87,9.42.83.3-.1.58-.21.86-.34.07,1.8.18,3.6-.42,5.36.01.47-.18.83-.6,1.04,1.02,1.13,1.24,2.31.23,3.58-.04.16-.1.31-.14.48-.06.75-.11,1.5-.17,2.26-.02.16-.03.33-.05.49-.05,0-.09-.03-.14-.04-.22,1.81-.32,3.67-1.15,5.34-.03.06-.07.13-.11.2.02.36.05.72.07,1.08.1,1.28-.07,2.89-2.11,3.73-5.82,2.39-11.92,1.86-18.26.21-1.07-.28-1.89-.95-2.44-1.63-1.3-1.66-2.95-3.16-3.42-5.2-.36-1.55-1.49-2.92-3.51-3.11-2.67-.26-5.16.29-6.58,2.16-.95,1.27-1.17,3.06.3,4.32,4.66,3.95,8.15,9.14,15.06,10.76.74.02,1.4.19,1.71.88.1.2.2.41.31.6,1.51.4,3.27-.63,4.58.97.94-1.04,2.05-1.03,3.31-.08.99-.12,1.98-.25,2.99-.37,2.59.28,5.09-.59,7.73.3v.02c1.18-.39,2.07-1.23,3.63-.99,1.25.17,1.73-.79,2.35-1.48.1-.21.2-.42.3-.62l-.04-.06c1.46-1.52,2.69-3.14,3.55-4.96.38-2.13.34-4.33.57-6.64-.12-.28-.26-.56-.4-.85-.06-.11-.12-.22-.18-.34-.02-.3-.09-.62-.22-.97-.45-1.22-.07-2.33-.17-3.47-.37-4.31.81-8.57.21-12.92-.37-2.69.55-5.39.1-8.18.51-1.7.72-3.68,1.01-5.5.38-2.31.26-4.91,2.15-6.74Zm-7.83-2.05c.03.14.07.29.12.43-.06.2-.13.41-.19.61-.64,2.01-1.32,4.01-1.87,6.05-.74,2.68-1.83,5.15-3.74,7.17-3.98.03-7.86-.69-11.74-2.69-5.13-2.65-8.72-6.07-9.93-11.19l-.06-.06c-.83-1.75-1.79-3.61-1.44-5.34.36-1.81.08-3.43-.66-5.14.46-2.28.99-4.55,1.37-6.84.49-2.89,1.4-5.6,3.31-7.89.87-1.02,2.63-1.17,3.68-.88,2.46.68,5,.93,7.43,1.67.53.17.98.69,1.45,1.04,1.49.7,3.17,1.08,4.3,2.36.22,0,.44.01.66.02,3.12,2.49,5.27,5.38,6.09,9.02.11.45.2.9.26,1.37l.05.08c.54,1.5,1.15,3.08,1.05,4.54.04.34.05.69.05,1.04-.03,1.55-.1,3.09-.19,4.63Z"/></g><g class="cls-4"><path class="cls-3" d="m112.88,83.38c-.02,4.52-3.24,5.26-6.17,6.29-3.41,1.2-6.6.08-8.62-3.24-1.14-1.89-2.74-3.37-4.41-4.81-.18-.23-.35-.44-.52-.67-2.64-6.1-8.12-10.53-11.33-16.28-.08-.15-.2-.23-.37-.28-.71-3.63-4.36-4.95-6.62-7.36l.14-.22c-.62-5.78-4.02-10.2-8.51-14.04-1.21-1.04-1.93-.49-2.44.73-.58,1.42-.55,2.76.32,4.13.05.81.1,1.61.16,2.42.15.2.3.4.45.6-1.19,2.6.85,5.01.94,7.54.6,5.04,2.6,9.76,4.64,14.47.21.51.42,1.02.61,1.53-.09,1.11-.07,2.21.73,3.17.06.54.11,1.08.16,1.63-.24.65.04,1.15.58,1.58.08.51.16,1.03.25,1.54-.15.45-.19.9-.15,1.34.65.66,1.1,1.49,1.35,2.5.2.79-.02,1.82-.53,2.89-.04.08-.08.16-.13.24-.86,1.7-2.43,3.44-4.14,4.36-3.82,2.06-6.53,1.66-8.3-.07-4.04-3.97-7.61-8.31-14.1-10.31-3.19-.98-5.51-3.28-7.22-5.65-1.8-2.47-3.98-4.67-7.26-5.61-4.6-1.3-6.28-5.03-10.28-6.63-6.12-2.44-9.24-7.41-14.97-10.15-1.51-.72-2.21-2.13-4.38-2.4-4.06-.5-2.87-3.93-1.27-7.01,1.5-2.93,4.61-4.7,8.11-5.11.39-.04.88-.37,1.32-.54.65-.42,1.29-.84,1.94-1.25.73.72,1.04,1.8,2.65,1.73.31.34.63.67.94,1.01.36,1.01.88,1.89,2.57,1.73.3.27.61.56.92.83.79.66,1.6,1.32,2.39,1.98.12.19.23.38.34.57-.14,2.44,1.61,3.03,4.62,2.39-.44.78-.33,1.33.25,1.67,1.89,3.81,7.38,4.65,9.95,7.9.1.13.84-.21,1.29-.32.91.82-.06,2.77,1.63,3.11.18.14.36.29.54.44.56.34,1.12.67,1.69.99v.04c4.54,5.34,9.74,10.16,15.57,14.48-.28-.76-.63-1.51-1.04-2.25-.81-1.46-.9-3.01-1.2-4.57-1.47-7.71-2.19-15.54-5.08-23.04l.06-.08c.1-4,.36-7.98.26-11.99-.08-4.15,1.95-8.24-.31-12.44.15-.29.3-.6.45-.9v.06c3.09-.98,5.86-2.79,9.54-1.85,4.53,1.18,7.18,4.28,9.24,7.85,2.66,4.64,5.34,9.2,9.7,12.72.38.3.77.92.71,1.32-.5,3.91,2.44,6.71,4.75,9.05,3.89,3.95,5.88,8.85,9.29,12.96.88,1.05,1.31,2.61,3.09,2.2,1.93-.43,1.84-2.13,1.71-3.55-.37-3.95-.78-7.88-.29-11.83.7-5.58-.93-11.26-1.12-16.71-.32-9.18-3.01-18.01-3.73-27.04-.31-4.04,1.53-6.28,5.82-7.03,4.41-.78,5.74,1.91,6.75,5.03.44,1.4.73,2.87.8,4.31.37,7.3,1.39,14.51,3.76,21.58,1.16,3.49-.36,6.76-.34,10.17.02,1.57.11,2.86,1.43,3.96.01.43.03.85.06,1.28-.53,3.97-.08,8.09-1.39,11.95-.46,1.34.48,2.54,1.22,3.69-.11.21-.17.43-.16.66-1.24,1.37-.43,2.98-.35,4.51.23,5.36,1.06,10.69,1.04,16.1Z"/><path class="cls-3" d="m73.54,88.84v.22c-.05.01-.09.01-.13.02.05-.08.09-.16.13-.24Z"/></g></g></g></svg>