<?xml version="1.0" encoding="UTF-8"?><svg id="Layer_2" xmlns="http://www.w3.org/2000/svg" viewBox="0 0 980.92 385.51"><defs><style>.cls-1{fill:#fff;}.cls-2{opacity:.16;}</style></defs><g id="Layer_1-2"><g><path class="cls-1" d="m117.92,157.66c-.17-.95-.59-1.73-1.33-2.41-2.45-2.26-1.56-5.84.59-7.86.35-.33,1.03-.56,1.51-.49,5.67.89,11.18-.77,16.78-.95,4.19-.14,8.38-.32,12.56-.32,1.77,0,3.12,1.3,4.61,2.14-.33.48-.29.92.16,1.31.07.36.13.73.2,1.09-.25.59-.5,1.17-.75,1.76,0,0-.01.03-.01.03-.63.58-1.26,1.15-1.89,1.73-.89.05-1.77.48-2.65-.17-.79-.59-1.7-.62-2.6-.18-1.82-.67-3.65-.28-5.47-.07-1.14-1.5-2.68-1-4.16-.83-1.14-.55-2.34-.8-3.61-.62-1.52.19-3.07.26-4.55.6-1.32.3-2.5.93-1.02,2.5l-.12.16c-.54,1.61-.22,3.09.71,4.46.45,2.63,1.5,5.17,1.23,7.92-.27.44-.2.82.21,1.14.01.1.06.18.14.24-.48,3.98.89,5.16,4.49,3.45,5.26-2.5,10.49-5.09,15.42-8.21,3.66-2.31,7.27-4.54,11.87-3.8.54.1,1.07.2,1.61.3-.07.32-.14.64-.21.97-.06.14-.13.28-.19.43-.31.5-.23.91.28,1.21,0,0-.17,0-.16,0-.38.22-.76.45-1.15.67-.26.15-.53.29-.79.44-.11.13-.22.26-.32.39,0,0-.08.12-.08.12-1.45.72-2.9,1.44-4.35,2.16-.25.22-.49.43-.74.65-1.16.3-1.87,1.28-2.85,1.87-2.04.93-3.73,2.37-5.49,3.72-3.32.98-6.28,2.71-9.24,4.44-1.33.92-3.46.69-4.01,2.75-.02.05-.07.12-.05.15.05.09.12.16.18.24-3.73.18-4.14.88-2.63,4.5.06,3.63.48,3.92,3.93,3.72,2.21-.13,4.05-1.07,5.92-2.03,2.42-1.25,4.91-2,7.65-1.21,0,0,.02.01.02.01.31,1,1.08,1.25,2.01,1.24-.04,2.81-1.72,3.92-4.1,5.21-2.62,1.41-5.4,2.01-8.06,3.08-2.43,1.29-5.45,1.04-7.68,2.87-1.19,0-2.36-.42-3.55-.11l-.03-.03c.22-1.42-1.02-1.74-1.82-2.4-.68-1.8-1.68-3.48-1.92-5.44.08-.05.13-.12.15-.21,1.28-2.47,1.12-4.99-.67-6.99-1.22-1.37-1.68-2.73-1.71-4.41.19-.67.37-1.34.56-2.01,1.86-.99,1.47-2.73,1.37-4.32-.3-4.98-2.01-9.58-3.81-14.16-.12-.15-.24-.29-.36-.44Z"/><path class="cls-1" d="m175.17,176.63c.06-.24.11-.47.17-.71.08-4.3-2.39-7.32-5.19-10.13-.75-.75-1.59-1.41-1.95-2.42-1.61-4.45-4.34-8.19-7.42-11.71-2.57-2.93-1.92-6.19,1.83-6.72,5.37-.76,9.55-3.91,14.23-6.02,2.23-1.01,4.53-2.44,5.6-4.98.25-.15.51-.31.76-.46,1.69.12,2.33-1.1,3-2.32.87-1.58,2.28-2.67,4.04-2.58,1.61.08,2.27,1.54,2.57,3.05.08.38.33.72.5,1.08.45,2.24-2.1,3.12-2.29,5.06-.75.53-1.44,1.12-1.82,1.98-.64.05-1.3.04-1.79.55,0,0-.12,0-.12,0,0,0,0,.12,0,.12-.69.73-1.38,1.47-2.06,2.2-2.14.59-3.03,3.03-5.29,3.5-3.04.63-5.57,2.4-8.23,3.89-.71.4-1.44.76-1.41,1.75-1.24,1.84.41,2.9,1.21,4.09,1.79,2.68,1.85,2.64,4.23.27,2.23-1.09,4.21-2.51,5.62-4.61.47-.48.95-.96,1.42-1.44.49.01.75-.23.78-.72.27-.34.55-.67.82-1.01,2.1-.27,2.48-2.59,4.11-3.43.95-.34,1.39-1.26,2.08-1.89,1.22-.63,2.25-1.49,3.19-2.49,2.11-2.25,4.33-2.27,6.61-.09.16.48.32.96.48,1.43-.05.13-.03.25.08.34.05.64-.04,1.24-.57,1.69-1.38,1.57-3.39,2.25-5,3.5-.26.22-.52.44-.78.66-.14.22-.29.44-.44.66-2.05.71-2.61,2.91-4.23,4.21-3.21,2.6-6.18,5.59-9.2,8.47-1.83.55-3.08,1.48-2.37,3.68.65,1.37,1.19,2.86,3.15,2.69.17.31.33.62.5.93-.46.92-.3,1.46.85,1.4.12.14.24.29.36.43-.45.89-.57,1.68.61,2.1.13.15.26.31.4.46-.17.51-.34,1.02-.51,1.52-.12.36-.04.55.38.45.3-.12.61-.23.91-.35-.4.6-.97,1.23-.26,1.91.52.5,1.23.33,1.84.08.82-.33,1.74-.59,2.37-1.15,3.36-2.98,7.63-4.48,11.21-7.1,1.11-.81,2.1-.56,2.91.55.47.65,1.01,1.25,1.52,1.88-.03.25-.06.51-.09.76-.16.96-.52,1.82-1.27,2.48-1.23.97-3.32.9-3.61,3-3.22.88-5.9,2.76-8.59,4.63-.15.17-.29.33-.44.5,0,0-.03.01-.03.01-.56.24-1.06.56-1.37,1.11-.73-.64-1.26-.36-1.83.28-1.02,1.13-2.1,2.21-3.19,3.28-1.25,1.23-2.54,2.96-4.45,2.27-1.97-.72-2.44-2.84-2.74-4.78-.09-.55.01-1.13-.02-1.69-.13-2.18-.5-4.3-1.76-6.16Z"/><path class="cls-1" d="m382.27,205c.15-.25.3-.5.45-.75,1.64-4.9-.1-9.24-2.3-13.47-.58-1.13-1.31-2.19-1.36-3.47-.25-5.68-2.03-10.94-4.29-16.08-1.88-4.28.03-7.78,4.51-7.04,6.42,1.06,12.34-1.04,18.46-1.77,2.92-.35,6.06-1.16,8.21-3.69.35-.08.69-.17,1.03-.25,1.89.75,3.06-.43,4.26-1.58,1.57-1.5,3.57-2.23,5.55-1.5,1.82.68,2.04,2.58,1.84,4.42-.05.46.12.95.18,1.42-.28,2.73-3.52,2.81-4.44,4.97-1.05.34-2.05.76-2.8,1.61-.75-.17-1.5-.43-2.25-.02,0,0-.14-.04-.14-.04l-.03.14c-1.05.59-2.1,1.18-3.15,1.78-2.66-.1-4.55,2.38-7.32,2.1-3.71-.37-7.25.75-10.82,1.5-.96.2-1.93.36-2.25,1.5-2.08,1.66-.57,3.47-.09,5.12,1.09,3.71,1.16,3.69,4.75,1.83,2.95-.45,5.72-1.35,8.09-3.26.71-.38,1.43-.76,2.14-1.13.56.19.94,0,1.15-.54.44-.29.87-.57,1.3-.86,2.5.45,3.77-2.08,5.93-2.44,1.22-.05,2.04-.94,3.06-1.41,1.63-.28,3.12-.9,4.55-1.71,3.22-1.81,5.77-1.04,7.59,2.28.01.61.02,1.21.04,1.82-.11.13-.12.28-.03.42-.18.76-.49,1.41-1.26,1.73-2.15,1.31-4.69,1.36-6.98,2.21-.38.16-.75.32-1.13.48-.24.2-.49.4-.74.59-2.6.08-4.04,2.39-6.35,3.3-4.61,1.82-9.09,4.18-13.58,6.39-2.29-.02-4.06.59-4.03,3.36.25,1.8.33,3.7,2.64,4.21.08.41.16.83.24,1.24-.85.88-.87,1.56.47,1.91.09.21.17.42.26.62-.83.86-1.26,1.72-.06,2.62.1.22.19.44.29.67-.38.52-.75,1.04-1.13,1.56-.27.37-.24.61.27.66.39-.02.78-.05,1.17-.07-.67.54-1.56,1.06-.99,2.1.42.76,1.3.82,2.07.76,1.05-.08,2.2-.05,3.13-.47,4.91-2.2,10.35-2.38,15.39-4.09,1.56-.53,2.61.11,3.14,1.68.31.91.71,1.8,1.06,2.7-.12.28-.25.56-.37.84-.53,1.04-1.25,1.9-2.35,2.38-1.75.67-4.13-.16-5.21,2.14-4-.15-7.75,1.04-11.5,2.22-.23.14-.46.28-.68.42,0,0-.04,0-.04,0-.73.07-1.42.26-1.97.77-.6-.99-1.31-.86-2.2-.34-1.58.93-3.2,1.78-4.84,2.61-1.88.96-3.97,2.48-5.92.99-2-1.53-1.77-4.13-1.42-6.46.1-.66.42-1.29.58-1.94.63-2.55.98-5.11.2-7.69Z"/><path class="cls-1" d="m374.46,44.71c.94-8.27,1.11-16.58.55-24.9-.13-1.89-.78-3.8-1.75-5.57-1.38-2.52-1.61-5.1-.47-7.7.87-1.97,3.99-3.33,6.05-2.67,2.76.88,3.75,2.93,3.62,5.42-.3,5.67-1.01,11.32.8,17.05.89,2.83.7,6.08.22,9.02-.51,3.07-.7,6.17.25,9,1.34,3.97.12,7.93,1.04,11.74,1.41,5.83.18,11.69,1.26,17.49.29,1.54-.14,3.06.67,4.67,1.52,3.01-.8,4.88-3.12,6.23-2.21,1.29-4.5.65-6.26-1.3-.19-.21-.58-.29-.87-.42-.5-.1-1-.19-1.51-.29.06-1.02.49-2.06-.25-3.05.04-.46.08-.92.12-1.38.37-1.02.6-2.03-.23-2.99,0-.41.02-.82.03-1.23,0-1.02-.01-2.04-.02-3.07.05-.22.1-.44.15-.66,1.34-1.79.88-3.37-.78-4.82.61-.32.85-.81.77-1.45,1.17-4.16-.81-8.35-.23-12.52.02-.16-.48-.39-.74-.59.03-1.22,1.48-2.09.92-3.45,0-.23,0-.46,0-.69-.07-.62-.15-1.24-.22-1.85Z"/><path class="cls-1" d="m101.73,268.73c-.83.81-2.01,1.05-3.16.79-.13-.03-.32.02-.48.03-.25.07-.5.13-.76.2-.13-.32-.1-.72-.61-.88-.05-.15-.11-.3-.16-.45.01-.38-.05-.73-.59-.87-.07-.13-.13-.26-.19-.38-.17-.31-.34-.63-.5-.94-.02-.07-.03-.15-.04-.23.34-.8-.13-1.2-1.15-1.32.24-.22.27-.41.13-.59-.12-1.5-1.73-2.4-2.13-3.79-.01-.05-.29-.02-.44-.04-.18-.37.36-.92-.13-1.23-.04-.06-.08-.14-.11-.21-.14-.17-.27-.35-.41-.52-.89-2.71-2.15-5.28-3.76-7.72-.34-.51-.89-.94-1.56-1.28-.89.8-1.84,1.53-2.55,2.57-.32.48-.85.65-1.04,1.36-.01.03-.01.06-.02.08.02,1.83.1,3.65.23,5.48.08,1.17.46,2.34,1.02,3.42.79,1.54.94,3.14.31,4.77-.48,1.24-2.23,2.14-3.4,1.77-1.56-.49-2.13-1.74-2.07-3.29.13-3.52.5-7.04-.56-10.57-.52-1.73-.43-3.76-.17-5.59.27-1.91.36-3.85-.2-5.58-.78-2.44-.11-4.92-.66-7.27-.83-3.59-.17-7.25-.81-10.83-.17-.95.06-1.91-.41-2.89-.88-1.84.43-3.04,1.73-3.92,1.23-.84,2.53-.49,3.54.68.11.13.32.17.49.25.28.05.57.1.85.15-.03.64-.26,1.29.16,1.89-.02.29-.04.57-.06.86-.2.64-.33,1.27.15,1.85,0,.26-.01.51-.01.77.01.63.02,1.27.03,1.9-.03.14-.06.28-.08.42-.75,1.13-.48,2.11.47,2.97-.35.22-.48.53-.43.92-.64,2.6.51,5.16.21,7.76-.02.1.27.24.42.35-.01.76-.83,1.33-.5,2.16,0,.15.01.29.01.43.04.39.09.77.13,1.15-.05.55-.1,1.11-.14,1.66.02,0,.04-.02.05-.04,1.45-.48,1.97-2.26,3.24-2.99.05-.02-.04-.28-.07-.44.34-.26.99.13,1.19-.41.06-.06.12-.11.18-.17.14-.17.28-.34.42-.52,2.46-1.51,4.7-3.36,6.73-5.51.46-.49.77-1.2.96-2.01.25-1.15.86-1.85,1.89-1.97.77-.09,2.05.88,2.49,1.89.58,1.35.33,2.23-.36,2.75-1.59,1.18-3.29,2.19-4.26,4.26-.49,1.03-1.4,1.7-2.32,2.17-.96.5-1.84,1.14-2.3,2.19-.3.68-.75,1.12-1.23,1.52.05.08.09.16.13.25.77,1.79,1.35,3.65,3.13,5.06.88.7,1.31,1.73,1.56,2.72.25,1.03.66,2.02,1.57,2.7,1.28.96,1.34,2.4,2.39,3.39,1.61,1.52,1.97,3.54,3.42,5.11.38.41.43.96,1.07,1.3,1.21.63.41,1.64-.47,2.5Z"/><path class="cls-1" d="m541,220.29c3.51-7.88,6.34-16.01,8.51-24.35.49-1.9.52-3.95.21-5.96-.43-2.85.19-5.46,2.06-7.7,1.42-1.7,4.67-2.19,6.32-.99,2.21,1.61,2.44,3.9,1.52,6.31-2.1,5.5-4.56,10.86-4.77,17-.11,3.02-1.32,6.18-2.71,8.93-1.45,2.88-2.62,5.88-2.67,8.93-.07,4.27-2.45,7.83-2.84,11.84-.6,6.12-3.6,11.55-4.5,17.55-.24,1.59-1.11,2.98-.9,4.77.41,3.38-2.29,4.59-4.82,5.29-2.41.67-4.27-.58-5.23-2.98-.11-.26-.43-.44-.65-.65-.42-.23-.84-.46-1.27-.69.39-.99,1.1-1.9.75-3.07.19-.44.37-.89.55-1.33.67-.9,1.2-1.83.76-3.01.14-.4.28-.8.42-1.2.32-1.01.65-2.01.97-3.02.12-.2.23-.41.35-.61,1.78-1.39,1.88-3.08.85-4.96.65-.15,1.03-.57,1.16-1.22,2.39-3.78,1.95-8.43,3.82-12.38.07-.15-.31-.51-.48-.78.42-1.19,2.01-1.66,1.94-3.15.07-.23.14-.46.22-.68.13-.63.26-1.26.4-1.88Z"/><path class="cls-1" d="m109.1,61.89c2.34,3.54,4.97,6.86,7.86,9.96.66.71,1.5,1.26,2.42,1.66,1.3.57,2.22,1.52,2.65,2.89.33,1.04-.32,2.52-1.26,2.88-1.25.49-2.26-.02-3.02-1.03-1.73-2.32-3.3-4.76-5.79-6.47-1.23-.84-2.21-2.18-2.99-3.48-.81-1.36-1.75-2.64-3-3.46-1.75-1.15-2.6-3.08-4.16-4.3-2.38-1.86-3.84-4.54-6.1-6.5-.6-.52-.94-1.25-1.74-1.63-1.51-.72-1.3-2.16-.92-3.4.36-1.17,1.37-1.62,2.62-1.38.14.03.3-.06.44-.1.21-.11.41-.23.62-.34.31.42.5.96,1.07,1.12.14.19.27.39.4.58.2.51.44.98,1.05,1.11.13.16.26.33.39.49.33.4.67.8,1,1.2.05.1.11.2.16.31.11,1.11.78,1.59,1.83,1.66-.11.31-.03.58.2.8.94,1.99,2.98,3.04,4.13,4.85.04.07.29,0,.45,0,.38.49.16,1.27.79,1.64.08.09.15.18.23.27.23.22.45.44.68.66Z"/><path class="cls-1" d="m632.65,245.76c-5.92,7.43-11.17,15.31-15.79,23.59-1.05,1.88-1.64,4.06-1.87,6.29-.33,3.16-1.71,5.76-4.32,7.64-1.98,1.42-5.58,1.05-7.01-.69-1.91-2.33-1.52-4.83.12-7.14,3.75-5.28,7.85-10.31,9.77-16.79.95-3.19,3.12-6.21,5.35-8.77,2.34-2.67,4.42-5.54,5.31-8.77,1.25-4.53,4.77-7.67,6.29-11.83,2.33-6.35,7.02-11.31,9.64-17.46.69-1.63,2.01-2.86,2.27-4.84.5-3.71,3.71-4.25,6.6-4.3,2.75-.05,4.39,1.8,4.75,4.62.04.31.34.59.51.88.38.36.77.73,1.16,1.09-.69.95-1.7,1.72-1.65,3.06-.32.42-.64.84-.96,1.26-.96.77-1.78,1.62-1.64,2.99-.26.39-.52.78-.78,1.17-.62.98-1.24,1.97-1.87,2.95-.18.18-.36.37-.54.55-2.29.99-2.85,2.76-2.27,5.05-.74-.02-1.25.32-1.58.98-3.59,3.36-4.41,8.45-7.49,12.14-.12.14.19.63.29.96-.78,1.15-2.6,1.21-2.94,2.82-.14.22-.28.45-.42.67-.31.63-.63,1.26-.94,1.9Z"/><path class="cls-1" d="m761.07,301.59c-5.16,6.48-9.74,13.35-13.77,20.57-.92,1.64-1.43,3.54-1.63,5.48-.29,2.75-1.49,5.02-3.76,6.66-1.73,1.24-4.86.91-6.11-.6-1.67-2.03-1.33-4.21.11-6.23,3.27-4.6,6.85-8.99,8.52-14.64.83-2.78,2.72-5.42,4.67-7.65,2.04-2.33,3.85-4.83,4.63-7.65,1.09-3.95,4.16-6.69,5.49-10.31,2.03-5.54,6.13-9.86,8.4-15.22.6-1.42,1.75-2.5,1.98-4.22.44-3.23,3.24-3.71,5.75-3.75,2.39-.04,3.82,1.57,4.14,4.02.03.27.29.51.45.76.34.32.67.63,1.01.95-.6.83-1.48,1.5-1.44,2.67-.28.37-.56.73-.84,1.1-.83.67-1.55,1.41-1.43,2.61-.23.34-.45.68-.68,1.02-.54.86-1.08,1.72-1.63,2.57-.16.16-.32.32-.47.48-1.99.87-2.49,2.41-1.98,4.4-.64-.02-1.09.28-1.37.85-3.13,2.93-3.84,7.36-6.53,10.58-.1.12.16.55.26.84-.68,1-2.27,1.06-2.56,2.46-.12.19-.24.39-.37.58-.27.55-.55,1.1-.82,1.65Z"/><path class="cls-1" d="m429.31,4.51c-.38.5-.44,1.07-.27,1.68-.82.65-.7,1.61-.71,2.52-1.32.9-2.64,1.81-3.96,2.71-1.1.54-2.21,1.09-3.31,1.63-.28.19-.56.38-.84.57-.47.27-.95.55-1.42.82-2.23.89-4.49,1.71-6.68,2.68-2.77,1.23-5.75,2.28-6.47,5.89-.03.18-.05.36-.08.54-.12.42.1.59.47.64.17.05.34.03.5-.05.16.29.32.59.48.88-.1.23-.21.46-.31.69-.46.52-.5.94.29,1.17.19.04.39.09.58.13,2.62,4.01,4.09,8.59,6.25,12.83.76,1.49,1.55,1.81,2.95,1.1,7.55-3.84,15.82-6.53,22.45-11.79,3.61-2.86,8-4.95,10.68-9.25,1.75-2.82,5.35-3.28,8.56-3.5,1.61-.11,3.25,2.62,3.2,5.1-.03,1.44-.34,2.88-.52,4.31-.11.04-.19.11-.24.21-.76,1.1-1.52,2.21-2.27,3.31-.25.04-.51.08-.76.12-3.28-.5-6.06.11-7.64,3.41-.6.32-1.2.65-1.8.97-1.26.07-2.44.36-3.33,1.34-.64.47-1.28.93-1.92,1.4-3.69,1.81-7.19,3.93-10.69,6.08-3.51,2.16-7.66,3.51-11.45,5.39-1.06.53-2,1.11-2.42,2.32-.4.47-.34.98-.05,1.5.73,2.38.49,5.26,3.34,6.55.07.47.14.95.21,1.42.11.4.37.58.76.58-.49.94-.78,1.82.73,2.07-.03.19.04.32.21.4-.2.89-.02,1.65.77,2.19.05.24.1.48.15.71-.35.69-.26,1.3.35,1.82.14.3.29.6.43.9l-.04.11c-.25.46-.1.78.35,1,.16.12.31.23.47.35,1.43,4.21,3.67,4.83,7.6,2.57,4.06-2.33,7.8-5.27,12.3-6.82.58-.2,1.24-.42,1.63-.86,2.79-3.1,6.41-4.58,10.33-5.5h.05c.41.81.54,1.81,1.53,2.2l.16.05c.2.57.4,1.13.61,1.7-.02.17-.02.34,0,.51-.51.52-.63,1.14-.4,1.85-2.13,3.22-5.06,5.29-8.67,6.48-.63.21-1.1.86-1.65,1.3-.3.12-.6.24-.9.36-.5.27-.99.54-1.49.81-5.31,4.12-11.5,6.51-17.6,9.09-3.38,1.43-5.26-1.25-7.59-2.79-.12-.45-.31-.83-.81-.94-1.21-4.1-2.72-8.06-5.34-11.5,0,0,.04-.08.04-.08.23-.32.18-.61-.12-.87-.27-.79-.54-1.58-.82-2.37-1.5-2.24-2.01-5.05-4-7.02.18-.88-.11-1.3-1.02-1.09-.14-.38-.28-.75-.42-1.13.62-.34.92-.92.63-1.58-.36-.81-1.02-.48-1.6-.27-.49-.62-1.02-.94-1.69-.31-1.48-1.27-2.84-.13-4.25.08-.12-.3-.24-.59-.36-.89,0,0,.02-.02.02-.02.26-.53.2-1.07-.01-1.59-.97-2.43-.72-4.17,1.69-5.7,2.38-1.52,2.51-4.1.21-7.51-3.01-4.48-5.58-9.3-9.23-13.32-1.15-1.27-1.94-2.65-2.28-4.32-.44-2.21.77-4.23,2.88-4.7,7.39-1.63,14.22-4.58,20.62-8.55.93-.58,1.71-1.23,2.31-2.15,1.78-2.78,4.33-4.4,7.51-5.06.12.13.26.22.43.26,1.09,1.04,2.31,1.97,2.7,3.56,0,.23,0,.45,0,.68Z"/><path class="cls-1" d="m721.4,267.68c-.36.25-.52.61-.54,1.04-.69.26-.82.9-1.02,1.5-1.08.32-2.17.64-3.25.97-.86.13-1.73.26-2.59.4-.23.07-.46.14-.69.2-.38.08-.76.17-1.14.25-1.7.13-3.4.21-5.09.4-2.13.25-4.37.33-5.64,2.53-.06.11-.11.22-.17.33-.17.25-.06.4.18.51.11.06.22.09.35.07.04.22.09.45.13.67-.12.13-.24.26-.36.39-.42.25-.54.51-.05.82.12.07.24.13.37.2.9,3.14.91,6.41,1.45,9.61.19,1.13.66,1.49,1.76,1.31,5.92-.98,12.08-1.07,17.7-3.16,3.05-1.14,6.47-1.61,9.2-3.87,1.79-1.48,4.32-1.06,6.53-.56,1.11.25,1.63,2.36,1.06,3.96-.33.93-.85,1.8-1.28,2.7-.08,0-.15.03-.21.09-.75.57-1.5,1.13-2.25,1.7-.18-.02-.36-.05-.54-.07-2.11-.99-4.12-1.15-5.9.68-.48.09-.95.18-1.43.27-.87-.21-1.72-.26-2.53.2-.53.17-1.06.35-1.6.52-2.88.44-5.7,1.11-8.53,1.81-2.83.7-5.92.74-8.89,1.2-.83.13-1.59.32-2.13,1.02-.37.23-.44.57-.36.96-.02,1.7-.8,3.52.84,4.93-.06.32-.11.64-.17.97-.01.28.12.45.39.53-.53.52-.92,1.03.05,1.49-.06.12-.04.22.05.3-.32.54-.37,1.07.05,1.58-.02.17-.03.33-.05.5-.38.38-.46.8-.16,1.26.03.22.06.45.1.67l-.05.06c-.27.25-.23.49.02.72.08.11.16.22.24.32.06,3.03,1.44,3.88,4.58,3.21,3.25-.7,6.4-1.86,9.77-1.97.43-.01.93-.03,1.29-.23,2.55-1.46,5.31-1.7,8.16-1.5h.03c.1.62-.03,1.3.56,1.75l.1.07c.01.41.03.82.04,1.23-.05.11-.09.22-.11.33-.46.23-.67.62-.67,1.12-2.13,1.67-4.56,2.43-7.25,2.47-.47,0-.93.33-1.39.51-.23.02-.46.04-.69.05-.39.08-.79.15-1.18.23-4.47,1.61-9.17,1.93-13.84,2.38-2.59.25-3.28-1.87-4.52-3.34.02-.32-.03-.6-.34-.77.07-2.91-.1-5.79-1.12-8.56,0,0,.04-.05.04-.05.22-.16.25-.36.11-.59-.01-.57-.03-1.14-.04-1.71-.53-1.76-.27-3.7-1.19-5.37.31-.53.21-.86-.45-.92-.01-.27-.03-.55-.04-.82.49-.1.82-.41.77-.9-.07-.6-.59-.52-1.02-.5-.2-.5-.49-.82-1.08-.54-.72-1.13-1.89-.66-2.88-.8-.02-.22-.03-.43-.05-.65,0,0,.02-.01.02-.01.29-.29.36-.66.34-1.04-.13-1.78.41-2.86,2.37-3.37,1.94-.51,2.57-2.17,1.76-4.85-1.07-3.52-1.76-7.18-3.36-10.53-.5-1.06-.74-2.12-.61-3.27.18-1.53,1.43-2.6,2.95-2.48,5.34.43,10.58-.12,15.76-1.42.75-.19,1.42-.45,2.02-.93,1.8-1.45,3.87-1.99,6.16-1.78.05.11.13.2.23.26.51.9,1.13,1.75,1.06,2.86-.05.15-.1.3-.15.44Z"/><path class="cls-1" d="m203.5,125.25c1.53-1.09,2.77-2.63,4.92-2.7,2.64-.08,4.55,1.29,6.2,3.04,2.14,2.27,4.28,4.49,7.18,5.82.25.11.55.41.59.66.3,2.38,2.32,3.53,3.93,4.51,2.7,1.65,4.52,4.19,7,6.02.63.47,1.1,1.31,2.01.76.98-.58.69-1.57.41-2.37-.79-2.26-1.6-4.49-1.92-6.9-.45-3.4-2.18-6.45-3.1-9.62-1.54-5.33-4.32-10.05-6.05-15.23-.77-2.31-.1-3.94,2.12-5.11,2.29-1.21,3.42.14,4.42,1.81.45.74.83,1.56,1.08,2.39,1.28,4.22,2.91,8.27,5.25,12.02,1.16,1.85.81,4.03,1.33,6.02.24.91.49,1.66,1.37,2.08.07.25.14.5.22.74.31,2.42,1.16,4.76,1.02,7.25-.05.86.64,1.41,1.21,1.96-.03.14-.02.28.01.42-.47,1.02.21,1.82.48,2.71.92,3.11,2.17,6.09,2.96,9.26.66,2.65-.99,3.64-2.42,4.74-1.68,1.29-3.59,1.17-5.18-.43-.9-.91-2-1.51-3.12-2.08-.13-.1-.25-.2-.38-.3-2.34-3.13-5.99-4.79-8.59-7.63-.07-.07-.15-.1-.25-.1-.92-2.01-3.11-2.16-4.7-3.19l.05-.15c-1.2-3.29-3.71-5.3-6.72-6.79-.81-.4-1.13.04-1.22.84-.1.93.11,1.72.79,2.37.15.47.3.93.45,1.4.11.09.22.18.33.28-.26,1.73,1.21,2.8,1.63,4.27,1.08,2.86,2.87,5.29,4.69,7.7.19.27.38.53.56.8.11.67.29,1.31.87,1.74.11.31.22.62.33.93-.04.42.19.67.55.83.12.29.24.57.36.86-.03.67.24,1.23.62,1.75.07.2.14.4.21.6.03.13.1.23.23.28.11.44.23.89.34,1.33-.94.44-1.06,1.44-1.49,2.22-.57.4-1.14.81-1.71,1.21-1.28.3-2.36-.38-3.51-.69l-.17-.06c-1.33-2.74-1.98-5.82-4.12-8.15-.66-.72-.94-1.61-1.33-2.48-1.95-4.27-3.5-8.75-6.19-12.66,0,0,.02-.06.02-.06-.54-2.36-.99-4.74-1.64-7.08-.66-2.42-.17-5.16-2.02-7.25.04-.2.08-.4.12-.61Z"/><path class="cls-1" d="m124.89,32.89c1.39-1.69,2.33-3.8,4.72-4.52,2.95-.89,5.51.09,7.89,1.55,3.1,1.9,6.17,3.76,9.83,4.38.32.05.75.3.86.56,1.06,2.59,3.68,3.27,5.78,3.89,3.54,1.05,6.35,3.35,9.69,4.67.85.34,1.63,1.14,2.5.25.93-.95.3-1.97-.26-2.79-1.57-2.31-3.15-4.57-4.24-7.19-1.53-3.69-4.4-6.6-6.38-9.89-3.34-5.54-7.89-10.01-11.41-15.32-1.57-2.37-1.31-4.4.85-6.39,2.21-2.05,3.89-.87,5.52.7.73.7,1.4,1.51,1.94,2.37,2.71,4.36,5.77,8.44,9.54,11.95,1.86,1.73,2.12,4.29,3.31,6.38.54.96,1.05,1.72,2.17,1.93.16.26.31.51.47.77,1.08,2.63,2.74,5.01,3.34,7.85.21.99,1.14,1.39,1.95,1.84.01.17.06.32.14.47-.22,1.29.79,1.98,1.36,2.91,1.98,3.22,4.28,6.2,6.13,9.53,1.55,2.79-.02,4.39-1.3,6.06-1.5,1.96-3.69,2.4-5.96,1.07-1.29-.75-2.7-1.1-4.14-1.4-.17-.07-.35-.15-.52-.22-3.58-2.82-8.18-3.59-11.97-5.99-.1-.06-.2-.07-.31-.04-1.65-1.98-4.15-1.49-6.25-2.17v-.19c-2.34-3.34-5.77-4.85-9.61-5.62-1.04-.21-1.26.38-1.12,1.31.16,1.08.64,1.9,1.6,2.43.31.48.62.96.92,1.44.15.07.3.14.45.21.23,2.03,2.21,2.78,3.12,4.31,2.08,2.9,4.82,5.09,7.6,7.25.29.24.58.49.87.73.33.72.72,1.38,1.5,1.69.22.31.44.63.66.94.08.49.42.7.87.77.22.29.45.57.67.86.17.76.64,1.31,1.23,1.79.14.2.28.41.42.61.07.14.19.22.34.25.26.47.52.93.78,1.4-.93.78-.76,1.94-1.01,2.95-.52.63-1.04,1.25-1.56,1.88-1.35.72-2.77.29-4.16.28h-.21c-2.32-2.7-3.98-5.97-7.09-7.94-.96-.61-1.54-1.53-2.25-2.39-3.48-4.22-6.58-8.79-10.79-12.38,0,0,0-.08,0-.07-1.32-2.49-2.55-5.04-3.97-7.47-1.48-2.52-1.75-5.76-4.46-7.55-.02-.24-.03-.48-.05-.72Z"/><path class="cls-1" d="m219.98,241.1c-.28,1.31.31,2.39.93,3.47-.08,1.03.18,1.91,1.02,2.57.01.31.02.62.03.93.42.75.85,1.51,1.27,2.27-.3.58-.6,1.15-.89,1.72-.35.07-.69.15-1.04.22-3.13.67-3.66.4-5.6-2.2-.61-.82-1.22-1.76-2.29-2.14,0,0-.08-.05-.08-.05-.57-1.99-.75-4.17-2.63-5.54-.05-.13-.13-.24-.24-.33-.49-.71-.82-1.57-1.77-1.84-.09-.12-.19-.24-.28-.36.15-1.99-1.17-3.06-2.56-4.09-.14-.04-.29-.07-.43-.11-2.08-1.45-2.38-3.33-1.36-5.54.13-.1.26-.21.39-.31,2.07-1.39,3.74-1.17,5.09.93,1.45,2.27,3.33,4.31,3.95,7.06.11.5.41.96,1.06.83.48-.09.71-.47.76-.93.08-.78.31-1.59.16-2.33-.55-2.86-1.23-5.7-1.86-8.55.12-.37.25-.73.37-1.09.15-1.82-.2-3.61-.38-5.41,0,0,.07-.08.07-.08.81-.76,1.72-1.46,1.94-2.65.13,0,.26-.01.39-.04,1.74-.82,3.32-.38,4.85.58-.08.11-.09.23,0,.35-.28.51-.15.99.14,1.45-.04.26-.07.51-.11.77-2.89,1.36-3.58,3.6-3.02,6.64.85,4.58,1.43,9.21,2.13,13.81Z"/><path class="cls-1" d="m591.62,246.13c-3.25,2.17-4.2,5.61-5.08,9.1-2.25,1.96-3.49,4.35-3.08,7.42-.61.67-1.22,1.34-1.83,2-.65,2.42-1.29,4.86-1.94,7.29-1.78.6-3.57,1.19-5.35,1.79-.87-.55-1.74-1.09-2.61-1.64-7.87-4.92-8.43-6.58-7.22-15.91.38-2.93,1.03-6.13-.43-9.09,0,0-.07-.25-.07-.25,2.84-5.3,6.87-10.2,5.73-16.85.15-.38.21-.78.17-1.18.41-2.46,1.45-4.93.05-7.41.05-.44.09-.88.14-1.31,4.35-3.84,3.76-8.74,2.95-13.69-.23-.37-.45-.74-.67-1.1-1.4-7.21,1.77-11.75,8.37-14.28.48.05.96.1,1.44.15,7.13,1.3,10.17,5.12,8.72,12.21-1.56,7.65-1.78,15.71-6.06,22.68-.77,1.26-1.09,2.83.52,3.87,1.19.77,2.42.45,3.45-.4,1.75-1.45,3.86-2.7,5.06-4.53,4.64-7.08,8.97-14.36,13.42-21.57.99-.51,1.99-1.02,2.98-1.53,3.99-3.49,6.89-7.92,10.16-12.02,0,0,.3-.02.29-.02,3.23.05,6.52.43,9.41-1.59.27.28.57.51.9.69,5.27,1.81,7.7,5.93,8.93,11.02-.4.07-.64.3-.71.71-1.62.51-2.32,1.75-2.65,3.29-.59.46-1.18.92-1.77,1.37-8.77-3-14.74.24-19.72,7.73-7.48,11.26-15.63,22.07-23.5,33.07Z"/><path class="cls-1" d="m175.88,253.26c-2.6.14-4.34-1.68-6.37-2.81-.65-.36-.75-1.16-.54-1.83.31-.98,1.13-1.52,2.1-1.74.73-.16,1.26.29,1.54.92.37.82,1.1,1.27,1.72,1.83.26.23.62.42,1.02.41,2.39-.06,4.59-.58,6.4-2.32.63-.61.53-1.33.37-1.87-.42-1.41-.77-2.87-1.68-4.09-.38-.51-.65-1.09-1.45-1.13-.45-.02-.65-.56-.98-.85-.08-.24-.27-.33-.51-.34-.53-.75-1.29-1.12-2.17-1.28-.05-.05-.11-.1-.16-.15-.13,0-.25-.01-.38-.02h-.08c-.49-.67-1.35-.61-1.99-.98-.08.02-.15.03-.23.05-.1.03-.2.05-.3.08h0c-.98-.69-3.53-.7-4.54-.02h-.02c-.37-.39-.8-.3-1.24-.16-.41-.48-1.05-.54-1.54-.87-.17-.33-.33-.64-.72-.8-.51-.21-.84-.62-1.12-1.12-.34-.61-.77-1.16-1.27-1.69-.98-1.02-.87-2.5-1.32-3.75-.49-1.38.43-1.69,1.27-2.16,2.14-1.19,4.55-1.62,6.84-2.37.1-.03.23,0,.3-.05,1.95-1.5,4.07-.42,6.08-.28.82.05,1.64.85,2.54,1.16.46.16.88.38,1.33,0h.03c.24,1.36.6,2.62,2.19,3,.26.06.57.23.48.55-.21.77-.06,1.54-.11,2.3-.05.81-.66,1.03-1.22,1.33-.47-.29-.81-.06-1.13.27-.92-.7-1.33-1.75-1.96-2.67-.97-1.41-2.26-2.61-4.18-2.68-.48-.25-.8.17-1.19.3-.15-.13-.32-.21-.52-.19-.05-.04-.11-.08-.16-.12-.13-.11-.27-.14-.43-.07-.57.13-.89.75-1.52.78-.23-.24-.49-.33-.8-.18-.71.32-1.42.64-2.13.96-.43-.03-.69.19-.82.58v.02c-.44.23-.87.44-1.03.95l-.04.08c.38,1.86,2.8,3.7,4.71,3.57,1.09-.07,2.17-.02,3.28-.3.83-.21,1.85.35,2.8.54.66.13,1.29.04,1.82.78.47.65,1.37,1.1,2.3,1.01.51-.05.29.42.56.57,1.97,1.16,3.65,2.68,5.03,4.51.24.32.61.69.14,1.25-.49.58.08,1.17.41,1.61.31.41.56.84.78,1.29-.24.25-.38.51-.02.78.03,1.32-.31,2.56-.83,3.75,0,0,.02.02.02.02-.01.1-.03.2-.04.31-.15.37-.22.85-.68.92-.57.09-.8.56-1.18.88-1.02-.06-1.81.61-2.75.81-.34.17-.68.35-1.01.52-.54-.26-.93-.12-1.16.44-.62-.53-1.14.13-1.71.14-.06-.07-.11-.15-.17-.22-.18-.26-.42-.25-.69-.17Z"/><g><path class="cls-1" d="m133.12,77.67c-.68.52-.64,1.31-.91,1.99-1.36.6-1.92,2.06-2.99,2.96-.32.46-.63.93-.95,1.39-.88.01-1.29.46-1.19,1.38-1.18-.31-1.38.94-2.12,1.34-.12-.06-.25-.13-.38-.19-.41-.24-.72-.06-1.01.23-3.27,1.93-6.82.63-10.25.44-1.1-.06-1.79-1.08-1.99-2.13-.29-1.55.4-2.83,1.5-3.78.83-.71,1.84-.45,2.65.21,1.06.88,2.32,1,3.52,1.34.5.14,1.1.15,1.62-.13,3.06-1.69,5.55-3.88,6.67-7.47.4-1.26-.24-2.17-.83-2.8-.18-.19-.36-.39-.54-.58-.1.05-.2.1-.3.15-.3-.42-.48-.96-1.06-1.14-.13-.19-.26-.39-.39-.58-.05-.13-.1-.26-.16-.38h0c-.18-.36-.42-.64-.86-.75-.01,0-.01,0-.02,0-.03-.04-.06-.08-.09-.12-.1-.12-.19-.24-.28-.37-.33-.4-.66-.81-.98-1.21-.05-.11-.11-.21-.16-.31-.09-1.11-.75-1.61-1.8-1.69.11-.31.04-.58-.19-.81-.9-2-2.94-3.08-4.05-4.92-.04-.07-.3-.01-.45-.01-.37-.5-.14-1.28-.77-1.65-.07-.09-.15-.18-.22-.27-.22-.23-.45-.45-.67-.68-2.28-3.57-4.86-6.93-7.7-10.08-.64-.72-1.48-1.28-2.38-1.7-1.29-.59-2.2-1.55-2.61-2.93-.32-1.04.36-2.51,1.3-2.86,1.26-.47,2.27.05,3.01,1.08,1.69,2.35,3.22,4.81,5.69,6.56,1.21.86,2.17,2.21,2.93,3.53.79,1.37,1.71,2.66,2.95,3.51,1.73,1.18,2.55,3.12,4.09,4.37,2.35,1.9,3.77,4.6,5.99,6.59.59.53.92,1.26,1.72,1.66.41.2.69.46.87.75.62.34,1.18.72,1.73,1.14-.12.51-.13.95.53,1.08.96,1.78,1.4,3.7,1.57,5.68h.04c.05.16.1.31.16.46.06.6.31,1.3-.24,1.71Z"/><path class="cls-1" d="m123.04,69.04s.06.08.09.12c-.04-.04-.08-.07-.12-.1.01-.01.02-.01.03-.02Z"/><path class="cls-1" d="m124.01,69.91c-.28-.25-.56-.5-.86-.74.44.11.68.39.86.74Z"/></g><g><path class="cls-1" d="m214.31,81.72c-.42,3.62-1.75,6.89-3.56,9.99l.04.06c-.07.27-.15.55-.22.82-.53.95-.9,2.25-2.13,2.29-1.52.05-2.3,1.26-3.4,1.98-2.62-.54-4.95,1.04-7.47,1.25-.95.36-1.89.72-2.84,1.08-1.31-.9-2.37-.67-3.18.79-1.41-1.67-3.01-.04-4.51-.21-.12-.22-.24-.45-.36-.67-.36-.79-1.01-.84-1.72-.72-6.83-.52-10.71-6.12-15.58-9.95-1.55-1.22-1.52-3.46-.72-5.2,1.18-2.58,3.52-3.77,6.12-4.02,1.96-.2,3.19,1.24,3.69,3.05.65,2.39,2.39,3.88,3.81,5.62.59.72,1.46,1.37,2.51,1.48,6.27.69,12.2.04,17.57-4.09,1.88-1.45,1.89-3.45,1.67-5-.07-.47-.13-.94-.19-1.41-.2-.03-.4-.06-.6-.08,0-.94.29-1.92-.38-2.77.01-.43.02-.86.03-1.28.06-.25.12-.5.15-.75-.13-.66-.29-1.31-.48-1.95,0-.03-.01-.06-.02-.08-.01-.08-.01-.16-.01-.23-.02-.28-.03-.56-.04-.84-.06-.94-.12-1.87-.18-2.81.03-.2.06-.41.09-.62,1.02-1.73.55-3.14-.91-4.36.49-.33.66-.8.56-1.38.74-3.89-1.13-7.58-.88-11.44.01-.15-.42-.32-.64-.49-.04-1.11,1.11-2.02.57-3.22-.02-.21-.03-.42-.05-.64-.09-.56-.19-1.12-.28-1.68.33-7.63.02-15.25-.9-22.83-.21-1.72-.86-3.42-1.76-4.98-1.29-2.21-1.62-4.56-.81-7.01.61-1.87,3.13-3.33,4.88-2.87,2.35.6,3.28,2.42,3.31,4.7.06,5.21-.22,10.43,1.6,15.56.89,2.52.91,5.52.67,8.24-.26,2.84-.25,5.7.7,8.22,1.33,3.54.53,7.25,1.51,10.68,1.49,5.24.79,10.68,2,15.92.32,1.39.05,2.82.81,4.23.4.73.55,1.41.51,2.03.57,1.12.99,2.26,1.37,3.45-.71.61-1.18,1.27-.35,2.14Z"/><path class="cls-1" d="m202.56,72.03l-.02-.02v-.06s.02.05.02.08Z"/><path class="cls-1" d="m202.54,71.95c-.02-.08-.05-.16-.07-.24.02,0,.04.01.06.01,0,.07,0,.15.01.23Z"/></g><path class="cls-1" d="m254.13,90.27c-3.33,1.9-6.76,2.04-10.27.54-.08-.2-.22-.33-.42-.41-.18-.02-.37-.04-.55-.07-.59.06-1.19.12-1.78.18-.37-.4-.8-.54-1.33-.37-2.13.33-4.36-1.77-6.42.27-.09-.76.13-1.62-.7-2.14-.1-.92-.74-1.21-1.55-1.28-.16-.99-.7-1.68-1.67-2.01-.33-.16-.65-.32-.98-.49-2.51-3.02-1.97-7.08-3.57-10.44-2.45-5.15-2.38-10.78-2.8-16.31.05-.23.1-.46.16-.7.63-7.94,1.72-15.83,2.89-23.71.59-3.99,2.19-6.08,5.52-6.26,3.03-.16,4.93,1.71,5.79,5.71-.17.17-.34.34-.52.51-.25.77-.51,1.55-.76,2.32-.15.06-.27.14-.38.26-1.33,1-.53,1.87.17,2.75-.9.34-1.68.73-.65,1.78-.66,4.72-.69,9.46-1.77,14.21-1.16,5.07-.06,10.49,1.12,15.61.96,4.18,2.07,8.6,7.41,9.51,1.83.31,3.69.83,5.51.74,1.55-.08,3.25-.41,4.25-2.06,2.57-4.27,3.72-9.06,5.24-13.74,1.08-3.34.26-6.74.85-10.14.83-4.73.23-9.63-.44-14.43.07-.41.14-.83.21-1.24-.09-.59-.18-1.17-.28-1.76-.06-.46-.12-.92-.18-1.37.19-2.45,1.14-4.76.71-7.36-.27-1.66,5.57-5.48,7.35-5.19,2.44.4,3.72,2.89,3.58,6.4-.45,11.03-.8,22.06-1.19,33.09-2.05.81-.46,2.53-.93,3.79-1.59,4.28-1.67,8.98-3.56,13.19-.23.56-.47,1.11-.7,1.67-.27.16-.55.32-.82.49-.52,1.7-2.12,3-1.88,4.99-1.1.27-2.03.7-1.85,2.1-.11.25-.22.51-.33.76-.93-.22-1.73.1-2.49.6Z"/><path class="cls-1" d="m480.18,175.48c-.44-.9.36-2.17-.85-2.84-.26-.21-.53-.42-.79-.63.87-1.24.81-2.7.95-4.11.14-.13.28-.26.43-.39,2.57-1.67,5.14-1.89,8.08-.72,1.94.77,4.18,1.12,6.27,1.08,3.79-.06,7.37.82,11,1.59,7.16,1.52,14.34,2.91,21.48,4.49,5.41,1.2,10.91,2.27,15.57,5.6-.51.83-.94,1.66-.39,2.65-.99,1.93-1.97,3.86-2.96,5.8,0,0-.21.08-.21.08-.71-.08-1.39-.06-1.75.72-.35-.08-.69-.15-1.04-.23-.16-1.18.55-1.86,1.4-2.47,0,0,.01.03.01.03-1.74-.04-3.61.33-5.19-.19-4.52-1.49-9.23-1.55-13.83-2.37-2.78-.37-5.49-1.37-8.36-1.03-.74-.33-1.48-.66-2.21-.99-1.97-1.86-4.39-1.76-6.83-1.63-3.15.46-3.96,2.35-3.65,5.33.27,2.57-.46,5.15-1.3,7.54-.68,1.96-.92,3.96-1.44,5.92-1.59,5.91-2.35,12.05-2.1,17.98.22,5.23-1.11,9.97-1.97,14.87-.46,2.63-2.41,4.91-2.29,7.78-1.44.19-2.88.39-4.32.58,0,0-.06-.13-.06-.13,0,0-.03.14-.03.14-.86.02-1.72.05-2.57.07.02-1.84-2.35-3.24-.99-5.33.09-.21.18-.42.28-.62.29-2.52,1.04-4.9,2.01-7.23.28-.68.68-1.47.58-2.14-.66-4.32,1.04-8.45.96-12.69-.11-5.46.88-10.73,2.12-15.98.19-.81.56-1.6.25-2.46.23-.68.46-1.35.68-2.02,1.59-1.91,2.09-3.84.14-5.83.15-.39.3-.78.46-1.16.44-.8.93-1.58,1.3-2.41,1.49-3.31,1.28-3.71-2.3-4.63l-1.23-.23c-1.26-.98-2.67-1.49-4.28-1.35-.33-.14-.66-.28-.99-.42Z"/><path class="cls-1" d="m788.4,258.07c-.57-1.17.47-2.82-1.1-3.69-.34-.28-.69-.55-1.03-.82,1.13-1.61,1.06-3.51,1.23-5.34.18-.17.37-.34.56-.51,3.33-2.17,6.68-2.46,10.49-.94,2.52,1,5.43,1.45,8.15,1.4,4.92-.08,9.57,1.07,14.29,2.07,9.3,1.97,18.63,3.78,27.9,5.83,7.03,1.56,14.17,2.95,20.22,7.28-.66,1.07-1.23,2.16-.51,3.44-1.28,2.51-2.56,5.02-3.84,7.53,0,0-.27.1-.27.11-.93-.1-1.8-.08-2.27.94-.45-.1-.9-.2-1.35-.29-.21-1.53.71-2.42,1.81-3.21,0,0,.01.03.01.03-2.26-.05-4.69.42-6.75-.25-5.87-1.94-11.99-2.01-17.96-3.08-3.62-.48-7.13-1.77-10.86-1.34-.96-.43-1.92-.85-2.87-1.28-2.55-2.41-5.71-2.29-8.88-2.11-4.08.6-5.14,3.05-4.75,6.92.34,3.34-.6,6.69-1.68,9.79-.89,2.55-1.19,5.15-1.87,7.68-2.06,7.67-3.05,15.65-2.73,23.36.28,6.8-1.45,12.94-2.56,19.31-.6,3.42-3.13,6.38-2.98,10.1-1.87.25-3.74.5-5.61.76,0,0-.08-.17-.08-.17,0,0-.04.18-.04.18-1.11.03-2.23.06-3.34.09.03-2.39-3.06-4.2-1.29-6.92.12-.27.24-.54.36-.81.38-3.27,1.36-6.36,2.61-9.39.37-.89.89-1.9.75-2.77-.86-5.61,1.35-10.97,1.24-16.48-.14-7.09,1.15-13.93,2.76-20.76.25-1.05.72-2.08.33-3.19.3-.88.59-1.75.89-2.63,2.07-2.48,2.71-4.99.18-7.58.2-.5.4-1.01.59-1.51.57-1.04,1.2-2.05,1.69-3.13,1.94-4.3,1.67-4.81-2.99-6.01-.53-.1-1.07-.2-1.6-.3-1.63-1.28-3.46-1.93-5.56-1.76-.43-.18-.86-.36-1.29-.54Z"/><g><path class="cls-1" d="m686.29,232.2c.05.08.09.17.14.26-.05-.05-.1-.11-.15-.16,0-.03,0-.07.01-.1Z"/><path class="cls-1" d="m730.78,264.22v.03s-.03-.02-.05-.02c.02,0,.03-.01.05-.01Z"/><path class="cls-1" d="m737.63,260.62c-.77.5-1.47,1.04-1.4,2.1-1.61,1.25-3.23,2.5-4.84,3.76l-.21-.02c-.58-.35-1.16-.61-1.78-.08-.26-.21-.53-.41-.8-.61.33-1.05,1.19-1.36,2.13-1.54.02,0,.03,0,.05.02v-.03s-.03.01-.05.01c-1.46-.72-3.17-1.16-4.3-2.23-3.25-3.07-7.25-5.01-10.84-7.55-1.64-1.05-3.11-2.37-4.8-3.34-.6-.35-1.24-.66-1.92-.89-.16-.19-.33-.38-.5-.57-.32-.38-.66-.77-.99-1.15-.08-.21-.18-.41-.28-.6-.58-.29-1.12-.62-1.57-1.06-.77-.75-1.58-1.44-2.42-2.08-.3-.13-.6-.26-.9-.38-2.87-.87-4.32.42-5.25,3.08-.8,2.29-2.46,4.2-4.12,5.91-1.37,1.39-2.37,3-3.6,4.46-3.71,4.4-6.82,9.33-8.98,14.49-1.91,4.55-4.94,8.05-7.63,11.89-1.45,2.06-4.02,3.22-5.07,5.71-1.3-.41-2.61-.82-3.91-1.23v-.14l-.08.11c-.74-.33-1.48-.65-2.23-.97.76-1.56-.71-3.7,1.29-4.94.16-.14.32-.28.49-.42,1.25-2.03,2.85-3.76,4.6-5.36.51-.47,1.17-.98,1.35-1.59,1.16-3.94,4.27-6.78,5.89-10.43,2.09-4.69,5.04-8.79,8.2-12.77.49-.62,1.12-1.14,1.2-2,.47-.48.93-.97,1.39-1.45,2.12-.99,3.32-2.44,2.45-4.92.29-.27.57-.54.86-.81.69-.5,1.42-.97,2.07-1.53,2.6-2.22,2.58-2.65-.11-4.86-.32-.23-.64-.46-.96-.69-.05-.11-.11-.21-.17-.31-.55-.32-1.13-.59-1.74-.81-.48-.58-.97-1.17-1.46-1.75-.08-.21-.17-.41-.26-.59-.05-.09-.09-.18-.14-.26-1.04-1.77-2.86-2.57-4.71-3.35-.83-.26-1.53-.34-2.15-.26-2.2-1.84-4.52-3.51-6.94-5.04.12-.72-.54-1.41-1.98-2.64-.31-.23-.63-.47-.95-.7-.65-1.35-1.64-2.36-3.06-2.92-.22-.25-.44-.5-.66-.76,0-.94,1.2-1.68.45-2.75-.14-.29-.27-.58-.41-.87,1.25-.69,1.8-1.94,2.5-3.08.18-.05.35-.11.53-.16,2.86-.35,5.13.52,7.13,2.72,1.33,1.46,3.08,2.67,4.87,3.51,3.23,1.51,5.89,3.74,8.65,5.89,4.6,3.59,9.25,7.11,13.84,10.72,2.38,1.34,4.5,3.03,6.68,4.69,5.5,4.15,11.06,8.21,16.52,12.42,4.14,3.19,8.39,6.3,11.03,11Z"/><path class="cls-1" d="m710.79,251.11c-.12.09-.25.19-.37.28l-.21-.02c-.57-.36-1.15-.62-1.77-.11-.27-.21-.53-.41-.79-.62.15-.46.4-.78.72-.99.17.19.34.38.5.57.68.23,1.32.54,1.92.89Z"/></g><path class="cls-1" d="m277.31,180.35c-.16,6.96,3.04,12.07,8.33,16.41,5.27,4.33,11.23,5.71,17.79,5.8,4.67.07,5.9,1.69,5.37,6.52l-.07.02c-1.49,0-1.22,1.14-1.33,2.04-5.56,2.44-10.43-.7-15.54-1.91-2.86-2.68-7.12-2.64-10.06-5.16-.33-.44-.66-.88-.99-1.32-.16-.34-.42-.44-.77-.3-.28-.09-.57-.18-.85-.26-1.22-1.4-2.44-2.8-3.66-4.2-.07-.16-.19-.27-.36-.32-.87-1.24-1.75-2.48-2.62-3.72-.05-.12-.13-.2-.24-.26-1.33-2.55-2.65-5.1-3.98-7.65-.15-.3-.29-.6-.44-.89.38-1.1.99-2.22-.22-3.22,0,0-.15-.15-.15-.15.81-1.87,1.14-3.78.45-5.77.05-.18.04-.36-.02-.54.61-3.34,1.26-6.68,1.37-10.09-.11-.56-.23-1.12-.34-1.68,2.65-2.36,3-5.84,3.9-8.9.97-3.28,1.78-6.96,3.47-9.54,2.33-3.55,5.34-7.28,9.88-8.75,3.97-1.29,7.53-.22,11.3,1.4,8.84,3.8,14.95,11.01,22.15,16.86,1.46,1.19,2.27,2.83,1.68,4.72-.73,2.33-2.79,2.53-4.83,2.64-.6-.27-1.19-.54-1.79-.8-.92-1.21-2.09-2.09-3.5-2.65-.12-1.07-.59-1.84-1.75-2.01-.47-.24-.93-.47-1.4-.71-.36-.07-.72-.13-1.08-.2-.94-1.87-2.83-2.65-4.38-3.82-.46-.55-.82-1.3-1.41-1.61-2.67-1.38-5.6-2.13-8.33-3.43-1.17-.56-3.31-.66-4.65.55-3,2.7-4.93,6.13-6.41,9.86-1.18,2.96-2.52,5.86-3.79,8.79.35,2.37.18,4.56-.82,6.89-.96,2.23-.41,4.84.04,7.28l.05.1Z"/><path class="cls-1" d="m368.06,75.03c-.9.02-1.77.15-2.49.76-.32.29-.63.58-.95.87,0,0-.13.14-.13.14-4.26-.38-8.52-.64-12.64.92-.84.08-1.68.15-2.53.23-3.15,1.16-6.4.8-9.63.58-.64-.84-1.56-1.17-2.56-1.36-.39-1.7-1.63-2.78-2.84-3.89-.14-1.77-1.11-3.25-1.74-4.85-.09-.85-.05-1.75-.29-2.56-1.15-3.92-.43-8.51-4.04-11.57-.03-.24-.05-.48-.08-.72.28-2.1.91-4.2-.08-6.28.04-.26.07-.53.11-.79-.87-2.14-.24-4.78-2.23-6.54l-.12-.09c-.09-.64-.18-1.27-.27-1.91.03-1.01-.34-1.88-1.01-2.62-.05-.45-.11-.9-.16-1.35.56-2.2.6-4.41.22-6.64-1.18-4.9,1.05-10.22-1.88-14.94-.28-.45.11-1.49.44-2.13,1.17-2.24,2.45-4.46,5.54-4.19,3.1.28,5.44,2.54,6.4,5.49.74,2.26.29,4.48.5,6.71.02.32.04.63.06.95-.04,1.59.27,3.1,1.09,4.49-.02.57-.04,1.15-.06,1.72-.03.52-.07,1.03-.1,1.55l-.22.16c-.99,1.87-.89,3.73.04,5.59-.71.69-.91,1.38.02,2.05,2.25,9.9,2.61,20.26,7.3,29.59,1.47,2.92,3.43,4.3,7.09,3.15,5.14-1.62,9.99-.89,15.03.25,2.49.56,3.94,1.53,4.29,4.03-.13.6-.27,1.2-.4,1.8,0,0,0,.11,0,.11-.31.21-.62.41-.92.62-.25.22-.51.44-.76.67Z"/><path class="cls-1" d="m290.24,31.94c-.47,1.54-.67,3.1-.41,4.71-.14.45-.28.9-.42,1.35l-.14.24.18.21c.04.12.12.2.24.24-.41,1.58-.2,3.17-.13,4.76-.48,1.57-.79,3.1.83,4.25l.06.16c-.74,1.1-.88,2.32-.78,3.6-1.08,1.37.48,1.2.97,1.65-.03.42-.06.85-.09,1.27-.88.7-1.15,1.39,0,2.08.07.25.14.49.22.74-1.38,1.61-1.33,3.41-.71,5.29.03.31.06.62.09.93-.55.59-.87,1.23-.49,2.04-.05.55-.1,1.1-.16,1.65-2.32.91.46,2.89-.83,4.01.14.79.28,1.58.42,2.36-.52.32-.59.78-.42,1.32,1.76,2.5,3.97,2.65,5.87.4.46-.16.92-.32,1.38-.48,1.52-.14,3.07-.17,4.57-.43,1.59-.28,3.35-.49,3.54-2.69,1.43.5,2.84,1.12,4.41.67,1.84.29,3.47-.53,5.07-1.16,3.02-1.2,5.83-.96,8.6.6.1.13.23.23.38.29.28,1.41.28,2.82-.07,4.22-1.11.4-1.92,1.06-2.05,2.32-.58.11-1.16.22-1.74.33-2,.47-4.1.53-6,1.43-2.97.04-5.88.35-8.51,1.89,0,0,0,.02,0,.02-.27-.03-.55-.05-.82-.08-2.64.29-5.35.25-7.71,1.77-1.32-.34-2.56.23-3.85.32-2.56.42-5.18.62-7.66,1.34-1.37.4-2.35.03-3.48-.37-.77-.98-1.88-1.29-3.02-1.55-.3-.46-.6-.93-.91-1.39.08-1.59.95-3.07.65-4.71-.09-.49-.18-.98-.27-1.47.38-1.35.85-2.7.31-4.12,0,0,.11-.14.1-.14,1.82-2.05,2.71-4.34,1.85-7.09,0-.38.01-.77.02-1.15,1.84-4.87,1.97-9.99,1.64-15.04-.42-6.44.5-12.85-.05-19.27-.44-5.11.38-10.4-2.21-15.2-.14-.27-.17-.6-.23-.91-1.2-6.04,1.54-8.5,7.38-6.66.43.09.86.18,1.3.27,3.17,1.92,3.02,4.47,2.05,7.71-1.24,4.13-1.09,8.46-.13,12.72.15.67.5,1.12,1.11,1.39,0,0,.05.02.05.02,0,.57.01,1.13.02,1.7-.4.53-.4,1.08-.03,1.63Z"/><path class="cls-1" d="m150.34,225.08c.18.43.26.93.81,1.09,0,0,.07.04.07.04.44.84,1.06,1.54,1.79,2.13,0,0,.03.03.03.03.1.22.2.45.3.67-.09.76.33.94.98.85.07.21.14.43.21.65,0,.21-.01.41-.02.62-.03.56.25.89.77,1.05.01.06.05.1.11.12-.06.55-.35,1.21.58,1.33l.04.03c-.22.9.17,1.37,1.05,1.49-.62.22-.79.55-.27,1.06-.14.29.06.45.25.61.04.17.08.34.12.5.6,1.47.81,3.04,1.7,4.46,1.41,2.27,2.47,4.75,3.69,7.15.21.41.45.8.61,1.22.36.98.59,2.01,1.4,2.76l-.41,1.98s-.07.06-.06.12c-.81.45-1.64-.26-2.45.07-.22-.13-.45-.25-.67-.38.07-.23.09-.45-.07-.66.07-.9-.76-1.43-.92-2.19-.48-2.23-1.68-4.14-2.57-6.18-.09-.05-.19-.09-.28-.14-.33-1.3-.07-2.82-1.46-3.71-.17-.17-.38-.52-.51-.49-1.48.37-3.2-.15-4.42,1.17-.28.3-.59.2-.91.23-1.47.14-2.99-.08-4.38.59-.52.66-.57,1.48-.77,2.24-.53,3.46-1.86,6.78-1.83,10.34,0,.37.03.74.05,1.11-.02.11-.04.22-.06.33-.38.71-.77,1.42-1.15,2.13-.56-.18-1.1-.18-1.62.12-.57-.33-.59-1.35-1.53-1.23-.21-1.53.13-2.91.76-4.33.39-.87.04-2.11.5-2.91.75-1.28.56-2.62.78-3.94l.08-.09c.25-.66.18-1.39.5-2.05.31-.64-.06-1.21-.59-1.49-1.09-.57-1.01-1.6-.97-2.5.04-.92.86-1.17,1.69-1.39,1.61-.42,1.78-1.95,1.95-3.2.21-1.53.45-3.02,1.06-4.44,0,0,.01-.01.01-.01.26-.14.57-.27.2-.62,0,0-.04-.06-.04-.06.39-1.76.66-3.56,1.2-5.27.54-1.74,2.28-2.26,3.9-1.37.26.12.52.23.77.34Zm1.08,7.69l-.04-.03c-.05-.67-.4-1.09-.97-1.46-.35-.23-.29-1.09-1-.84-.63.23-1.23.69-1.31,1.4-.24,2.04-1,3.94-1.4,5.94-.18.91.08,1.22.85,1.17,1.57-.1,3.16-.18,4.7-.47.9-.17,1.71-1,1.33-1.91-.55-1.33-.8-2.91-2.16-3.8Z"/><path class="cls-1" d="m459.75,167.05c.09.89-.05,1.86.86,2.47,0,0,.1.12.1.12.32,1.8,1.06,3.43,2.06,4.95,0,0,.04.08.04.08.05.47.11.93.16,1.4-.59,1.34.07,1.91,1.31,2.14,0,.44.01.87.02,1.31-.13.38-.26.75-.39,1.13-.39,1.01-.05,1.78.81,2.37,0,.11.03.21.13.27-.42.98-1.33,2.02.31,2.77l.06.09c-.92,1.52-.48,2.62,1.07,3.35-1.26.04-1.77.55-1.11,1.79-.42.46-.14.86.11,1.26-.02.33-.05.66-.07.99.26,3.04-.26,6.05.55,9.17,1.29,4.98,1.8,10.16,2.64,15.26.14.86.37,1.72.41,2.59.1,2-.07,4.03.97,5.88-.63,1.13-1.27,2.26-1.9,3.39-.1.01-.16.07-.18.18-1.74.35-2.87-1.43-4.55-1.29-.34-.36-.68-.72-1.01-1.08.25-.38.42-.78.25-1.24.66-1.61-.57-3.07-.44-4.55.4-4.37-.7-8.57-1.16-12.83-.15-.14-.3-.28-.44-.42.14-2.57,1.5-5.23-.54-7.65-.21-.41-.41-1.17-.65-1.18-2.93-.18-5.8-2.13-8.79-.4-.68.39-1.19.03-1.81-.1-2.78-.58-5.44-1.88-8.39-1.44-1.34.9-1.89,2.39-2.71,3.67-2.98,6.05-7.33,11.39-9.34,17.94-.21.68-.37,1.37-.55,2.06-.1.19-.2.38-.29.57-1.12,1.09-2.23,2.17-3.35,3.26-.91-.65-1.91-.97-3.04-.71-.86-.94-.3-2.83-2.1-3.15.49-2.92,1.91-5.28,3.9-7.51,1.22-1.37,1.29-3.86,2.6-5.05,2.12-1.93,2.55-4.49,3.71-6.78l.2-.13c.85-1.07,1.13-2.45,2.11-3.48.94-.99.58-2.26-.22-3.07-1.66-1.68-.94-3.52-.35-5.15.6-1.67,2.25-1.65,3.9-1.57,3.2.16,4.39-2.55,5.43-4.75,1.26-2.7,2.57-5.29,4.51-7.54,0,0,.03-.02.03-.02.55-.12,1.21-.16.73-1.02,0,0-.03-.14-.03-.14,1.73-3.01,3.27-6.15,5.25-8.99,2-2.88,5.48-2.84,7.95-.27.41.36.82.72,1.22,1.08Zm-2.46,14.76l-.06-.08c.29-1.26-.11-2.23-.94-3.24-.51-.62.09-2.17-1.35-2.11-1.29.05-2.66.55-3.22,1.81-1.61,3.6-4.11,6.66-6,10.1-.86,1.56-.55,2.29.89,2.65,2.94.73,5.91,1.49,8.91,1.85,1.75.21,3.73-.85,3.55-2.74-.25-2.76.22-5.8-1.77-8.23Z"/><path class="cls-1" d="m110.95,238.05c.53,2.85,1.01,5.7,1.61,8.53.31,1.46.83,2.87,1.25,4.31-.18.68-.05,1.16.77,1.2.06,1.32.82,1.69,2.01,1.48,2.71-.47,5.4-1.09,8.13-1.33,2.03-.18,3.98-.49,5.95-1.07,1.31-.39,2.74-.18,3.75,1.03,0,0,0,0,0,0-.41.63-.29,1.24.03,1.86-.9.28-.41,1.58-1.35,1.84-3.12.69-6.29.46-9.44.38-.62-.02-1.25-.14-1.84.16-.81.87-2.38.39-2.94,1.69l-.26.27c-1.25-.67-2.21-.19-3.05.77,0,0-.02,0-.02,0-1.28.68-2.66.63-4.04.51-.23-.15-.45-.31-.68-.46-.11-.35-.34-.57-.71-.62-.09-.38-.18-.75-.28-1.13-.13-.14-.26-.28-.39-.41-.14-1.22.54-2.58-.65-3.6.24-.08.52-.19.45-.49-.11-.51-.62-.37-.97-.5.94-.6.77-1.33.26-2.11.29-.39.12-.72-.14-1.03l-.16-.52c-.01-.27-.02-.55-.03-.82-.06-.48-.17-.92-.63-1.19-.11-.12-.22-.25-.32-.37-.02-.16-.03-.32-.05-.48.05-.39.11-.78.16-1.17,0-.38,0-.75,0-1.13-.25-.28-.57-.4-.95-.37.61-.88.15-1.72-.09-2.56.25-.2.24-.41.05-.64.17-.79-.04-1.53-.25-2.28,0-.15,0-.3-.01-.45-.15-.62.24-1.36-.41-1.88,0-.09-.02-.17-.06-.25-.09-.28-.18-.56-.27-.84.03-.12.06-.24.08-.36.23-.39.29-.8.12-1.23.02-.14.05-.28.07-.42.16-.34.19-.69.1-1.05l.05-.07c1.04-1.94,2.95-2.36,4.87-2.75.13-.02.25-.04.38-.06.14,1.45.67,2.85.51,4.33.28.78-.8,1.13-.59,1.88.08.26.15.53.23.79-.31.18-.31.45-.22.75.1.31.19.63.29.94-.39.22-.37.56-.3.93Z"/><path class="cls-1" d="m230.67,248.6c-.16-.11-.33-.23-.49-.34-.13-.22-.21-.56-.4-.64-2.17-.98-3-2.79-2.96-5,.03-1.55-.75-2.88-.9-4.36-.02-.23-.23-.38-.47-.43,0,0-.05-.04-.05-.04-.05-.06-.1-.11-.15-.17,0-.16-.02-.32-.03-.48,0,0,.04-.08.04-.08l-.07-.06s-.07-.08-.07-.08c-.44-4.43-.11-8.67,3-12.23,0,0,.02-.02.02-.02.74-.28,1.51-.5,2.22-.85,1.27-.63,2.41-.42,3.52.35.34.23.72.4,1.08.6.03.04.07.06.11.06.95,1.67,1.5,3.51,2.26,5.26.05.17.1.33.14.5-.39.7.06,1.33.25,1.94.32,1.07.04,2.24.64,3.24.18.62-.17,1.29.22,1.88.12.98.25,1.96.37,2.93,0,.15,0,.3.01.45-.23.57-.29,1.16-.16,1.76-.11.17-.22.34-.33.5-.02.24-.04.47-.06.71,0,0-.06.05-.06.05-.83.69-.71,1.85-1.28,2.67-.51.62-1.03,1.24-1.54,1.86-1.62.53-3.24.13-4.86.01Zm1.86-21.28c-.42-.47-.9-.49-1.43-.19-.7.32-1.15.95-1.66,1.46-.84.84-1.35,1.9-1.22,3.16-.47,1.66-.52,3.31.13,4.95,0,.24.01.48.02.72.29.81.57,1.62.86,2.44l.06.07c.33.72.64,1.46,1.41,1.84,1.19.6,1.4,1.05.67,2.06-.58.79-.51,1.39.15,1.95.63.54,1.96.34,2.45-.33.47-.64.93-1.29,1.07-2.1.56-3.28.87-6.56-.19-9.81-.13-.17-.25-.33-.38-.5h0c-.05-.08-.11-.15-.16-.23.19-1.02.02-1.99-.41-2.92-.05-.1-.1-.2-.15-.3-.3-.74-.55-1.49-1.02-2.14-.06-.05-.13-.09-.19-.14Z"/><path class="cls-1" d="m256.69,246.54c-.32,0-.63.05-.89.27-.11.1-.23.21-.34.31,0,0-.05.05-.05.05-1.52-.14-3.04-.23-4.51.33-.3.03-.6.05-.9.08-1.13.41-2.28.29-3.44.21-.23-.3-.56-.42-.91-.49-.14-.61-.58-.99-1.02-1.39-.05-.63-.4-1.16-.62-1.73-.03-.31-.02-.62-.1-.91-.41-1.4-.16-3.04-1.44-4.13,0-.09-.02-.17-.03-.26.1-.75.32-1.5-.03-2.24.01-.09.03-.19.04-.28-.31-.76-.09-1.71-.8-2.34l-.04-.03-.09-.68c.01-.36-.12-.67-.36-.94-.02-.16-.04-.32-.06-.48.2-.78.22-1.58.08-2.37-.42-1.75.37-3.65-.67-5.33-.1-.16.04-.53.16-.76.42-.8.87-1.59,1.98-1.5,1.11.1,1.94.91,2.29,1.96.26.81.1,1.6.18,2.4,0,.11.02.23.02.34-.01.57.1,1.11.39,1.6,0,.21-.01.41-.02.62-.01.18-.02.37-.04.55l-.08.06c-.35.67-.32,1.33.01,2-.25.25-.32.49,0,.73.8,3.54.93,7.24,2.61,10.57.53,1.04,1.23,1.53,2.53,1.12,1.83-.58,3.57-.32,5.37.09.89.2,1.41.55,1.53,1.44-.05.21-.1.43-.14.64,0,0,0,.04,0,.04-.11.07-.22.15-.33.22-.09.08-.18.16-.27.24Z"/><path class="cls-1" d="m362.1,188.1c-.07.15-.14.3-.21.44-.71.41-1.96.17-1.88,1.55,0,0,.12.03.12.03-.35-.06-.61.07-.8.36-.1.09-.15.2-.17.33h-.01c-.25.1-.5.19-.75.28-.11.03-.19.1-.24.2-1.21.57-1.46,1.17-.54,2.41,3.46,4.67,6.79,9.44,10.17,14.17,1.21,1.7,2.64,3.24,3.61,5.13.46.89.67,1.81.85,2.75l.02.02c-.01.29-.03.58-.04.88l-.03.02c-.38.16-.79.29-1.15.5-2.24,1.29-4.23,1.13-5.92-.96,0,0-.13-.11-.13-.11-1.33-1.19-2.29-2.65-3.07-4.24l-.08-.12c-.32-.37-.73-.68-.93-1.11-2.13-4.53-5.02-8.61-7.6-12.87-.36-.59-.83-.94-1.55-.87.49-2.22-1.39-2.66-2.68-2.9-1.3-.24-3.12-.67-3.93,1.25-1.29-.09-2.6.21-3.87-.22-.82.43-1.59.91-1.79,1.91-1.68,1.32-.56,3.38-1.31,4.94l-.14.13c-1.02,1.62-.3,3.38-.4,5.08-.06,1.18-.58,2.49.85,3.29l-.03.04c-.52.36-.43.73,0,1.1.09.06.19.08.3.07,0,.34.01.69.02,1.03-1.31.86-.54,2.33-.99,3.44,0,0,.03.12.03.12-.68.16-1.25.5-1.74.99-.35-.02-.71-.09-1.05-.06-4.67.5-5.46-2.55-5.17-6.76.17-2.5.74-4.96,1.14-7.44-.02-.42-.04-.85-.07-1.27.65-3.51,1.34-7.01.69-10.61-.19-1.08.32-2,1.05-2.86,1.18-1.38,1.84-2.99,1.75-4.87-.02-.46.05-1.01.28-1.4,2.24-3.71,3.14-8.05,5.43-11.73,1.9-3.05,3.79-6.1,5.71-9.14.58-.92,1.53-1.2,2.55-1.25,2.8-.15,5.44.07,7.6,2.29,2.17,2.23,4.55,4.12,6.43,6.76,1.89,2.67,1.62,5.35,1.95,8.1.08.71.11,1.38.47,2-.94,1.2-1.01,2.65-.18,3.49-.03.11-.03.21-.02.32-1.45.79-.58,1.67-.11,2.54-.84.33-1.39.84-1.11,1.85-.74-.08-1.17.26-1.33.97Zm-12.54-20.61c-.31.3-.62.6-.94.9-.11.42-.22.84-.33,1.26-.2.15-.4.29-.6.44-.39.61-.62,1.27-.55,2.01-.13.18-.27.36-.4.53-.48.17-.84.45-.92.99-.78.34-.92,1.02-.95,1.76-1.43,1.14-1.49,3-2.35,4.43-.08.12-.15.25-.23.37-.35,1.72-.46,3.49-1.16,5.13-.37.85-.18,1.75.71,1.86,1.57.18,3.34.42,4.63-.72,1.3-1.15,2.51-1.36,4.16-.88,1.81.52,3.7.29,5.03-1.24,3.27-3.74,4.23-12.4-1.8-15.7-.64-.94-1.93-.71-2.67-1.47-.78-1.05-1.26-.64-1.62.33Z"/><path class="cls-1" d="m102.33,95.11c-.86.62-1.78,1.18-2.59,1.88-1.34,1.16-3.11,1.76-4.05,3.42-.11-.01-.27-.08-.32-.03-.99,1.08-2.44,1.36-3.71,1.94-.12.08-.24.15-.36.23-1.07.2-1.52,1.47-2.58,1.57-2.14.19-3.17,1.97-4.74,2.96-.27.17-.55.34-.82.51-1.18-.08-1.84.6-2.32,1.56-.13-.08-.26-.15-.4-.22-.15.08-.3.16-.45.24-.45-.06-.8.09-1.05.45-.59-.7-.66-.13-.81.24-.15.08-.31.17-.46.26-.37.26-.74.51-1.12.77-1.31.44-2.23,1.43-3.14,2.42-.24.2-.48.41-.72.61-.22.2-.46.39-.67.6-2.55,2.64-4.52,1.81-5.9-2.47v-.15c.15-.29.35-.53.57-.75-.09-.08-.18-.16-.27-.24l-.08-.14c-.02-1.61,1.04-2.96,1.08-4.55.13-.23.26-.46.38-.69,1.98-3.98,4.2-7.84,5.79-12,.37-.96.83-1.91.73-2.99l1.32-3.21c.79-.47,1.01-1.29,1.28-2.08.4-1.16.8-2.33,1.74-3.19,1.15-1.05,1.44-2.35,1.25-3.83,1.12-.58.42-1.88,1.07-2.65.98-.28,1.37-.99,1.73-1.91.21-.54.42-1.07.64-1.6-.08.12-.15.24-.22.37-.11,0-.28-.05-.33,0-1.01,1.2-2.52,1.63-3.85,2.34-.12.09-.24.19-.36.28-1.13.3-1.57,1.65-2.68,1.85-2.23.4-3.27,2.32-4.89,3.49-.29.2-.57.4-.86.6-1.24.03-1.91.79-2.39,1.82-.14-.06-.28-.12-.42-.18-.16.09-.31.19-.47.28-.48,0-.84.18-1.09.57-.64-.66-.7-.08-.85.32-.16.1-.31.21-.47.31-.38.3-.77.6-1.15.9-1.38.58-2.31,1.68-3.24,2.78-.25.23-.5.46-.74.69-.23.23-.47.44-.69.69-2.61,2.94-4.71,2.28-6.25-1.98v-.15c.62-1.26,2.03-1.73,2.71-2.94.2-.11.39-.22.59-.33,3.22-2,6.6-3.78,9.57-6.15.69-.54,1.45-1.03,1.81-1.92.79-.59,1.58-1.18,2.37-1.77.83.07,1.34-.45,1.88-.91.8-.68,1.6-1.38,2.71-1.53,1.37-.19,2.13-1.04,2.57-2.29,1.15.16,1.11-1.23,1.95-1.47.9.32,1.52-.03,2.18-.54,1.43-1.11,2.9-2.21,4.49-3.09,1.91-1.04,3.39-.48,4.71,1.47.01.17.01.35.03.53.11.04.22.09.33.14.13.25.27.49.41.73-.47,1.26-1.02,2.5-1.4,3.79-.63,2.14-1.93,4.08-1.94,6.4-.11.07-.29.12-.31.21-.35,1.8-1.52,3.17-2.39,4.7-.06.16-.13.33-.2.49-.88,1.01-.64,2.58-1.56,3.48-1.83,1.81-1.87,4.32-2.79,6.47-.17.37-.33.75-.5,1.12-1.1.82-1.36,1.98-1.31,3.27-.16.03-.31.06-.47.09-.09.19-.19.38-.28.57-.45.3-.69.71-.73,1.24-.9-.22-.67.38-.62.85-.09.2-.19.4-.28.6-.21.53-.42,1.06-.63,1.59-.97,1.43-1.29,3.08-1.62,4.74-.02.07-.04.14-.07.21,1.71-.88,3.39-1.81,4.96-2.92.67-.47,1.4-.88,1.76-1.71.76-.51,1.53-1.01,2.29-1.52.8.14,1.29-.31,1.82-.72.77-.59,1.55-1.19,2.61-1.24,1.31-.06,2.05-.83,2.5-2,1.08.26,1.07-1.11,1.88-1.26.86.39,1.45.11,2.09-.33,1.38-.96,2.8-1.9,4.34-2.61,1.84-.84,3.23-.17,4.45,1.84.01.26.02.52.02.78Z"/><g class="cls-2"><path class="cls-1" d="m120.78,128.2c-2.1,1.51-4.32,2.86-6.27,4.55-3.24,2.81-7.53,4.26-9.8,8.28-.27-.03-.66-.2-.77-.07-2.39,2.61-5.89,3.29-8.98,4.68-.28.19-.57.38-.86.57-2.6.47-3.68,3.54-6.25,3.78-5.16.47-7.65,4.77-11.45,7.17-.67.41-1.33.82-2,1.23-2.85-.19-4.45,1.46-5.6,3.76-.32-.17-.64-.34-.96-.52-.36.2-.73.39-1.09.58-1.1-.13-1.95.23-2.54,1.1-1.44-1.7-1.61-.33-1.97.56-.37.21-.74.43-1.1.64-.9.62-1.8,1.24-2.71,1.86-3.18,1.07-5.39,3.47-7.59,5.86-.58.49-1.16.97-1.74,1.46-.54.49-1.11.94-1.62,1.47-6.17,6.36-10.95,4.36-14.29-5.99l-.02-.36c.38-.71.88-1.3,1.43-1.82-.22-.19-.44-.38-.66-.58l-.21-.33c-.05-3.89,2.52-7.16,2.61-11.01.32-.56.63-1.11.94-1.67,4.78-9.61,10.15-18.94,13.99-29.01.89-2.33,2.01-4.62,1.77-7.23,1.06-2.59,2.12-5.18,3.17-7.76,1.92-1.14,2.45-3.12,3.11-5.03.97-2.8,1.94-5.65,4.2-7.71,2.79-2.55,3.49-5.7,3.04-9.27,2.7-1.39,1-4.56,2.58-6.4,2.36-.67,3.31-2.41,4.18-4.62.5-1.28,1-2.56,1.53-3.83-.18.28-.34.56-.5.86-.28-.01-.69-.14-.81,0-2.45,2.9-6.1,3.93-9.3,5.66-.3.21-.59.44-.89.66-2.72.73-3.78,3.98-6.47,4.47-5.4.97-7.91,5.62-11.84,8.45-.69.49-1.38.97-2.07,1.45-2.99.08-4.63,1.92-5.78,4.4-.34-.15-.68-.3-1.02-.45-.37.24-.75.47-1.12.7-1.17-.03-2.05.42-2.64,1.37-1.56-1.6-1.7-.18-2.06.76-.38.26-.76.51-1.14.77-.93.72-1.86,1.44-2.79,2.16-3.32,1.4-5.57,4.07-7.83,6.73-.6.56-1.19,1.11-1.79,1.67-.55.55-1.14,1.07-1.66,1.66-6.32,7.11-11.38,5.52-15.11-4.77l-.03-.37c1.52-3.04,4.94-4.18,6.57-7.11.48-.27.96-.53,1.44-.79,7.79-4.85,15.95-9.16,23.15-14.87,1.67-1.33,3.5-2.49,4.36-4.65,1.91-1.43,3.82-2.86,5.73-4.29,2.02.16,3.25-1.08,4.56-2.2,1.93-1.65,3.87-3.32,6.55-3.69,3.31-.46,5.15-2.52,6.22-5.54,2.77.39,2.66-2.98,4.69-3.56,2.2.77,3.68-.06,5.28-1.3,3.47-2.69,7.01-5.36,10.87-7.46,4.62-2.52,8.18-1.19,11.37,3.53.03.43.05.86.07,1.28.26.1.53.23.81.36.33.58.66,1.17,1,1.76-1.14,3.05-2.47,6.05-3.39,9.17-1.51,5.17-4.67,9.84-4.7,15.46-.26.17-.7.31-.74.52-.85,4.34-3.68,7.66-5.77,11.35-.16.4-.33.8-.5,1.2-2.12,2.44-1.55,6.23-3.76,8.41-4.44,4.38-4.53,10.44-6.75,15.65-.4.9-.8,1.8-1.2,2.71-2.68,1.98-3.3,4.79-3.18,7.9-.37.07-.75.15-1.13.22-.23.46-.46.93-.69,1.39-1.08.71-1.66,1.7-1.75,2.99-2.17-.54-1.63.91-1.51,2.04-.22.49-.45.98-.67,1.46-.51,1.29-1.01,2.57-1.52,3.85-2.35,3.46-3.13,7.46-3.93,11.45-.05.18-.11.35-.16.53,4.13-2.14,8.2-4.39,12-7.08,1.61-1.14,3.38-2.11,4.24-4.13,1.85-1.22,3.7-2.44,5.55-3.67,1.92.34,3.12-.76,4.4-1.74,1.86-1.43,3.74-2.89,6.31-3.01,3.15-.15,4.95-2,6.03-4.83,2.63.62,2.6-2.67,4.55-3.05,2.08.94,3.51.27,5.05-.8,3.36-2.32,6.79-4.6,10.51-6.3,4.45-2.04,7.81-.43,10.76,4.45.02.62.04,1.25.06,1.87Z"/></g><g id="Layer_1-2"><path class="cls-1" d="m956.5,357.99c2.03,8.06,1.23,15.27-.94,22.08-6.32,5.11-15.73,6.71-23.86,4.41-3.12-2.28-5.66-4.39-6.89-8.63-.65-2.22-1.02-4.53-1.35-6.84.15-.7.32-1.39.43-2.11,3.02-16.42,9.49-19.8,26.19-15.05l.04.25c-.89,5.25,3.27,5,6.38,5.89Z"/><path class="cls-1" d="m980.9,216.84c-2.36,3.82-4.79,7.62-7.26,11.41.42,1.61.8,3.21,1.21,4.81-.5,1.35-.98,2.73-1.45,4.12-5.23,7.49-11.02,14.58-16.4,21.96-.8.71-1.6,1.46-2.32,2.23l.02.02c-2.66,2.83-4.72,5.87-6.38,9.05-6.32,6.83-10.22,15.24-12.49,24.94,1.89,6.68,4.78,13.15,8.35,19.58,5.95,10.7,3.85,15.63-7.8,20.72l-.13-.11c-1.97-3.41-4.22-1.3-6.39-.36-11.65-8.6-12.07-21.95-15.01-34.22-.17-.71-.34-1.42-.54-2.12.15-.36.3-.72.46-1.08.56-.81.43-1.54-.32-2.15-.05-.21-.09-.43-.14-.65.12-1.04.17-2.08.15-3.11.25-.72.5-1.44.75-2.16,1.17-3.38,2.34-6.77,3.5-10.14.26-.38.33-.8.26-1.25,1.69-3.59,3.37-7.2,5.05-10.82.19-.25.28-.56.27-.88,4.06-6.36,8.13-12.69,12.19-19.05.5-.71.98-1.44,1.47-2.15,1.31-.25,2.68-.41,3.87-.85h.01c1.15-.43,2.13-1.11,2.7-2.4.75-.66,1.39-1.39,1.9-2.19.6-.96,1.01-2.04,1.18-3.24.66-1.5,1.31-3.03,1.95-4.54.17-1,.33-2,.5-3,5.21-5.03,7.35-10.89,10.55-16.45h0c0-.4,0-.77,0-1.15-.25-14.15-5.97-25.06-14.67-34.82-11.14-8.14-23.41-9.09-36.96-5.97-14.27,3.28-24.41,11.58-33.15,22.59-6.25,7.85-10.62,7.8-18.11.58l.05-.15c1.94-2.52-.33-3.56-1.74-4.91,3.13-12.65,14.84-16.8,23.58-23.9,8.29-1.34,13.8-8.62,21.93-10.3,1.16,0,2.34.03,3.52.04.78.17,1.3-.15,1.52-.92.54-.37,1.05-.72,1.56-1.09,3.98-.26,7.94-.5,11.93-.73.35.08.71.03,1.02-.18,3.24.15,6.51.29,9.76.44.26.05.53.03.76-.07,6.07,1.1,12.14,2.19,18.21,3.27.53.11,1.05.22,1.58.33.6-.46,1.2-1.02,1.81-1.47,12.84,4.62,14.67,17.31,20.29,27.21-.42,8.8,6.13,15.36,6.1,24.03-.13.53-.25,1.07-.37,1.6.27.55.61,1.08,1.01,1.6.04.31.11.76.19,1.31.24,1.4.38,2.83.49,4.29l-.02-.02c.05.83.02,1.65.01,2.47Z"/><path class="cls-1" d="m944.53,242.18c-.57,1.29-1.55,1.97-2.7,2.4.07-.19.14-.37.2-.56.92-.56,1.76-1.17,2.5-1.84Z"/><path class="cls-1" d="m914.31,294.99c-.12-.54-.25-1.08-.36-1.62.17-.5.34-.99.51-1.49.02,1.03-.03,2.07-.15,3.11Z"/><path class="cls-1" d="m914.31,298.87c.2.7.37,1.41.54,2.12-.46-.06-.91-.11-1.37-.17.28-.66.55-1.31.83-1.95Z"/><path class="cls-1" d="m946.43,239.99c-.51.8-1.15,1.53-1.9,2.19.19-.42.34-.9.43-1.46l.14-.55c.45-.05.89-.11,1.33-.18Z"/><path class="cls-1" d="m914.77,297.79c-.16.36-.31.72-.46,1.08-.13-.49-.27-.98-.41-1.47.18-.81.32-1.61.41-2.41.05.22.09.44.14.65.75.61.88,1.34.32,2.15Z"/><path class="cls-1" d="m914.46,291.88c0-.76-.04-1.52-.1-2.27.28.04.57.07.85.11-.25.72-.5,1.44-.75,2.16Z"/><path class="cls-1" d="m956.52,357.99h-.02v-.02l.02.02Z"/></g></g></g></svg>